<svg width="130" height="68" viewBox="0 0 130 68" fill="none" xmlns="http://www.w3.org/2000/svg">
<path fill-rule="evenodd" clip-rule="evenodd" d="M29.8924 0.459707C26.5149 2.2202 27.6687 7.30047 31.4596 7.35887C33.6241 7.39203 35.1579 5.88555 35.1579 3.72592C35.1579 0.818794 32.439 -0.867487 29.8924 0.459707ZM0.0499135 13.8635C0.0526725 18.5977 0.167799 23.2742 0.30575 24.2561C1.40785 32.0928 9.69468 37.0081 16.9752 34.1433C20.3906 32.7995 23.1765 29.8261 24.4053 26.2127C25.1083 24.1454 25.0955 20.8484 24.3757 18.6497C23.0024 14.4531 19.5579 11.1918 15.4648 10.2127C12.8673 9.59144 10.0682 9.81944 7.95575 10.8245L6.31539 11.6052V8.43052V5.25612H3.18014H0.0448969L0.0499135 13.8635ZM28.3875 22.3434V34.585H31.5228H34.658V22.3434V10.1018H31.5228H28.3875V22.3434ZM38.3368 10.2719C38.2447 10.3652 38.1695 11.7424 38.1695 13.3323V16.2226H43.4367C46.3337 16.2226 48.7039 16.285 48.7039 16.3616C48.7039 16.4381 46.2772 19.1616 43.3113 22.414L37.9187 28.3275V31.4562V34.585H47.5752H57.2318V31.5292V28.4736L51.5068 28.405L45.7819 28.3367L51.256 22.3475L56.7302 16.358V13.23V10.1018H47.6171C42.6047 10.1018 38.4286 10.1783 38.3368 10.2719ZM10.3285 16.3009C9.09748 16.6954 6.99787 18.906 6.62039 20.2052C5.48668 24.1069 7.52409 27.9036 11.2006 28.7401C13.992 29.3754 16.8104 28.0645 18.0901 25.5356C18.9562 23.8249 18.9931 20.9565 18.1694 19.374C17.4756 18.0412 15.8892 16.6477 14.6281 16.2636C13.4467 15.9035 11.5159 15.9204 10.3285 16.3009ZM86.5697 27.6761C84.9765 28.1882 83.8187 29.6623 83.8187 31.1788C83.8187 32.2481 84.7246 33.9063 85.594 34.4286C86.659 35.0683 88.6801 35.0573 89.5361 34.4075C90.7338 33.498 91.189 32.6342 91.189 31.2695C91.189 28.8138 88.8035 26.9579 86.5697 27.6761ZM78.7428 27.9625C74.2321 28.7348 71.6178 31.204 70.6311 35.6235L70.1799 37.6454H68.3459H66.5121V40.7058V43.7662H68.2679H70.0236V52.9474V62.1286H73.1556H76.2878L76.3535 53.0112L76.4195 43.8937L78.6142 43.82L80.8088 43.7463V40.6958V37.6454H78.6769C76.6949 37.6454 76.5449 37.6087 76.5449 37.1226C76.5449 35.7028 77.7117 34.5523 79.6568 34.0543L80.8088 33.7594V30.7291C80.8088 27.3341 80.9907 27.5777 78.7428 27.9625ZM95.3564 45.0414V62.1286H98.3662H101.376V45.0414V27.9541H98.3662H95.3564V45.0414ZM9.82687 37.6704C6.02093 38.426 2.22477 41.905 0.739918 45.998C0.239784 47.3767 0.20191 48.0538 0.10384 57.3467L0 67.2293H3.15757H6.31539V64.0141C6.31539 61.5372 6.38737 60.831 6.62891 60.9391C9.76491 62.3436 10.2347 62.4668 12.4605 62.4696C20.4268 62.4793 26.3303 55.3886 24.8708 47.5639C24.024 43.023 20.2384 38.98 15.7106 37.7808C14.1174 37.359 11.6305 37.3123 9.82687 37.6704ZM49.8587 37.7966C45.9447 38.7596 42.4006 42.1942 41.0479 46.3349C40.4921 48.0367 40.4823 51.5712 41.0286 53.4575C42.1771 57.4248 45.36 60.6566 49.4564 62.0141C51.3024 62.6262 54.9014 62.6188 56.7354 61.9993C61.9989 60.2217 65.5088 55.4296 65.5088 50.0209C65.5088 46.406 64.3122 43.5448 61.7302 40.9863C58.6213 37.9055 54.2212 36.7234 49.8587 37.7966ZM113.917 37.6694C112.133 38.0221 109.786 39.3766 108.155 40.9937C102.446 46.6573 103.391 56.1325 110.104 60.5252C114.955 63.6999 121.518 62.9993 125.675 58.8637C126.885 57.6602 128.214 55.703 128.214 55.1254C128.214 55.0496 126.566 54.9877 124.553 54.9877C121.238 54.9877 120.822 55.0382 120.153 55.5225C119.747 55.8165 118.714 56.1782 117.857 56.3263C115.24 56.7788 112.518 55.6477 111.525 53.6949C111.323 53.2976 111.158 52.8523 111.158 52.7051C111.158 52.523 114.043 52.4373 120.164 52.4373H129.17L129.33 51.2259C129.419 50.5595 129.37 49.1601 129.223 48.1158C128.211 40.9598 121.263 36.2172 113.917 37.6694ZM35.5359 37.9989C32.8857 38.654 30.5569 40.4574 29.3903 42.757C28.2659 44.9738 28.0953 46.3601 27.9569 54.4138L27.8239 62.1286H30.9732H34.1225L34.2063 54.6689C34.2803 48.0974 34.3452 47.0796 34.7533 46.1219C35.3089 44.8187 36.333 44.0179 37.6796 43.8343L38.6711 43.6991V40.6721V37.6454L37.7306 37.6671C37.2134 37.6791 36.2256 37.8282 35.5359 37.9989ZM84.5711 49.887V62.1286H87.581H90.5908V49.887V37.6454H87.581H84.5711V49.887ZM9.95052 44.1107C7.47092 45.2849 6.1506 47.6509 6.37684 50.5149C6.7463 55.1955 11.4978 57.8785 15.6256 55.7372C16.8185 55.1185 18.197 53.4684 18.5652 52.2185C19.0044 50.7284 18.9173 48.3866 18.3791 47.2091C17.7989 45.9398 16.2697 44.4272 15.0394 43.9062C13.6418 43.3143 11.4464 43.4025 9.95052 44.1107ZM50.2578 44.1717C47.872 45.3806 46.4686 48.0133 46.7809 50.6944C47.1814 54.1318 49.6636 56.3595 53.0933 56.3595C55.0963 56.3595 56.3381 55.8362 57.6579 54.4363C59.7826 52.1826 59.8702 48.3377 57.8581 45.6552C56.2975 43.5749 52.7878 42.8899 50.2578 44.1717ZM114.832 43.7731C113.493 44.1811 111.697 45.7669 111.258 46.9284C111.12 47.2956 111.692 47.3367 116.929 47.3367H122.753L122.315 46.6353C121.549 45.4089 120.889 44.806 119.594 44.15C118.271 43.4795 116.305 43.324 114.832 43.7731Z" fill="#FCFCFC"/>
</svg>
