<svg width="264" height="255" viewBox="0 0 264 255" fill="none" xmlns="http://www.w3.org/2000/svg">
<rect x="38" width="252" height="240" rx="20" transform="rotate(26.6884 38 0)" fill="#5167FB"/>
<path fill-rule="evenodd" clip-rule="evenodd" d="M76.9775 114.401C78.0301 111.571 84.4947 98.8798 91.3436 86.1968L103.796 63.1373L112.193 67.678L120.59 72.2187L115.992 80.7203L111.394 89.2227L116.918 89.5076C124.031 89.8751 131.858 93.3184 137.915 98.7441C147.459 107.294 151.961 121.017 149.561 134.245C148.305 141.176 143.564 150.025 138.687 154.544C130.163 162.441 118.396 166.37 107.302 165.022C83.6546 162.151 68.5795 136.985 76.9775 114.401ZM99.7562 112.697C102.649 109.764 111.473 106.884 115.342 107.611C119.073 108.311 124.268 111.062 126.911 113.738C129.732 116.593 131.963 122.623 131.89 127.197C131.804 132.628 127.552 140.257 122.754 143.584C115.665 148.504 106.218 147.933 99.662 142.188C91.0271 134.623 91.0691 121.505 99.7562 112.697ZM46.6522 173.258C56.5567 164.447 71.762 160.628 83.0494 164.116C88.3985 165.769 94.9912 169.496 98.6472 172.933C109.037 182.702 113.32 199.013 109.011 212.4C101.588 235.47 75.508 245.91 54.1868 234.347C48.2298 231.116 47.15 230.106 40.7852 221.802C40.295 221.163 39.0794 222.95 35.4922 229.584L30.8357 238.195L22.3785 233.621L13.9219 229.048L28.5126 202.731C42.2339 177.985 43.316 176.227 46.6522 173.258ZM55.2073 193.519C58.7492 185.521 65.7118 181.097 74.0532 181.543C79.0852 181.813 85.0927 184.756 87.9784 188.366C90.5187 191.543 92.4237 197.809 92.1391 202.048C91.8754 205.981 88.717 212.379 85.3827 215.734C82.5863 218.548 76.5047 220.971 72.4138 220.9C58.2578 220.657 49.4179 206.59 55.2073 193.519Z" fill="#8191FF"/>
</svg>
