<svg width="1600" height="108" viewBox="0 0 1600 108" fill="none" xmlns="http://www.w3.org/2000/svg">
<path fill-rule="evenodd" clip-rule="evenodd" d="M819.327 3.56146C830.479 7.83733 841.71 13 853.654 13H1590C1595.52 13 1600 17.4772 1600 23C1600 56.1371 1573.14 83 1540 83H872.973C855.897 83 840.728 93.3483 825.72 101.493C818.073 105.643 809.312 108 800 108C790.688 108 781.927 105.643 774.28 101.493C759.272 93.3483 744.103 83 727.027 83H60C26.863 83 0 56.1371 0 23C0 17.4772 4.47715 13 10 13H746.346C758.29 13 769.521 7.83733 780.673 3.56145C786.674 1.2607 793.19 0 800 0C806.81 0 813.326 1.2607 819.327 3.56146Z" fill="#3551E6"/>
</svg>
