<svg width="23" height="23" viewBox="0 0 23 23" fill="none" xmlns="http://www.w3.org/2000/svg">
<g clip-path="url(#clip0_1057_2956)">
<path d="M19.6354 3.36462C15.1483 -1.12154 7.85098 -1.12154 3.36388 3.36462C-1.12129 7.85078 -1.12129 15.15 3.36388 19.6361C5.60743 21.8787 8.55375 22.9995 11.5001 22.9995C14.4465 22.9995 17.3918 21.8787 19.6354 19.6361C24.1215 15.15 24.1215 7.85078 19.6354 3.36462ZM16.2451 14.8901C16.62 15.265 16.62 15.871 16.2451 16.2458C16.0581 16.4328 15.8127 16.5268 15.5672 16.5268C15.3218 16.5268 15.0763 16.4328 14.8894 16.2458L11.5001 12.8556L8.11174 16.2449C7.92383 16.4318 7.67835 16.5258 7.43387 16.5258C7.18843 16.5258 6.94295 16.4318 6.75599 16.2449C6.38112 15.87 6.38112 15.2631 6.75599 14.8892L10.1443 11.4999L6.75505 8.11059C6.38018 7.73572 6.38018 7.12882 6.75505 6.75489C7.12897 6.38002 7.73588 6.38002 8.11075 6.75489L11.5 10.1442L14.8893 6.75489C15.2642 6.38002 15.8702 6.38002 16.245 6.75489C16.6199 7.12882 16.6199 7.73572 16.245 8.11059L12.8557 11.4999L16.2451 14.8901Z" fill="#C8D0E1"/>
</g>
<defs>
<clipPath id="clip0_1057_2956">
<rect width="23" height="23" fill="white"/>
</clipPath>
</defs>
</svg>
