<svg width="73" height="73" viewBox="0 0 73 73" fill="none" xmlns="http://www.w3.org/2000/svg">
<rect width="73" height="73" rx="10" fill="white" fill-opacity="0.1"/>
<rect x="3" y="3" width="67" height="67" rx="10" fill="url(#paint0_radial_1057_2636)"/>
<path d="M49.8008 25H42.6082C42.2903 25 41.9854 25.1263 41.7605 25.3511C41.5357 25.5759 41.4094 25.8808 41.4094 26.1988C41.4094 26.5167 41.5357 26.8216 41.7605 27.0464C41.9854 27.2712 42.2903 27.3975 42.6082 27.3975H46.907L36.9656 37.339C36.8511 37.4495 36.7598 37.5818 36.6969 37.7281C36.6341 37.8743 36.601 38.0316 36.5997 38.1908C36.5983 38.35 36.6286 38.5078 36.6889 38.6552C36.7492 38.8025 36.8382 38.9363 36.9507 39.0489C37.0633 39.1614 37.1971 39.2505 37.3444 39.3107C37.4918 39.371 37.6496 39.4013 37.8088 39.4C37.968 39.3986 38.1253 39.3655 38.2715 39.3027C38.4178 39.2398 38.5501 39.1485 38.6606 39.034L48.6021 29.0926V33.3914C48.6021 33.7093 48.7284 34.0143 48.9532 34.2391C49.178 34.4639 49.4829 34.5902 49.8008 34.5902C50.1188 34.5902 50.4237 34.4639 50.6485 34.2391C50.8733 34.0143 50.9996 33.7093 50.9996 33.3914V26.1988C50.9996 25.8808 50.8733 25.5759 50.6485 25.3511C50.4237 25.1263 50.1188 25 49.8008 25Z" fill="white"/>
<g filter="url(#filter1_d_1057_2636)">
<path d="M47.4 35.306C47.0817 35.306 46.7765 35.4324 46.5515 35.6575C46.3264 35.8825 46.2 36.1877 46.2 36.506V45.1016C46.1997 45.499 46.0417 45.88 45.7607 46.1611C45.4797 46.4421 45.0986 46.6001 44.7012 46.6004H30.8988C30.5014 46.6001 30.1203 46.4421 29.8393 46.1611C29.5583 45.88 29.4003 45.499 29.4 45.1016V31.2992C29.4003 30.9018 29.5583 30.5207 29.8393 30.2397C30.1203 29.9587 30.5014 29.8007 30.8988 29.8004H38.3652C38.6835 29.8004 38.9887 29.674 39.2137 29.4489C39.4388 29.2239 39.5652 28.9187 39.5652 28.6004C39.5652 28.2821 39.4388 27.9769 39.2137 27.7519C38.9887 27.5268 38.6835 27.4004 38.3652 27.4004H30.8988C29.8652 27.4017 28.8742 27.8128 28.1433 28.5437C27.4124 29.2746 27.0013 30.2656 27 31.2992V45.0992C27.0006 46.1332 27.4115 47.1248 28.1425 47.8562C28.8734 48.5876 29.8647 48.9991 30.8988 49.0004H44.6988C45.7329 48.9998 46.7244 48.5889 47.4558 47.8579C48.1872 47.1269 48.5987 46.1356 48.6 45.1016V36.506C48.6 36.1877 48.4736 35.8825 48.2485 35.6575C48.0235 35.4324 47.7183 35.306 47.4 35.306Z" fill="white"/>
</g>
<defs>
<filter id="filter1_d_1057_2636" x="23" y="27.4004" width="29.5996" height="29.5996" filterUnits="userSpaceOnUse" color-interpolation-filters="sRGB">
<feFlood flood-opacity="0" result="BackgroundImageFix"/>
<feColorMatrix in="SourceAlpha" type="matrix" values="0 0 0 0 0 0 0 0 0 0 0 0 0 0 0 0 0 0 127 0" result="hardAlpha"/>
<feOffset dy="4"/>
<feGaussianBlur stdDeviation="2"/>
<feComposite in2="hardAlpha" operator="out"/>
<feColorMatrix type="matrix" values="0 0 0 0 0.239216 0 0 0 0 0.321569 0 0 0 0 0.882353 0 0 0 0.55 0"/>
<feBlend mode="normal" in2="BackgroundImageFix" result="effect1_dropShadow_1057_2636"/>
<feBlend mode="normal" in="SourceGraphic" in2="effect1_dropShadow_1057_2636" result="shape"/>
</filter>
<radialGradient id="paint0_radial_1057_2636" cx="0" cy="0" r="1" gradientUnits="userSpaceOnUse" gradientTransform="translate(36.5 36.5) rotate(90) scale(77.1814)">
<stop stop-color="#3D52E1"/>
<stop offset="1" stop-color="#BAC3FF"/>
</radialGradient>
</defs>
</svg>
