<svg width="73" height="73" viewBox="0 0 73 73" fill="none" xmlns="http://www.w3.org/2000/svg">
<rect width="73" height="73" rx="10" fill="white" fill-opacity="0.1"/>
<rect x="3" y="3" width="67" height="67" rx="10" fill="url(#paint0_radial_1057_2623)"/>
<g clip-path="url(#clip0_1057_2623)">
<g filter="url(#filter1_d_1057_2623)">
<path d="M38.2352 32.0594H39.5898L38.2352 33.4141V32.0594ZM31.1164 40.0945H31.5613L33.4008 38.2551H31.6875L32.7434 34.8285L33.7129 37.943L35.4129 36.243L33.8656 32.0594H31.6211L27.9953 41.9406H29.7086L30.9172 40.732L31.1164 40.0945ZM43.023 34.6227C43.3883 35.1074 43.5742 35.8246 43.5742 36.7809V37.2059C43.5742 38.1688 43.3883 38.8859 43.023 39.3773C42.6578 39.8687 42.1332 40.1078 41.4492 40.1078H40.6191V35.7316L38.2352 38.1156V41.9473H41.4891C42.3457 41.9406 43.116 41.7414 43.8133 41.3363C44.5105 40.9312 45.0484 40.3734 45.427 39.6496C45.8121 38.9324 45.998 38.1223 45.998 37.2191V36.7609C45.9914 35.8645 45.7988 35.0543 45.407 34.3371C45.0152 33.6133 44.4707 33.0555 43.7734 32.6637C43.7535 32.657 43.7402 32.6438 43.7203 32.6371L42.2859 34.0715C42.5848 34.1777 42.8238 34.3703 43.023 34.6227ZM37.518 41.9406L36.6812 39.6695L34.8285 41.5223L34.9613 41.9406H37.518ZM51.2773 37C51.2773 40.8117 49.7898 44.3977 47.0938 47.0938C44.3977 49.7898 40.8117 51.2773 37 51.2773C33.1883 51.2773 29.6023 49.7898 26.9062 47.0938C24.2102 44.3977 22.7227 40.8117 22.7227 37C22.7227 33.1883 24.2102 29.6023 26.9062 26.9062C29.6023 24.2102 33.1883 22.7227 37 22.7227C40.8117 22.7227 44.3977 24.2102 47.0938 26.9062C49.7898 29.6023 51.2773 33.1883 51.2773 37ZM27.6434 44.9488L44.9488 27.6434C42.8039 25.8172 40.0281 24.7148 37 24.7148C30.2266 24.7148 24.7148 30.2266 24.7148 37C24.7148 40.0281 25.8172 42.8039 27.6434 44.9488ZM49.2852 37C49.2852 33.9719 48.1828 31.1961 46.3566 29.0512L29.0512 46.3566C31.1961 48.1828 33.9719 49.2852 37 49.2852C43.7734 49.2852 49.2852 43.7734 49.2852 37Z" fill="white"/>
</g>
</g>
<defs>
<filter id="filter1_d_1057_2623" x="18.7227" y="22.7227" width="36.5547" height="36.5547" filterUnits="userSpaceOnUse" color-interpolation-filters="sRGB">
<feFlood flood-opacity="0" result="BackgroundImageFix"/>
<feColorMatrix in="SourceAlpha" type="matrix" values="0 0 0 0 0 0 0 0 0 0 0 0 0 0 0 0 0 0 127 0" result="hardAlpha"/>
<feOffset dy="4"/>
<feGaussianBlur stdDeviation="2"/>
<feComposite in2="hardAlpha" operator="out"/>
<feColorMatrix type="matrix" values="0 0 0 0 0.239216 0 0 0 0 0.321569 0 0 0 0 0.882353 0 0 0 0.55 0"/>
<feBlend mode="normal" in2="BackgroundImageFix" result="effect1_dropShadow_1057_2623"/>
<feBlend mode="normal" in="SourceGraphic" in2="effect1_dropShadow_1057_2623" result="shape"/>
</filter>
<radialGradient id="paint0_radial_1057_2623" cx="0" cy="0" r="1" gradientUnits="userSpaceOnUse" gradientTransform="translate(36.5 36.5) rotate(90) scale(77.1814)">
<stop stop-color="#3D52E1"/>
<stop offset="1" stop-color="#BAC3FF"/>
</radialGradient>
<clipPath id="clip0_1057_2623">
<rect width="34" height="34" fill="white" transform="translate(20 20)"/>
</clipPath>
</defs>
</svg>
