<svg width="73" height="73" viewBox="0 0 73 73" fill="none" xmlns="http://www.w3.org/2000/svg">
<rect width="73" height="73" rx="10" fill="white" fill-opacity="0.1"/>
<rect x="3" y="3" width="67" height="67" rx="10" fill="url(#paint0_radial_1057_2573)"/>
<path d="M40.2538 41.248H33.2949C32.7704 41.248 32.3438 41.6751 32.3438 42.2001V44.3364C32.3438 44.8614 32.7704 45.2885 33.2949 45.2885H40.2539C40.7784 45.2885 41.2051 44.8614 41.2051 44.3364V42.2001C41.205 41.6751 40.7783 41.248 40.2538 41.248ZM39.9821 44.0644H33.5666V42.4721H39.9821V44.0644Z" fill="white"/>
<g filter="url(#filter1_d_1057_2573)">
<path d="M52.686 35.9439L52.6959 35.939L48.0456 26.8758C47.6697 26.1432 46.9191 25.6882 46.0865 25.6882H45.2027V24.8457C45.2027 24.5081 44.9251 24.2344 44.5826 24.2344H29.4175C29.075 24.2344 28.7974 24.5081 28.7974 24.8457V25.6882H27.9136C27.081 25.6882 26.3304 26.1432 25.9544 26.8758L21.3041 35.939L21.314 35.9439C21.1148 36.2673 21 36.6466 21 37.0518V46.6267C21 47.8073 21.9744 48.7677 23.172 48.7677H50.8281C52.0257 48.7677 53 47.8072 53 46.6267V37.0518C53 36.6466 52.8852 36.2673 52.686 35.9439ZM45.2026 27.0467H46.0864C46.3964 27.0467 46.6758 27.2162 46.8159 27.489L50.624 34.9108H48.0346V32.6271C48.0346 32.2895 47.7569 32.0158 47.4144 32.0158H46.6472V28.7364C46.6472 28.3988 46.3696 28.1251 46.0271 28.1251H45.2026V27.0467ZM46.7944 33.2383V34.9107H43.5219C42.9604 34.9107 42.4486 35.2368 42.2179 35.7413L41.3244 37.695C41.3159 37.7135 41.2972 37.7254 41.2766 37.7254H32.7234C32.7029 37.7254 32.6842 37.7135 32.6757 37.695L31.7823 35.7414C31.5515 35.2368 31.0396 34.9107 30.4781 34.9107H27.2057V33.2383H46.7944ZM30.0376 25.457H43.9624V28.1251H30.0376V25.457ZM45.407 29.3477V32.0157H28.593V29.3477H45.407ZM27.1841 27.489C27.3241 27.2161 27.6036 27.0467 27.9136 27.0467H28.7974V28.1251H27.9729C27.6304 28.1251 27.3527 28.3987 27.3527 28.7364V32.0157H26.5856C26.2431 32.0157 25.9654 32.2894 25.9654 32.627V34.9107H23.376L27.1841 27.489ZM50.8281 47.4092H23.172C22.7342 47.4092 22.3781 47.0581 22.3781 46.6267V37.0518C22.3781 36.6203 22.7342 36.2692 23.172 36.2692H30.4781C30.4986 36.2692 30.5174 36.2812 30.5259 36.2997L31.4194 38.2533C31.6501 38.7579 32.1619 39.0839 32.7234 39.0839H41.2766C41.8381 39.0839 42.3499 38.7578 42.5806 38.2534L43.4741 36.2997V36.2997C43.4826 36.2812 43.5013 36.2692 43.5219 36.2692H50.828C51.2657 36.2692 51.6218 36.6204 51.6218 37.0518V46.6267H51.6219C51.6219 47.0582 51.2658 47.4092 50.8281 47.4092Z" fill="white"/>
</g>
<defs>
<filter id="filter1_d_1057_2573" x="18.0419" y="24.2344" width="37.9161" height="30.4493" filterUnits="userSpaceOnUse" color-interpolation-filters="sRGB">
<feFlood flood-opacity="0" result="BackgroundImageFix"/>
<feColorMatrix in="SourceAlpha" type="matrix" values="0 0 0 0 0 0 0 0 0 0 0 0 0 0 0 0 0 0 127 0" result="hardAlpha"/>
<feOffset dy="2.95806"/>
<feGaussianBlur stdDeviation="1.47903"/>
<feComposite in2="hardAlpha" operator="out"/>
<feColorMatrix type="matrix" values="0 0 0 0 0.239216 0 0 0 0 0.321569 0 0 0 0 0.882353 0 0 0 0.55 0"/>
<feBlend mode="normal" in2="BackgroundImageFix" result="effect1_dropShadow_1057_2573"/>
<feBlend mode="normal" in="SourceGraphic" in2="effect1_dropShadow_1057_2573" result="shape"/>
</filter>
<radialGradient id="paint0_radial_1057_2573" cx="0" cy="0" r="1" gradientUnits="userSpaceOnUse" gradientTransform="translate(36.5 36.5) rotate(90) scale(77.1814)">
<stop stop-color="#3D52E1"/>
<stop offset="1" stop-color="#BAC3FF"/>
</radialGradient>
</defs>
</svg>
