<svg width="73" height="73" viewBox="0 0 73 73" fill="none" xmlns="http://www.w3.org/2000/svg">
<rect width="73" height="73" rx="10" fill="white" fill-opacity="0.1"/>
<rect x="3" y="3" width="67" height="67" rx="10" fill="url(#paint0_radial_1057_2612)"/>
<g filter="url(#filter1_d_1057_2612)">
<path d="M50.6032 37.6624C50.1544 36.9691 49.3928 36.5566 48.5633 36.5566C48.0964 36.5566 47.6385 36.6926 47.2442 36.9464C46.2197 37.6126 45.8661 38.9223 46.3647 40.0009L43.5678 41.8998C42.9831 41.075 42.1898 40.4043 41.2605 39.9783L43.595 33.3435C44.0846 33.484 44.6014 33.5565 45.1317 33.5565C46.4191 33.5565 47.6159 33.135 48.5769 32.4144C48.5995 32.3963 48.6177 32.3827 48.6358 32.3646C50.0139 31.3086 50.9069 29.6499 50.9069 27.7737C50.9069 24.5923 48.314 22 45.1317 22C42.7337 22 40.6712 23.4638 39.7963 25.5485L38.2324 24.8959C38.3276 24.3793 38.2505 23.849 38.0012 23.3732C37.7111 22.7976 37.2079 22.3762 36.596 22.1767C36.3557 22.0952 36.1019 22.0589 35.8525 22.0589C35.4763 22.0589 35.0955 22.1496 34.751 22.3218C34.1753 22.6163 33.7537 23.1149 33.5543 23.7312C33.3548 24.3476 33.4092 24.9956 33.7039 25.5712C33.9985 26.1467 34.4971 26.5727 35.1136 26.7722C35.3539 26.8492 35.6032 26.89 35.8525 26.89C36.2333 26.89 36.6096 26.7948 36.9541 26.6226C37.4119 26.3869 37.7746 26.0198 38.0057 25.5712L39.5651 26.2193C39.4201 26.7132 39.3475 27.2344 39.3475 27.7737C39.3475 28.4535 39.4654 29.1016 39.6784 29.7043L34.3022 32.0474C33.3503 30.1666 31.3965 28.875 29.1481 28.875C28.4092 28.875 27.693 29.0155 27.0402 29.2738L25.7166 26.5592C26.1563 26.2963 26.4963 25.893 26.6957 25.4035C26.945 24.8008 26.9405 24.1391 26.6912 23.5363C26.3195 22.6254 25.431 22.0363 24.4428 22.0363C24.1209 22.0363 23.8036 22.0997 23.5044 22.2266C22.2578 22.7387 21.6685 24.1753 22.1898 25.4171C22.4392 26.0198 22.9106 26.4912 23.5135 26.7359C23.8082 26.8583 24.1255 26.9217 24.4428 26.9217C24.6513 26.9217 24.8598 26.8945 25.0638 26.8401L26.3965 29.5684C24.5969 30.5518 23.3684 32.4598 23.3684 34.6442C23.3684 36.5113 24.2615 38.1791 25.644 39.235C25.6622 39.2532 25.6848 39.2713 25.7075 39.2849C26.6685 40.0009 27.8607 40.4224 29.1481 40.4224C30.431 40.4224 31.6232 40.0009 32.5842 39.2849C32.6114 39.2713 32.6341 39.2532 32.6567 39.2305C32.7338 39.1716 32.8063 39.1127 32.8743 39.0492L34.6649 41.2472C33.6812 42.285 33.0738 43.6854 33.0738 45.2263C33.0738 45.5934 33.11 45.9514 33.178 46.3049L30.9885 46.7853C30.644 45.8381 29.7374 45.181 28.7039 45.181C28.5452 45.181 28.3866 45.1946 28.2279 45.2263C27.5933 45.3532 27.0448 45.7203 26.6821 46.2641C26.324 46.8034 26.1926 47.4515 26.3195 48.0814C26.5507 49.2189 27.5479 50.0392 28.7039 50.0392C28.8671 50.0392 29.0212 50.0211 29.1798 49.9894C29.8145 49.8625 30.3675 49.4954 30.7256 48.9561C31.0203 48.5165 31.1608 47.9998 31.1291 47.4787L33.3548 46.9937C33.7175 48.1267 34.4246 49.1056 35.3448 49.8081C35.3448 49.8081 35.3448 49.8081 35.3494 49.8126C35.3766 49.8308 35.4038 49.8534 35.431 49.8715C36.392 50.5831 37.5751 51 38.8534 51C40.1363 51 41.3285 50.5785 42.2895 49.8625C42.3167 49.8489 42.3394 49.8308 42.362 49.8081C43.7401 48.7521 44.6286 47.0935 44.6286 45.2218C44.6286 44.2383 44.3838 43.3093 43.9441 42.498L46.7546 40.5901C47.2124 41.1067 47.8652 41.4058 48.5723 41.4058C49.0392 41.4058 49.4971 41.2654 49.8915 41.0116C50.4354 40.6626 50.8071 40.1142 50.9431 39.4798C51.0837 38.8498 50.9613 38.2018 50.6032 37.6624ZM40.4445 46.5315C40.8933 46.11 41.1698 45.5118 41.1698 44.8501C41.1698 43.5767 40.1272 42.5343 38.8534 42.5343C37.5751 42.5343 36.537 43.5767 36.537 44.8501C36.537 45.5118 36.8135 46.1055 37.2623 46.5315C36.1427 46.9076 35.4899 47.6826 35.304 48.8292C34.6694 48.2083 34.198 47.4198 33.9622 46.5406C33.9622 46.527 33.9577 46.5134 33.9577 46.5043C33.9532 46.4816 33.9486 46.4635 33.9396 46.4454C33.935 46.4408 33.935 46.4363 33.935 46.4318C33.8398 46.0466 33.79 45.6432 33.79 45.2263C33.79 42.4346 36.0611 40.1596 38.858 40.1596C39.5062 40.1596 40.1272 40.2819 40.6984 40.504L40.7029 40.5085H40.7075C41.741 40.9164 42.6068 41.6551 43.1825 42.5887C43.187 42.5932 43.1916 42.5977 43.1916 42.6023C43.654 43.3636 43.9214 44.2655 43.9214 45.2263C43.9214 46.6357 43.3412 47.9092 42.4074 48.8337C42.226 47.6826 41.5642 46.9076 40.4445 46.5315ZM27.0266 30.0488C27.6749 29.7496 28.3911 29.582 29.1526 29.582C31.2379 29.582 33.0284 30.8464 33.8081 32.6456V32.6546C33.8081 32.6592 33.8126 32.6592 33.8126 32.6637C34.0756 33.2755 34.2206 33.9462 34.2206 34.6487C34.2206 36.0581 33.6404 37.3316 32.7066 38.2561C32.5253 37.105 31.868 36.3346 30.7438 35.9539C31.1925 35.537 31.4691 34.9387 31.4691 34.2771C31.4691 32.9991 30.4264 31.9612 29.1526 31.9612C27.8743 31.9612 26.8362 32.9991 26.8362 34.2771C26.8362 34.9387 27.1128 35.5324 27.5615 35.9584C26.4419 36.3346 25.7891 37.105 25.6033 38.2516C24.6694 37.3361 24.0892 36.0627 24.0892 34.6487C24.0847 32.6138 25.295 30.8554 27.0266 30.0488ZM45.1317 22.7115C47.9196 22.7115 50.1952 24.982 50.1952 27.7782C50.1952 29.1832 49.6149 30.4612 48.6857 31.3812C48.4998 30.23 47.8425 29.4641 46.7228 29.088C47.1716 28.6665 47.4481 28.0683 47.4481 27.4066C47.4481 26.1286 46.4055 25.0908 45.1317 25.0908C43.8534 25.0908 42.8153 26.1286 42.8153 27.4066C42.8153 28.0683 43.0919 28.662 43.5406 29.088C42.421 29.4641 41.7682 30.2346 41.5823 31.3812C41.1109 30.9234 40.7301 30.3705 40.4672 29.7542V29.7496C40.2134 29.1424 40.0683 28.4807 40.0683 27.7782C40.0683 27.2118 40.1635 26.6679 40.3312 26.1603C40.3403 26.1377 40.3448 26.115 40.3539 26.0924C41.0474 24.1255 42.9287 22.7115 45.1317 22.7115ZM33.3956 38.5598C34.3476 37.531 34.9278 36.1578 34.9278 34.6487C34.9278 33.9644 34.8099 33.3118 34.5923 32.7045C34.5923 32.7045 34.5923 32.7045 34.5923 32.7L39.964 30.3569C40.3584 31.1455 40.9341 31.8343 41.6322 32.3601C41.6458 32.3782 41.6685 32.3918 41.6866 32.4099C42.0674 32.6909 42.4799 32.9311 42.9241 33.1124L40.5941 39.72C40.0411 39.5432 39.4563 39.4526 38.8534 39.4526C37.4663 39.4526 36.1925 39.9466 35.1907 40.7623L33.3956 38.5598Z" fill="white"/>
</g>
<defs>
<filter id="filter1_d_1057_2612" x="18" y="22" width="37" height="37" filterUnits="userSpaceOnUse" color-interpolation-filters="sRGB">
<feFlood flood-opacity="0" result="BackgroundImageFix"/>
<feColorMatrix in="SourceAlpha" type="matrix" values="0 0 0 0 0 0 0 0 0 0 0 0 0 0 0 0 0 0 127 0" result="hardAlpha"/>
<feOffset dy="4"/>
<feGaussianBlur stdDeviation="2"/>
<feComposite in2="hardAlpha" operator="out"/>
<feColorMatrix type="matrix" values="0 0 0 0 0.239216 0 0 0 0 0.321569 0 0 0 0 0.882353 0 0 0 0.55 0"/>
<feBlend mode="normal" in2="BackgroundImageFix" result="effect1_dropShadow_1057_2612"/>
<feBlend mode="normal" in="SourceGraphic" in2="effect1_dropShadow_1057_2612" result="shape"/>
</filter>
<radialGradient id="paint0_radial_1057_2612" cx="0" cy="0" r="1" gradientUnits="userSpaceOnUse" gradientTransform="translate(36.5 36.5) rotate(90) scale(77.1814)">
<stop stop-color="#3D52E1"/>
<stop offset="1" stop-color="#BAC3FF"/>
</radialGradient>
</defs>
</svg>
