<svg width="73" height="73" viewBox="0 0 73 73" fill="none" xmlns="http://www.w3.org/2000/svg">
<rect width="73" height="73" rx="10" fill="white" fill-opacity="0.1"/>
<rect x="3" y="3" width="67" height="67" rx="10" fill="url(#paint0_radial_1057_2601)"/>
<g filter="url(#filter1_d_1057_2601)">
<path d="M50.5197 26.3936C50.1262 25.8591 49.5463 25.5104 48.888 25.4115L45.7669 24.9355V24.4783C45.7669 23.1118 44.6516 22 43.2809 22H25.486C24.1153 22 23 23.1118 23 24.4783V46.3919C23 47.7585 24.1153 48.8703 25.486 48.8703H26.1744C26.4848 49.0898 26.8455 49.2399 27.2328 49.299L44.827 51.9702C44.9563 51.9901 45.0854 52 45.2134 52C45.7357 52 46.2425 51.8354 46.6718 51.5213C47.208 51.1289 47.5578 50.5509 47.657 49.8944L50.97 28.2327C51.0719 27.5795 50.9123 26.9266 50.5197 26.3936ZM23.7851 46.3919V24.4783C23.7851 23.5433 24.5481 22.7826 25.486 22.7826H43.2809C44.2187 22.7826 44.9818 23.5433 44.9818 24.4783V46.3919C44.9818 47.3269 44.2187 48.0876 43.2809 48.0876H25.486C24.5481 48.0876 23.7851 47.3269 23.7851 46.3919ZM33.0045 28.4091C33.1578 28.5619 33.1578 28.8096 33.0045 28.9624L30.798 31.162C30.6194 31.3401 30.3847 31.429 30.1502 31.429C29.9158 31.429 29.6812 31.3401 29.5026 31.162L28.4683 30.1309C28.315 29.9781 28.315 29.7304 28.4683 29.5776C28.6217 29.4248 28.8701 29.4247 29.0234 29.5776L30.0576 30.6087C30.1088 30.6596 30.1918 30.6596 30.2429 30.6087L32.4494 28.4091C32.6027 28.2562 32.8512 28.2562 33.0045 28.4091ZM26.1403 30.2933C26.1403 28.3512 27.7249 26.7714 29.6731 26.7714C30.197 26.7714 30.7001 26.8822 31.1686 27.1003C31.3651 27.1921 31.4499 27.4249 31.3582 27.6206C31.2664 27.8168 31.0323 27.9011 30.8363 27.8096C30.4724 27.6399 30.0811 27.5541 29.673 27.5541C28.1578 27.5541 26.9253 28.7828 26.9253 30.2933C26.9253 31.8038 28.1578 33.0325 29.673 33.0325C30.5317 33.0325 31.3224 32.6453 31.8427 31.9699C31.9748 31.7982 32.2219 31.7664 32.3929 31.8978C32.5649 32.0293 32.5973 32.2751 32.4652 32.4463C31.7951 33.3163 30.7775 33.8151 29.673 33.8151C27.7249 33.8151 26.1403 32.2353 26.1403 30.2933ZM35.561 29.4011C35.561 29.185 35.7368 29.0097 35.9536 29.0097H40.1406C40.3573 29.0097 40.5331 29.185 40.5331 29.4011C40.5331 29.6171 40.3573 29.7924 40.1406 29.7924H35.9536C35.7368 29.7924 35.561 29.6171 35.561 29.4011ZM42.6266 31.4881C42.6266 31.7041 42.4508 31.8794 42.2341 31.8794H35.9536C35.7368 31.8794 35.561 31.7041 35.561 31.4881C35.561 31.272 35.7368 31.0968 35.9536 31.0968H42.2341C42.4508 31.0968 42.6266 31.272 42.6266 31.4881ZM33.0045 38.6927C33.1578 38.8456 33.1578 39.0932 33.0045 39.2461L30.798 41.4457C30.6194 41.6237 30.3847 41.7127 30.1502 41.7127C29.9158 41.7127 29.6812 41.6237 29.5026 41.4457L28.4683 40.4146C28.315 40.2618 28.315 40.0141 28.4683 39.8613C28.6217 39.7085 28.8701 39.7084 29.0234 39.8613L30.0576 40.8924C30.1088 40.9435 30.1918 40.9431 30.2429 40.8924L32.4494 38.6927C32.6027 38.5399 32.8512 38.5399 33.0045 38.6927ZM32.3929 42.1814C32.5649 42.3129 32.5973 42.5587 32.4652 42.73C31.7951 43.6 30.7775 44.0988 29.673 44.0988C27.7249 44.0988 26.1402 42.519 26.1402 40.577C26.1402 38.6349 27.7249 37.0551 29.673 37.0551C30.1969 37.0551 30.7001 37.1659 31.1685 37.384C31.365 37.4758 31.4499 37.7086 31.3581 37.9043C31.2664 38.1002 31.0323 38.1848 30.8363 38.0933C30.4724 37.9236 30.0811 37.8378 29.673 37.8378C28.1578 37.8378 26.9252 39.0665 26.9252 40.577C26.9252 42.0875 28.1578 43.3162 29.673 43.3162C30.5316 43.3162 31.3223 42.929 31.8426 42.2536C31.9747 42.0822 32.2219 42.05 32.3929 42.1814ZM35.561 39.6848C35.561 39.4687 35.7368 39.2934 35.9535 39.2934H40.1405C40.3573 39.2934 40.5331 39.4687 40.5331 39.6848C40.5331 39.9008 40.3573 40.0761 40.1405 40.0761H35.9535C35.7368 40.0761 35.561 39.9008 35.561 39.6848ZM42.6266 41.7718C42.6266 41.9878 42.4508 42.1631 42.234 42.1631H35.9535C35.7368 42.1631 35.561 41.9878 35.561 41.7718C35.561 41.5557 35.7368 41.3805 35.9535 41.3805H42.234C42.4508 41.3805 42.6266 41.5557 42.6266 41.7718Z" fill="white"/>
</g>
<defs>
<filter id="filter1_d_1057_2601" x="19" y="22" width="36" height="38" filterUnits="userSpaceOnUse" color-interpolation-filters="sRGB">
<feFlood flood-opacity="0" result="BackgroundImageFix"/>
<feColorMatrix in="SourceAlpha" type="matrix" values="0 0 0 0 0 0 0 0 0 0 0 0 0 0 0 0 0 0 127 0" result="hardAlpha"/>
<feOffset dy="4"/>
<feGaussianBlur stdDeviation="2"/>
<feComposite in2="hardAlpha" operator="out"/>
<feColorMatrix type="matrix" values="0 0 0 0 0.239216 0 0 0 0 0.321569 0 0 0 0 0.882353 0 0 0 0.55 0"/>
<feBlend mode="normal" in2="BackgroundImageFix" result="effect1_dropShadow_1057_2601"/>
<feBlend mode="normal" in="SourceGraphic" in2="effect1_dropShadow_1057_2601" result="shape"/>
</filter>
<radialGradient id="paint0_radial_1057_2601" cx="0" cy="0" r="1" gradientUnits="userSpaceOnUse" gradientTransform="translate(36.5 36.5) rotate(90) scale(77.1814)">
<stop stop-color="#3D52E1"/>
<stop offset="1" stop-color="#BAC3FF"/>
</radialGradient>
</defs>
</svg>
