<svg width="73" height="73" viewBox="0 0 73 73" fill="none" xmlns="http://www.w3.org/2000/svg">
<rect width="73" height="73" rx="10" fill="white" fill-opacity="0.1"/>
<rect x="3" y="3" width="67" height="67" rx="10" fill="url(#paint0_radial_1057_2589)"/>
<g filter="url(#filter1_d_1057_2589)">
<path d="M48.6562 50.2773C48.5547 50.2773 48.4108 50.2686 48.2246 50.251C48.0384 50.2334 47.8861 50.1631 47.7676 50.04L40.8867 42.6572C40.0065 43.3604 39.0205 43.9229 37.9287 44.3447C36.8369 44.7666 35.6732 44.9775 34.4375 44.9775C33.0495 44.9775 31.7376 44.6963 30.502 44.1338C29.2663 43.5713 28.1829 42.8066 27.252 41.8398C26.321 40.873 25.5846 39.748 25.043 38.4648C24.5013 37.1641 24.2305 35.793 24.2305 34.3516C24.2305 32.9102 24.5013 31.5479 25.043 30.2647C25.5846 28.9814 26.321 27.8564 27.252 26.8897C28.1829 25.9229 29.2663 25.1582 30.502 24.5957C31.7376 24.0332 33.0495 23.752 34.4375 23.752C35.8255 23.752 37.1458 24.0332 38.3984 24.5957C39.6341 25.1582 40.7174 25.9229 41.6484 26.8897C42.5794 27.8564 43.3158 28.9814 43.8574 30.2647C44.3991 31.5479 44.6699 32.9102 44.6699 34.3516C44.6699 35.6348 44.4668 36.8433 44.0605 37.9771C43.6543 39.1108 43.1126 40.1348 42.4355 41.0488L49.5449 48.4316C49.7819 48.6602 49.9004 48.9282 49.9004 49.2358C49.9004 49.5435 49.7819 49.8115 49.5449 50.04C49.4434 50.1631 49.2995 50.2334 49.1133 50.251C48.9271 50.2686 48.7747 50.2773 48.6562 50.2773ZM34.4375 26.0459C33.3372 26.0459 32.2962 26.2656 31.3145 26.7051C30.3496 27.1445 29.5075 27.7378 28.7881 28.4849C28.0687 29.2319 27.4974 30.1064 27.0742 31.1084C26.651 32.1279 26.4395 33.209 26.4395 34.3516C26.4395 35.5117 26.651 36.5928 27.0742 37.5947C27.4974 38.6143 28.0687 39.4976 28.7881 40.2446C29.5075 40.9917 30.3496 41.585 31.3145 42.0244C32.2962 42.4463 33.3372 42.6572 34.4375 42.6572C35.5547 42.6572 36.5957 42.4463 37.5605 42.0244C38.5423 41.585 39.3929 40.9917 40.1123 40.2446C40.8317 39.4976 41.403 38.6143 41.8262 37.5947C42.2324 36.5928 42.4355 35.5117 42.4355 34.3516C42.4355 33.209 42.2324 32.1279 41.8262 31.1084C41.403 30.1064 40.8317 29.2319 40.1123 28.4849C39.3929 27.7378 38.5423 27.1445 37.5605 26.7051C36.5957 26.2656 35.5547 26.0459 34.4375 26.0459Z" fill="white"/>
</g>
<defs>
<filter id="filter1_d_1057_2589" x="20" y="22" width="34" height="38" filterUnits="userSpaceOnUse" color-interpolation-filters="sRGB">
<feFlood flood-opacity="0" result="BackgroundImageFix"/>
<feColorMatrix in="SourceAlpha" type="matrix" values="0 0 0 0 0 0 0 0 0 0 0 0 0 0 0 0 0 0 127 0" result="hardAlpha"/>
<feOffset dy="4"/>
<feGaussianBlur stdDeviation="2"/>
<feComposite in2="hardAlpha" operator="out"/>
<feColorMatrix type="matrix" values="0 0 0 0 0.239216 0 0 0 0 0.321569 0 0 0 0 0.882353 0 0 0 0.55 0"/>
<feBlend mode="normal" in2="BackgroundImageFix" result="effect1_dropShadow_1057_2589"/>
<feBlend mode="normal" in="SourceGraphic" in2="effect1_dropShadow_1057_2589" result="shape"/>
</filter>
<radialGradient id="paint0_radial_1057_2589" cx="0" cy="0" r="1" gradientUnits="userSpaceOnUse" gradientTransform="translate(36.5 36.5) rotate(90) scale(77.1814)">
<stop stop-color="#3D52E1"/>
<stop offset="1" stop-color="#BAC3FF"/>
</radialGradient>
</defs>
</svg>
