<svg preserveAspectRatio="none" width="100%" height="100%" overflow="visible" style="display: block;" viewBox="0 0 116.256 59.48" fill="none" xmlns="http://www.w3.org/2000/svg">
<g id="logo.svg" clip-path="url(#clip0_0_9)">
<path id="Vector" d="M0.00238564 19.8896V4.625H5.7236V10.3369C7.25217 9.25137 9.08645 8.68689 11.2264 8.68689C17.2534 8.55663 22.5816 13.854 22.4941 19.8896C22.5816 25.925 17.2534 31.2224 11.2264 31.0922C5.15585 31.2224 -0.128634 25.925 0.00238564 19.8896ZM5.63624 19.8896C5.63624 21.4961 6.16033 22.8856 7.25217 23.9711C8.344 25.0566 9.6542 25.5777 11.2701 25.5777C12.886 25.5777 14.1963 25.0566 15.2445 23.9711C16.2925 22.8856 16.8166 21.4961 16.8166 19.8896C16.8166 18.2829 16.2925 16.9369 15.2445 15.8514C14.1963 14.7659 12.886 14.2014 11.2701 14.2014C9.6542 14.2014 8.344 14.7659 7.25217 15.8514C6.16033 16.9369 5.63624 18.2829 5.63624 19.8896Z" fill="var(--fill-0, #3A50E0)"/>
<path id="Vector_2" d="M24.9102 3.34342C24.9102 1.47632 26.3951 0 28.3167 0C30.1947 0 31.6795 1.47632 31.6795 3.34342C31.6795 5.25395 30.1947 6.73026 28.3167 6.73026C26.3951 6.73026 24.9102 5.25395 24.9102 3.34342ZM25.4779 30.7421V9.03158H31.1554V30.7421H25.4779Z" fill="var(--fill-0, #3A50E0)"/>
<path id="Vector_3" d="M41.0616 25.2312H51.3685V30.7457H33.8555V25.2312L43.7258 14.5497H34.2922V9.03516H50.9754V14.5497L41.0616 25.2312Z" fill="var(--fill-0, #3A50E0)"/>
<path id="Vector_4" d="M11.2897 33.0141C17.3506 32.8839 22.7088 38.1806 22.6209 44.2155C22.7088 50.2503 17.3506 55.547 11.2897 55.4168C9.13765 55.4168 7.29303 54.8524 5.75585 53.767V59.4782H0.00239908V44.2155C-0.129359 38.1806 5.1849 32.8839 11.2897 33.0141ZM16.9114 44.2155C16.9114 42.6091 16.3843 41.2631 15.3303 40.1778C14.2763 39.0924 12.9587 38.528 11.3336 38.528C9.70861 38.528 8.39102 39.0924 7.29303 40.1778C6.19504 41.2631 5.66801 42.6091 5.66801 44.2155C5.66801 45.8219 6.19504 47.2111 7.29303 48.2965C8.39102 49.382 9.70861 49.903 11.3336 49.903C12.9587 49.903 14.2763 49.382 15.3303 48.2965C16.3843 47.2111 16.9114 45.8219 16.9114 44.2155Z" fill="var(--fill-0, #3A50E0)"/>
<path id="Vector_5" d="M25.0508 55.0684V43.65C25.0508 36.7468 28.8278 33.2734 34.4496 33.2734H34.713V38.7874H34.4934C31.9901 38.7874 30.7603 40.3069 30.7603 43.65V55.0684H25.0508Z" fill="var(--fill-0, #3A50E0)"/>
<path id="Vector_6" d="M58.9423 44.2194C59.0739 50.2542 53.7157 55.5509 47.6109 55.4207C41.5061 55.5509 36.1481 50.2542 36.2797 44.2194C36.1481 38.1845 41.5061 32.8878 47.6109 33.018C53.7157 32.8878 59.0739 38.1845 58.9423 44.2194ZM41.9893 44.2194C41.9893 45.8258 42.5163 47.215 43.6143 48.3004C44.7124 49.3859 46.0298 49.9069 47.6549 49.9069C49.2799 49.9069 50.5975 49.3859 51.6517 48.3004C52.7057 47.215 53.2327 45.8258 53.2327 44.2194C53.2327 42.613 52.7057 41.267 51.6517 40.1817C50.5975 39.0963 49.2799 38.5319 47.6549 38.5319C46.0298 38.5319 44.7124 39.0963 43.6143 40.1817C42.5163 41.267 41.9893 42.613 41.9893 44.2194Z" fill="var(--fill-0, #3A50E0)"/>
<path id="Vector_7" d="M75.2008 27.679C75.2008 25.8121 76.6941 24.3359 78.6265 24.3359C80.5151 24.3359 82.0083 25.8121 82.0083 27.679C82.0083 29.5892 80.5151 31.0654 78.6265 31.0654C76.6941 31.0654 75.2008 29.5892 75.2008 27.679ZM62.9033 55.0745V38.8803H59.6094V33.3665H62.9912C63.4744 27.8527 66.7682 24.553 72.5656 24.553V30.0668C70.3258 30.1102 68.7008 31.3259 68.7008 33.3665H72.5656V38.8803H68.6129V55.0745H62.9033ZM75.7717 55.0745V33.3665H81.4813V55.0745H75.7717Z" fill="var(--fill-0, #3A50E0)"/>
<path id="Vector_8" d="M91.19 55.0749H85.4805V24.6836H91.19V55.0749Z" fill="var(--fill-0, #3A50E0)"/>
<path id="Vector_9" d="M104.779 33.0179C110.357 33.0179 116.066 37.0991 116.242 43.7418C116.286 44.6534 116.198 45.5652 116.066 46.4335H99.7723C100.299 48.5609 102.188 49.9069 104.779 49.9069C106.58 49.9069 107.634 49.3859 108.556 48.6478L115.364 48.6912C113.563 52.6854 109.522 55.4207 104.955 55.4207C98.7621 55.5508 93.4918 50.2975 93.6236 44.2627C93.4918 38.3147 98.6744 32.8877 104.779 33.0179ZM99.7723 41.9183H110.137C109.259 39.8777 107.195 38.5319 104.955 38.5319C102.495 38.5319 100.695 39.8343 99.7723 41.9183Z" fill="var(--fill-0, #3A50E0)"/>
</g>
<defs>
<clipPath id="clip0_0_9">
<rect width="116.256" height="59.48" fill="white"/>
</clipPath>
</defs>
</svg>
