<svg preserveAspectRatio="xMidYMid meet" width="20" height="20" viewBox="0 0 20.0058 20" fill="none" xmlns="http://www.w3.org/2000/svg">
<path d="M18.3896 6.24954L19.4565 5.18266C19.6307 5.00861 19.7688 4.80194 19.8631 4.57447C19.9573 4.34701 20.0058 4.1032 20.0058 3.85698C20.0058 3.61076 19.9573 3.36695 19.8631 3.13949C19.7688 2.91202 19.6307 2.70535 19.4565 2.5313L17.4744 0.548859C17.1227 0.197415 16.6458 0 16.1486 0C15.6514 0 15.1745 0.197415 14.8228 0.548859L13.7559 1.61575L18.3896 6.24954Z" fill="#ADADAD"/>
<path d="M12.8725 2.5L0.814432 14.5581C0.718892 14.6535 0.656885 14.7773 0.637732 14.9109L0.0063067 19.2859C-0.00638162 19.3746 0.000124241 19.4649 0.0253841 19.5509C0.050644 19.6368 0.0940686 19.7163 0.15272 19.784C0.211371 19.8517 0.283881 19.9061 0.365344 19.9433C0.446807 19.9806 0.535322 19.9999 0.6249 20C0.654407 20.0001 0.683882 19.9981 0.713094 19.9939L5.0945 19.3689C5.22842 19.3496 5.3525 19.2875 5.44818 19.1919L17.5063 7.13379L12.8725 2.5Z" fill="#ADADAD"/>
</svg>
