<svg xmlns="http://www.w3.org/2000/svg" width="15" height="16" fill="currentColor" viewBox="0 0 15 16">
    <path d="M11.411 5.12a.75.75 0 0 1 1.06 0l1.604 1.605a1.451 1.451 0 0 1 0 2.05l-1.603 1.605a.75.75 0 1 1-1.06-1.06l.818-.82H4.946a.75.75 0 0 1 0-1.5h7.284l-.819-.82a.75.75 0 0 1 0-1.06Zm-2.318-.17v-1.4A2.05 2.05 0 0 0 7.045 1.5H3.548A2.05 2.05 0 0 0 1.5 3.55v8.4c0 1.133.917 2.05 2.048 2.05h3.497a2.05 2.05 0 0 0 2.048-2.05v-1.4a.75.75 0 0 1 1.5 0v1.4a3.55 3.55 0 0 1-3.548 3.55H3.548A3.549 3.549 0 0 1 0 11.95v-8.4A3.55 3.55 0 0 1 3.548 0h3.497a3.55 3.55 0 0 1 3.548 3.55v1.4a.75.75 0 0 1-1.5 0Z"/>
</svg>
