<svg width="356" height="880" viewBox="0 0 356 880" fill="none" xmlns="http://www.w3.org/2000/svg">
<path fill-rule="evenodd" clip-rule="evenodd" d="M139.538 460.272C165.149 455.188 200.463 455.85 223.086 461.84C287.379 478.868 341.133 536.278 353.157 600.757C373.882 711.865 290.053 812.551 176.935 812.413C145.33 812.373 138.659 810.624 94.1289 790.682C90.6991 789.146 89.6768 799.174 89.6768 834.345V880H0L1.47461 739.671C2.86718 607.714 3.40508 598.099 10.5068 578.521C31.5913 520.402 85.4952 471.003 139.538 460.272ZM213.555 548.819C193.71 540.414 162.535 541.667 141.294 551.724C106.085 568.397 87.3364 601.992 90.5488 642.66C95.795 709.124 163.265 747.22 221.878 716.815C238.817 708.03 258.392 684.6 263.62 666.852C269.856 645.692 268.621 612.44 260.978 595.72C252.74 577.696 231.024 556.218 213.555 548.819ZM89.6768 90.1543L112.97 79.0693C142.965 64.7975 182.712 61.5601 219.596 70.3818C277.717 84.2845 326.627 130.595 346.127 190.185C356.349 221.405 356.53 268.222 346.547 297.577C329.099 348.885 289.541 391.107 241.043 410.188C137.662 450.867 19.9914 381.072 4.3418 269.794C2.38294 255.852 0.748162 189.446 0.708984 122.222L0.637695 0H89.6768V90.1543ZM207.714 156.303C190.939 151.189 163.523 151.429 146.662 156.832C129.182 162.434 99.3681 193.824 94.0078 212.271C77.9096 267.675 106.84 321.586 159.045 333.465C198.682 342.486 238.703 323.872 256.874 287.962C269.172 263.67 269.696 222.94 258 200.47C248.149 181.544 225.621 161.757 207.714 156.303Z" fill="#E9EFFD"/>
</svg>
