<svg width="156" height="195" viewBox="0 0 156 195" fill="none" xmlns="http://www.w3.org/2000/svg">
<path d="M156 156H117V195H156V156Z" fill="url(#paint0_linear_1110_111)" fill-opacity="0.7"/>
<path d="M78 78H39V117H78V78Z" fill="url(#paint1_linear_1110_111)" fill-opacity="0.7"/>
<path d="M117 117H78V156H117V117Z" fill="url(#paint2_linear_1110_111)" fill-opacity="0.7"/>
<path d="M39 39H0V78H39V39Z" fill="url(#paint3_linear_1110_111)" fill-opacity="0.7"/>
<path d="M156 117H117V156H156V117Z" fill="url(#paint4_linear_1110_111)"/>
<path d="M39 0H0V39H39V0Z" fill="url(#paint5_linear_1110_111)"/>
<path d="M0 117H39V156H0V117Z" fill="url(#paint6_linear_1110_111)"/>
<path d="M117 0H156V39H117V0Z" fill="url(#paint7_linear_1110_111)"/>
<defs>
<linearGradient id="paint0_linear_1110_111" x1="78" y1="-60.4118" x2="78.1653" y2="201.7" gradientUnits="userSpaceOnUse">
<stop stop-color="#3D52E1"/>
<stop offset="1" stop-color="#3D52E1" stop-opacity="0"/>
</linearGradient>
<linearGradient id="paint1_linear_1110_111" x1="78" y1="-60.4118" x2="78.1653" y2="201.7" gradientUnits="userSpaceOnUse">
<stop stop-color="#3D52E1"/>
<stop offset="1" stop-color="#3D52E1" stop-opacity="0"/>
</linearGradient>
<linearGradient id="paint2_linear_1110_111" x1="78" y1="-60.4118" x2="78.1653" y2="201.7" gradientUnits="userSpaceOnUse">
<stop stop-color="#3D52E1"/>
<stop offset="1" stop-color="#3D52E1" stop-opacity="0"/>
</linearGradient>
<linearGradient id="paint3_linear_1110_111" x1="78" y1="-60.4118" x2="78.1653" y2="201.7" gradientUnits="userSpaceOnUse">
<stop stop-color="#3D52E1"/>
<stop offset="1" stop-color="#3D52E1" stop-opacity="0"/>
</linearGradient>
<linearGradient id="paint4_linear_1110_111" x1="78" y1="-43.9706" x2="78" y2="156" gradientUnits="userSpaceOnUse">
<stop stop-color="#3D52E1"/>
<stop offset="1" stop-color="#3D52E1" stop-opacity="0"/>
</linearGradient>
<linearGradient id="paint5_linear_1110_111" x1="78" y1="-43.9706" x2="78" y2="156" gradientUnits="userSpaceOnUse">
<stop stop-color="#3D52E1"/>
<stop offset="1" stop-color="#3D52E1" stop-opacity="0"/>
</linearGradient>
<linearGradient id="paint6_linear_1110_111" x1="78" y1="-43.9706" x2="78" y2="156" gradientUnits="userSpaceOnUse">
<stop stop-color="#3D52E1"/>
<stop offset="1" stop-color="#3D52E1" stop-opacity="0"/>
</linearGradient>
<linearGradient id="paint7_linear_1110_111" x1="78" y1="-43.9706" x2="78" y2="156" gradientUnits="userSpaceOnUse">
<stop stop-color="#3D52E1"/>
<stop offset="1" stop-color="#3D52E1" stop-opacity="0"/>
</linearGradient>
</defs>
</svg>
