<svg width="40" height="40" viewBox="0 0 40 40" fill="none" xmlns="http://www.w3.org/2000/svg">
<path d="M28.75 15V10.8875C28.7467 8.66401 27.862 6.53254 26.2897 4.96029C24.7175 3.38805 22.586 2.50331 20.3625 2.5H19.6375C17.414 2.50331 15.2825 3.38805 13.7103 4.96029C12.138 6.53254 11.2533 8.66401 11.25 10.8875V15C10.2554 15 9.30161 15.3951 8.59835 16.0983C7.89509 16.8016 7.5 17.7554 7.5 18.75V30.375C7.5033 32.2637 8.25503 34.074 9.59051 35.4095C10.926 36.745 12.7363 37.4967 14.625 37.5H25.375C27.2637 37.4967 29.074 36.745 30.4095 35.4095C31.745 34.074 32.4967 32.2637 32.5 30.375V18.75C32.5 17.7554 32.1049 16.8016 31.4017 16.0983C30.6984 15.3951 29.7446 15 28.75 15ZM13.75 10.8875C13.75 9.32604 14.3703 7.82853 15.4744 6.72441C16.5785 5.62029 18.076 5 19.6375 5H20.3625C21.924 5 23.4215 5.62029 24.5256 6.72441C25.6297 7.82853 26.25 9.32604 26.25 10.8875V15H13.75V10.8875ZM30 30.375C30 31.6016 29.5127 32.778 28.6454 33.6454C27.778 34.5127 26.6016 35 25.375 35H14.625C13.3984 35 12.222 34.5127 11.3546 33.6454C10.4873 32.778 10 31.6016 10 30.375V18.75C10 18.4185 10.1317 18.1005 10.3661 17.8661C10.6005 17.6317 10.9185 17.5 11.25 17.5H28.75C29.0815 17.5 29.3995 17.6317 29.6339 17.8661C29.8683 18.1005 30 18.4185 30 18.75V30.375Z" fill="white"/>
<path d="M21.25 25.8994V29.9994C21.25 30.331 21.1183 30.6489 20.8839 30.8833C20.6495 31.1177 20.3315 31.2494 20 31.2494C19.6685 31.2494 19.3505 31.1177 19.1161 30.8833C18.8817 30.6489 18.75 30.331 18.75 29.9994V25.8994C18.2734 25.6243 17.9009 25.1995 17.6903 24.6911C17.4797 24.1826 17.4427 23.6189 17.5852 23.0873C17.7276 22.5557 18.0415 22.086 18.4781 21.751C18.9147 21.416 19.4497 21.2344 20 21.2344C20.5503 21.2344 21.0853 21.416 21.5219 21.751C21.9585 22.086 22.2724 22.5557 22.4148 23.0873C22.5573 23.6189 22.5203 24.1826 22.3097 24.6911C22.0991 25.1995 21.7266 25.6243 21.25 25.8994Z" fill="white"/>
</svg>
