<?xml version="1.0" standalone="no"?>
<!DOCTYPE svg PUBLIC "-//W3C//DTD SVG 1.1//EN" "http://www.w3.org/Graphics/SVG/1.1/DTD/svg11.dtd" >
<svg xmlns="http://www.w3.org/2000/svg" xmlns:xlink="http://www.w3.org/1999/xlink" version="1.1">
<metadata>
Created by FontForge 20201107 at Wed Sep 27 18:23:20 2023
 By 
Copyright (c) 2023, Bao Nguyen (RandomMaerks) (rmforbusiness@gmail.com)
</metadata>
<defs>
<font id="OverusedGrotesk-Regular" horiz-adv-x="183" >
  <font-face 
    font-family="Overused Grotesk"
    font-weight="400"
    font-stretch="normal"
    units-per-em="1024"
    panose-1="0 0 0 0 0 0 0 0 0 0"
    ascent="819"
    descent="-205"
    x-height="512"
    cap-height="666"
    bbox="-113 -281 1244 1093"
    underline-thickness="51"
    underline-position="-126"
    unicode-range="U+0020-277E"
  />
<missing-glyph horiz-adv-x="512" 
d="M51 -205v1024h410v-1024h-410zM102 -154h308v922h-308v-922z" />
    <glyph glyph-name=".notdef" horiz-adv-x="512" 
d="M51 -205v1024h410v-1024h-410zM102 -154h308v922h-308v-922z" />
    <glyph glyph-name=".null" horiz-adv-x="0" 
 />
    <glyph glyph-name="nonmarkingreturn" horiz-adv-x="341" 
 />
    <glyph glyph-name="space" unicode=" " horiz-adv-x="204" 
 />
    <glyph glyph-name="exclam" unicode="!" 
d="M122 156h-61l-7 510h76zM137 0h-90v85h90v-85z" />
    <glyph glyph-name="quotedbl" unicode="&#x22;" horiz-adv-x="314" 
d="M188 717h72l-12 -222h-60v222zM54 717h73l-13 -222h-60v222z" />
    <glyph glyph-name="numbersign" unicode="#" horiz-adv-x="713" 
d="M611 234v-63h-146l-66 -171h-79l67 171h-186l-66 -171h-79l66 171h-88v63h113l77 200h-121v63h146l66 169h78l-66 -169h186l66 169h78l-65 -169h88v-63h-113l-77 -200h121zM225 234h186l78 200h-186z" />
    <glyph glyph-name="dollar" unicode="$" horiz-adv-x="593" 
d="M273 770h54v-97q90 -9 146 -62.5t64 -140.5h-75q-19 119 -135 134v-234l14 -2q209 -26 209 -187q0 -83 -61 -134t-162 -55v-117h-54v119q-100 9 -159.5 63.5t-69.5 140.5h77q21 -121 152 -135v237l-24 3q-96 12 -148 56.5t-52 121.5q0 86 60 138t164 56v95zM259 379
l14 -2v229q-67 -4 -107.5 -36.5t-40.5 -85.5q0 -46 33.5 -71.5t100.5 -33.5zM333 293l-6 1v-233q66 3 106.5 35t40.5 84q0 95 -141 113z" />
    <glyph glyph-name="percent" unicode="%" horiz-adv-x="888" 
d="M36 472q0 92 46.5 148.5t122.5 56.5q75 0 120.5 -56.5t45.5 -148.5q0 -93 -45.5 -149.5t-120.5 -56.5q-76 0 -122.5 56.5t-46.5 149.5zM544 666h75l-275 -666h-74zM302 472q0 67 -25.5 104.5t-71.5 37.5q-47 0 -73.5 -37.5t-26.5 -104.5q0 -68 26.5 -105.5t73.5 -37.5
q46 0 71.5 37.5t25.5 105.5zM516 197q0 92 46 148t122 56q75 0 121.5 -56t46.5 -148q0 -93 -46.5 -150t-121.5 -57q-76 0 -122 57t-46 150zM783 197q0 67 -26 104t-73 37t-72.5 -37t-25.5 -104q0 -68 25.5 -106t72.5 -38t73 38t26 106z" />
    <glyph glyph-name="ampersand" unicode="&#x26;" horiz-adv-x="639" 
d="M268 674q52 0 91.5 -20.5t62 -57t22.5 -83.5q0 -66 -39 -105.5t-102 -69.5l148 -156q32 62 41 147h75q-5 -59 -22 -109t-43 -91l124 -129h-96l-72 74q-40 -39 -90 -60.5t-107 -21.5q-99 0 -158 49t-59 130q0 48 19.5 81t52 56.5t72.5 43.5q-35 36 -59.5 75t-24.5 88
q0 47 21 82.5t58 56t85 20.5zM181 516q0 -40 23 -71.5t53 -60.5q31 15 57 32.5t41.5 41.5t15.5 58q0 42 -27 67.5t-73 25.5q-41 0 -65.5 -25.5t-24.5 -67.5zM122 172q0 -53 36.5 -83t104.5 -30q88 0 148 64l-178 184q-29 -13 -54.5 -30.5t-41 -42.5t-15.5 -62z" />
    <glyph glyph-name="quotesingle" unicode="'" horiz-adv-x="180" 
d="M54 717h73l-13 -222h-60v222z" />
    <glyph glyph-name="parenleft" unicode="(" horiz-adv-x="258" 
d="M243 -137h-76q-57 60 -95 169t-38 252t38 252t95 169h76q-66 -65 -98.5 -167t-32.5 -254t32.5 -254t98.5 -167z" />
    <glyph glyph-name="parenright" unicode=")" horiz-adv-x="258" 
d="M7 705h76q57 -60 95 -169t38 -252t-38 -252t-95 -169h-76q66 65 98.5 167t32.5 254t-32.5 254t-98.5 167z" />
    <glyph glyph-name="asterisk" unicode="*" horiz-adv-x="547" 
d="M241 717h65l-4 -221l205 75l20 -62l-208 -67l131 -170l-52 -37l-125 178l-124 -178l-52 37l130 171l-207 66l20 62l206 -74z" />
    <glyph glyph-name="plus" unicode="+" horiz-adv-x="566" 
d="M318 324h214v-69h-214v-214h-70v214h-214v69h214v214h70v-214z" />
    <glyph glyph-name="comma" unicode="," 
d="M47 94h90v-94l-39 -138h-58l61 138h-54v94z" />
    <glyph glyph-name="hyphen" unicode="-" horiz-adv-x="482" 
d="M34 317h413v-69h-413v69z" />
    <glyph glyph-name="period" unicode="." 
d="M47 94h90v-94h-90v94z" />
    <glyph glyph-name="slash" unicode="/" horiz-adv-x="421" 
d="M302 666h84l-267 -666h-83z" />
    <glyph glyph-name="zero" unicode="0" horiz-adv-x="575" 
d="M44 325q0 166 65 258.5t180 92.5q114 0 178 -92.5t64 -258.5q0 -157 -64 -245t-178 -88q-116 0 -180.5 88t-64.5 245zM453 325q0 280 -164 280q-167 0 -167 -280q0 -261 167 -261q164 0 164 261z" />
    <glyph glyph-name="one" unicode="1" horiz-adv-x="323" 
d="M194 666h75v-666h-75v492h-160v64h79q40 0 60.5 14.5t20.5 54.5v41z" />
    <glyph glyph-name="two" unicode="2" horiz-adv-x="541" 
d="M129 70h364v-70h-449v18q0 59 19.5 102t51.5 74.5t70.5 55.5t77.5 44q41 23 76.5 45.5t57.5 52t22 72.5q0 67 -40 104t-111 37q-64 0 -103.5 -38.5t-42.5 -102.5h-78q5 62 34.5 109.5t78 74t109.5 26.5q69 0 121 -26t81 -73.5t29 -110.5q0 -56 -26 -96t-67 -70t-86 -55
q-46 -26 -89.5 -51t-71.5 -54t-28 -68z" />
    <glyph glyph-name="three" unicode="3" horiz-adv-x="543" 
d="M226 302v66h71q54 0 84 29.5t30 82.5q0 60 -37.5 93t-104.5 33q-61 0 -97.5 -33.5t-38.5 -90.5h-79q5 57 33 100.5t75.5 67.5t107.5 24q65 0 114 -24t76.5 -67t27.5 -100q0 -51 -24.5 -89t-67.5 -59q48 -20 75 -60.5t27 -94.5q0 -57 -28 -99t-79.5 -65.5t-118.5 -23.5
q-63 0 -113 24t-80 66.5t-35 99.5h78q3 -56 43 -89t104 -33q72 0 112 32.5t40 91.5q0 57 -32.5 87.5t-91.5 30.5h-71z" />
    <glyph glyph-name="four" unicode="4" horiz-adv-x="558" 
d="M433 169v-169h-74v169h-325v82l306 415h93v-430h101v-67h-101zM359 236v342l-247 -342h247z" />
    <glyph glyph-name="five" unicode="5" horiz-adv-x="543" 
d="M421 221q0 74 -40 117.5t-115 43.5q-51 0 -89 -19.5t-59 -53.5h-74l33 358h398v-69h-332l-22 -224q27 34 69 54t95 20q65 0 113 -29t74 -80t26 -117q0 -71 -28.5 -122.5t-79.5 -79.5t-119 -28q-64 0 -113.5 23.5t-79 65t-34.5 95.5h78q3 -53 43 -83.5t105 -30.5
q72 0 111.5 40t39.5 119z" />
    <glyph glyph-name="six" unicode="6" horiz-adv-x="563" 
d="M44 336q0 161 67.5 250.5t188.5 89.5q83 0 140 -45.5t71 -124.5h-78q-20 104 -133 104q-178 0 -178 -268q0 -9 0.5 -16.5t1.5 -15.5q23 58 74 92t115 34q60 0 106.5 -28.5t73 -78.5t26.5 -114q0 -65 -27.5 -115.5t-76 -79t-111.5 -28.5q-79 0 -137.5 42t-90.5 119.5
t-32 182.5zM145 214q0 -44 20.5 -79t55.5 -55.5t79 -20.5q64 0 102.5 42.5t38.5 112.5t-38.5 112.5t-102.5 42.5q-69 0 -112 -43t-43 -112z" />
    <glyph glyph-name="seven" unicode="7" horiz-adv-x="562" 
d="M265 0h-86q9 126 33 215t59 154t78 118t89 107h-394v72h474v-82q-55 -58 -100 -116.5t-78.5 -125.5t-53 -150.5t-21.5 -191.5z" />
    <glyph glyph-name="eight" unicode="8" horiz-adv-x="543" 
d="M379 336q56 -19 87.5 -60.5t31.5 -99.5q0 -56 -28 -97t-79.5 -64t-119.5 -23t-119 23t-79.5 64t-28.5 97q0 58 32 99.5t88 60.5q-47 20 -73 59.5t-26 93.5q0 83 56.5 134t149.5 51q62 0 109 -23t72.5 -65t25.5 -97q0 -54 -26 -93.5t-73 -59.5zM277 368q59 0 92 30.5
t33 86.5q0 58 -34.5 90t-96.5 32t-95.5 -32t-33.5 -90q0 -56 32 -86.5t92 -30.5h11zM277 301h-11q-69 0 -106.5 -31.5t-37.5 -89.5t39 -89.5t110 -31.5t110.5 31.5t39.5 89.5t-38 89.5t-106 31.5z" />
    <glyph glyph-name="nine" unicode="9" horiz-adv-x="563" 
d="M519 332q0 -160 -67 -250t-188 -90q-84 0 -140.5 45.5t-71.5 124.5h79q20 -104 133 -104q177 0 177 269q0 8 -1 15.5t-1 15.5q-23 -59 -74 -93t-114 -34q-60 0 -106.5 28.5t-73.5 79t-27 114.5q0 65 27.5 115.5t76.5 79t111 28.5q80 0 138.5 -42t90 -119.5t31.5 -182.5z
M419 454q0 44 -20.5 79t-55.5 55.5t-79 20.5q-64 0 -103 -42.5t-39 -112.5t39 -112.5t103 -42.5q69 0 112 43t43 112z" />
    <glyph glyph-name="colon" unicode=":" 
d="M47 495h90v-93h-90v93zM47 94h90v-94h-90v94z" />
    <glyph glyph-name="semicolon" unicode=";" 
d="M47 495h90v-93h-90v93zM47 94h90v-94l-39 -138h-58l61 138h-54v94z" />
    <glyph glyph-name="less" unicode="&#x3c;" horiz-adv-x="587" 
d="M553 526v-81l-434 -164l434 -157v-83l-518 200v85z" />
    <glyph glyph-name="equal" unicode="=" horiz-adv-x="566" 
d="M532 451v-67h-498v67h498zM532 184v-68h-498v68h498z" />
    <glyph glyph-name="greater" unicode="&#x3e;" horiz-adv-x="587" 
d="M35 41v81l433 164l-433 157v83l518 -200v-85z" />
    <glyph glyph-name="question" unicode="?" horiz-adv-x="541" 
d="M236 156q0 49 15.5 82t39 57.5t47.5 45.5q32 27 56.5 55.5t24.5 76.5q0 64 -40 98.5t-111 34.5q-64 0 -103.5 -38t-42.5 -102h-78q5 61 34.5 108t78 73.5t109.5 26.5q69 0 121 -25t81 -70t29 -106q0 -44 -16 -75.5t-40 -55t-49 -45.5q-31 -28 -56 -59.5t-26 -81.5h-74z
M317 0h-90v85h90v-85z" />
    <glyph glyph-name="at" unicode="@" horiz-adv-x="916" 
d="M636 482v-274q0 -71 68 -71q48 0 71.5 36t23.5 116q0 107 -40.5 185.5t-116.5 121t-181 42.5q-106 0 -183 -43t-119 -122t-42 -187t42 -185.5t118.5 -119t181.5 -41.5q44 0 85.5 7.5t85.5 21.5v-68q-38 -14 -79.5 -21.5t-85.5 -7.5q-127 0 -221.5 51t-147 144t-52.5 218
q0 126 52 221t146 148t219 53q93 0 168.5 -30t130 -85t83.5 -129t29 -163q0 -111 -44.5 -169.5t-122.5 -58.5q-110 0 -134 81q-21 -39 -56 -61t-80 -22q-50 0 -88.5 26.5t-60 74.5t-21.5 112q0 63 21.5 110.5t60 74.5t88.5 27q42 0 75.5 -19.5t54.5 -54.5v61h71zM338 283
q0 -70 29.5 -109t83.5 -39t84 38.5t30 109.5q0 69 -30 107.5t-84 38.5t-83.5 -38.5t-29.5 -107.5z" />
    <glyph glyph-name="A" unicode="A" horiz-adv-x="641" 
d="M609 0h-82l-64 178h-284l-63 -178h-83l246 666h85zM319 576l-117 -332h237z" />
    <glyph glyph-name="B" unicode="B" horiz-adv-x="605" 
d="M360 666q80 0 129 -47t49 -123q0 -52 -24.5 -92t-66.5 -59q56 -20 89 -64.5t33 -105.5q0 -79 -50.5 -127t-132.5 -48h-332v666h306zM352 597h-222v-222h222q50 0 79 30.5t29 84.5q0 51 -29 79t-79 28zM356 306h-226v-238h243q55 0 86.5 30t31.5 83q0 59 -36 92t-99 33z
" />
    <glyph glyph-name="C" unicode="C" horiz-adv-x="659" 
d="M44 335q0 103 36 179.5t101 119t152 42.5q79 0 140.5 -28.5t98.5 -81t43 -123.5h-78q-4 75 -59 118.5t-144 43.5q-100 0 -156 -71t-56 -199q0 -129 56 -200t156 -71q88 0 143 43.5t60 118.5h78q-7 -72 -44 -124.5t-98.5 -81t-139.5 -28.5q-86 0 -151 43t-101.5 120
t-36.5 180z" />
    <glyph glyph-name="D" unicode="D" horiz-adv-x="635" 
d="M303 666q86 0 151 -43t101.5 -120.5t36.5 -181.5q0 -96 -34 -168.5t-94.5 -112.5t-140.5 -40h-269v666h249zM130 596v-526h183q94 0 147 66t53 185q0 131 -57.5 203t-162.5 72h-163z" />
    <glyph glyph-name="E" unicode="E" horiz-adv-x="547" 
d="M504 666v-72h-374v-218h345v-72h-345v-233h374v-71h-450v666h450z" />
    <glyph glyph-name="F" unicode="F" horiz-adv-x="547" 
d="M504 666v-72h-374v-240h345v-72h-345v-282h-76v666h450z" />
    <glyph glyph-name="G" unicode="G" horiz-adv-x="669" 
d="M44 335q0 103 37 179.5t103.5 119t155.5 42.5q77 0 137 -28.5t96 -80.5t42 -120h-78q-4 73 -56.5 115.5t-139.5 42.5q-103 0 -161 -71t-58 -199q0 -129 55.5 -200t155.5 -71q83 0 135 59t59 159h-199v67h287v-349h-60l-5 145q-32 -71 -89.5 -112t-130.5 -41
q-86 0 -150 43t-100 120t-36 180z" />
    <glyph glyph-name="H" unicode="H" horiz-adv-x="633" 
d="M54 666h76v-286h373v286h75v-666h-75v308h-373v-308h-76v666z" />
    <glyph glyph-name="I" unicode="I" 
d="M54 666h76v-666h-76v666z" />
    <glyph glyph-name="J" unicode="J" horiz-adv-x="333" 
d="M25 70h66q32 0 57.5 12t40.5 43.5t15 90.5v450h74v-460q0 -76 -25.5 -121t-66 -65t-86.5 -20h-75v70z" />
    <glyph glyph-name="K" unicode="K" horiz-adv-x="558" 
d="M54 666h76v-348l309 348h97l-292 -321l301 -345h-92l-261 297l-62 -72v-225h-76v666z" />
    <glyph glyph-name="L" unicode="L" horiz-adv-x="486" 
d="M452 0h-398v666h76v-595h322v-71z" />
    <glyph glyph-name="M" unicode="M" horiz-adv-x="767" 
d="M419 0h-71l-218 561v-561h-76v666h109l221 -560l216 560h113v-666h-75v561z" />
    <glyph glyph-name="N" unicode="N" horiz-adv-x="636" 
d="M507 666h75v-666h-82l-370 566v-566h-76v666h100l353 -545v545z" />
    <glyph glyph-name="O" unicode="O" horiz-adv-x="687" 
d="M44 325q0 106 37.5 184.5t105 122.5t157.5 44t157.5 -44t105 -122.5t37.5 -184.5q0 -100 -37.5 -175t-105 -116.5t-157.5 -41.5t-157.5 41.5t-105 116.5t-37.5 175zM566 325q0 132 -58.5 206t-163.5 74t-163.5 -74t-58.5 -206q0 -124 58.5 -192.5t163.5 -68.5t163.5 68.5
t58.5 192.5z" />
    <glyph glyph-name="P" unicode="P" horiz-adv-x="579" 
d="M328 246h-198v-246h-76v666h267q65 0 114.5 -26.5t77 -74t27.5 -111.5q0 -60 -26 -107t-73.5 -74t-112.5 -27zM314 597h-184v-281h184q69 0 108.5 36.5t39.5 101.5q0 68 -39 105.5t-109 37.5z" />
    <glyph glyph-name="Q" unicode="Q" horiz-adv-x="687" 
d="M44 325q0 106 37.5 184.5t105 122.5t157.5 44t157.5 -44t104.5 -122.5t37 -184.5q1 -69 -17.5 -126t-51.5 -100l82 -61l-41 -56l-91 67q-36 -27 -81.5 -42t-98.5 -15q-90 0 -157.5 41.5t-105 116.5t-37.5 175zM566 325q0 132 -58.5 206t-163.5 74t-163.5 -74t-58.5 -206
q0 -124 58.5 -192.5t163.5 -69.5q70 0 120 32l-140 104l40 55l151 -112q51 68 51 183z" />
    <glyph glyph-name="R" unicode="R" horiz-adv-x="584" 
d="M288 274h-158v-274h-76v666h279q93 0 149.5 -53t56.5 -141q0 -64 -35.5 -108.5t-97.5 -60.5q56 -10 82 -44t34 -102l18 -157h-74l-17 148q-8 66 -45.5 96t-115.5 30zM323 597h-193v-255h193q65 0 102 32.5t37 92.5q0 62 -37 96t-102 34z" />
    <glyph glyph-name="S" unicode="S" horiz-adv-x="593" 
d="M333 292l-84 10q-96 11 -148 56t-52 123q0 89 64.5 141.5t175.5 52.5q107 0 173 -55t75 -150h-77q-11 69 -52.5 102.5t-119.5 33.5q-74 0 -118.5 -33.5t-44.5 -88.5q0 -45 33.5 -70t100.5 -34l82 -10q209 -25 209 -189q0 -58 -29.5 -100t-83 -65.5t-125.5 -23.5
q-118 0 -188 56t-80 150h79q12 -70 58.5 -103.5t131.5 -33.5q72 0 116.5 32t44.5 87q0 96 -141 112z" />
    <glyph glyph-name="T" unicode="T" horiz-adv-x="542" 
d="M509 666v-72h-200v-594h-75v594h-200v72h475z" />
    <glyph glyph-name="U" unicode="U" horiz-adv-x="602" 
d="M49 666h75v-411q0 -90 47.5 -140t131.5 -50q83 0 129 50t46 140v411h76v-411q0 -79 -31.5 -138.5t-88 -92t-131.5 -32.5q-76 0 -133 32.5t-89 92t-32 138.5v411z" />
    <glyph glyph-name="V" unicode="V" horiz-adv-x="641" 
d="M33 666h82l206 -576l205 576h83l-246 -666h-85z" />
    <glyph glyph-name="W" unicode="W" horiz-adv-x="993" 
d="M33 666h82l150 -571l186 571h89l182 -571l157 571h82l-197 -666h-86l-183 573l-185 -573h-88z" />
    <glyph glyph-name="X" unicode="X" horiz-adv-x="595" 
d="M33 666h90l174 -294l177 294h90l-203 -335l203 -331h-91l-174 292l-179 -292h-87l202 333z" />
    <glyph glyph-name="Y" unicode="Y" horiz-adv-x="595" 
d="M259 229l-226 437h87l177 -350l180 350h87l-230 -437v-229h-75v229z" />
    <glyph glyph-name="Z" unicode="Z" horiz-adv-x="574" 
d="M46 666h482v-82l-398 -516h398v-68h-482v81l397 516h-397v69z" />
    <glyph glyph-name="bracketleft" unicode="[" horiz-adv-x="257" 
d="M119 635v-697h122v-71h-197v840h197v-72h-122z" />
    <glyph glyph-name="backslash" unicode="\" horiz-adv-x="421" 
d="M119 666l267 -666h-84l-266 666h83z" />
    <glyph glyph-name="bracketright" unicode="]" horiz-adv-x="257" 
d="M138 -62v697h-121v72h196v-840h-196v71h121z" />
    <glyph glyph-name="asciicircum" unicode="^" horiz-adv-x="393" 
d="M159 720h76l123 -208h-63l-98 167l-99 -167h-62z" />
    <glyph glyph-name="underscore" unicode="_" horiz-adv-x="588" 
d="M34 0h521v-64h-521v64z" />
    <glyph glyph-name="grave" unicode="`" horiz-adv-x="282" 
d="M36 720h93l118 -170h-63z" />
    <glyph glyph-name="a" unicode="a" horiz-adv-x="526" 
d="M471 340v-340h-76v91q-28 -46 -75.5 -74t-106.5 -28q-49 0 -87.5 19.5t-60 54t-21.5 79.5q0 62 38.5 99t108.5 41l144 11q33 2 46.5 13.5t13.5 37.5v2q0 48 -37.5 80.5t-91.5 32.5q-127 0 -139 -109h-79q5 79 64 126t153 47q59 0 105.5 -24t73.5 -65.5t27 -93.5zM121 144
q0 -41 31 -65t83 -24q46 0 82 21.5t57 58.5t21 84v16l-178 -12q-96 -7 -96 -79z" />
    <glyph glyph-name="b" unicode="b" horiz-adv-x="575" 
d="M54 717h76v-300q27 50 72.5 78.5t103.5 28.5q67 0 117.5 -33.5t79 -93t28.5 -139.5t-28.5 -140.5t-79 -94t-117.5 -33.5q-58 0 -103.5 28.5t-72.5 79.5v-98h-76v717zM453 258q0 93 -42.5 144.5t-118.5 51.5q-78 0 -120 -51.5t-42 -144.5q0 -94 42 -146t120 -52
q76 0 118.5 52t42.5 146z" />
    <glyph glyph-name="c" unicode="c" horiz-adv-x="559" 
d="M44 258q0 80 30 139.5t84 93t126 33.5q64 0 114.5 -25t81.5 -70.5t36 -106.5h-78q-3 62 -45 97t-109 35q-78 0 -120 -51.5t-42 -144.5q0 -94 42.5 -146t119.5 -52q67 0 108.5 32.5t45.5 90.5h78q-9 -89 -72.5 -141t-159.5 -52q-72 0 -126 33.5t-84 94t-30 140.5z" />
    <glyph glyph-name="d" unicode="d" horiz-adv-x="575" 
d="M521 717v-717h-75v99q-28 -51 -73.5 -80t-103.5 -29q-68 0 -118.5 33.5t-78.5 94t-28 140.5t28 139.5t78.5 93t118.5 33.5q58 0 103.5 -28.5t73.5 -79.5v301h75zM122 258q0 -94 42.5 -146t119.5 -52t119.5 52t42.5 146q0 93 -42.5 144.5t-119.5 51.5t-119.5 -51.5
t-42.5 -144.5z" />
    <glyph glyph-name="e" unicode="e" horiz-adv-x="566" 
d="M44 258q0 82 29.5 141t83 91t126.5 32q70 0 123.5 -33t84.5 -90.5t31 -130.5v-31h-400q5 -87 47.5 -132.5t119.5 -45.5q63 0 100.5 28t46.5 75h80q-17 -82 -73.5 -126t-153.5 -44q-75 0 -130 32.5t-85 92t-30 141.5zM283 457q-143 0 -159 -159h317q-6 73 -49 116t-109 43
z" />
    <glyph glyph-name="f" unicode="f" horiz-adv-x="330" 
d="M34 446v66h81v74q0 48 19.5 76.5t50.5 41.5t66 13h46v-66h-40q-29 0 -48 -14.5t-19 -56.5v-68h107v-66h-107v-446h-75v446h-81z" />
    <glyph glyph-name="g" unicode="g" horiz-adv-x="575" 
d="M521 512v-523q0 -56 -28.5 -98.5t-79 -66.5t-118.5 -24q-101 0 -166 45.5t-77 121.5h79q6 -47 48.5 -73t113.5 -26q72 0 112.5 33t40.5 93v120q-28 -50 -73.5 -77.5t-104.5 -27.5q-67 0 -117.5 32t-78.5 90t-28 136q0 77 28 134.5t78.5 89.5t117.5 32q59 0 104.5 -27.5
t73.5 -76.5v93h75zM122 267q0 -90 42.5 -139t119.5 -49t119.5 49t42.5 139q0 88 -42.5 137.5t-119.5 49.5t-119.5 -49.5t-42.5 -137.5z" />
    <glyph glyph-name="h" unicode="h" horiz-adv-x="538" 
d="M410 310q0 75 -37.5 108.5t-100.5 33.5q-60 0 -101 -38t-41 -97v-317h-76v717h76v-284q28 43 73 67t91 24q83 0 137 -51t54 -147v-326h-75v310z" />
    <glyph glyph-name="i" unicode="i" 
d="M47 668h90v-84h-90v84zM54 512h76v-512h-76v512z" />
    <glyph glyph-name="j" unicode="j" 
d="M47 668h90v-84h-90v84zM-36 -96h32q26 0 42 14t16 57v537h76v-543q0 -49 -18.5 -78.5t-47.5 -43t-61 -13.5h-39v70z" />
    <glyph glyph-name="k" unicode="k" horiz-adv-x="504" 
d="M368 512h95l-219 -251l229 -261h-93l-190 213l-60 -69v-144h-76v717h76v-484z" />
    <glyph glyph-name="l" unicode="l" 
d="M54 717h76v-717h-76v717z" />
    <glyph glyph-name="m" unicode="m" horiz-adv-x="852" 
d="M389 310q0 75 -34.5 108.5t-92.5 33.5q-56 0 -94 -38t-38 -97v-317h-76v512h76v-76q27 42 69 65t85 23q58 0 102 -28.5t63 -82.5q25 53 72.5 82t97.5 29q77 0 128 -51t51 -147v-326h-75v310q0 75 -34 108.5t-92 33.5q-56 0 -94.5 -38t-38.5 -97v-317h-75v310z" />
    <glyph glyph-name="n" unicode="n" horiz-adv-x="538" 
d="M410 310q0 75 -37.5 108.5t-99.5 33.5q-61 0 -102 -38t-41 -97v-317h-76v512h76v-79q28 43 73 67t92 24q83 0 136.5 -51t53.5 -147v-326h-75v310z" />
    <glyph glyph-name="o" unicode="o" horiz-adv-x="568" 
d="M44 258q0 80 30 139.5t84.5 93t126.5 33.5q71 0 125 -33.5t84 -93t30 -139.5t-30 -140.5t-84 -94t-125 -33.5q-72 0 -126.5 33.5t-84.5 94t-30 140.5zM446 258q0 93 -42.5 144.5t-118.5 51.5q-78 0 -120.5 -51.5t-42.5 -144.5q0 -94 42.5 -146t120.5 -52q76 0 118.5 52
t42.5 146z" />
    <glyph glyph-name="p" unicode="p" horiz-adv-x="575" 
d="M54 512h76v-95q27 50 72.5 78.5t103.5 28.5q67 0 117.5 -33.5t79 -93t28.5 -139.5t-28.5 -140.5t-79 -94t-117.5 -33.5q-58 0 -103.5 28.5t-72.5 79.5v-265h-76v679zM453 258q0 93 -42.5 144.5t-118.5 51.5q-78 0 -120 -51.5t-42 -144.5q0 -94 42 -146t120 -52
q76 0 118.5 52t42.5 146z" />
    <glyph glyph-name="q" unicode="q" horiz-adv-x="575" 
d="M521 512v-679h-75v266q-28 -51 -73.5 -80t-103.5 -29q-68 0 -118.5 33.5t-78.5 94t-28 140.5t28 139.5t78.5 93t118.5 33.5q58 0 103.5 -28.5t73.5 -79.5v96h75zM122 258q0 -94 42.5 -146t119.5 -52t119.5 52t42.5 146q0 93 -42.5 144.5t-119.5 51.5t-119.5 -51.5
t-42.5 -144.5z" />
    <glyph glyph-name="r" unicode="r" horiz-adv-x="333" 
d="M54 512h76v-77q25 42 64 64.5t80 22.5h23v-79h-22q-41 0 -74 -17t-52 -47t-19 -69v-310h-76v512z" />
    <glyph glyph-name="s" unicode="s" horiz-adv-x="514" 
d="M294 218l-83 11q-79 9 -120.5 43.5t-41.5 99.5q0 69 53.5 109.5t147.5 40.5q89 0 144.5 -44t63.5 -120h-75q-9 51 -41.5 76t-92.5 25q-56 0 -90.5 -23t-34.5 -60t25 -54t73 -23l84 -10q84 -10 124.5 -47.5t40.5 -106.5q0 -66 -54.5 -105t-143.5 -39q-101 0 -160.5 44.5
t-68.5 118.5h79q17 -100 150 -100q55 0 89 21.5t34 58.5q0 72 -102 84z" />
    <glyph glyph-name="t" unicode="t" horiz-adv-x="330" 
d="M297 68v-68h-46q-32 0 -60 13t-45.5 41.5t-17.5 76.5v315h-94v66h94v133h75v-133h94v-66h-94v-305q0 -44 15 -58.5t39 -14.5h40z" />
    <glyph glyph-name="u" unicode="u" horiz-adv-x="530" 
d="M130 208q0 -78 36 -113t96 -35q39 0 70.5 18.5t50 50.5t18.5 73v310h75v-512h-75v83q-27 -45 -71.5 -70t-89.5 -25q-81 0 -133.5 53t-52.5 152v319h76v-304z" />
    <glyph glyph-name="v" unicode="v" horiz-adv-x="553" 
d="M34 512h82l162 -427l159 427h83l-200 -512h-86z" />
    <glyph glyph-name="w" unicode="w" horiz-adv-x="793" 
d="M34 512h82l109 -420l128 420h86l124 -420l115 420h82l-157 -512h-82l-125 423l-128 -423h-84z" />
    <glyph glyph-name="x" unicode="x" horiz-adv-x="522" 
d="M34 512h86l139 -214l144 214h86l-167 -253l167 -259h-86l-139 221l-143 -221h-87l167 260z" />
    <glyph glyph-name="y" unicode="y" horiz-adv-x="557" 
d="M62 -90h71q36 0 57 14.5t34 51.5l12 29l-202 507h82l164 -422l160 422h83l-210 -544q-28 -71 -63 -101t-90 -30h-98v73z" />
    <glyph glyph-name="z" unicode="z" horiz-adv-x="483" 
d="M46 512h392v-78l-307 -370h307v-64h-392v78l305 370h-305v64z" />
    <glyph glyph-name="braceleft" unicode="{" horiz-adv-x="257" 
d="M241 637h-23q-31 0 -45 -17t-14 -54v-199q0 -61 -53 -80q53 -19 53 -81v-198q0 -71 59 -71h23v-70h-32q-58 0 -90.5 35t-32.5 98v199q0 53 -45 53h-26v69h26q45 0 45 55v198q0 63 32.5 98t90.5 35h32v-70z" />
    <glyph glyph-name="bar" unicode="|" 
d="M54 820h76v-1025h-76v1025z" />
    <glyph glyph-name="braceright" unicode="}" horiz-adv-x="257" 
d="M15 -63h24q30 0 43.5 17t13.5 54v198q0 62 53 81q-53 19 -53 80v199q0 37 -13.5 54t-43.5 17h-24v70h33q58 0 90 -35t32 -98v-198q0 -55 46 -55h25v-69h-25q-46 0 -46 -53v-199q0 -63 -32 -98t-90 -35h-33v70z" />
    <glyph glyph-name="asciitilde" unicode="~" horiz-adv-x="451" 
d="M139 513q36 0 58.5 -17t41.5 -35q17 -16 33 -29t38 -13q24 0 38 24t14 64h55q0 -69 -28.5 -109.5t-76.5 -40.5q-35 0 -57 14.5t-40 31.5q-19 17 -35 33t-38 16q-24 0 -37.5 -25t-13.5 -66h-57q0 72 28 112t77 40z" />
    <glyph glyph-name="uni00A0" unicode="&#xa0;" horiz-adv-x="204" 
 />
    <glyph glyph-name="exclamdown" unicode="&#xa1;" 
d="M47 512h90v-85h-90v85zM61 356h61l8 -510h-76z" />
    <glyph glyph-name="cent" unicode="&#xa2;" horiz-adv-x="559" 
d="M44 335q0 75 26.5 132.5t74.5 92t113 39.5v67h53v-67q86 -7 142 -61.5t63 -139.5h-77q-2 56 -36.5 91t-91.5 42v-394q56 6 90.5 38t37.5 85h77q-9 -82 -64.5 -133t-140.5 -59v-68h-53v68q-64 6 -112.5 41t-75 92.5t-26.5 133.5zM120 335q0 -87 36 -138.5t102 -59.5v394
q-66 -8 -102 -59t-36 -137z" />
    <glyph glyph-name="sterling" unicode="&#xa3;" horiz-adv-x="552" 
d="M37 355h92v117q0 60 24 105.5t66 71t99 25.5q80 0 133.5 -46t60.5 -121h-76q-5 47 -36 73t-82 26q-54 0 -84 -35.5t-30 -98.5v-117h226v-63h-226v-66q0 -44 -18.5 -88t-67.5 -68h398v-70h-480v76q54 24 73.5 69t19.5 89v58h-92v63z" />
    <glyph glyph-name="currency" unicode="&#xa4;" horiz-adv-x="510" 
d="M342 419l81 82l50 -49l-82 -82q21 -36 21 -84t-23 -87l84 -84l-50 -49l-84 85q-18 -11 -39 -17.5t-45 -6.5t-45 6.5t-39 17.5l-84 -85l-49 49l84 84q-25 39 -25 87q0 46 22 85l-81 81l49 49l81 -81q38 25 86 25q50 0 88 -26zM158 286q0 -47 26 -74.5t71 -27.5
q44 0 70 27.5t26 74.5t-26.5 74.5t-70.5 27.5q-43 0 -69.5 -27.5t-26.5 -74.5z" />
    <glyph glyph-name="yen" unicode="&#xa5;" horiz-adv-x="595" 
d="M88 144h171v64h-171v61h160l-215 397h87l177 -333l180 333h87l-219 -397h156v-61h-167v-64h167v-61h-167v-83h-75v83h-171v61z" />
    <glyph glyph-name="brokenbar" unicode="&#xa6;" 
d="M54 820h76v-459h-76v459zM130 254v-459h-76v459h76z" />
    <glyph glyph-name="section" unicode="&#xa7;" horiz-adv-x="514" 
d="M294 190l-83 10q-83 11 -122.5 39.5t-39.5 79.5q0 39 24.5 67t69.5 40q-91 31 -91 111q0 64 52 102t140 38q97 0 157.5 -41.5t69.5 -112.5h-80q-18 91 -142 91q-57 0 -89.5 -19.5t-32.5 -53.5q0 -26 22.5 -41.5t72.5 -22.5l82 -10q84 -10 123 -39t39 -81q0 -39 -22 -67
t-62 -42q80 -32 80 -108q0 -65 -51.5 -102.5t-139.5 -37.5q-97 0 -157.5 41t-69.5 113h79q17 -91 143 -91q57 0 89.5 19t32.5 53q0 27 -22.5 42.5t-71.5 22.5zM223 267l73 -10q43 1 68.5 21t25.5 54q0 29 -22 45.5t-76 23.5l-74 9q-43 -1 -68.5 -21.5t-25.5 -53.5
q0 -30 22.5 -45.5t76.5 -22.5z" />
    <glyph glyph-name="dieresis" unicode="&#xa8;" horiz-adv-x="367" 
d="M248 602h86v-90h-86v90zM34 602h86v-90h-86v90z" />
    <glyph glyph-name="copyright" unicode="&#xa9;" horiz-adv-x="854" 
d="M809 333q0 -114 -49 -201t-136 -136t-202 -49q-113 0 -197.5 47t-131.5 131.5t-47 196.5q0 116 48.5 205t135 139.5t199.5 50.5q112 0 198 -49t134 -135.5t48 -199.5zM422 13q95 0 166.5 40.5t111.5 112.5t40 168q0 95 -39 166t-109.5 110.5t-164.5 39.5t-164.5 -40
t-109.5 -112t-39 -169q0 -95 38.5 -166.5t107.5 -110.5t162 -39zM230 332q0 64 24 112t68.5 74.5t102.5 26.5q79 0 130.5 -46t57.5 -121h-71q-2 48 -33.5 76t-83.5 28q-59 0 -91.5 -39t-32.5 -111t32.5 -112t91.5 -40q52 0 83 25t34 69h71q-7 -72 -58.5 -114.5t-129.5 -42.5
q-58 0 -102 27t-68.5 75.5t-24.5 112.5z" />
    <glyph glyph-name="ordfeminine" unicode="&#xaa;" horiz-adv-x="448" 
d="M396 382q0 -72 12 -113h-70q-7 27 -9 59q-23 -32 -58.5 -50.5t-76.5 -18.5q-66 0 -108 34t-42 87q0 47 31 76t82 33l118 9q28 2 40.5 9.5t12.5 24.5v3q0 33 -28.5 55t-68.5 22q-101 0 -110 -74h-73q5 62 54 98t128 36q47 0 84.5 -18t59.5 -49.5t22 -70.5v-152zM114 382
q0 -28 24.5 -44.5t64.5 -16.5q54 0 89.5 31.5t35.5 80.5v13l-151 -11q-63 -4 -63 -53z" />
    <glyph glyph-name="guillemotleft" unicode="&#xab;" horiz-adv-x="590" 
d="M557 526v-95l-187 -150l187 -153v-87l-250 200v85zM284 526v-95l-187 -150l187 -153v-87l-249 200v85z" />
    <glyph glyph-name="logicalnot" unicode="&#xac;" horiz-adv-x="546" 
d="M437 248h-403v69h478v-193h-75v124z" />
    <glyph glyph-name="uni00AD" unicode="&#xad;" horiz-adv-x="395" 
d="M34 317h326v-69h-326v69z" />
    <glyph glyph-name="registered" unicode="&#xae;" horiz-adv-x="854" 
d="M809 333q0 -114 -49 -201t-136 -136t-202 -49q-113 0 -197.5 47t-131.5 131.5t-47 196.5q0 116 48.5 205t135 139.5t199.5 50.5q112 0 198 -49t134 -135.5t48 -199.5zM422 13q95 0 166.5 40.5t111.5 112.5t40 168q0 95 -39 166t-109.5 110.5t-164.5 39.5t-164.5 -40
t-109.5 -112t-39 -169q0 -95 38.5 -166.5t107.5 -110.5t162 -39zM448 283h-112v-147h-67v397h211q58 0 93.5 -31.5t35.5 -83.5q0 -40 -20.5 -68.5t-55.5 -41.5q32 -7 47.5 -28t20.5 -60l10 -84h-66l-9 75q-5 38 -25.5 55t-62.5 17zM470 474h-134v-133h134q33 0 52 19t19 53
q0 29 -19 45t-52 16z" />
    <glyph glyph-name="macron" unicode="&#xaf;" horiz-adv-x="385" 
d="M34 594h318v-64h-318v64z" />
    <glyph glyph-name="degree" unicode="&#xb0;" horiz-adv-x="349" 
d="M316 537q0 -62 -39.5 -101.5t-100.5 -39.5q-63 0 -102.5 39.5t-39.5 101.5t39.5 102t101.5 40t101.5 -40t39.5 -102zM98 537q0 -39 21 -61t57 -22q35 0 55.5 22.5t20.5 60.5t-21 60.5t-56 22.5q-36 0 -56.5 -22.5t-20.5 -60.5z" />
    <glyph glyph-name="plusminus" unicode="&#xb1;" horiz-adv-x="566" 
d="M318 333h214v-70h-214v-205h-70v205h-214v70h214v205h70v-205zM532 17v-69h-498v69h498z" />
    <glyph glyph-name="uni00B2" unicode="&#xb2;" horiz-adv-x="397" 
d="M109 434h248v-61h-321v18q0 55 24.5 87t61.5 50t73 31q39 14 67 31.5t28 50.5q0 34 -22.5 53t-62.5 19q-43 0 -69.5 -22t-28.5 -59h-71q5 63 52 102t117 39t113 -37t43 -99q0 -34 -19 -57.5t-49 -40t-62 -29.5q-46 -18 -80.5 -34.5t-41.5 -41.5z" />
    <glyph glyph-name="uni00B3" unicode="&#xb3;" horiz-adv-x="400" 
d="M171 540v56h59q53 0 53 51q0 31 -22.5 48.5t-63.5 17.5q-37 0 -60 -17.5t-25 -47.5h-71q5 56 48 91t109 35q69 0 112.5 -33.5t43.5 -89.5q0 -55 -48 -82q58 -27 58 -89q0 -52 -44 -83.5t-116 -31.5q-70 0 -116.5 33t-51.5 87h71q2 -27 28 -43t68 -16t66 15.5t24 43.5
q0 55 -63 55h-59z" />
    <glyph glyph-name="acute" unicode="&#xb4;" horiz-adv-x="270" 
d="M236 675l-139 -163h-63l113 163h89z" />
    <glyph glyph-name="mu" unicode="&#xb5;" horiz-adv-x="530" 
d="M130 208q0 -78 36 -113t96 -35q39 0 70.5 18.5t50 50.5t18.5 73v310h75v-512h-75v83q-27 -45 -71.5 -70t-89.5 -25q-66 0 -110 38v-193h-76v679h76v-304z" />
    <glyph glyph-name="paragraph" unicode="&#xb6;" horiz-adv-x="523" 
d="M242 326q-93 0 -149.5 47.5t-56.5 123.5t56.5 122.5t149.5 46.5h225v-666h-72v596h-80v-596h-73v326z" />
    <glyph glyph-name="periodcentered" unicode="&#xb7;" 
d="M47 376h90v-92h-90v92z" />
    <glyph glyph-name="cedilla" unicode="&#xb8;" horiz-adv-x="296" 
d="M100 10h55l-14 -66h15q48 0 77 -29.5t29 -77.5q0 -52 -37 -82.5t-100 -30.5h-91v65h83q76 0 76 57q0 21 -14 32.5t-39 11.5h-34l-25 33z" />
    <glyph glyph-name="uni00B9" unicode="&#xb9;" horiz-adv-x="243" 
d="M137 768h68v-395h-68v254h-111v58h45q33 0 49.5 11t16.5 42v30z" />
    <glyph glyph-name="ordmasculine" unicode="&#xba;" horiz-adv-x="448" 
d="M36 467q0 92 51.5 148t137.5 56q84 0 135.5 -56t51.5 -148q0 -93 -51.5 -150t-135.5 -57q-86 0 -137.5 57t-51.5 150zM343 467q0 67 -31 104t-87 37q-57 0 -88.5 -37t-31.5 -104q0 -68 31.5 -106t88.5 -38q56 0 87 38t31 106z" />
    <glyph glyph-name="guillemotright" unicode="&#xbb;" horiz-adv-x="590" 
d="M35 41v94l186 151l-186 152v88l249 -200v-85zM307 41v94l187 151l-187 152v88l250 -200v-85z" />
    <glyph glyph-name="onequarter" unicode="&#xbc;" horiz-adv-x="888" 
d="M198 666h68v-396h-68v255h-112v58h44q33 0 50.5 11t17.5 42v30zM544 666h75l-275 -666h-74zM778 96v-96h-66v96h-206v69l192 230h80v-241h73v-58h-73zM712 154v167l-136 -167h136z" />
    <glyph glyph-name="onehalf" unicode="&#xbd;" horiz-adv-x="888" 
d="M198 666h68v-396h-68v255h-112v58h44q33 0 50.5 11t17.5 42v30zM544 666h75l-275 -666h-74zM596 61h249v-61h-321v18q0 55 24.5 87t61.5 50t73 31q39 14 67 31.5t28 50.5q0 34 -22.5 53t-62.5 19q-43 0 -69.5 -22t-28.5 -59h-71q5 63 52 102.5t117 39.5t113 -37.5
t43 -99.5q0 -34 -19 -57.5t-49 -40t-62 -29.5q-46 -18 -80.5 -34.5t-42.5 -41.5z" />
    <glyph glyph-name="threequarters" unicode="&#xbe;" horiz-adv-x="888" 
d="M171 437v56h59q53 0 53 52q0 31 -22.5 48.5t-63.5 17.5q-37 0 -60 -17.5t-25 -47.5h-71q5 56 48 91t109 35q69 0 112.5 -33.5t43.5 -89.5t-49 -82q59 -27 59 -89q0 -52 -44 -84t-116 -32q-70 0 -116.5 33.5t-51.5 87.5h71q2 -27 28 -43t68 -16t66 15.5t24 43.5
q0 54 -63 54h-59zM544 666h75l-275 -666h-74zM778 96v-96h-66v96h-206v69l192 230h80v-241h73v-58h-73zM712 154v167l-136 -167h136z" />
    <glyph glyph-name="questiondown" unicode="&#xbf;" horiz-adv-x="541" 
d="M224 512h90v-85h-90v85zM306 356q0 -48 -16 -81.5t-39.5 -58t-47.5 -44.5q-32 -28 -56.5 -56.5t-24.5 -76.5q0 -64 40 -98.5t111 -34.5q64 0 103.5 38t42.5 102h78q-4 -61 -34 -108t-78.5 -73.5t-109.5 -26.5q-69 0 -121 25t-81 70t-29 106q0 44 16 75.5t40.5 55
t49.5 45.5q31 28 55.5 59.5t26.5 81.5h74z" />
    <glyph glyph-name="Agrave" unicode="&#xc0;" horiz-adv-x="641" 
d="M177 880h90l112 -163h-62zM609 0h-82l-64 178h-284l-63 -178h-83l246 666h85zM319 576l-117 -332h237z" />
    <glyph glyph-name="Aacute" unicode="&#xc1;" horiz-adv-x="641" 
d="M464 880l-140 -163h-62l112 163h90zM609 0h-82l-64 178h-284l-63 -178h-83l246 666h85zM319 576l-117 -332h237z" />
    <glyph glyph-name="Acircumflex" unicode="&#xc2;" horiz-adv-x="641" 
d="M277 888h76l162 -171h-82l-117 127l-118 -127h-83zM609 0h-82l-64 178h-284l-63 -178h-83l246 666h85zM319 576l-117 -332h237z" />
    <glyph glyph-name="Atilde" unicode="&#xc3;" horiz-adv-x="641" 
d="M235 869q32 0 53 -17t39 -35q14 -16 28 -29.5t34 -13.5q24 0 38.5 24t14.5 65h54q0 -70 -28.5 -110t-76.5 -40q-32 0 -52.5 14.5t-37.5 31.5q-16 17 -29.5 32.5t-33.5 15.5q-24 0 -37.5 -24.5t-13.5 -65.5h-57q0 72 28 112t77 40zM609 0h-82l-64 178h-284l-63 -178h-83
l246 666h85zM319 576l-117 -332h237z" />
    <glyph glyph-name="Adieresis" unicode="&#xc4;" horiz-adv-x="641" 
d="M379 807h86v-90h-86v90zM164 807h87v-90h-87v90zM609 0h-82l-64 178h-284l-63 -178h-83l246 666h85zM319 576l-117 -332h237z" />
    <glyph glyph-name="Aring" unicode="&#xc5;" horiz-adv-x="641" 
d="M609 0h-82l-64 178h-284l-63 -178h-83l230 623q-39 14 -61.5 48t-22.5 82q0 62 37.5 100t99.5 38t100 -38t38 -100q0 -45 -20.5 -78t-55.5 -48zM240 753q0 -40 20 -62t57 -22q36 0 56 22t20 62q0 39 -20.5 61t-56.5 22t-56 -22t-20 -61zM319 576l-117 -332h237z" />
    <glyph glyph-name="AE" unicode="&#xc6;" horiz-adv-x="974" 
d="M929 666v-72h-374v-218h345v-72h-345v-233h374v-71h-449v178h-280l-87 -178h-80l323 666h573zM230 244h250v350h-79z" />
    <glyph glyph-name="Ccedilla" unicode="&#xc7;" horiz-adv-x="659" 
d="M44 335q0 103 36 179.5t101 119t152 42.5q79 0 140.5 -28.5t98.5 -81t43 -123.5h-78q-4 75 -59 118.5t-144 43.5q-100 0 -156 -71t-56 -199q0 -129 56 -200t156 -71q88 0 143 43.5t60 118.5h78q-6 -69 -40.5 -120t-90.5 -80t-128 -33l-10 -49h16q47 0 76 -29.5t29 -77.5
q0 -52 -37 -82.5t-99 -30.5h-91v65h83q75 0 75 57q0 21 -14 32.5t-39 11.5h-34l-25 33l16 71q-78 8 -136 52t-90 118t-32 171z" />
    <glyph glyph-name="Egrave" unicode="&#xc8;" horiz-adv-x="547" 
d="M146 880h89l113 -163h-62zM504 666v-72h-374v-218h345v-72h-345v-233h374v-71h-450v666h450z" />
    <glyph glyph-name="Eacute" unicode="&#xc9;" horiz-adv-x="547" 
d="M432 880l-140 -163h-62l112 163h90zM504 666v-72h-374v-218h345v-72h-345v-233h374v-71h-450v666h450z" />
    <glyph glyph-name="Ecircumflex" unicode="&#xca;" horiz-adv-x="547" 
d="M245 888h76l162 -171h-82l-117 127l-118 -127h-83zM504 666v-72h-374v-218h345v-72h-345v-233h374v-71h-450v666h450z" />
    <glyph glyph-name="Edieresis" unicode="&#xcb;" horiz-adv-x="547" 
d="M347 807h86v-90h-86v90zM133 807h86v-90h-86v90zM504 666v-72h-374v-218h345v-72h-345v-233h374v-71h-450v666h450z" />
    <glyph glyph-name="Igrave" unicode="&#xcc;" 
d="M-50 880h89l113 -163h-62zM54 666h76v-666h-76v666z" />
    <glyph glyph-name="Iacute" unicode="&#xcd;" 
d="M236 880l-140 -163h-62l112 163h90zM54 666h76v-666h-76v666z" />
    <glyph glyph-name="Icircumflex" unicode="&#xce;" 
d="M50 888h75l163 -171h-83l-117 127l-118 -127h-83zM54 666h76v-666h-76v666z" />
    <glyph glyph-name="Idieresis" unicode="&#xcf;" 
d="M151 807h87v-90h-87v90zM-63 807h87v-90h-87v90zM54 666h76v-666h-76v666z" />
    <glyph glyph-name="Eth" unicode="&#xd0;" horiz-adv-x="723" 
d="M31 359h111v307h249q86 0 151 -43t101.5 -120.5t36.5 -181.5q0 -96 -33.5 -168.5t-94 -112.5t-141.5 -40h-269v291h-111v68zM218 596v-237h197v-68h-197v-221h183q94 0 147 66t53 185q0 131 -58 203t-163 72h-162z" />
    <glyph glyph-name="Ntilde" unicode="&#xd1;" horiz-adv-x="636" 
d="M242 869q33 0 54 -17t38 -35q15 -16 29 -29.5t33 -13.5q24 0 38.5 24t14.5 65h54q0 -70 -28 -110t-77 -40q-32 0 -52 14.5t-37 31.5t-30.5 32.5t-32.5 15.5q-24 0 -38 -24.5t-14 -65.5h-56q0 72 27.5 112t76.5 40zM507 666h75v-666h-82l-370 566v-566h-76v666h100
l353 -545v545z" />
    <glyph glyph-name="Ograve" unicode="&#xd2;" horiz-adv-x="687" 
d="M202 880h89l113 -163h-62zM44 325q0 106 37.5 184.5t105 122.5t157.5 44t157.5 -44t105 -122.5t37.5 -184.5q0 -100 -37.5 -175t-105 -116.5t-157.5 -41.5t-157.5 41.5t-105 116.5t-37.5 175zM566 325q0 132 -58.5 206t-163.5 74t-163.5 -74t-58.5 -206
q0 -124 58.5 -192.5t163.5 -68.5t163.5 68.5t58.5 192.5z" />
    <glyph glyph-name="Oacute" unicode="&#xd3;" horiz-adv-x="687" 
d="M488 880l-139 -163h-63l112 163h90zM44 325q0 106 37.5 184.5t105 122.5t157.5 44t157.5 -44t105 -122.5t37.5 -184.5q0 -100 -37.5 -175t-105 -116.5t-157.5 -41.5t-157.5 41.5t-105 116.5t-37.5 175zM566 325q0 132 -58.5 206t-163.5 74t-163.5 -74t-58.5 -206
q0 -124 58.5 -192.5t163.5 -68.5t163.5 68.5t58.5 192.5z" />
    <glyph glyph-name="Ocircumflex" unicode="&#xd4;" horiz-adv-x="687" 
d="M302 888h75l163 -171h-83l-117 127l-117 -127h-84zM44 325q0 106 37.5 184.5t105 122.5t157.5 44t157.5 -44t105 -122.5t37.5 -184.5q0 -100 -37.5 -175t-105 -116.5t-157.5 -41.5t-157.5 41.5t-105 116.5t-37.5 175zM566 325q0 132 -58.5 206t-163.5 74t-163.5 -74
t-58.5 -206q0 -124 58.5 -192.5t163.5 -68.5t163.5 68.5t58.5 192.5z" />
    <glyph glyph-name="Otilde" unicode="&#xd5;" horiz-adv-x="687" 
d="M260 869q32 0 53 -17t39 -35q14 -16 28 -29.5t33 -13.5q24 0 38.5 24t14.5 65h55q0 -70 -28.5 -110t-76.5 -40q-32 0 -52.5 14.5t-37.5 31.5q-16 17 -30 32.5t-33 15.5q-24 0 -38 -24.5t-14 -65.5h-56q0 72 27.5 112t77.5 40zM44 325q0 106 37.5 184.5t105 122.5
t157.5 44t157.5 -44t105 -122.5t37.5 -184.5q0 -100 -37.5 -175t-105 -116.5t-157.5 -41.5t-157.5 41.5t-105 116.5t-37.5 175zM566 325q0 132 -58.5 206t-163.5 74t-163.5 -74t-58.5 -206q0 -124 58.5 -192.5t163.5 -68.5t163.5 68.5t58.5 192.5z" />
    <glyph glyph-name="Odieresis" unicode="&#xd6;" horiz-adv-x="687" 
d="M403 807h87v-90h-87v90zM189 807h87v-90h-87v90zM44 325q0 106 37.5 184.5t105 122.5t157.5 44t157.5 -44t105 -122.5t37.5 -184.5q0 -100 -37.5 -175t-105 -116.5t-157.5 -41.5t-157.5 41.5t-105 116.5t-37.5 175zM566 325q0 132 -58.5 206t-163.5 74t-163.5 -74
t-58.5 -206q0 -124 58.5 -192.5t163.5 -68.5t163.5 68.5t58.5 192.5z" />
    <glyph glyph-name="multiply" unicode="&#xd7;" horiz-adv-x="566" 
d="M284 337l168 171l48 -50l-169 -168l169 -168l-48 -50l-168 170l-169 -170l-49 50l170 168l-170 168l49 50z" />
    <glyph glyph-name="Oslash" unicode="&#xd8;" horiz-adv-x="687" 
d="M44 325q0 106 37.5 184.5t105 122.5t157.5 44q54 0 100.5 -16.5t82.5 -46.5l69 87l48 -39l-74 -93q35 -45 54.5 -107t19.5 -136q0 -100 -37.5 -175t-105 -116.5t-157.5 -41.5q-54 0 -100.5 15.5t-83.5 44.5l-68 -86l-48 39l72 91q-34 43 -53 101t-19 128zM122 325
q0 -104 42 -170l319 402q-55 48 -139 48q-105 0 -163.5 -74t-58.5 -206zM566 325q0 113 -43 184l-318 -401q55 -44 139 -44q105 0 163.5 68.5t58.5 192.5z" />
    <glyph glyph-name="Ugrave" unicode="&#xd9;" horiz-adv-x="602" 
d="M163 880h89l113 -163h-62zM49 666h75v-411q0 -90 47.5 -140t131.5 -50q83 0 129 50t46 140v411h76v-411q0 -79 -31.5 -138.5t-88 -92t-131.5 -32.5q-76 0 -133 32.5t-89 92t-32 138.5v411z" />
    <glyph glyph-name="Uacute" unicode="&#xda;" horiz-adv-x="602" 
d="M449 880l-140 -163h-62l112 163h90zM49 666h75v-411q0 -90 47.5 -140t131.5 -50q83 0 129 50t46 140v411h76v-411q0 -79 -31.5 -138.5t-88 -92t-131.5 -32.5q-76 0 -133 32.5t-89 92t-32 138.5v411z" />
    <glyph glyph-name="Ucircumflex" unicode="&#xdb;" horiz-adv-x="602" 
d="M262 888h76l162 -171h-82l-117 127l-118 -127h-83zM49 666h75v-411q0 -90 47.5 -140t131.5 -50q83 0 129 50t46 140v411h76v-411q0 -79 -31.5 -138.5t-88 -92t-131.5 -32.5q-76 0 -133 32.5t-89 92t-32 138.5v411z" />
    <glyph glyph-name="Udieresis" unicode="&#xdc;" horiz-adv-x="602" 
d="M364 807h86v-90h-86v90zM150 807h86v-90h-86v90zM49 666h75v-411q0 -90 47.5 -140t131.5 -50q83 0 129 50t46 140v411h76v-411q0 -79 -31.5 -138.5t-88 -92t-131.5 -32.5q-76 0 -133 32.5t-89 92t-32 138.5v411z" />
    <glyph glyph-name="Yacute" unicode="&#xdd;" horiz-adv-x="595" 
d="M450 880l-140 -163h-62l112 163h90zM259 229l-226 437h87l177 -350l180 350h87l-230 -437v-229h-75v229z" />
    <glyph glyph-name="Thorn" unicode="&#xde;" horiz-adv-x="579" 
d="M54 666h76v-111h191q65 0 114.5 -26.5t77 -74t27.5 -111.5q0 -60 -26 -107t-73.5 -74t-112.5 -27h-198v-135h-76v666zM130 487v-283h184q69 0 108.5 37t39.5 102q0 68 -39 106t-109 38h-184z" />
    <glyph glyph-name="germandbls" unicode="&#xdf;" horiz-adv-x="575" 
d="M300 656q-79 0 -124.5 -47.5t-45.5 -128.5v-480h-76v487q0 70 30.5 123.5t86 84t129.5 30.5q61 0 111 -26t80 -70.5t30 -98.5q0 -58 -26.5 -101.5t-72.5 -65.5q51 -21 80 -64t29 -101q0 -59 -27 -104t-76 -69.5t-114 -24.5h-90v70h87q68 0 106 35t38 99q0 59 -34 91
t-95 32h-66v68h66q57 0 87.5 35t30.5 98q0 55 -41 91.5t-103 36.5z" />
    <glyph glyph-name="agrave" unicode="&#xe0;" horiz-adv-x="526" 
d="M122 736h89l113 -163h-62zM471 340v-340h-76v91q-28 -46 -75.5 -74t-106.5 -28q-49 0 -87.5 19.5t-60 54t-21.5 79.5q0 62 38.5 99t108.5 41l144 11q33 2 46.5 13.5t13.5 37.5v2q0 48 -37.5 80.5t-91.5 32.5q-127 0 -139 -109h-79q5 79 64 126t153 47q59 0 105.5 -24
t73.5 -65.5t27 -93.5zM121 144q0 -41 31 -65t83 -24q46 0 82 21.5t57 58.5t21 84v16l-178 -12q-96 -7 -96 -79z" />
    <glyph glyph-name="aacute" unicode="&#xe1;" horiz-adv-x="526" 
d="M408 736l-140 -163h-62l112 163h90zM471 340v-340h-76v91q-28 -46 -75.5 -74t-106.5 -28q-49 0 -87.5 19.5t-60 54t-21.5 79.5q0 62 38.5 99t108.5 41l144 11q33 2 46.5 13.5t13.5 37.5v2q0 48 -37.5 80.5t-91.5 32.5q-127 0 -139 -109h-79q5 79 64 126t153 47
q59 0 105.5 -24t73.5 -65.5t27 -93.5zM121 144q0 -41 31 -65t83 -24q46 0 82 21.5t57 58.5t21 84v16l-178 -12q-96 -7 -96 -79z" />
    <glyph glyph-name="acircumflex" unicode="&#xe2;" horiz-adv-x="526" 
d="M221 744h76l162 -171h-82l-117 127l-118 -127h-83zM471 340v-340h-76v91q-28 -46 -75.5 -74t-106.5 -28q-49 0 -87.5 19.5t-60 54t-21.5 79.5q0 62 38.5 99t108.5 41l144 11q33 2 46.5 13.5t13.5 37.5v2q0 48 -37.5 80.5t-91.5 32.5q-127 0 -139 -109h-79q5 79 64 126
t153 47q59 0 105.5 -24t73.5 -65.5t27 -93.5zM121 144q0 -41 31 -65t83 -24q46 0 82 21.5t57 58.5t21 84v16l-178 -12q-96 -7 -96 -79z" />
    <glyph glyph-name="atilde" unicode="&#xe3;" horiz-adv-x="526" 
d="M179 725q33 0 54 -17t38 -35q14 -16 28.5 -29.5t33.5 -13.5q24 0 38.5 24t14.5 65h54q0 -70 -28.5 -110t-76.5 -40q-32 0 -52.5 14.5t-36.5 31.5q-17 17 -30.5 32.5t-32.5 15.5q-24 0 -38 -24.5t-14 -65.5h-56q0 72 27.5 112t76.5 40zM471 340v-340h-76v91
q-28 -46 -75.5 -74t-106.5 -28q-49 0 -87.5 19.5t-60 54t-21.5 79.5q0 62 38.5 99t108.5 41l144 11q33 2 46.5 13.5t13.5 37.5v2q0 48 -37.5 80.5t-91.5 32.5q-127 0 -139 -109h-79q5 79 64 126t153 47q59 0 105.5 -24t73.5 -65.5t27 -93.5zM121 144q0 -41 31 -65t83 -24
q46 0 82 21.5t57 58.5t21 84v16l-178 -12q-96 -7 -96 -79z" />
    <glyph glyph-name="adieresis" unicode="&#xe4;" horiz-adv-x="526" 
d="M323 663h86v-90h-86v90zM109 663h86v-90h-86v90zM471 340v-340h-76v91q-28 -46 -75.5 -74t-106.5 -28q-49 0 -87.5 19.5t-60 54t-21.5 79.5q0 62 38.5 99t108.5 41l144 11q33 2 46.5 13.5t13.5 37.5v2q0 48 -37.5 80.5t-91.5 32.5q-127 0 -139 -109h-79q5 79 64 126
t153 47q59 0 105.5 -24t73.5 -65.5t27 -93.5zM121 144q0 -41 31 -65t83 -24q46 0 82 21.5t57 58.5t21 84v16l-178 -12q-96 -7 -96 -79z" />
    <glyph glyph-name="aring" unicode="&#xe5;" horiz-adv-x="526" 
d="M398 704q0 -62 -37.5 -100t-99.5 -38t-100 38t-38 100t38 100t99 38q62 0 100 -38t38 -100zM184 704q0 -39 20 -61t57 -22q36 0 56 22t20 61q0 40 -20 61.5t-57 21.5q-36 0 -56 -21.5t-20 -61.5zM471 340v-340h-76v91q-28 -46 -75.5 -74t-106.5 -28q-49 0 -87.5 19.5
t-60 54t-21.5 79.5q0 62 38.5 99t108.5 41l144 11q33 2 46.5 13.5t13.5 37.5v2q0 48 -37.5 80.5t-91.5 32.5q-127 0 -139 -109h-79q5 79 64 126t153 47q59 0 105.5 -24t73.5 -65.5t27 -93.5zM121 144q0 -41 31 -65t83 -24q46 0 82 21.5t57 58.5t21 84v16l-178 -12
q-96 -7 -96 -79z" />
    <glyph glyph-name="ae" unicode="&#xe6;" horiz-adv-x="917" 
d="M645 -8q-79 0 -135 36.5t-83 102.5q-25 -63 -82 -102.5t-130 -39.5q-50 0 -88.5 19.5t-60.5 54t-22 79.5q0 61 38.5 98t108.5 42l144 10q33 2 46.5 14t13.5 37v2q0 48 -37.5 80.5t-92.5 32.5q-126 0 -138 -108h-79q5 78 62 125.5t148 47.5q64 0 113.5 -28t72.5 -75
q30 49 79.5 75.5t115.5 26.5q68 0 121 -33t83 -90.5t30 -130.5v-31h-398q4 -87 46.5 -132.5t119.5 -45.5q62 0 99.5 28t46.5 75h80q-17 -82 -72.5 -126t-149.5 -44zM635 457q-143 0 -159 -159h316q-6 73 -49 116t-108 43zM121 145q0 -40 31 -64t83 -24q46 0 82 21t57 58
t21 84v16l-178 -12q-96 -7 -96 -79z" />
    <glyph glyph-name="ccedilla" unicode="&#xe7;" horiz-adv-x="559" 
d="M44 258q0 80 30 139.5t84 93t126 33.5q64 0 114.5 -25t81.5 -70.5t36 -106.5h-78q-3 62 -45 97t-109 35q-78 0 -120 -51.5t-42 -144.5q0 -94 42.5 -146t119.5 -52q67 0 108.5 32.5t45.5 90.5h78q-9 -82 -64 -133t-141 -59l-10 -47h16q47 0 76 -29.5t29 -77.5
q0 -52 -37 -82.5t-100 -30.5h-91v65h83q76 0 76 57q0 21 -14 32.5t-39 11.5h-34l-25 33l15 69q-64 6 -111.5 41t-74 92.5t-26.5 132.5z" />
    <glyph glyph-name="egrave" unicode="&#xe8;" horiz-adv-x="566" 
d="M139 736h89l113 -163h-62zM44 258q0 82 29.5 141t83 91t126.5 32q70 0 123.5 -33t84.5 -90.5t31 -130.5v-31h-400q5 -87 47.5 -132.5t119.5 -45.5q63 0 100.5 28t46.5 75h80q-17 -82 -73.5 -126t-153.5 -44q-75 0 -130 32.5t-85 92t-30 141.5zM283 457q-143 0 -159 -159
h317q-6 73 -49 116t-109 43z" />
    <glyph glyph-name="eacute" unicode="&#xe9;" horiz-adv-x="566" 
d="M426 736l-140 -163h-63l113 163h90zM44 258q0 82 29.5 141t83 91t126.5 32q70 0 123.5 -33t84.5 -90.5t31 -130.5v-31h-400q5 -87 47.5 -132.5t119.5 -45.5q63 0 100.5 28t46.5 75h80q-17 -82 -73.5 -126t-153.5 -44q-75 0 -130 32.5t-85 92t-30 141.5zM283 457
q-143 0 -159 -159h317q-6 73 -49 116t-109 43z" />
    <glyph glyph-name="ecircumflex" unicode="&#xea;" horiz-adv-x="566" 
d="M239 744h76l162 -171h-83l-116 127l-118 -127h-83zM44 258q0 82 29.5 141t83 91t126.5 32q70 0 123.5 -33t84.5 -90.5t31 -130.5v-31h-400q5 -87 47.5 -132.5t119.5 -45.5q63 0 100.5 28t46.5 75h80q-17 -82 -73.5 -126t-153.5 -44q-75 0 -130 32.5t-85 92t-30 141.5z
M283 457q-143 0 -159 -159h317q-6 73 -49 116t-109 43z" />
    <glyph glyph-name="edieresis" unicode="&#xeb;" horiz-adv-x="566" 
d="M340 663h87v-90h-87v90zM126 663h87v-90h-87v90zM44 258q0 82 29.5 141t83 91t126.5 32q70 0 123.5 -33t84.5 -90.5t31 -130.5v-31h-400q5 -87 47.5 -132.5t119.5 -45.5q63 0 100.5 28t46.5 75h80q-17 -82 -73.5 -126t-153.5 -44q-75 0 -130 32.5t-85 92t-30 141.5z
M283 457q-143 0 -159 -159h317q-6 73 -49 116t-109 43z" />
    <glyph glyph-name="igrave" unicode="&#xec;" 
d="M-51 736h90l112 -163h-62zM54 512h76v-512h-76v512z" />
    <glyph glyph-name="iacute" unicode="&#xed;" 
d="M236 736l-140 -163h-62l112 163h90zM54 512h76v-512h-76v512z" />
    <glyph glyph-name="icircumflex" unicode="&#xee;" 
d="M49 744h76l162 -171h-82l-117 127l-118 -127h-83zM54 512h76v-512h-76v512z" />
    <glyph glyph-name="idieresis" unicode="&#xef;" 
d="M151 663h86v-90h-86v90zM-64 663h87v-90h-87v90zM54 512h76v-512h-76v512z" />
    <glyph glyph-name="eth" unicode="&#xf0;" horiz-adv-x="587" 
d="M227 615l140 25q-32 43 -69 77h94q30 -31 54 -63l110 20v-61l-74 -14q61 -109 61 -247q0 -108 -33 -189t-92.5 -126t-138.5 -45q-70 0 -122.5 33.5t-82.5 92.5t-30 136q0 75 28.5 134t77.5 92.5t112 33.5q68 0 122.5 -40t78.5 -108q1 11 1.5 18t0.5 13q0 42 -17 91
t-45 97l-176 -31v61zM442 256q0 56 -20.5 98.5t-57.5 66.5t-85 24q-71 0 -114 -52.5t-43 -140.5q0 -87 42 -139t112 -52q48 0 85.5 25t59 69t21.5 101z" />
    <glyph glyph-name="ntilde" unicode="&#xf1;" horiz-adv-x="538" 
d="M189 725q33 0 54 -17t38 -35q14 -16 28.5 -29.5t33.5 -13.5q24 0 38.5 24t14.5 65h54q0 -70 -28.5 -110t-76.5 -40q-32 0 -52.5 14.5t-36.5 31.5q-17 17 -30.5 32.5t-32.5 15.5q-24 0 -38 -24.5t-14 -65.5h-56q0 72 27.5 112t76.5 40zM410 310q0 75 -37.5 108.5
t-99.5 33.5q-61 0 -102 -38t-41 -97v-317h-76v512h76v-79q28 43 73 67t92 24q83 0 136.5 -51t53.5 -147v-326h-75v310z" />
    <glyph glyph-name="ograve" unicode="&#xf2;" horiz-adv-x="568" 
d="M141 736h89l113 -163h-63zM44 258q0 80 30 139.5t84.5 93t126.5 33.5q71 0 125 -33.5t84 -93t30 -139.5t-30 -140.5t-84 -94t-125 -33.5q-72 0 -126.5 33.5t-84.5 94t-30 140.5zM446 258q0 93 -42.5 144.5t-118.5 51.5q-78 0 -120.5 -51.5t-42.5 -144.5q0 -94 42.5 -146
t120.5 -52q76 0 118.5 52t42.5 146z" />
    <glyph glyph-name="oacute" unicode="&#xf3;" horiz-adv-x="568" 
d="M427 736l-140 -163h-62l112 163h90zM44 258q0 80 30 139.5t84.5 93t126.5 33.5q71 0 125 -33.5t84 -93t30 -139.5t-30 -140.5t-84 -94t-125 -33.5q-72 0 -126.5 33.5t-84.5 94t-30 140.5zM446 258q0 93 -42.5 144.5t-118.5 51.5q-78 0 -120.5 -51.5t-42.5 -144.5
q0 -94 42.5 -146t120.5 -52q76 0 118.5 52t42.5 146z" />
    <glyph glyph-name="ocircumflex" unicode="&#xf4;" horiz-adv-x="568" 
d="M240 744h76l162 -171h-82l-117 127l-118 -127h-83zM44 258q0 80 30 139.5t84.5 93t126.5 33.5q71 0 125 -33.5t84 -93t30 -139.5t-30 -140.5t-84 -94t-125 -33.5q-72 0 -126.5 33.5t-84.5 94t-30 140.5zM446 258q0 93 -42.5 144.5t-118.5 51.5q-78 0 -120.5 -51.5
t-42.5 -144.5q0 -94 42.5 -146t120.5 -52q76 0 118.5 52t42.5 146z" />
    <glyph glyph-name="otilde" unicode="&#xf5;" horiz-adv-x="568" 
d="M198 725q33 0 54 -17t38 -35q14 -16 28 -29.5t34 -13.5q24 0 38.5 24t14.5 65h54q0 -70 -28.5 -110t-76.5 -40q-32 0 -52.5 14.5t-36.5 31.5q-17 17 -30.5 32.5t-33.5 15.5q-23 0 -37 -24.5t-14 -65.5h-56q0 72 27.5 112t76.5 40zM44 258q0 80 30 139.5t84.5 93
t126.5 33.5q71 0 125 -33.5t84 -93t30 -139.5t-30 -140.5t-84 -94t-125 -33.5q-72 0 -126.5 33.5t-84.5 94t-30 140.5zM446 258q0 93 -42.5 144.5t-118.5 51.5q-78 0 -120.5 -51.5t-42.5 -144.5q0 -94 42.5 -146t120.5 -52q76 0 118.5 52t42.5 146z" />
    <glyph glyph-name="odieresis" unicode="&#xf6;" horiz-adv-x="568" 
d="M342 663h86v-90h-86v90zM128 663h86v-90h-86v90zM44 258q0 80 30 139.5t84.5 93t126.5 33.5q71 0 125 -33.5t84 -93t30 -139.5t-30 -140.5t-84 -94t-125 -33.5q-72 0 -126.5 33.5t-84.5 94t-30 140.5zM446 258q0 93 -42.5 144.5t-118.5 51.5q-78 0 -120.5 -51.5
t-42.5 -144.5q0 -94 42.5 -146t120.5 -52q76 0 118.5 52t42.5 146z" />
    <glyph glyph-name="divide" unicode="&#xf7;" horiz-adv-x="482" 
d="M199 527h82v-88h-82v88zM34 316h413v-66h-413v66zM199 110h82v-87h-82v87z" />
    <glyph glyph-name="oslash" unicode="&#xf8;" horiz-adv-x="568" 
d="M44 258q0 80 30 140t84.5 93t126.5 33q81 0 141 -44l52 66l42 -36l-54 -69q28 -34 43 -80.5t15 -102.5q0 -80 -30 -140.5t-84 -94t-125 -33.5q-84 0 -144 45l-55 -68l-42 36l57 71q-27 35 -42 81.5t-15 102.5zM120 258q0 -76 28 -125l234 293q-39 30 -97 30
q-78 0 -121.5 -52t-43.5 -146zM447 258q0 76 -28 125l-234 -293q40 -32 100 -32q77 0 119.5 52.5t42.5 147.5z" />
    <glyph glyph-name="ugrave" unicode="&#xf9;" horiz-adv-x="530" 
d="M128 736h89l113 -163h-62zM130 208q0 -78 36 -113t96 -35q39 0 70.5 18.5t50 50.5t18.5 73v310h75v-512h-75v83q-27 -45 -71.5 -70t-89.5 -25q-81 0 -133.5 53t-52.5 152v319h76v-304z" />
    <glyph glyph-name="uacute" unicode="&#xfa;" horiz-adv-x="530" 
d="M415 736l-140 -163h-63l113 163h90zM130 208q0 -78 36 -113t96 -35q39 0 70.5 18.5t50 50.5t18.5 73v310h75v-512h-75v83q-27 -45 -71.5 -70t-89.5 -25q-81 0 -133.5 53t-52.5 152v319h76v-304z" />
    <glyph glyph-name="ucircumflex" unicode="&#xfb;" horiz-adv-x="530" 
d="M228 744h76l162 -171h-83l-116 127l-118 -127h-83zM130 208q0 -78 36 -113t96 -35q39 0 70.5 18.5t50 50.5t18.5 73v310h75v-512h-75v83q-27 -45 -71.5 -70t-89.5 -25q-81 0 -133.5 53t-52.5 152v319h76v-304z" />
    <glyph glyph-name="udieresis" unicode="&#xfc;" horiz-adv-x="530" 
d="M329 663h87v-90h-87v90zM115 663h87v-90h-87v90zM130 208q0 -78 36 -113t96 -35q39 0 70.5 18.5t50 50.5t18.5 73v310h75v-512h-75v83q-27 -45 -71.5 -70t-89.5 -25q-81 0 -133.5 53t-52.5 152v319h76v-304z" />
    <glyph glyph-name="yacute" unicode="&#xfd;" horiz-adv-x="557" 
d="M432 736l-140 -163h-63l113 163h90zM62 -90h71q36 0 57 14.5t34 51.5l12 29l-202 507h82l164 -422l160 422h83l-210 -544q-28 -71 -63 -101t-90 -30h-98v73z" />
    <glyph glyph-name="thorn" unicode="&#xfe;" horiz-adv-x="575" 
d="M54 717h76v-300q27 50 72.5 78.5t103.5 28.5q67 0 117.5 -33.5t79 -93t28.5 -139.5t-28.5 -140.5t-79 -94t-117.5 -33.5q-58 0 -103.5 28.5t-72.5 79.5v-265h-76v884zM453 258q0 93 -42.5 144.5t-118.5 51.5q-78 0 -120 -51.5t-42 -144.5q0 -94 42 -146t120 -52
q76 0 118.5 52t42.5 146z" />
    <glyph glyph-name="ydieresis" unicode="&#xff;" horiz-adv-x="557" 
d="M346 663h87v-90h-87v90zM132 663h87v-90h-87v90zM62 -90h71q36 0 57 14.5t34 51.5l12 29l-202 507h82l164 -422l160 422h83l-210 -544q-28 -71 -63 -101t-90 -30h-98v73z" />
    <glyph glyph-name="Amacron" unicode="&#x100;" horiz-adv-x="641" 
d="M156 799h317v-64h-317v64zM609 0h-82l-64 178h-284l-63 -178h-83l246 666h85zM319 576l-117 -332h237z" />
    <glyph glyph-name="amacron" unicode="&#x101;" horiz-adv-x="526" 
d="M100 655h317v-64h-317v64zM471 340v-340h-76v91q-28 -46 -75.5 -74t-106.5 -28q-49 0 -87.5 19.5t-60 54t-21.5 79.5q0 62 38.5 99t108.5 41l144 11q33 2 46.5 13.5t13.5 37.5v2q0 48 -37.5 80.5t-91.5 32.5q-127 0 -139 -109h-79q5 79 64 126t153 47q59 0 105.5 -24
t73.5 -65.5t27 -93.5zM121 144q0 -41 31 -65t83 -24q46 0 82 21.5t57 58.5t21 84v16l-178 -12q-96 -7 -96 -79z" />
    <glyph glyph-name="Abreve" unicode="&#x102;" horiz-adv-x="641" 
d="M488 867q-6 -68 -51.5 -109.5t-119.5 -41.5q-75 0 -121 41.5t-53 109.5h71q5 -45 30.5 -69t72.5 -24q46 0 71 24t30 69h70zM609 0h-82l-64 178h-284l-63 -178h-83l246 666h85zM319 576l-117 -332h237z" />
    <glyph glyph-name="abreve" unicode="&#x103;" horiz-adv-x="526" 
d="M432 723q-6 -68 -51.5 -109.5t-119.5 -41.5q-75 0 -121 41.5t-52 109.5h70q5 -45 31 -69t72 -24t71 24t30 69h70zM471 340v-340h-76v91q-28 -46 -75.5 -74t-106.5 -28q-49 0 -87.5 19.5t-60 54t-21.5 79.5q0 62 38.5 99t108.5 41l144 11q33 2 46.5 13.5t13.5 37.5v2
q0 48 -37.5 80.5t-91.5 32.5q-127 0 -139 -109h-79q5 79 64 126t153 47q59 0 105.5 -24t73.5 -65.5t27 -93.5zM121 144q0 -41 31 -65t83 -24q46 0 82 21.5t57 58.5t21 84v16l-178 -12q-96 -7 -96 -79z" />
    <glyph glyph-name="Aogonek" unicode="&#x104;" horiz-adv-x="641" 
d="M609 0q-42 -30 -63.5 -53.5t-29.5 -46t-8 -48.5q0 -66 79 -66h65v-67h-73q-63 0 -100.5 33t-37.5 90q0 61 33 98t74 60h-21l-64 178h-284l-63 -178h-83l246 666h85zM319 576l-117 -332h237z" />
    <glyph glyph-name="aogonek" unicode="&#x105;" horiz-adv-x="526" 
d="M471 0q-42 -30 -63.5 -53.5t-29 -46t-7.5 -48.5q0 -66 78 -66h65v-67h-73q-63 0 -100.5 33t-37.5 90q0 61 33 98t74 60h-15v91q-28 -46 -75.5 -74t-106.5 -28q-49 0 -87.5 19.5t-60 54t-21.5 79.5q0 62 38.5 99t108.5 41l144 11q33 2 46.5 13.5t13.5 37.5v2
q0 48 -37.5 80.5t-91.5 32.5q-127 0 -139 -109h-79q5 79 64 126t153 47q59 0 105.5 -24t73.5 -65.5t27 -93.5v-340zM121 144q0 -41 31 -65t83 -24q46 0 82 21.5t57 58.5t21 84v16l-178 -12q-96 -7 -96 -79z" />
    <glyph glyph-name="Cacute" unicode="&#x106;" horiz-adv-x="659" 
d="M475 880l-140 -163h-63l113 163h90zM44 335q0 103 36 179.5t101 119t152 42.5q79 0 140.5 -28.5t98.5 -81t43 -123.5h-78q-4 75 -59 118.5t-144 43.5q-100 0 -156 -71t-56 -199q0 -129 56 -200t156 -71q88 0 143 43.5t60 118.5h78q-7 -72 -44 -124.5t-98.5 -81
t-139.5 -28.5q-86 0 -151 43t-101.5 120t-36.5 180z" />
    <glyph glyph-name="cacute" unicode="&#x107;" horiz-adv-x="559" 
d="M427 736l-140 -163h-62l112 163h90zM44 258q0 80 30 139.5t84 93t126 33.5q64 0 114.5 -25t81.5 -70.5t36 -106.5h-78q-3 62 -45 97t-109 35q-78 0 -120 -51.5t-42 -144.5q0 -94 42.5 -146t119.5 -52q67 0 108.5 32.5t45.5 90.5h78q-9 -89 -72.5 -141t-159.5 -52
q-72 0 -126 33.5t-84 94t-30 140.5z" />
    <glyph glyph-name="Ccircumflex" unicode="&#x108;" horiz-adv-x="659" 
d="M288 888h76l162 -171h-83l-116 127l-118 -127h-83zM44 335q0 103 36 179.5t101 119t152 42.5q79 0 140.5 -28.5t98.5 -81t43 -123.5h-78q-4 75 -59 118.5t-144 43.5q-100 0 -156 -71t-56 -199q0 -129 56 -200t156 -71q88 0 143 43.5t60 118.5h78q-7 -72 -44 -124.5
t-98.5 -81t-139.5 -28.5q-86 0 -151 43t-101.5 120t-36.5 180z" />
    <glyph glyph-name="ccircumflex" unicode="&#x109;" horiz-adv-x="559" 
d="M240 744h76l162 -171h-82l-117 127l-118 -127h-83zM44 258q0 80 30 139.5t84 93t126 33.5q64 0 114.5 -25t81.5 -70.5t36 -106.5h-78q-3 62 -45 97t-109 35q-78 0 -120 -51.5t-42 -144.5q0 -94 42.5 -146t119.5 -52q67 0 108.5 32.5t45.5 90.5h78q-9 -89 -72.5 -141
t-159.5 -52q-72 0 -126 33.5t-84 94t-30 140.5z" />
    <glyph glyph-name="Cdotaccent" unicode="&#x10a;" horiz-adv-x="659" 
d="M285 811h89v-94h-89v94zM44 335q0 103 36 179.5t101 119t152 42.5q79 0 140.5 -28.5t98.5 -81t43 -123.5h-78q-4 75 -59 118.5t-144 43.5q-100 0 -156 -71t-56 -199q0 -129 56 -200t156 -71q88 0 143 43.5t60 118.5h78q-7 -72 -44 -124.5t-98.5 -81t-139.5 -28.5
q-86 0 -151 43t-101.5 120t-36.5 180z" />
    <glyph glyph-name="cdotaccent" unicode="&#x10b;" horiz-adv-x="559" 
d="M238 667h89v-94h-89v94zM44 258q0 80 30 139.5t84 93t126 33.5q64 0 114.5 -25t81.5 -70.5t36 -106.5h-78q-3 62 -45 97t-109 35q-78 0 -120 -51.5t-42 -144.5q0 -94 42.5 -146t119.5 -52q67 0 108.5 32.5t45.5 90.5h78q-9 -89 -72.5 -141t-159.5 -52q-72 0 -126 33.5
t-84 94t-30 140.5z" />
    <glyph glyph-name="Ccaron" unicode="&#x10c;" horiz-adv-x="659" 
d="M364 717h-76l-162 171h83l117 -127l117 127h83zM44 335q0 103 36 179.5t101 119t152 42.5q79 0 140.5 -28.5t98.5 -81t43 -123.5h-78q-4 75 -59 118.5t-144 43.5q-100 0 -156 -71t-56 -199q0 -129 56 -200t156 -71q88 0 143 43.5t60 118.5h78q-7 -72 -44 -124.5
t-98.5 -81t-139.5 -28.5q-86 0 -151 43t-101.5 120t-36.5 180z" />
    <glyph glyph-name="ccaron" unicode="&#x10d;" horiz-adv-x="559" 
d="M316 573h-76l-162 171h83l117 -127l118 127h82zM44 258q0 80 30 139.5t84 93t126 33.5q64 0 114.5 -25t81.5 -70.5t36 -106.5h-78q-3 62 -45 97t-109 35q-78 0 -120 -51.5t-42 -144.5q0 -94 42.5 -146t119.5 -52q67 0 108.5 32.5t45.5 90.5h78q-9 -89 -72.5 -141
t-159.5 -52q-72 0 -126 33.5t-84 94t-30 140.5z" />
    <glyph glyph-name="Dcaron" unicode="&#x10e;" horiz-adv-x="635" 
d="M326 717h-76l-162 171h83l117 -127l118 127h82zM303 666q86 0 151 -43t101.5 -120.5t36.5 -181.5q0 -96 -34 -168.5t-94.5 -112.5t-140.5 -40h-269v666h249zM130 596v-526h183q94 0 147 66t53 185q0 131 -57.5 203t-162.5 72h-163z" />
    <glyph glyph-name="dcaron" unicode="&#x10f;" horiz-adv-x="592" 
d="M521 717v-717h-75v99q-28 -51 -73.5 -80t-103.5 -29q-68 0 -118.5 33.5t-78.5 94t-28 140.5t28 139.5t78.5 93t118.5 33.5q58 0 103.5 -28.5t73.5 -79.5v301h75zM605 716h72l-35 -204h-67zM122 258q0 -94 42.5 -146t119.5 -52t119.5 52t42.5 146q0 93 -42.5 144.5
t-119.5 51.5t-119.5 -51.5t-42.5 -144.5z" />
    <glyph glyph-name="Dcroat" unicode="&#x110;" horiz-adv-x="723" 
d="M31 359h111v307h249q86 0 151 -43t101.5 -120.5t36.5 -181.5q0 -96 -33.5 -168.5t-94 -112.5t-141.5 -40h-269v291h-111v68zM218 596v-237h197v-68h-197v-221h183q94 0 147 66t53 185q0 131 -58 203t-163 72h-162z" />
    <glyph glyph-name="dcroat" unicode="&#x111;" horiz-adv-x="624" 
d="M256 649h190v68h75v-68h85v-59h-85v-590h-75v98q-28 -51 -73.5 -79.5t-103.5 -28.5q-68 0 -118.5 33.5t-78.5 93t-28 139.5t28 139.5t78.5 92t118.5 32.5q58 0 103.5 -28t73.5 -79v177h-190v59zM122 256q0 -93 42.5 -144.5t119.5 -51.5t119.5 51.5t42.5 144.5t-42.5 144
t-119.5 51t-119.5 -51t-42.5 -144z" />
    <glyph glyph-name="Emacron" unicode="&#x112;" horiz-adv-x="547" 
d="M124 799h317v-64h-317v64zM504 666v-72h-374v-218h345v-72h-345v-233h374v-71h-450v666h450z" />
    <glyph glyph-name="emacron" unicode="&#x113;" horiz-adv-x="566" 
d="M117 655h318v-64h-318v64zM44 258q0 82 29.5 141t83 91t126.5 32q70 0 123.5 -33t84.5 -90.5t31 -130.5v-31h-400q5 -87 47.5 -132.5t119.5 -45.5q63 0 100.5 28t46.5 75h80q-17 -82 -73.5 -126t-153.5 -44q-75 0 -130 32.5t-85 92t-30 141.5zM283 457q-143 0 -159 -159
h317q-6 73 -49 116t-109 43z" />
    <glyph glyph-name="Ebreve" unicode="&#x114;" horiz-adv-x="547" 
d="M457 867q-7 -68 -52.5 -109.5t-119.5 -41.5t-120.5 41.5t-52.5 109.5h70q5 -45 31 -69t72 -24q47 0 71.5 24t29.5 69h71zM504 666v-72h-374v-218h345v-72h-345v-233h374v-71h-450v666h450z" />
    <glyph glyph-name="ebreve" unicode="&#x115;" horiz-adv-x="566" 
d="M450 723q-7 -68 -52.5 -109.5t-118.5 -41.5q-75 0 -121.5 41.5t-52.5 109.5h71q5 -45 30.5 -69t72.5 -24q46 0 70.5 24t30.5 69h70zM44 258q0 82 29.5 141t83 91t126.5 32q70 0 123.5 -33t84.5 -90.5t31 -130.5v-31h-400q5 -87 47.5 -132.5t119.5 -45.5q63 0 100.5 28
t46.5 75h80q-17 -82 -73.5 -126t-153.5 -44q-75 0 -130 32.5t-85 92t-30 141.5zM283 457q-143 0 -159 -159h317q-6 73 -49 116t-109 43z" />
    <glyph glyph-name="Edotaccent" unicode="&#x116;" horiz-adv-x="547" 
d="M243 811h89v-94h-89v94zM504 666v-72h-374v-218h345v-72h-345v-233h374v-71h-450v666h450z" />
    <glyph glyph-name="edotaccent" unicode="&#x117;" horiz-adv-x="566" 
d="M236 667h89v-94h-89v94zM44 258q0 82 29.5 141t83 91t126.5 32q70 0 123.5 -33t84.5 -90.5t31 -130.5v-31h-400q5 -87 47.5 -132.5t119.5 -45.5q63 0 100.5 28t46.5 75h80q-17 -82 -73.5 -126t-153.5 -44q-75 0 -130 32.5t-85 92t-30 141.5zM283 457q-143 0 -159 -159
h317q-6 73 -49 116t-109 43z" />
    <glyph glyph-name="Eogonek" unicode="&#x118;" horiz-adv-x="547" 
d="M484 0q-42 -30 -63.5 -53.5t-29 -46t-7.5 -48.5q0 -66 78 -66h65v-67h-73q-63 0 -100.5 33t-37.5 90q0 61 33 98t74 60h-369v666h450v-72h-374v-218h345v-72h-345v-233h374v-71h-20z" />
    <glyph glyph-name="eogonek" unicode="&#x119;" horiz-adv-x="566" 
d="M44 258q0 82 29.5 141t83 91t126.5 32q70 0 123.5 -33t84.5 -90.5t31 -130.5v-31h-400q5 -87 47.5 -132.5t119.5 -45.5q63 0 100.5 28t46.5 75h80q-20 -96 -93 -139q-48 -37 -63 -66.5t-15 -64.5q0 -66 79 -66h64v-67l-72 -1q-63 0 -101 33.5t-38 89.5q0 37 12.5 64.5
t32.5 47.5q-16 -1 -33 -1q-75 0 -130 32.5t-85 92t-30 141.5zM283 457q-143 0 -159 -159h317q-6 73 -49 116t-109 43z" />
    <glyph glyph-name="Ecaron" unicode="&#x11a;" horiz-adv-x="547" 
d="M321 717h-76l-162 171h83l117 -127l118 127h82zM504 666v-72h-374v-218h345v-72h-345v-233h374v-71h-450v666h450z" />
    <glyph glyph-name="ecaron" unicode="&#x11b;" horiz-adv-x="566" 
d="M315 573h-76l-162 171h83l117 -127l117 127h83zM44 258q0 82 29.5 141t83 91t126.5 32q70 0 123.5 -33t84.5 -90.5t31 -130.5v-31h-400q5 -87 47.5 -132.5t119.5 -45.5q63 0 100.5 28t46.5 75h80q-17 -82 -73.5 -126t-153.5 -44q-75 0 -130 32.5t-85 92t-30 141.5z
M283 457q-143 0 -159 -159h317q-6 73 -49 116t-109 43z" />
    <glyph glyph-name="Gcircumflex" unicode="&#x11c;" horiz-adv-x="669" 
d="M288 888h76l162 -171h-83l-116 127l-118 -127h-83zM44 335q0 103 37 179.5t103.5 119t155.5 42.5q77 0 137 -28.5t96 -80.5t42 -120h-78q-4 73 -56.5 115.5t-139.5 42.5q-103 0 -161 -71t-58 -199q0 -129 55.5 -200t155.5 -71q83 0 135 59t59 159h-199v67h287v-349h-60
l-5 145q-32 -71 -89.5 -112t-130.5 -41q-86 0 -150 43t-100 120t-36 180z" />
    <glyph glyph-name="gcircumflex" unicode="&#x11d;" horiz-adv-x="575" 
d="M236 744h76l162 -171h-82l-117 127l-118 -127h-83zM521 512v-523q0 -56 -28.5 -98.5t-79 -66.5t-118.5 -24q-101 0 -166 45.5t-77 121.5h79q6 -47 48.5 -73t113.5 -26q72 0 112.5 33t40.5 93v120q-28 -50 -73.5 -77.5t-104.5 -27.5q-67 0 -117.5 32t-78.5 90t-28 136
q0 77 28 134.5t78.5 89.5t117.5 32q59 0 104.5 -27.5t73.5 -76.5v93h75zM122 267q0 -90 42.5 -139t119.5 -49t119.5 49t42.5 139q0 88 -42.5 137.5t-119.5 49.5t-119.5 -49.5t-42.5 -137.5z" />
    <glyph glyph-name="Gbreve" unicode="&#x11e;" horiz-adv-x="669" 
d="M499 867q-7 -68 -52.5 -109.5t-118.5 -41.5q-75 0 -121.5 41.5t-52.5 109.5h71q5 -45 30.5 -69t72.5 -24q46 0 70.5 24t30.5 69h70zM44 335q0 103 37 179.5t103.5 119t155.5 42.5q77 0 137 -28.5t96 -80.5t42 -120h-78q-4 73 -56.5 115.5t-139.5 42.5q-103 0 -161 -71
t-58 -199q0 -129 55.5 -200t155.5 -71q83 0 135 59t59 159h-199v67h287v-349h-60l-5 145q-32 -71 -89.5 -112t-130.5 -41q-86 0 -150 43t-100 120t-36 180z" />
    <glyph glyph-name="gbreve" unicode="&#x11f;" horiz-adv-x="575" 
d="M447 723q-6 -68 -51.5 -109.5t-119.5 -41.5q-75 0 -121 41.5t-52 109.5h70q5 -45 31 -69t72 -24t71 24t30 69h70zM521 512v-523q0 -56 -28.5 -98.5t-79 -66.5t-118.5 -24q-101 0 -166 45.5t-77 121.5h79q6 -47 48.5 -73t113.5 -26q72 0 112.5 33t40.5 93v120
q-28 -50 -73.5 -77.5t-104.5 -27.5q-67 0 -117.5 32t-78.5 90t-28 136q0 77 28 134.5t78.5 89.5t117.5 32q59 0 104.5 -27.5t73.5 -76.5v93h75zM122 267q0 -90 42.5 -139t119.5 -49t119.5 49t42.5 139q0 88 -42.5 137.5t-119.5 49.5t-119.5 -49.5t-42.5 -137.5z" />
    <glyph glyph-name="Gdotaccent" unicode="&#x120;" horiz-adv-x="669" 
d="M285 811h89v-94h-89v94zM44 335q0 103 37 179.5t103.5 119t155.5 42.5q77 0 137 -28.5t96 -80.5t42 -120h-78q-4 73 -56.5 115.5t-139.5 42.5q-103 0 -161 -71t-58 -199q0 -129 55.5 -200t155.5 -71q83 0 135 59t59 159h-199v67h287v-349h-60l-5 145q-32 -71 -89.5 -112
t-130.5 -41q-86 0 -150 43t-100 120t-36 180z" />
    <glyph glyph-name="gdotaccent" unicode="&#x121;" horiz-adv-x="575" 
d="M234 667h89v-94h-89v94zM521 512v-523q0 -56 -28.5 -98.5t-79 -66.5t-118.5 -24q-101 0 -166 45.5t-77 121.5h79q6 -47 48.5 -73t113.5 -26q72 0 112.5 33t40.5 93v120q-28 -50 -73.5 -77.5t-104.5 -27.5q-67 0 -117.5 32t-78.5 90t-28 136q0 77 28 134.5t78.5 89.5
t117.5 32q59 0 104.5 -27.5t73.5 -76.5v93h75zM122 267q0 -90 42.5 -139t119.5 -49t119.5 49t42.5 139q0 88 -42.5 137.5t-119.5 49.5t-119.5 -49.5t-42.5 -137.5z" />
    <glyph glyph-name="uni0122" unicode="&#x122;" horiz-adv-x="669" 
d="M44 335q0 103 37 179.5t103.5 119t155.5 42.5q77 0 137 -28.5t96 -80.5t42 -120h-78q-4 73 -56.5 115.5t-139.5 42.5q-103 0 -161 -71t-58 -199q0 -129 55.5 -200t155.5 -71q83 0 135 59t59 159h-199v67h287v-349h-60l-5 145q-32 -71 -89.5 -112t-130.5 -41
q-86 0 -150 43t-100 120t-36 180zM289 -37h90v-112q0 -58 -26 -81.5t-59 -23.5h-19v44h13q24 0 39 13t15 54v12h-53v94z" />
    <glyph glyph-name="uni0123" unicode="&#x123;" horiz-adv-x="575" 
d="M324 573h-90v112q0 57 26 81t60 24h19v-44h-13q-25 0 -40 -13.5t-15 -53.5v-12h53v-94zM521 512v-523q0 -56 -28.5 -98.5t-79 -66.5t-118.5 -24q-101 0 -166 45.5t-77 121.5h79q6 -47 48.5 -73t113.5 -26q72 0 112.5 33t40.5 93v120q-28 -50 -73.5 -77.5t-104.5 -27.5
q-67 0 -117.5 32t-78.5 90t-28 136q0 77 28 134.5t78.5 89.5t117.5 32q59 0 104.5 -27.5t73.5 -76.5v93h75zM122 267q0 -90 42.5 -139t119.5 -49t119.5 49t42.5 139q0 88 -42.5 137.5t-119.5 49.5t-119.5 -49.5t-42.5 -137.5z" />
    <glyph glyph-name="Hcircumflex" unicode="&#x124;" horiz-adv-x="633" 
d="M279 888h76l162 -171h-82l-117 127l-118 -127h-83zM54 666h76v-286h373v286h75v-666h-75v308h-373v-308h-76v666z" />
    <glyph glyph-name="hcircumflex" unicode="&#x125;" horiz-adv-x="538" 
d="M201 943h76l162 -170h-82l-117 127l-118 -127h-83zM410 310q0 75 -37.5 108.5t-100.5 33.5q-60 0 -101 -38t-41 -97v-317h-76v717h76v-284q28 43 73 67t91 24q83 0 137 -51t54 -147v-326h-75v310z" />
    <glyph glyph-name="Hbar" unicode="&#x126;" horiz-adv-x="670" 
d="M18 552h56v114h75v-114h374v114h75v-114h54v-61h-54v-491h-75v308h-374v-308h-75v491h-56v61zM149 377h374v114h-374v-114z" />
    <glyph glyph-name="hbar" unicode="&#x127;" horiz-adv-x="570" 
d="M441 309q0 73 -37 106.5t-99 33.5q-61 0 -102 -37.5t-41 -96.5v-315h-75v590h-85v59h85v68h75v-68h190v-59h-190v-161q28 44 73 67.5t92 23.5q83 0 136.5 -50t53.5 -145v-325h-76v309z" />
    <glyph glyph-name="Itilde" unicode="&#x128;" 
d="M8 869q32 0 53 -17t38 -35q15 -16 29 -29.5t33 -13.5q24 0 38.5 24t14.5 65h55q0 -70 -28.5 -110t-76.5 -40q-32 0 -52.5 14.5t-37.5 31.5q-16 17 -30 32.5t-33 15.5q-24 0 -38 -24.5t-14 -65.5h-56q0 72 27.5 112t77.5 40zM54 666h76v-666h-76v666z" />
    <glyph glyph-name="itilde" unicode="&#x129;" 
d="M7 725q32 0 53 -17t39 -35q14 -16 28 -29.5t34 -13.5q24 0 38.5 24t14.5 65h54q0 -70 -28.5 -110t-76.5 -40q-32 0 -52.5 14.5t-37.5 31.5q-16 17 -29.5 32.5t-33.5 15.5q-24 0 -37.5 -24.5t-13.5 -65.5h-57q0 72 28 112t77 40zM54 512h76v-512h-76v512z" />
    <glyph glyph-name="Imacron" unicode="&#x12a;" 
d="M-72 799h318v-64h-318v64zM54 666h76v-666h-76v666z" />
    <glyph glyph-name="imacron" unicode="&#x12b;" 
d="M-72 655h317v-64h-317v64zM54 512h76v-512h-76v512z" />
    <glyph glyph-name="Ibreve" unicode="&#x12c;" 
d="M261 867q-7 -68 -52.5 -109.5t-119.5 -41.5t-120.5 41.5t-52.5 109.5h70q5 -45 31 -69t72 -24q47 0 71.5 24t29.5 69h71zM54 666h76v-666h-76v666z" />
    <glyph glyph-name="ibreve" unicode="&#x12d;" 
d="M260 723q-6 -68 -51.5 -109.5t-119.5 -41.5q-75 0 -121 41.5t-53 109.5h71q5 -45 30.5 -69t72.5 -24q46 0 71 24t30 69h70zM54 512h76v-512h-76v512z" />
    <glyph glyph-name="Iogonek" unicode="&#x12e;" 
d="M130 0q-42 -30 -63.5 -53.5t-29.5 -46t-8 -48.5q0 -66 79 -66h65v-67h-73q-63 0 -100.5 33t-37.5 90q0 61 33 98t74 60h-15v666h76v-666z" />
    <glyph glyph-name="iogonek" unicode="&#x12f;" 
d="M47 668h90v-84h-90v84zM130 0q-42 -30 -63.5 -53.5t-29.5 -46t-8 -48.5q0 -66 79 -66h65v-67h-73q-63 0 -100.5 33t-37.5 90q0 61 33 98t74 60h-15v512h76v-512z" />
    <glyph glyph-name="Idotaccent" unicode="&#x130;" 
d="M47 811h89v-94h-89v94zM54 666h76v-666h-76v666z" />
    <glyph glyph-name="dotlessi" unicode="&#x131;" 
d="M54 512h76v-512h-76v512z" />
    <glyph glyph-name="IJ" unicode="&#x132;" horiz-adv-x="517" 
d="M209 70h66q32 0 57.5 12t40 43.5t14.5 90.5v450h75v-460q0 -76 -25.5 -121t-66.5 -65t-86 -20h-75v70zM54 666h76v-666h-76v666z" />
    <glyph glyph-name="ij" unicode="&#x133;" horiz-adv-x="367" 
d="M231 668h90v-84h-90v84zM47 668h90v-84h-90v84zM148 -96h32q26 0 42 14t16 57v537h76v-543q0 -49 -18.5 -78.5t-47.5 -43t-62 -13.5h-38v70zM54 512h76v-512h-76v512z" />
    <glyph glyph-name="Jcircumflex" unicode="&#x134;" horiz-adv-x="333" 
d="M199 888h75l163 -171h-83l-117 127l-117 -127h-84zM25 70h66q32 0 57.5 12t40.5 43.5t15 90.5v450h74v-460q0 -76 -25.5 -121t-66 -65t-86.5 -20h-75v70z" />
    <glyph glyph-name="jcircumflex" unicode="&#x135;" 
d="M49 744h76l162 -171h-82l-117 127l-118 -127h-83zM-36 -96h32q26 0 42 14t16 57v537h76v-543q0 -49 -18.5 -78.5t-47.5 -43t-61 -13.5h-39v70z" />
    <glyph glyph-name="uni0136" unicode="&#x136;" horiz-adv-x="558" 
d="M54 666h76v-348l309 348h97l-292 -321l301 -345h-92l-261 297l-62 -72v-225h-76v666zM240 -37h90v-112q0 -58 -26 -81.5t-59 -23.5h-19v44h12q25 0 40 13t15 54v12h-53v94z" />
    <glyph glyph-name="uni0137" unicode="&#x137;" horiz-adv-x="504" 
d="M368 512h95l-219 -251l229 -261h-93l-190 213l-60 -69v-144h-76v717h76v-484zM216 -37h90v-112q0 -58 -26 -81.5t-60 -23.5h-19v44h13q25 0 40 13t15 54v12h-53v94z" />
    <glyph glyph-name="kgreenlandic" unicode="&#x138;" horiz-adv-x="504" 
d="M54 512h76v-279l238 279h95l-219 -251l229 -261h-93l-190 213l-60 -69v-144h-76v512z" />
    <glyph glyph-name="Lacute" unicode="&#x139;" horiz-adv-x="486" 
d="M238 880l-140 -163h-63l113 163h90zM452 0h-398v666h76v-595h322v-71z" />
    <glyph glyph-name="lacute" unicode="&#x13a;" 
d="M234 935l-140 -162h-62l112 162h90zM54 717h76v-717h-76v717z" />
    <glyph glyph-name="uni013B" unicode="&#x13b;" horiz-adv-x="486" 
d="M452 0h-398v666h76v-595h322v-71zM212 -37h90v-112q0 -58 -26 -81.5t-59 -23.5h-19v44h13q24 0 39 13t15 54v12h-53v94z" />
    <glyph glyph-name="uni013C" unicode="&#x13c;" 
d="M54 717h76v-717h-76v717zM47 -37h90v-112q0 -58 -26 -81.5t-59 -23.5h-19v44h13q24 0 39 13t15 54v12h-53v94z" />
    <glyph glyph-name="Lcaron" unicode="&#x13d;" horiz-adv-x="486" 
d="M251 679h72l-35 -204h-67zM452 0h-398v666h76v-595h322v-71z" />
    <glyph glyph-name="lcaron" unicode="&#x13e;" horiz-adv-x="209" 
d="M54 717h76v-717h-76v717zM215 716h71l-35 -204h-67z" />
    <glyph glyph-name="Ldot" unicode="&#x13f;" horiz-adv-x="486" 
d="M452 0h-398v666h76v-595h322v-71zM267 391h90v-93h-90v93z" />
    <glyph glyph-name="ldot" unicode="&#x140;" horiz-adv-x="367" 
d="M54 717h76v-717h-76v717zM231 376h90v-92h-90v92z" />
    <glyph glyph-name="Lslash" unicode="&#x141;" horiz-adv-x="517" 
d="M0 351l85 17v298h75v-282l167 34v-66l-167 -34v-247h323v-71h-398v302l-85 -17v66z" />
    <glyph glyph-name="lslash" unicode="&#x142;" horiz-adv-x="254" 
d="M0 369l93 17v331h74v-317l87 16v-66l-87 -16v-334h-74v320l-93 -17v66z" />
    <glyph glyph-name="Nacute" unicode="&#x143;" horiz-adv-x="636" 
d="M471 880l-140 -163h-62l112 163h90zM507 666h75v-666h-82l-370 566v-566h-76v666h100l353 -545v545z" />
    <glyph glyph-name="nacute" unicode="&#x144;" horiz-adv-x="538" 
d="M418 736l-140 -163h-62l112 163h90zM410 310q0 75 -37.5 108.5t-99.5 33.5q-61 0 -102 -38t-41 -97v-317h-76v512h76v-79q28 43 73 67t92 24q83 0 136.5 -51t53.5 -147v-326h-75v310z" />
    <glyph glyph-name="uni0145" unicode="&#x145;" horiz-adv-x="636" 
d="M507 666h75v-666h-82l-370 566v-566h-76v666h100l353 -545v545zM286 -37h90v-112q0 -58 -26.5 -81.5t-59.5 -23.5h-19v44h13q25 0 40 13t15 54v12h-53v94z" />
    <glyph glyph-name="uni0146" unicode="&#x146;" horiz-adv-x="538" 
d="M410 310q0 75 -37.5 108.5t-99.5 33.5q-61 0 -102 -38t-41 -97v-317h-76v512h76v-79q28 43 73 67t92 24q83 0 136.5 -51t53.5 -147v-326h-75v310zM231 -37h90v-112q0 -58 -26 -81.5t-59 -23.5h-19v44h12q25 0 40 13t15 54v12h-53v94z" />
    <glyph glyph-name="Ncaron" unicode="&#x147;" horiz-adv-x="636" 
d="M360 717h-76l-162 171h83l117 -127l118 127h82zM507 666h75v-666h-82l-370 566v-566h-76v666h100l353 -545v545z" />
    <glyph glyph-name="ncaron" unicode="&#x148;" horiz-adv-x="538" 
d="M307 573h-76l-162 171h83l117 -127l118 127h82zM410 310q0 75 -37.5 108.5t-99.5 33.5q-61 0 -102 -38t-41 -97v-317h-76v512h76v-79q28 43 73 67t92 24q83 0 136.5 -51t53.5 -147v-326h-75v310z" />
    <glyph glyph-name="napostrophe" unicode="&#x149;" horiz-adv-x="667" 
d="M57 702h90v-112q0 -58 -26.5 -81.5t-59.5 -23.5h-19v44h13q25 0 39.5 13t14.5 54v13h-52v93zM184 512h76v-79q28 43 73 67t92 24q82 0 136 -51t54 -147v-326h-75v310q0 75 -37.5 108.5t-100.5 33.5q-60 0 -101 -38t-41 -97v-317h-76v512z" />
    <glyph glyph-name="Eng" unicode="&#x14a;" horiz-adv-x="636" 
d="M507 666h75v-695q0 -73 -39 -113t-109 -40h-54v69h48q41 0 60 21t19 69v28l-377 561v-566h-76v666h100l353 -532v532z" />
    <glyph glyph-name="eng" unicode="&#x14b;" horiz-adv-x="538" 
d="M410 310q0 142 -137 142q-62 0 -102.5 -38t-40.5 -97v-317h-76v512h76v-80q26 41 69.5 66.5t95.5 25.5q87 0 138.5 -53.5t51.5 -144.5v-355q0 -73 -38.5 -113t-107.5 -40h-56v69h50q40 0 58.5 21t18.5 69v333z" />
    <glyph glyph-name="Omacron" unicode="&#x14c;" horiz-adv-x="687" 
d="M178 799h318v-64h-318v64zM44 325q0 106 37.5 184.5t105 122.5t157.5 44t157.5 -44t105 -122.5t37.5 -184.5q0 -100 -37.5 -175t-105 -116.5t-157.5 -41.5t-157.5 41.5t-105 116.5t-37.5 175zM566 325q0 132 -58.5 206t-163.5 74t-163.5 -74t-58.5 -206
q0 -124 58.5 -192.5t163.5 -68.5t163.5 68.5t58.5 192.5z" />
    <glyph glyph-name="omacron" unicode="&#x14d;" horiz-adv-x="568" 
d="M119 655h317v-64h-317v64zM44 258q0 80 30 139.5t84.5 93t126.5 33.5q71 0 125 -33.5t84 -93t30 -139.5t-30 -140.5t-84 -94t-125 -33.5q-72 0 -126.5 33.5t-84.5 94t-30 140.5zM446 258q0 93 -42.5 144.5t-118.5 51.5q-78 0 -120.5 -51.5t-42.5 -144.5q0 -94 42.5 -146
t120.5 -52q76 0 118.5 52t42.5 146z" />
    <glyph glyph-name="Obreve" unicode="&#x14e;" horiz-adv-x="687" 
d="M511 867q-7 -68 -52.5 -109.5t-118.5 -41.5q-75 0 -121.5 41.5t-52.5 109.5h71q5 -45 30.5 -69t72.5 -24q46 0 70.5 24t30.5 69h70zM44 325q0 106 37.5 184.5t105 122.5t157.5 44t157.5 -44t105 -122.5t37.5 -184.5q0 -100 -37.5 -175t-105 -116.5t-157.5 -41.5
t-157.5 41.5t-105 116.5t-37.5 175zM566 325q0 132 -58.5 206t-163.5 74t-163.5 -74t-58.5 -206q0 -124 58.5 -192.5t163.5 -68.5t163.5 68.5t58.5 192.5z" />
    <glyph glyph-name="obreve" unicode="&#x14f;" horiz-adv-x="568" 
d="M451 723q-6 -68 -51.5 -109.5t-119.5 -41.5q-75 0 -121 41.5t-52 109.5h70q5 -45 30.5 -69t72.5 -24q46 0 71 24t30 69h70zM44 258q0 80 30 139.5t84.5 93t126.5 33.5q71 0 125 -33.5t84 -93t30 -139.5t-30 -140.5t-84 -94t-125 -33.5q-72 0 -126.5 33.5t-84.5 94
t-30 140.5zM446 258q0 93 -42.5 144.5t-118.5 51.5q-78 0 -120.5 -51.5t-42.5 -144.5q0 -94 42.5 -146t120.5 -52q76 0 118.5 52t42.5 146z" />
    <glyph glyph-name="Ohungarumlaut" unicode="&#x150;" horiz-adv-x="687" 
d="M577 880l-140 -163h-62l112 163h90zM415 880l-140 -163h-62l113 163h89zM44 325q0 106 37.5 184.5t105 122.5t157.5 44t157.5 -44t105 -122.5t37.5 -184.5q0 -100 -37.5 -175t-105 -116.5t-157.5 -41.5t-157.5 41.5t-105 116.5t-37.5 175zM566 325q0 132 -58.5 206
t-163.5 74t-163.5 -74t-58.5 -206q0 -124 58.5 -192.5t163.5 -68.5t163.5 68.5t58.5 192.5z" />
    <glyph glyph-name="ohungarumlaut" unicode="&#x151;" horiz-adv-x="568" 
d="M518 736l-141 -163h-62l113 163h90zM355 736l-140 -163h-62l113 163h89zM44 258q0 80 30 139.5t84.5 93t126.5 33.5q71 0 125 -33.5t84 -93t30 -139.5t-30 -140.5t-84 -94t-125 -33.5q-72 0 -126.5 33.5t-84.5 94t-30 140.5zM446 258q0 93 -42.5 144.5t-118.5 51.5
q-78 0 -120.5 -51.5t-42.5 -144.5q0 -94 42.5 -146t120.5 -52q76 0 118.5 52t42.5 146z" />
    <glyph glyph-name="OE" unicode="&#x152;" horiz-adv-x="1058" 
d="M44 326q0 105 35.5 183.5t99.5 122.5t149 44q80 0 141.5 -41t96.5 -114v145h448v-72h-373v-218h344v-72h-344v-233h373v-71h-448v139q-35 -69 -96 -108t-142 -39q-85 0 -149 41.5t-99.5 117t-35.5 175.5zM566 326q0 131 -58.5 205t-163.5 74t-163.5 -74t-58.5 -205
q0 -125 58.5 -193.5t163.5 -68.5t163.5 68.5t58.5 193.5z" />
    <glyph glyph-name="oe" unicode="&#x153;" horiz-adv-x="968" 
d="M44 258q0 80 29.5 139.5t82.5 93t124 33.5q69 0 122 -33t81 -92q28 59 81 91t124 32q69 0 122 -33t83.5 -90.5t30.5 -130.5v-31h-400q5 -87 47 -132.5t119 -45.5q63 0 100.5 28t46.5 75h80q-17 -82 -72.5 -126t-150.5 -44q-74 0 -128 32.5t-82 92.5q-29 -60 -81.5 -93.5
t-122.5 -33.5q-71 0 -124 33.5t-82.5 94t-29.5 140.5zM684 457q-143 0 -158 -159h316q-6 73 -49 116t-109 43zM446 258q0 93 -42.5 144.5t-118.5 51.5q-78 0 -120.5 -51.5t-42.5 -144.5q0 -94 42.5 -146t120.5 -52q76 0 118.5 52t42.5 146z" />
    <glyph glyph-name="Racute" unicode="&#x154;" horiz-adv-x="584" 
d="M437 880l-140 -163h-62l112 163h90zM288 274h-158v-274h-76v666h279q93 0 149.5 -53t56.5 -141q0 -64 -35.5 -108.5t-97.5 -60.5q56 -10 82 -44t34 -102l18 -157h-74l-17 148q-8 66 -45.5 96t-115.5 30zM323 597h-193v-255h193q65 0 102 32.5t37 92.5q0 62 -37 96
t-102 34z" />
    <glyph glyph-name="racute" unicode="&#x155;" horiz-adv-x="333" 
d="M323 736l-140 -163h-62l112 163h90zM54 512h76v-77q25 42 64 64.5t80 22.5h23v-79h-22q-41 0 -74 -17t-52 -47t-19 -69v-310h-76v512z" />
    <glyph glyph-name="uni0156" unicode="&#x156;" horiz-adv-x="584" 
d="M288 274h-158v-274h-76v666h279q93 0 149.5 -53t56.5 -141q0 -64 -35.5 -108.5t-97.5 -60.5q56 -10 82 -44t34 -102l18 -157h-74l-17 148q-8 66 -45.5 96t-115.5 30zM323 597h-193v-255h193q65 0 102 32.5t37 92.5q0 62 -37 96t-102 34zM260 -37h90v-112q0 -58 -26 -81.5
t-59 -23.5h-19v44h13q24 0 39 13t15 54v12h-53v94z" />
    <glyph glyph-name="uni0157" unicode="&#x157;" horiz-adv-x="333" 
d="M54 512h76v-77q25 42 64 64.5t80 22.5h23v-79h-22q-41 0 -74 -17t-52 -47t-19 -69v-310h-76v512zM48 -37h90v-112q0 -58 -26 -81.5t-60 -23.5h-19v44h13q25 0 40 13t15 54v12h-53v94z" />
    <glyph glyph-name="Rcaron" unicode="&#x158;" horiz-adv-x="584" 
d="M326 717h-76l-162 171h83l117 -127l118 127h82zM288 274h-158v-274h-76v666h279q93 0 149.5 -53t56.5 -141q0 -64 -35.5 -108.5t-97.5 -60.5q56 -10 82 -44t34 -102l18 -157h-74l-17 148q-8 66 -45.5 96t-115.5 30zM323 597h-193v-255h193q65 0 102 32.5t37 92.5
q0 62 -37 96t-102 34z" />
    <glyph glyph-name="rcaron" unicode="&#x159;" horiz-adv-x="333" 
d="M212 573h-76l-162 171h83l117 -127l118 127h82zM54 512h76v-77q25 42 64 64.5t80 22.5h23v-79h-22q-41 0 -74 -17t-52 -47t-19 -69v-310h-76v512z" />
    <glyph glyph-name="Sacute" unicode="&#x15a;" horiz-adv-x="593" 
d="M430 880l-139 -163h-63l112 163h90zM333 292l-84 10q-96 11 -148 56t-52 123q0 89 64.5 141.5t175.5 52.5q107 0 173 -55t75 -150h-77q-11 69 -52.5 102.5t-119.5 33.5q-74 0 -118.5 -33.5t-44.5 -88.5q0 -45 33.5 -70t100.5 -34l82 -10q209 -25 209 -189
q0 -58 -29.5 -100t-83 -65.5t-125.5 -23.5q-118 0 -188 56t-80 150h79q12 -70 58.5 -103.5t131.5 -33.5q72 0 116.5 32t44.5 87q0 96 -141 112z" />
    <glyph glyph-name="sacute" unicode="&#x15b;" horiz-adv-x="514" 
d="M392 736l-140 -163h-62l112 163h90zM294 218l-83 11q-79 9 -120.5 43.5t-41.5 99.5q0 69 53.5 109.5t147.5 40.5q89 0 144.5 -44t63.5 -120h-75q-9 51 -41.5 76t-92.5 25q-56 0 -90.5 -23t-34.5 -60t25 -54t73 -23l84 -10q84 -10 124.5 -47.5t40.5 -106.5
q0 -66 -54.5 -105t-143.5 -39q-101 0 -160.5 44.5t-68.5 118.5h79q17 -100 150 -100q55 0 89 21.5t34 58.5q0 72 -102 84z" />
    <glyph glyph-name="Scircumflex" unicode="&#x15c;" horiz-adv-x="593" 
d="M244 888h75l163 -171h-83l-117 127l-117 -127h-84zM333 292l-84 10q-96 11 -148 56t-52 123q0 89 64.5 141.5t175.5 52.5q107 0 173 -55t75 -150h-77q-11 69 -52.5 102.5t-119.5 33.5q-74 0 -118.5 -33.5t-44.5 -88.5q0 -45 33.5 -70t100.5 -34l82 -10q209 -25 209 -189
q0 -58 -29.5 -100t-83 -65.5t-125.5 -23.5q-118 0 -188 56t-80 150h79q12 -70 58.5 -103.5t131.5 -33.5q72 0 116.5 32t44.5 87q0 96 -141 112z" />
    <glyph glyph-name="scircumflex" unicode="&#x15d;" horiz-adv-x="514" 
d="M205 744h76l162 -171h-82l-117 127l-118 -127h-83zM294 218l-83 11q-79 9 -120.5 43.5t-41.5 99.5q0 69 53.5 109.5t147.5 40.5q89 0 144.5 -44t63.5 -120h-75q-9 51 -41.5 76t-92.5 25q-56 0 -90.5 -23t-34.5 -60t25 -54t73 -23l84 -10q84 -10 124.5 -47.5t40.5 -106.5
q0 -66 -54.5 -105t-143.5 -39q-101 0 -160.5 44.5t-68.5 118.5h79q17 -100 150 -100q55 0 89 21.5t34 58.5q0 72 -102 84z" />
    <glyph glyph-name="Scedilla" unicode="&#x15e;" horiz-adv-x="593" 
d="M333 292l-84 10q-96 11 -148 56t-52 123q0 89 64.5 141.5t175.5 52.5q107 0 173 -55t75 -150h-77q-11 69 -52.5 102.5t-119.5 33.5q-74 0 -118.5 -33.5t-44.5 -88.5q0 -45 33.5 -70t100.5 -34l82 -10q209 -25 209 -189q0 -81 -58 -131.5t-156 -56.5l-10 -49h16
q47 0 76.5 -29.5t29.5 -77.5q0 -52 -37.5 -82.5t-99.5 -30.5h-91v65h83q75 0 75 57q0 21 -14 32.5t-39 11.5h-34l-25 33l16 70q-105 8 -166.5 63t-71.5 142h79q12 -70 58.5 -103.5t131.5 -33.5q72 0 116.5 32t44.5 87q0 96 -141 112z" />
    <glyph glyph-name="scedilla" unicode="&#x15f;" horiz-adv-x="514" 
d="M294 218l-83 11q-79 9 -120.5 43.5t-41.5 99.5q0 69 53.5 109.5t147.5 40.5q89 0 144.5 -44t63.5 -120h-75q-9 51 -41.5 76t-92.5 25q-56 0 -90.5 -23t-34.5 -60t25 -54t73 -23l84 -10q84 -10 124.5 -47.5t40.5 -106.5q0 -61 -47 -99.5t-126 -43.5l-10 -48h16
q47 0 76.5 -29.5t29.5 -77.5q0 -52 -37.5 -82.5t-99.5 -30.5h-91v65h83q75 0 75 57q0 21 -14 32.5t-38 11.5h-35l-25 33l16 69q-88 6 -140 50t-60 112h79q17 -100 150 -100q55 0 89 21.5t34 58.5q0 72 -102 84z" />
    <glyph glyph-name="Scaron" unicode="&#x160;" horiz-adv-x="593" 
d="M319 717h-75l-163 171h84l117 -127l117 127h83zM333 292l-84 10q-96 11 -148 56t-52 123q0 89 64.5 141.5t175.5 52.5q107 0 173 -55t75 -150h-77q-11 69 -52.5 102.5t-119.5 33.5q-74 0 -118.5 -33.5t-44.5 -88.5q0 -45 33.5 -70t100.5 -34l82 -10q209 -25 209 -189
q0 -58 -29.5 -100t-83 -65.5t-125.5 -23.5q-118 0 -188 56t-80 150h79q12 -70 58.5 -103.5t131.5 -33.5q72 0 116.5 32t44.5 87q0 96 -141 112z" />
    <glyph glyph-name="scaron" unicode="&#x161;" horiz-adv-x="514" 
d="M281 573h-76l-162 171h83l117 -127l118 127h82zM294 218l-83 11q-79 9 -120.5 43.5t-41.5 99.5q0 69 53.5 109.5t147.5 40.5q89 0 144.5 -44t63.5 -120h-75q-9 51 -41.5 76t-92.5 25q-56 0 -90.5 -23t-34.5 -60t25 -54t73 -23l84 -10q84 -10 124.5 -47.5t40.5 -106.5
q0 -66 -54.5 -105t-143.5 -39q-101 0 -160.5 44.5t-68.5 118.5h79q17 -100 150 -100q55 0 89 21.5t34 58.5q0 72 -102 84z" />
    <glyph glyph-name="uni0162" unicode="&#x162;" horiz-adv-x="542" 
d="M509 666v-72h-200v-594h-10l-12 -56h16q47 0 76 -29.5t29 -77.5q0 -52 -37 -82.5t-99 -30.5h-91v65h83q75 0 75 57q0 21 -14 32.5t-39 11.5h-34l-25 33l17 77h-10v594h-200v72h475z" />
    <glyph glyph-name="uni0163" unicode="&#x163;" horiz-adv-x="330" 
d="M297 68v-68h-20l-12 -56h16q47 0 76 -29.5t29 -77.5q0 -52 -37 -82.5t-99 -30.5h-91v65h83q75 0 75 57q0 21 -14 32.5t-39 11.5h-34l-25 33l18 79q-40 8 -67.5 38t-27.5 91v315h-94v66h94v133h75v-133h94v-66h-94v-305q0 -44 15 -58.5t39 -14.5h40z" />
    <glyph glyph-name="Tcaron" unicode="&#x164;" horiz-adv-x="542" 
d="M301 717h-76l-162 171h83l117 -127l118 127h82zM509 666v-72h-200v-594h-75v594h-200v72h475z" />
    <glyph glyph-name="tcaron" unicode="&#x165;" horiz-adv-x="344" 
d="M283 763h72l-35 -204h-67zM297 68v-68h-46q-32 0 -60 13t-45.5 41.5t-17.5 76.5v315h-94v66h94v133h75v-133h94v-66h-94v-305q0 -44 15 -58.5t39 -14.5h40z" />
    <glyph glyph-name="Tbar" unicode="&#x166;" horiz-adv-x="542" 
d="M79 352h155v242h-200v72h475v-72h-200v-242h159v-70h-159v-282h-75v282h-155v70z" />
    <glyph glyph-name="tbar" unicode="&#x167;" horiz-adv-x="330" 
d="M297 68v-68h-46q-32 0 -60 13t-45.5 41.5t-17.5 76.5v121h-94v57h94v139h-94v64h94v133h75v-133h94v-64h-94v-139h94v-57h-94v-113q0 -43 15 -57t39 -14h40z" />
    <glyph glyph-name="Utilde" unicode="&#x168;" horiz-adv-x="602" 
d="M220 869q33 0 54 -17t38 -35q15 -16 29 -29.5t33 -13.5q24 0 38.5 24t14.5 65h54q0 -70 -28 -110t-77 -40q-32 0 -52 14.5t-37 31.5t-30.5 32.5t-32.5 15.5q-24 0 -38 -24.5t-14 -65.5h-56q0 72 27.5 112t76.5 40zM49 666h75v-411q0 -90 47.5 -140t131.5 -50q83 0 129 50
t46 140v411h76v-411q0 -79 -31.5 -138.5t-88 -92t-131.5 -32.5q-76 0 -133 32.5t-89 92t-32 138.5v411z" />
    <glyph glyph-name="utilde" unicode="&#x169;" horiz-adv-x="530" 
d="M186 725q32 0 53 -17t39 -35q14 -16 28 -29.5t33 -13.5q24 0 39 24t15 65h54q0 -70 -28.5 -110t-76.5 -40q-32 0 -52.5 14.5t-37.5 31.5q-16 17 -30 32.5t-33 15.5q-24 0 -37.5 -24.5t-13.5 -65.5h-57q0 72 28 112t77 40zM130 208q0 -78 36 -113t96 -35q39 0 70.5 18.5
t50 50.5t18.5 73v310h75v-512h-75v83q-27 -45 -71.5 -70t-89.5 -25q-81 0 -133.5 53t-52.5 152v319h76v-304z" />
    <glyph glyph-name="Umacron" unicode="&#x16a;" horiz-adv-x="602" 
d="M141 799h317v-64h-317v64zM49 666h75v-411q0 -90 47.5 -140t131.5 -50q83 0 129 50t46 140v411h76v-411q0 -79 -31.5 -138.5t-88 -92t-131.5 -32.5q-76 0 -133 32.5t-89 92t-32 138.5v411z" />
    <glyph glyph-name="umacron" unicode="&#x16b;" horiz-adv-x="530" 
d="M106 655h318v-64h-318v64zM130 208q0 -78 36 -113t96 -35q39 0 70.5 18.5t50 50.5t18.5 73v310h75v-512h-75v83q-27 -45 -71.5 -70t-89.5 -25q-81 0 -133.5 53t-52.5 152v319h76v-304z" />
    <glyph glyph-name="Ubreve" unicode="&#x16c;" horiz-adv-x="602" 
d="M474 867q-7 -68 -52.5 -109.5t-119.5 -41.5t-120.5 41.5t-52.5 109.5h70q5 -45 31 -69t72 -24q47 0 71.5 24t29.5 69h71zM49 666h75v-411q0 -90 47.5 -140t131.5 -50q83 0 129 50t46 140v411h76v-411q0 -79 -31.5 -138.5t-88 -92t-131.5 -32.5q-76 0 -133 32.5t-89 92
t-32 138.5v411z" />
    <glyph glyph-name="ubreve" unicode="&#x16d;" horiz-adv-x="530" 
d="M439 723q-7 -68 -52.5 -109.5t-118.5 -41.5q-75 0 -121.5 41.5t-52.5 109.5h71q5 -45 30.5 -69t72.5 -24q46 0 70.5 24t30.5 69h70zM130 208q0 -78 36 -113t96 -35q39 0 70.5 18.5t50 50.5t18.5 73v310h75v-512h-75v83q-27 -45 -71.5 -70t-89.5 -25q-81 0 -133.5 53
t-52.5 152v319h76v-304z" />
    <glyph glyph-name="Uring" unicode="&#x16e;" horiz-adv-x="602" 
d="M439 848q0 -62 -37.5 -100t-99.5 -38t-100 38t-38 100t38 100t99 38q62 0 100 -38t38 -100zM225 848q0 -39 20.5 -61t56.5 -22t56 22t20 61q0 40 -20 61.5t-57 21.5q-36 0 -56 -21.5t-20 -61.5zM49 666h75v-411q0 -90 47.5 -140t131.5 -50q83 0 129 50t46 140v411h76
v-411q0 -79 -31.5 -138.5t-88 -92t-131.5 -32.5q-76 0 -133 32.5t-89 92t-32 138.5v411z" />
    <glyph glyph-name="uring" unicode="&#x16f;" horiz-adv-x="530" 
d="M404 704q0 -62 -37.5 -100t-98.5 -38q-63 0 -100.5 38t-37.5 100t37.5 100t99.5 38t99.5 -38t37.5 -100zM191 704q0 -39 20 -61t57 -22q35 0 55 22t20 61q0 40 -20 61.5t-56 21.5t-56 -21.5t-20 -61.5zM130 208q0 -78 36 -113t96 -35q39 0 70.5 18.5t50 50.5t18.5 73v310
h75v-512h-75v83q-27 -45 -71.5 -70t-89.5 -25q-81 0 -133.5 53t-52.5 152v319h76v-304z" />
    <glyph glyph-name="Uhungarumlaut" unicode="&#x170;" horiz-adv-x="602" 
d="M540 880l-141 -163h-62l113 163h90zM377 880l-139 -163h-63l113 163h89zM49 666h75v-411q0 -90 47.5 -140t131.5 -50q83 0 129 50t46 140v411h76v-411q0 -79 -31.5 -138.5t-88 -92t-131.5 -32.5q-76 0 -133 32.5t-89 92t-32 138.5v411z" />
    <glyph glyph-name="uhungarumlaut" unicode="&#x171;" horiz-adv-x="530" 
d="M505 736l-140 -163h-62l112 163h90zM343 736l-140 -163h-62l113 163h89zM130 208q0 -78 36 -113t96 -35q39 0 70.5 18.5t50 50.5t18.5 73v310h75v-512h-75v83q-27 -45 -71.5 -70t-89.5 -25q-81 0 -133.5 53t-52.5 152v319h76v-304z" />
    <glyph glyph-name="Uogonek" unicode="&#x172;" horiz-adv-x="602" 
d="M49 666h75v-411q0 -90 47.5 -140t131.5 -50q83 0 129 50t46 140v411h76v-411q0 -73 -27 -129t-76 -90.5t-114 -41.5q-57 -42 -74.5 -73.5t-17.5 -68.5q0 -66 79 -66h64v-67h-72q-64 0 -101.5 33t-37.5 90t29 93t67 58q-68 7 -118 41t-78 90.5t-28 130.5v411z" />
    <glyph glyph-name="uogonek" unicode="&#x173;" horiz-adv-x="530" 
d="M130 208q0 -78 36 -113t96 -35q39 0 70.5 18.5t50 50.5t18.5 73v310h75v-512v0q-41 -30 -63 -53.5t-29.5 -46t-7.5 -48.5q0 -66 79 -66h64v-67h-72q-64 0 -101.5 33t-37.5 90q0 61 33 98t74 60h-14v83q-27 -45 -71.5 -70t-89.5 -25q-81 0 -133.5 53t-52.5 152v319h76
v-304z" />
    <glyph glyph-name="Wcircumflex" unicode="&#x174;" horiz-adv-x="993" 
d="M452 888h76l162 -171h-83l-116 127l-118 -127h-83zM33 666h82l150 -571l186 571h89l182 -571l157 571h82l-197 -666h-86l-183 573l-185 -573h-88z" />
    <glyph glyph-name="wcircumflex" unicode="&#x175;" horiz-adv-x="793" 
d="M349 744h76l162 -171h-82l-117 127l-118 -127h-83zM34 512h82l109 -420l128 420h86l124 -420l115 420h82l-157 -512h-82l-125 423l-128 -423h-84z" />
    <glyph glyph-name="Ycircumflex" unicode="&#x176;" horiz-adv-x="595" 
d="M263 888h76l162 -171h-82l-117 127l-118 -127h-83zM259 229l-226 437h87l177 -350l180 350h87l-230 -437v-229h-75v229z" />
    <glyph glyph-name="ycircumflex" unicode="&#x177;" horiz-adv-x="557" 
d="M245 744h76l162 -171h-83l-116 127l-118 -127h-83zM62 -90h71q36 0 57 14.5t34 51.5l12 29l-202 507h82l164 -422l160 422h83l-210 -544q-28 -71 -63 -101t-90 -30h-98v73z" />
    <glyph glyph-name="Ydieresis" unicode="&#x178;" horiz-adv-x="595" 
d="M365 807h86v-90h-86v90zM150 807h87v-90h-87v90zM259 229l-226 437h87l177 -350l180 350h87l-230 -437v-229h-75v229z" />
    <glyph glyph-name="Zacute" unicode="&#x179;" horiz-adv-x="574" 
d="M435 880l-140 -163h-62l112 163h90zM46 666h482v-82l-398 -516h398v-68h-482v81l397 516h-397v69z" />
    <glyph glyph-name="zacute" unicode="&#x17a;" horiz-adv-x="483" 
d="M386 736l-140 -163h-62l112 163h90zM46 512h392v-78l-307 -370h307v-64h-392v78l305 370h-305v64z" />
    <glyph glyph-name="Zdotaccent" unicode="&#x17b;" horiz-adv-x="574" 
d="M245 811h89v-94h-89v94zM46 666h482v-82l-398 -516h398v-68h-482v81l397 516h-397v69z" />
    <glyph glyph-name="zdotaccent" unicode="&#x17c;" horiz-adv-x="483" 
d="M197 667h89v-94h-89v94zM46 512h392v-78l-307 -370h307v-64h-392v78l305 370h-305v64z" />
    <glyph glyph-name="Zcaron" unicode="&#x17d;" horiz-adv-x="574" 
d="M324 717h-76l-162 171h83l117 -127l118 127h82zM46 666h482v-82l-398 -516h398v-68h-482v81l397 516h-397v69z" />
    <glyph glyph-name="zcaron" unicode="&#x17e;" horiz-adv-x="483" 
d="M275 573h-76l-162 171h83l117 -127l118 127h82zM46 512h392v-78l-307 -370h307v-64h-392v78l305 370h-305v64z" />
    <glyph glyph-name="longs" unicode="&#x17f;" horiz-adv-x="270" 
d="M236 651h-40q-29 0 -47.5 -14.5t-18.5 -56.5v-580h-76v586q0 48 19.5 76.5t50.5 41.5t66 13h46v-66z" />
    <glyph glyph-name="Ohorn" unicode="&#x1a0;" horiz-adv-x="687" 
d="M44 325q0 106 37.5 184.5t105 122.5t157.5 44q42 0 80 -10h123q29 0 48 14t19 60v34h68v-40q0 -48 -19 -75.5t-47.5 -39t-57.5 -11.5h-24q52 -46 81 -118.5t29 -164.5q0 -100 -37.5 -175t-105 -116.5t-157.5 -41.5t-157.5 41.5t-105 116.5t-37.5 175zM566 325
q0 132 -58.5 206t-163.5 74t-163.5 -74t-58.5 -206q0 -124 58.5 -192.5t163.5 -68.5t163.5 68.5t58.5 192.5z" />
    <glyph glyph-name="ohorn" unicode="&#x1a1;" horiz-adv-x="573" 
d="M44 258q0 80 30 139.5t84.5 93t126.5 33.5q41 0 78 -12h76q29 0 48.5 14.5t19.5 60.5v33h67v-39q0 -47 -18 -74.5t-45.5 -39.5t-56.5 -12q33 -35 51.5 -85t18.5 -112q0 -80 -30 -140.5t-84 -94t-125 -33.5q-72 0 -126.5 33.5t-84.5 94t-30 140.5zM446 258
q0 93 -42.5 144.5t-118.5 51.5q-78 0 -120.5 -51.5t-42.5 -144.5q0 -94 42.5 -146t120.5 -52q76 0 118.5 52t42.5 146z" />
    <glyph glyph-name="Uhorn" unicode="&#x1af;" horiz-adv-x="643" 
d="M49 666h75v-411q0 -90 47.5 -140t131.5 -50q83 0 129 50t46 140v411h76v-1q27 1 44.5 16.5t17.5 58.5v33h67v-39q0 -48 -18.5 -75.5t-47 -39t-57.5 -11.5h-6v-353q0 -79 -31.5 -138.5t-88 -92t-131.5 -32.5q-76 0 -133 32.5t-89 92t-32 138.5v411z" />
    <glyph glyph-name="uhorn" unicode="&#x1b0;" horiz-adv-x="585" 
d="M130 208q0 -78 36 -113t96 -35q39 0 70.5 18.5t50 50.5t18.5 73v310h69q29 0 49 14.5t20 60.5v33h66v-39q0 -48 -18.5 -75.5t-47 -39t-57.5 -11.5h-6v-455h-75v83q-27 -45 -71.5 -70t-89.5 -25q-81 0 -133.5 53t-52.5 152v319h76v-304z" />
    <glyph glyph-name="uni01CD" unicode="&#x1cd;" horiz-adv-x="641" 
d="M353 717h-76l-162 171h83l117 -127l118 127h82zM609 0h-82l-64 178h-284l-63 -178h-83l246 666h85zM319 576l-117 -332h237z" />
    <glyph glyph-name="uni01CE" unicode="&#x1ce;" horiz-adv-x="526" 
d="M297 573h-76l-162 171h83l117 -127l118 127h82zM471 340v-340h-76v91q-28 -46 -75.5 -74t-106.5 -28q-49 0 -87.5 19.5t-60 54t-21.5 79.5q0 62 38.5 99t108.5 41l144 11q33 2 46.5 13.5t13.5 37.5v2q0 48 -37.5 80.5t-91.5 32.5q-127 0 -139 -109h-79q5 79 64 126
t153 47q59 0 105.5 -24t73.5 -65.5t27 -93.5zM121 144q0 -41 31 -65t83 -24q46 0 82 21.5t57 58.5t21 84v16l-178 -12q-96 -7 -96 -79z" />
    <glyph glyph-name="uni01CF" unicode="&#x1cf;" 
d="M125 717h-75l-163 171h83l117 -127l118 127h83zM54 666h76v-666h-76v666z" />
    <glyph glyph-name="uni01D0" unicode="&#x1d0;" 
d="M125 573h-76l-162 171h83l117 -127l118 127h82zM54 512h76v-512h-76v512z" />
    <glyph glyph-name="uni01D1" unicode="&#x1d1;" horiz-adv-x="687" 
d="M376 717h-76l-162 171h83l117 -127l117 127h83zM44 325q0 106 37.5 184.5t105 122.5t157.5 44t157.5 -44t105 -122.5t37.5 -184.5q0 -100 -37.5 -175t-105 -116.5t-157.5 -41.5t-157.5 41.5t-105 116.5t-37.5 175zM566 325q0 132 -58.5 206t-163.5 74t-163.5 -74
t-58.5 -206q0 -124 58.5 -192.5t163.5 -68.5t163.5 68.5t58.5 192.5z" />
    <glyph glyph-name="uni01D2" unicode="&#x1d2;" horiz-adv-x="568" 
d="M316 573h-76l-162 171h83l117 -127l118 127h82zM44 258q0 80 30 139.5t84.5 93t126.5 33.5q71 0 125 -33.5t84 -93t30 -139.5t-30 -140.5t-84 -94t-125 -33.5q-72 0 -126.5 33.5t-84.5 94t-30 140.5zM446 258q0 93 -42.5 144.5t-118.5 51.5q-78 0 -120.5 -51.5
t-42.5 -144.5q0 -94 42.5 -146t120.5 -52q76 0 118.5 52t42.5 146z" />
    <glyph glyph-name="uni01D3" unicode="&#x1d3;" horiz-adv-x="602" 
d="M338 717h-76l-162 171h83l117 -127l118 127h82zM49 666h75v-411q0 -90 47.5 -140t131.5 -50q83 0 129 50t46 140v411h76v-411q0 -79 -31.5 -138.5t-88 -92t-131.5 -32.5q-76 0 -133 32.5t-89 92t-32 138.5v411z" />
    <glyph glyph-name="uni01D4" unicode="&#x1d4;" horiz-adv-x="530" 
d="M304 573h-76l-162 171h83l117 -127l117 127h83zM130 208q0 -78 36 -113t96 -35q39 0 70.5 18.5t50 50.5t18.5 73v310h75v-512h-75v83q-27 -45 -71.5 -70t-89.5 -25q-81 0 -133.5 53t-52.5 152v319h76v-304z" />
    <glyph glyph-name="uni01DD" unicode="&#x1dd;" horiz-adv-x="566" 
d="M522 256q0 -81 -29.5 -140.5t-83 -91.5t-126.5 -32q-70 0 -124 32.5t-84.5 89t-30.5 129.5v34h399q-5 87 -47.5 132.5t-119.5 45.5q-64 0 -101.5 -28t-47.5 -75h-80q17 82 74 126t154 44q76 0 131 -32.5t85.5 -92t30.5 -141.5zM282 57q144 0 160 159h-317q6 -73 49 -116
t108 -43z" />
    <glyph glyph-name="uni01E2" unicode="&#x1e2;" horiz-adv-x="974" 
d="M447 799h318v-64h-318v64zM929 666v-72h-374v-218h345v-72h-345v-233h374v-71h-449v178h-280l-87 -178h-80l323 666h573zM230 244h250v350h-79z" />
    <glyph glyph-name="uni01E3" unicode="&#x1e3;" horiz-adv-x="917" 
d="M286 655h317v-64h-317v64zM645 -8q-79 0 -135 36.5t-83 102.5q-25 -63 -82 -102.5t-130 -39.5q-50 0 -88.5 19.5t-60.5 54t-22 79.5q0 61 38.5 98t108.5 42l144 10q33 2 46.5 14t13.5 37v2q0 48 -37.5 80.5t-92.5 32.5q-126 0 -138 -108h-79q5 78 62 125.5t148 47.5
q64 0 113.5 -28t72.5 -75q30 49 79.5 75.5t115.5 26.5q68 0 121 -33t83 -90.5t30 -130.5v-31h-398q4 -87 46.5 -132.5t119.5 -45.5q62 0 99.5 28t46.5 75h80q-17 -82 -72.5 -126t-149.5 -44zM635 457q-143 0 -159 -159h316q-6 73 -49 116t-108 43zM121 145q0 -40 31 -64
t83 -24q46 0 82 21t57 58t21 84v16l-178 -12q-96 -7 -96 -79z" />
    <glyph glyph-name="uni01F0" unicode="&#x1f0;" 
d="M125 573h-76l-162 171h83l117 -127l118 127h82zM-36 -96h32q26 0 42 14t16 57v537h76v-543q0 -49 -18.5 -78.5t-47.5 -43t-61 -13.5h-39v70z" />
    <glyph glyph-name="AEacute" unicode="&#x1fc;" horiz-adv-x="974" 
d="M613 880l-140 -163h-62l112 163h90zM929 666v-72h-374v-218h345v-72h-345v-233h374v-71h-449v178h-280l-87 -178h-80l323 666h573zM230 244h250v350h-79z" />
    <glyph glyph-name="aeacute" unicode="&#x1fd;" horiz-adv-x="917" 
d="M594 736l-140 -163h-62l112 163h90zM645 -8q-79 0 -135 36.5t-83 102.5q-25 -63 -82 -102.5t-130 -39.5q-50 0 -88.5 19.5t-60.5 54t-22 79.5q0 61 38.5 98t108.5 42l144 10q33 2 46.5 14t13.5 37v2q0 48 -37.5 80.5t-92.5 32.5q-126 0 -138 -108h-79q5 78 62 125.5
t148 47.5q64 0 113.5 -28t72.5 -75q30 49 79.5 75.5t115.5 26.5q68 0 121 -33t83 -90.5t30 -130.5v-31h-398q4 -87 46.5 -132.5t119.5 -45.5q62 0 99.5 28t46.5 75h80q-17 -82 -72.5 -126t-149.5 -44zM635 457q-143 0 -159 -159h316q-6 73 -49 116t-108 43zM121 145
q0 -40 31 -64t83 -24q46 0 82 21t57 58t21 84v16l-178 -12q-96 -7 -96 -79z" />
    <glyph glyph-name="uni0237" unicode="&#x237;" 
d="M-36 -96h32q26 0 42 14t16 57v537h76v-543q0 -49 -18.5 -78.5t-47.5 -43t-61 -13.5h-39v70z" />
    <glyph glyph-name="uni0250" unicode="&#x250;" horiz-adv-x="526" 
d="M55 366q0 87 -13 146h77q4 -21 7 -44t4 -49q28 47 76 75.5t107 28.5q49 0 87 -19.5t60 -54t22 -78.5q0 -63 -39 -99.5t-108 -40.5l-144 -11q-33 -2 -46.5 -14t-13.5 -37v-2q0 -48 37.5 -80.5t92.5 -32.5q126 0 138 109h79q-6 -79 -64.5 -126.5t-152.5 -47.5
q-59 0 -106 24t-73.5 65.5t-26.5 93.5v194zM131 292v-16l178 12q96 7 96 79q0 40 -31 64t-83 24q-46 0 -82 -21t-57 -58t-21 -84z" />
    <glyph glyph-name="uni0251" unicode="&#x251;" horiz-adv-x="583" 
d="M593 68v-68h-17q-46 0 -83 23.5t-45 79.5q-27 -53 -73.5 -83t-105.5 -30q-68 0 -118.5 33.5t-78.5 94t-28 140.5t28 139.5t78.5 93t118.5 33.5q58 0 103.5 -28.5t73.5 -79.5v96h75v-371q0 -44 17 -58.5t44 -14.5h11zM122 258q0 -94 42.5 -146t119.5 -52t119.5 52
t42.5 146q0 93 -42.5 144.5t-119.5 51.5t-119.5 -51.5t-42.5 -144.5z" />
    <glyph glyph-name="uni0252" unicode="&#x252;" horiz-adv-x="583" 
d="M-10 446v68h17q45 0 82.5 -23.5t46.5 -78.5q27 52 72.5 82t105.5 30q67 0 117.5 -33.5t79 -93.5t28.5 -141q0 -80 -28.5 -140t-79 -93t-117.5 -33q-58 0 -103.5 28.5t-72.5 78.5v-95h-75v371q0 44 -17.5 58.5t-44.5 14.5h-11zM461 256q0 94 -42.5 146t-118.5 52
q-78 0 -120 -52t-42 -146q0 -93 42 -144.5t120 -51.5q76 0 118.5 51.5t42.5 144.5z" />
    <glyph glyph-name="uni0253" unicode="&#x253;" horiz-adv-x="575" 
d="M44 0v500q0 69 29 120.5t82 80.5t123 29q97 0 160 -48.5t74 -127.5h-78q-6 50 -46.5 79.5t-106.5 29.5q-77 0 -119.5 -44t-42.5 -124v-97q27 50 73 77.5t105 27.5q67 0 117 -32t78.5 -90t28.5 -136q0 -77 -28.5 -134.5t-78.5 -89.5t-117 -32q-59 0 -105 27.5t-73 76.5
v-93h-75zM443 245q0 90 -43 139.5t-119 49.5q-78 0 -120 -49.5t-42 -139.5q0 -88 42 -137.5t120 -49.5q76 0 119 49.5t43 137.5z" />
    <glyph glyph-name="uni0254" unicode="&#x254;" horiz-adv-x="559" 
d="M516 256q0 -80 -30.5 -140t-84 -93t-125.5 -33q-65 0 -115.5 24.5t-81 69t-35.5 102.5h78q2 -59 44 -92.5t110 -33.5q77 0 119.5 51.5t42.5 144.5q0 94 -43 146t-119 52q-67 0 -109 -34t-45 -95h-78q9 92 72 145.5t160 53.5q71 0 125 -33.5t84.5 -93.5t30.5 -141z" />
    <glyph glyph-name="uni0255" unicode="&#x255;" horiz-adv-x="559" 
d="M106 -75q0 76 17 139q-37 35 -58 84.5t-21 109.5q0 80 30 139.5t84 93t126 33.5q64 0 114.5 -24.5t81.5 -68t36 -101.5h-78q-5 58 -46 92.5t-108 34.5q-78 0 -120 -51t-42 -144q0 -73 31 -122q32 61 84 95t118 34q44 0 80.5 -17.5t58.5 -48t22 -71.5q0 -43 -25 -74.5
t-67.5 -48.5t-93.5 -17q-83 0 -147 32q-8 -45 -8 -99h-69zM331 56q47 0 77 20t30 56q0 33 -25 53t-64 20q-105 0 -149 -114q52 -35 131 -35z" />
    <glyph glyph-name="uni0256" unicode="&#x256;" horiz-adv-x="583" 
d="M593 -99v-68h-17q-34 0 -63.5 13t-48 41.5t-18.5 76.5v135q-28 -51 -73.5 -80t-103.5 -29q-68 0 -118.5 33.5t-78.5 94t-28 140.5t28 139.5t78.5 93t118.5 33.5q58 0 103.5 -28.5t73.5 -79.5v301h75v-743q0 -44 17 -58.5t44 -14.5h11zM122 258q0 -94 42.5 -146t119.5 -52
t119.5 52t42.5 146q0 93 -42.5 144.5t-119.5 51.5t-119.5 -51.5t-42.5 -144.5z" />
    <glyph glyph-name="uni0257" unicode="&#x257;" horiz-adv-x="583" 
d="M597 649h-15q-27 0 -44 -14.5t-17 -58.5v-576h-75v99q-28 -51 -73.5 -80t-103.5 -29q-68 0 -118.5 33.5t-78.5 94t-28 140.5t28 139.5t78.5 93t118.5 33.5q58 0 103.5 -28.5t73.5 -79.5v170q0 48 18.5 76.5t48 41.5t63.5 13h21v-68zM122 258q0 -94 42.5 -146t119.5 -52
t119.5 52t42.5 146q0 93 -42.5 144.5t-119.5 51.5t-119.5 -51.5t-42.5 -144.5z" />
    <glyph glyph-name="uni0258" unicode="&#x258;" horiz-adv-x="566" 
d="M522 258q0 -82 -30 -141.5t-85 -92t-130 -32.5q-98 0 -155 44t-74 126h80q10 -47 47.5 -75t100.5 -28q77 0 119.5 45.5t47.5 132.5h-399v31q0 75 30.5 132.5t84 89.5t122.5 32q73 0 127.5 -32t84 -91t29.5 -141zM125 298h317q-16 159 -160 159q-68 0 -111.5 -43
t-45.5 -116z" />
    <glyph glyph-name="uni0259" unicode="&#x259;" horiz-adv-x="566" 
d="M522 256q0 -81 -29.5 -140.5t-83 -91.5t-126.5 -32q-70 0 -124 32.5t-84.5 89t-30.5 129.5v34h399q-5 87 -47.5 132.5t-119.5 45.5q-64 0 -101.5 -28t-47.5 -75h-80q17 82 74 126t154 44q76 0 131 -32.5t85.5 -92t30.5 -141.5zM282 57q144 0 160 159h-317q6 -73 49 -116
t108 -43z" />
    <glyph glyph-name="uni025A" unicode="&#x25a;" horiz-adv-x="717" 
d="M522 256q0 -81 -29.5 -140.5t-83 -91.5t-126.5 -32q-70 0 -124 28.5t-84.5 79t-30.5 116.5v23l395 75q-24 141 -163 141q-64 0 -101.5 -28t-47.5 -75h-80q17 82 74 126t154 44q95 0 157.5 -50.5t81.5 -139.5l84 17h39v-53q0 -37 15.5 -48.5t37.5 -11.5h15v-62h-19
q-26 0 -51 10t-41.5 33.5t-16.5 63.5v7l-56 -12q1 -10 1 -20zM125 191q7 -61 49.5 -97.5t107.5 -36.5q160 0 162 197z" />
    <glyph glyph-name="uni025B" unicode="&#x25b;" horiz-adv-x="502" 
d="M458 151q-7 -74 -64.5 -117t-144.5 -43q-92 0 -148.5 40.5t-56.5 107.5q0 41 19.5 71.5t55.5 46.5q-65 34 -65 112q0 70 55 112.5t142 42.5q84 0 139.5 -46t62.5 -121h-78q-3 46 -35 73.5t-87 27.5q-57 0 -88.5 -24t-31.5 -68q0 -37 18.5 -57.5t52.5 -20.5h112v-63h-112
q-39 0 -60.5 -21.5t-21.5 -60.5q0 -42 33.5 -64t93.5 -22q57 0 92.5 25t38.5 69h78z" />
    <glyph glyph-name="uni025C" unicode="&#x25c;" horiz-adv-x="502" 
d="M186 225v63h112q34 0 53 20.5t19 57.5q0 44 -31.5 68t-89.5 24q-54 0 -87 -27.5t-35 -73.5h-78q7 75 62 121t139 46q88 0 142.5 -42.5t54.5 -112.5q0 -78 -64 -112q35 -16 55 -46.5t20 -71.5q0 -67 -56 -107.5t-147 -40.5q-58 0 -104 20.5t-74 56.5t-33 83h78
q3 -43 38.5 -68.5t93.5 -25.5q59 0 92.5 22t33.5 64q0 39 -21.5 60.5t-60.5 21.5h-112z" />
    <glyph glyph-name="uni025D" unicode="&#x25d;" horiz-adv-x="620" 
d="M608 236v-62h-20q-26 0 -51 10t-41 33.5t-16 63.5v7l-75 -16q-10 -8 -22 -15q35 -16 55 -46.5t20 -71.5q0 -67 -56 -107.5t-147 -40.5q-58 0 -104 20.5t-74 56.5t-33 83h78q3 -43 38.5 -68.5t93.5 -25.5q59 0 92.5 22t33.5 64q0 39 -21.5 60.5t-60.5 21.5h-112v63h112
q34 0 53 20.5t19 57.5q0 44 -31.5 68t-89.5 24q-54 0 -87 -27.5t-35 -73.5h-78q7 75 62 121t139 46q88 0 142.5 -42.5t54.5 -112.5q0 -17 -3 -32l56 12h40v-53q0 -37 15 -48.5t38 -11.5h15z" />
    <glyph glyph-name="uni025E" unicode="&#x25e;" horiz-adv-x="524" 
d="M407 257q73 -34 73 -118q0 -66 -51 -107t-134 -41q-73 0 -129.5 34.5t-89 95t-32.5 140.5q0 78 31.5 137t86.5 92.5t128 33.5q81 0 130.5 -42.5t49.5 -112.5q0 -79 -63 -112zM122 261q0 -96 45 -149t125 -53q53 0 81.5 22t28.5 63q0 38 -21.5 59.5t-60.5 21.5h-84v63h84
q34 0 52.5 20.5t18.5 56.5q0 44 -27 68t-76 24q-78 0 -122 -52t-44 -144z" />
    <glyph glyph-name="uni025F" unicode="&#x25f;" horiz-adv-x="330" 
d="M34 -139h40q29 0 48 14.5t19 56.5v68h-107v66h107v446h75v-446h81v-66h-81v-74q0 -48 -19.5 -76.5t-50.5 -41.5t-66 -13h-46v66z" />
    <glyph glyph-name="uni0260" unicode="&#x260;" horiz-adv-x="575" 
d="M597 649h-15q-27 0 -44 -14.5t-17 -58.5v-587q0 -56 -28.5 -98.5t-79 -66.5t-118.5 -24q-101 0 -166 45.5t-77 121.5h79q6 -47 48.5 -73t113.5 -26q72 0 112.5 33t40.5 93v120q-28 -50 -73.5 -77.5t-104.5 -27.5q-67 0 -117.5 32t-78.5 90t-28 136q0 77 28 134.5
t78.5 89.5t117.5 32q59 0 104.5 -27.5t73.5 -76.5v167q0 48 18.5 76.5t48 41.5t63.5 13h21v-68zM122 267q0 -90 42.5 -139t119.5 -49t119.5 49t42.5 139q0 88 -42.5 137.5t-119.5 49.5t-119.5 -49.5t-42.5 -137.5z" />
    <glyph glyph-name="uni0261" unicode="&#x261;" horiz-adv-x="575" 
d="M521 512v-523q0 -56 -28.5 -98.5t-79 -66.5t-118.5 -24q-101 0 -166 45.5t-77 121.5h79q6 -47 48.5 -73t113.5 -26q72 0 112.5 33t40.5 93v120q-28 -50 -73.5 -77.5t-104.5 -27.5q-67 0 -117.5 32t-78.5 90t-28 136q0 77 28 134.5t78.5 89.5t117.5 32q59 0 104.5 -27.5
t73.5 -76.5v93h75zM122 267q0 -90 42.5 -139t119.5 -49t119.5 49t42.5 139q0 88 -42.5 137.5t-119.5 49.5t-119.5 -49.5t-42.5 -137.5z" />
    <glyph glyph-name="uni0262" unicode="&#x262;" horiz-adv-x="559" 
d="M44 258q0 80 30.5 139.5t85.5 93t128 33.5q64 0 113.5 -23.5t79.5 -66t35 -98.5h-78q-4 55 -44.5 87.5t-104.5 32.5q-80 0 -123.5 -52t-43.5 -146q0 -95 42.5 -147.5t118.5 -52.5q60 0 99 38.5t45 108.5h-154v60h243v-265h-55l-7 110q-25 -57 -71.5 -88.5t-104.5 -31.5
q-70 0 -123 33.5t-82 94t-29 140.5z" />
    <glyph glyph-name="uni0263" unicode="&#x263;" horiz-adv-x="553" 
d="M165 -36l59 117l-190 431h82l162 -383l159 383h83l-190 -431l57 -117q14 -28 14 -54q0 -31 -17 -56.5t-45.5 -40.5t-62.5 -15q-53 0 -89.5 31t-36.5 77q0 29 15 58zM319 -54l-44 91l-42 -91q-9 -19 -9 -34q0 -21 14 -32.5t39 -11.5q22 0 36.5 13t14.5 33q0 15 -9 32z" />
    <glyph glyph-name="uni0264" unicode="&#x264;" horiz-adv-x="460" 
d="M132 155l42 67l-140 290h82l114 -244l113 244h83l-144 -291l42 -66q18 -27 18 -58q0 -46 -33.5 -76.5t-82.5 -30.5q-50 0 -81.5 28.5t-31.5 73.5q0 33 19 63zM257 137l-30 45l-28 -45q-12 -21 -12 -40q0 -38 41 -38t41 39q0 19 -12 39z" />
    <glyph glyph-name="uni0265" unicode="&#x265;" horiz-adv-x="537" 
d="M130 200q0 -74 36.5 -107t98.5 -33q61 0 102 37.5t41 95.5v319h75v-679h-75v247q-28 -44 -73 -68t-92 -24q-82 0 -135.5 50.5t-53.5 145.5v328h76v-312z" />
    <glyph glyph-name="uni0266" unicode="&#x266;" horiz-adv-x="538" 
d="M54 0v500q0 69 28 120.5t79 80.5t120 29q93 0 153 -45.5t71 -120.5h-78q-6 47 -43.5 74t-100.5 27q-73 0 -113 -45t-40 -125v-66q28 44 73 67.5t91 23.5q83 0 137 -50.5t54 -146.5v-323h-75v307q0 74 -37.5 108t-100.5 34q-60 0 -101 -38t-41 -97v-314h-76z" />
    <glyph glyph-name="uni0267" unicode="&#x267;" horiz-adv-x="538" 
d="M54 0v500q0 69 28.5 120.5t79.5 80.5t119 29q93 0 153 -45.5t71 -120.5h-78q-5 47 -42.5 74t-100.5 27q-73 0 -113.5 -45t-40.5 -125v-67q26 42 69.5 67t95.5 25q87 0 138.5 -53t51.5 -144v-352q0 -73 -38.5 -113t-107.5 -40h-56v69h50q40 0 58.5 21t18.5 69v330
q0 142 -137 142q-62 0 -102.5 -38.5t-40.5 -96.5v-314h-76z" />
    <glyph glyph-name="uni0268" unicode="&#x268;" horiz-adv-x="224" 
d="M68 668h89v-84h-89v84zM75 512h75v-196h75v-66h-75v-250h-75v250h-75v66h75v196z" />
    <glyph glyph-name="uni0269" unicode="&#x269;" horiz-adv-x="249" 
d="M224 68v-68h-46q-32 0 -60.5 13t-46 41.5t-17.5 76.5v381h76v-371q0 -44 15 -58.5t39 -14.5h40z" />
    <glyph glyph-name="uni026A" unicode="&#x26a;" horiz-adv-x="358" 
d="M324 512v-69h-107v-373h107v-70h-290v70h107v373h-107v69h290z" />
    <glyph glyph-name="uni026B" unicode="&#x26b;" horiz-adv-x="314" 
d="M96 439q13 0 25 -4v282h75v-348q10 -7 21 -7q20 0 31.5 19.5t11.5 51.5h55q0 -61 -26 -96.5t-70 -36.5q-12 1 -23 4v-304h-75v367q-11 11 -21 11q-21 0 -32.5 -20t-11.5 -53h-56q0 63 25.5 98.5t70.5 35.5z" />
    <glyph glyph-name="uni026C" unicode="&#x26c;" horiz-adv-x="314" 
d="M130 717h75v-383h110v-57h-110v-277h-75v277h-10q-31 0 -58.5 10.5t-44.5 35.5t-17 66t17 65.5t44.5 35.5t58.5 11h10v216zM125 334h5v109h-5q-27 0 -45.5 -11t-18.5 -43t18.5 -43.5t45.5 -11.5z" />
    <glyph glyph-name="uni026D" unicode="&#x26d;" horiz-adv-x="244" 
d="M211 -99v-68h-21q-35 0 -66 13t-50.5 41.5t-19.5 76.5v753h76v-743q0 -44 19 -58.5t47 -14.5h15z" />
    <glyph glyph-name="uni026E" unicode="&#x26e;" horiz-adv-x="572" 
d="M341 223q96 -7 146 -61t50 -151q0 -65 -29 -113.5t-81 -75.5t-122 -27q-95 0 -156.5 43t-72.5 114h77q6 -41 46 -65t106 -24q73 0 113.5 39t40.5 110t-40 110t-113 39h-47v65l169 217l-298 1v-444h-76v717h76v-205h383v-69z" />
    <glyph glyph-name="uni026F" unicode="&#x26f;" horiz-adv-x="852" 
d="M130 202q0 -75 34 -108.5t92 -33.5q56 0 94.5 38t38.5 97v317h75v-310q0 -75 34.5 -108.5t92.5 -33.5q56 0 94 38t38 97v317h75v-512h-75v77q-27 -43 -69.5 -66t-85.5 -23q-58 0 -101.5 28t-63.5 82q-25 -52 -72.5 -81t-96.5 -29q-78 0 -129 51t-51 147v326h76v-310z" />
    <glyph glyph-name="uni0270" unicode="&#x270;" horiz-adv-x="852" 
d="M130 202q0 -75 34 -108.5t92 -33.5q56 0 94.5 38t38.5 97v317h75v-310q0 -75 34.5 -108.5t92.5 -33.5q56 0 94 38t38 97v317h75v-679h-75v244q-27 -43 -69.5 -66t-85.5 -23q-58 0 -101.5 28t-63.5 82q-25 -52 -72.5 -81t-96.5 -29q-78 0 -129 51t-51 147v326h76v-310z
" />
    <glyph glyph-name="uni0271" unicode="&#x271;" horiz-adv-x="852" 
d="M389 310q0 75 -34.5 108.5t-92.5 33.5q-56 0 -94 -38t-38 -97v-317h-76v512h76v-76q27 42 69 65t85 23q58 0 102 -28.5t63 -82.5q25 53 72.5 82t97.5 29q77 0 128 -51t51 -147v-352q0 -72 -38.5 -112.5t-107.5 -40.5h-56v70h50q40 0 58.5 21t18.5 68v330q0 75 -34 108.5
t-92 33.5q-56 0 -94.5 -38t-38.5 -97v-317h-75v310z" />
    <glyph glyph-name="uni0272" unicode="&#x272;" horiz-adv-x="538" 
d="M-35 -107h32q25 0 41 14.5t16 56.5v548h76v-79q28 43 73 67t92 24q83 0 136.5 -51t53.5 -147v-326h-75v310q0 75 -37.5 108.5t-99.5 33.5q-61 0 -102 -38t-41 -97v-359q0 -48 -18 -77t-47 -41.5t-62 -12.5h-38v66z" />
    <glyph glyph-name="uni0273" unicode="&#x273;" horiz-adv-x="538" 
d="M410 310q0 75 -37.5 108.5t-99.5 33.5q-61 0 -102 -38t-41 -97v-317h-76v512h76v-79q28 43 73 67t92 24q83 0 136.5 -51t53.5 -147v-352q0 -44 17 -58.5t44 -14.5h11v-68h-17q-34 0 -63.5 13t-48 41.5t-18.5 76.5v346z" />
    <glyph glyph-name="uni0274" unicode="&#x274;" horiz-adv-x="544" 
d="M414 512h75v-512h-82l-277 416v-416h-76v512h96l264 -398v398z" />
    <glyph glyph-name="uni0275" unicode="&#x275;" horiz-adv-x="568" 
d="M44 258q0 80 30 139.5t84.5 93t126.5 33.5q71 0 125 -33.5t84 -93t30 -139.5t-30 -140.5t-84 -94t-125 -33.5q-72 0 -126.5 33.5t-84.5 94t-30 140.5zM285 457q-73 0 -116 -44t-49 -125h328q-7 81 -49.5 125t-113.5 44zM285 57q71 0 113.5 44.5t49.5 126.5h-328
q7 -82 49.5 -126.5t115.5 -44.5z" />
    <glyph glyph-name="uni0276" unicode="&#x276;" horiz-adv-x="855" 
d="M44 258q0 80 29 139.5t81 93t121 33.5q54 0 97.5 -22t73.5 -61v71h373v-66h-295v-157h267v-63h-267v-158h295v-68h-373v74q-30 -40 -73.5 -62t-97.5 -22q-69 0 -121 33.5t-81 94t-29 140.5zM446 258q0 93 -42.5 144.5t-118.5 51.5q-78 0 -120.5 -51.5t-42.5 -144.5
q0 -94 42.5 -146t120.5 -52q76 0 118.5 52t42.5 146z" />
    <glyph glyph-name="uni0277" unicode="&#x277;" horiz-adv-x="720" 
d="M358 89q-20 -49 -56.5 -75t-84.5 -26q-51 0 -90 28.5t-61 80t-22 119.5q0 90 41 159t112.5 108.5t165.5 39.5q93 0 163.5 -38t110.5 -106t40 -158q0 -70 -22.5 -122t-63 -81.5t-93.5 -29.5q-98 0 -140 101zM364 451q-115 0 -179.5 -61.5t-64.5 -172.5q0 -75 27 -115
t77 -40t77 35t27 98v116h63v-116q0 -63 26 -97.5t74 -34.5q53 0 81.5 41.5t28.5 116.5q0 108 -62.5 169t-174.5 61z" />
    <glyph glyph-name="uni0278" unicode="&#x278;" horiz-adv-x="568" 
d="M44 258q0 74 26 131.5t74 91.5t112 41v195h55v-195q64 -6 112 -40t74.5 -91.5t26.5 -132.5t-26.5 -133t-74.5 -92.5t-112 -40.5v-159h-55v159q-64 7 -112 41.5t-74 92t-26 132.5zM449 258q0 86 -36 136.5t-102 59.5v-394q66 9 102 60.5t36 137.5zM119 258
q0 -86 35.5 -137t101.5 -61v394q-66 -10 -101.5 -60.5t-35.5 -135.5z" />
    <glyph glyph-name="uni0279" unicode="&#x279;" horiz-adv-x="333" 
d="M36 69h22q41 0 74 17t52.5 47t19.5 69v310h75v-512h-75v78q-26 -42 -65 -65t-80 -23h-23v79z" />
    <glyph glyph-name="uni027A" unicode="&#x27a;" horiz-adv-x="333" 
d="M36 69h22q41 0 74 17t52.5 47t19.5 69v515h75v-717h-75v78q-26 -42 -65 -65t-80 -23h-23v79z" />
    <glyph glyph-name="uni027B" unicode="&#x27b;" horiz-adv-x="333" 
d="M36 69h22q41 0 74 17t52.5 47t19.5 69v310h75v-538q0 -44 19 -58.5t47 -14.5h15v-68h-21q-34 0 -65.5 13t-50.5 41.5t-19 76.5v114q-26 -42 -65 -65t-80 -23h-23v79z" />
    <glyph glyph-name="uni027C" unicode="&#x27c;" horiz-adv-x="333" 
d="M54 512h76v-77q25 42 64 64.5t80 22.5h23v-79h-22q-41 0 -74 -17t-52 -47t-19 -69v-477h-76v679z" />
    <glyph glyph-name="uni027D" unicode="&#x27d;" horiz-adv-x="333" 
d="M210 -99v-68h-20q-35 0 -66 13t-50.5 41.5t-19.5 76.5v548h76v-77q25 42 64 64.5t80 22.5h23v-79h-22q-41 0 -74 -17t-52 -47t-19 -69v-336q0 -44 18.5 -58.5t47.5 -14.5h14z" />
    <glyph glyph-name="uni027E" unicode="&#x27e;" horiz-adv-x="255" 
d="M222 444h-14q-35 0 -56.5 -16.5t-21.5 -67.5v-360h-76v367q0 53 21 85t55 46t72 14h20v-68z" />
    <glyph glyph-name="uni027F" unicode="&#x27f;" horiz-adv-x="238" 
d="M17 444v68h36q34 0 63.5 -13.5t48.5 -43.5t19 -79v-543h-75v535q0 45 -17.5 60.5t-44.5 15.5h-30z" />
    <glyph glyph-name="uni0280" unicode="&#x280;" horiz-adv-x="525" 
d="M267 190h-137v-190h-76v512h258q76 0 123 -43t47 -114q0 -51 -29 -87t-79 -50q47 -10 69.5 -42t29.5 -89l10 -87h-74l-9 78q-7 61 -38 86.5t-95 25.5zM303 446h-173v-190h173q48 0 75 24t27 68q0 46 -27 72t-75 26z" />
    <glyph glyph-name="uni0281" unicode="&#x281;" horiz-adv-x="525" 
d="M267 322q64 0 95 25.5t38 86.5l9 78h74l-10 -87q-7 -57 -29.5 -89t-68.5 -42q49 -14 78 -50t29 -87q0 -71 -47 -114t-123 -43h-258v512h76v-190h137zM303 66q48 0 75 26t27 72q0 44 -27 68t-75 24h-173v-190h173z" />
    <glyph glyph-name="uni0282" unicode="&#x282;" horiz-adv-x="514" 
d="M200 -107v-66h-20q-35 0 -66 12.5t-50.5 40.5t-19.5 75v200h73q10 -52 47.5 -76.5t107.5 -24.5q56 0 90 21.5t34 58.5q0 71 -102 84l-83 10q-79 11 -120.5 45t-41.5 100q0 69 53.5 109t147.5 40q89 0 144.5 -43.5t63.5 -119.5h-75q-9 51 -41.5 75.5t-92.5 24.5
q-56 0 -90.5 -22.5t-34.5 -60.5q0 -36 24.5 -53t73.5 -23l84 -10q84 -11 124.5 -48.5t40.5 -106.5q0 -66 -49.5 -105t-130.5 -39q-60 0 -104 20.5t-70 56.5v-104q0 -43 19 -57t48 -14h16z" />
    <glyph glyph-name="uni0283" unicode="&#x283;" horiz-adv-x="304" 
d="M164 -22q0 -56 -20 -89t-51.5 -47.5t-67.5 -14.5h-43v69h31q33 0 54.5 18t21.5 71v601q0 48 19 76.5t50 41.5t66 13h47v-66h-41q-29 0 -47.5 -14.5t-18.5 -56.5v-602z" />
    <glyph glyph-name="uni0284" unicode="&#x284;" horiz-adv-x="329" 
d="M33 0v66h81v520q0 48 19.5 76.5t50.5 41.5t66 13h46v-66h-40q-29 0 -48 -14.5t-19 -56.5v-514h107v-66h-107v-41q0 -48 -19.5 -77t-50.5 -42t-66 -13h-38v68h32q29 0 48 14t19 56v35h-81z" />
    <glyph glyph-name="uni0285" unicode="&#x285;" horiz-adv-x="344" 
d="M33 446v66h46q35 0 66 -13t50.5 -41.5t19.5 -76.5v-414q0 -42 18 -56.5t48 -14.5h32v-69h-38q-35 0 -66 13t-50 42.5t-19 78.5v414q0 42 -19 56.5t-48 14.5h-40z" />
    <glyph glyph-name="uni0286" unicode="&#x286;" horiz-adv-x="457" 
d="M434 -205h-73q0 115 -45 182q-7 -72 -49.5 -111t-115.5 -39q-74 0 -117.5 39.5t-43.5 106.5q0 43 22.5 77t61 53.5t87.5 19.5q43 0 80 -12v475q0 62 36 96.5t100 34.5h46v-66h-40q-35 0 -50.5 -17t-15.5 -54v-507q55 -42 86 -113.5t31 -164.5zM65 -27q0 -36 22.5 -56.5
t63.5 -20.5q48 0 69 27.5t21 88.5v28q-35 15 -78 15q-44 0 -71 -23t-27 -59z" />
    <glyph glyph-name="uni0287" unicode="&#x287;" horiz-adv-x="330" 
d="M297 0h-94v-133h-75v133h-94v66h94v305q0 44 -15 58.5t-39 14.5h-40v68h46q32 0 60 -13t45.5 -41.5t17.5 -76.5v-315h94v-66z" />
    <glyph glyph-name="uni0288" unicode="&#x288;" horiz-adv-x="330" 
d="M297 -99v-68h-46q-32 0 -60 13t-45.5 41.5t-17.5 76.5v482h-94v66h94v133h75v-133h94v-66h-94v-472q0 -44 15 -58.5t39 -14.5h40z" />
    <glyph glyph-name="uni0289" unicode="&#x289;" horiz-adv-x="530" 
d="M0 309h54v203h76v-203h271v203h75v-203h54v-63h-54v-246h-75v83q-27 -45 -71.5 -70t-89.5 -25q-81 0 -133.5 53t-52.5 152v53h-54v63zM130 208q0 -78 36 -113t96 -35q39 0 70.5 18.5t50 50.5t18.5 73v44h-271v-38z" />
    <glyph glyph-name="uni028A" unicode="&#x28a;" horiz-adv-x="575" 
d="M289 -10q-74 0 -128.5 30.5t-85.5 85t-31 126.5q0 66 30.5 122t84.5 90h-115v68h205v-68q-60 -21 -93.5 -77.5t-33.5 -126.5q0 -84 43.5 -131t123.5 -47q78 0 121.5 47t43.5 131q0 70 -33 126.5t-93 77.5v68h204v-68h-115q54 -34 84.5 -90t30.5 -122q0 -72 -30.5 -126.5
t-85 -85t-127.5 -30.5z" />
    <glyph glyph-name="uni028B" unicode="&#x28b;" horiz-adv-x="538" 
d="M54 512h76v-310q0 -65 35.5 -101t98.5 -36q74 0 114 52.5t40 154.5q0 87 -28.5 129.5t-90.5 42.5h-21v68h32q86 0 134.5 -66.5t48.5 -180.5q0 -83 -28.5 -144.5t-80 -95t-120.5 -33.5q-62 0 -109.5 26t-74 73.5t-26.5 110.5v310z" />
    <glyph glyph-name="uni028C" unicode="&#x28c;" horiz-adv-x="553" 
d="M520 0h-82l-163 427l-158 -427h-83l200 512h86z" />
    <glyph glyph-name="uni028D" unicode="&#x28d;" horiz-adv-x="793" 
d="M760 0h-82l-109 420l-128 -420h-86l-124 420l-115 -420h-82l157 512h83l125 -423l127 423h85z" />
    <glyph glyph-name="uni028E" unicode="&#x28e;" horiz-adv-x="557" 
d="M494 645h-45q-46 0 -70 -25.5t-45 -83.5l-11 -29l200 -507h-82l-164 420l-160 -420h-83l211 544q35 92 74.5 132.5t103.5 40.5h71v-72z" />
    <glyph glyph-name="uni028F" unicode="&#x28f;" horiz-adv-x="524" 
d="M223 164l-189 348h88l140 -266l141 266h87l-192 -348v-164h-75v164z" />
    <glyph glyph-name="uni0290" unicode="&#x290;" horiz-adv-x="483" 
d="M46 512h392v-78l-307 -370h307v-100q0 -43 19 -57t47 -14h17v-66h-21q-35 0 -66 12.5t-50.5 40.5t-19.5 75v45h-318v78l305 370h-305v64z" />
    <glyph glyph-name="uni0291" unicode="&#x291;" horiz-adv-x="582" 
d="M242 -101q0 53 9 101h-205v78l305 370h-305v64h392v-78l-307 -370h136q25 76 72.5 118.5t111.5 42.5q57 0 94.5 -32t37.5 -80q0 -52 -34.5 -82.5t-93.5 -30.5h-136q-7 -45 -7 -101h-70zM449 163q-79 1 -114 -99h120q57 0 57 49q0 22 -17 36.5t-46 13.5z" />
    <glyph glyph-name="uni0292" unicode="&#x292;" horiz-adv-x="543" 
d="M307 223q98 -7 149.5 -61t51.5 -151q0 -65 -29 -113.5t-80.5 -75.5t-120.5 -27q-96 0 -158 51.5t-74 137.5h78q6 -55 46.5 -87t107.5 -32q72 0 111.5 38.5t39.5 108.5q0 71 -41 110t-116 39h-47v65l188 217l-367 1v68h455v-69z" />
    <glyph glyph-name="uni0293" unicode="&#x293;" horiz-adv-x="543" 
d="M310 229q97 -7 147.5 -62.5t50.5 -155.5q0 -55 -23 -99q29 -52 46 -117h-65q-12 34 -24 62q-33 -30 -80 -46t-104 -16q-61 0 -109 18.5t-75.5 51t-27.5 75.5q0 40 20.5 70.5t56 48.5t80.5 18q138 0 228 -93q2 13 2 28q0 75 -42 116t-119 41h-47v65l188 209l-367 1v68h455
v-69zM209 12q-37 0 -61.5 -20t-24.5 -52q0 -35 37 -56.5t96 -21.5q104 0 149 58q-69 92 -196 92z" />
    <glyph glyph-name="uni0294" unicode="&#x294;" horiz-adv-x="541" 
d="M310 230v-230h-75v274q89 35 136.5 93.5t47.5 138.5q0 73 -39.5 112.5t-111.5 39.5q-64 0 -103.5 -40t-42.5 -109h-78q5 65 34.5 114t78 76.5t109.5 27.5q70 0 121.5 -27.5t80.5 -77t29 -116.5q0 -89 -50.5 -160.5t-136.5 -115.5z" />
    <glyph glyph-name="uni0295" unicode="&#x295;" horiz-adv-x="541" 
d="M232 230q-87 44 -137.5 115.5t-50.5 160.5q0 67 29 116.5t80.5 77t121.5 27.5q61 0 109.5 -27.5t78.5 -76.5t34 -114h-78q-3 69 -42.5 109t-103.5 40q-72 0 -111.5 -39.5t-39.5 -112.5q0 -80 48 -138.5t137 -93.5v-274h-75v230z" />
    <glyph glyph-name="uni0296" unicode="&#x296;" horiz-adv-x="541" 
d="M310 487q86 -44 136.5 -115.5t50.5 -160.5q0 -67 -29 -116.5t-80.5 -77t-121.5 -27.5q-61 0 -109.5 27.5t-78 77t-34.5 113.5h78q3 -68 42.5 -108.5t103.5 -40.5q72 0 111.5 39.5t39.5 112.5q0 80 -47.5 138.5t-136.5 93.5v274h75v-230z" />
    <glyph glyph-name="uni0297" unicode="&#x297;" horiz-adv-x="564" 
d="M44 156q0 111 31.5 193.5t88 128.5t132.5 46q62 0 111 -26.5t79 -74.5t35 -112h-78q-3 67 -43 105t-104 38q-83 0 -128.5 -78t-45.5 -220q0 -138 45.5 -214.5t128.5 -76.5q63 0 103 35.5t44 98.5h78q-9 -94 -70.5 -149t-154.5 -55q-76 0 -132.5 45.5t-88 126.5t-31.5 189
z" />
    <glyph glyph-name="uni0298" unicode="&#x298;" horiz-adv-x="640" 
d="M44 325q0 166 73 258.5t203 92.5t202.5 -92.5t72.5 -258.5q0 -157 -72.5 -245t-202.5 -88q-131 0 -203.5 88t-72.5 245zM519 325q0 283 -199 283t-199 -283q0 -265 199 -265t199 265zM282 368h79v-82h-79v82z" />
    <glyph glyph-name="uni0299" unicode="&#x299;" horiz-adv-x="529" 
d="M399 258q41 -16 63.5 -47t22.5 -72q0 -63 -42.5 -101t-111.5 -38h-277v512h272q66 0 107.5 -39.5t41.5 -103.5q0 -38 -20 -67t-56 -44zM318 288q38 0 58 20t20 57q0 39 -21.5 61t-61.5 22h-180v-160h185zM317 64q42 0 66 20.5t24 59.5t-23.5 60.5t-65.5 21.5h-185v-162
h184z" />
    <glyph glyph-name="uni029A" unicode="&#x29a;" horiz-adv-x="524" 
d="M118 257q-65 34 -65 113q0 69 49 111.5t130 42.5q73 0 129 -33.5t87.5 -93t31.5 -138.5t-31.5 -139.5t-87.5 -94.5t-129 -34q-83 0 -134.5 41.5t-51.5 108.5q0 82 72 116zM402 259q0 93 -44.5 145t-122.5 52q-50 0 -77 -23.5t-27 -66.5q0 -37 19 -57.5t54 -20.5v-12
l69 12l16 -43l-85 -15v-6q-38 0 -59 -21t-21 -59q0 -41 28.5 -63t81.5 -22q79 0 123.5 52.5t44.5 147.5z" />
    <glyph glyph-name="uni029B" unicode="&#x29b;" horiz-adv-x="559" 
d="M44 258q0 80 29.5 139.5t83 93t124.5 33.5q53 0 95 -22.5t67 -62.5v91q0 49 18.5 79t47.5 43.5t62 13.5h20v-69h-13q-29 0 -47 -15t-18 -60v-186h-75q-3 55 -43.5 87.5t-105.5 32.5q-80 0 -123.5 -52t-43.5 -146q0 -95 42.5 -147.5t118.5 -52.5q60 0 99 38.5t45 108.5
h-154v60h243v-265h-55l-7 110q-25 -57 -71.5 -88.5t-104.5 -31.5q-70 0 -123 33.5t-82 94t-29 140.5z" />
    <glyph glyph-name="uni029C" unicode="&#x29c;" horiz-adv-x="544" 
d="M54 512h76v-220h284v220h75v-512h-75v222h-284v-222h-76v512z" />
    <glyph glyph-name="uni029D" unicode="&#x29d;" horiz-adv-x="272" 
d="M136 668h89v-84h-89v84zM218 -41q0 -62 -36 -97t-100 -35t-100.5 35t-36.5 96q0 60 42.5 97.5t110.5 37.5h45v419h75v-419h62v-65h-62v-69zM82 -105q32 0 46.5 16.5t14.5 53.5v63h-35q-40 0 -64 -19t-24 -50q0 -30 16 -47t46 -17z" />
    <glyph glyph-name="uni029E" unicode="&#x29e;" horiz-adv-x="504" 
d="M137 0h-96l219 251l-229 261h92l191 -213l60 70v143h75v-679h-75v447z" />
    <glyph glyph-name="uni029F" unicode="&#x29f;" horiz-adv-x="398" 
d="M363 0h-309v512h76v-441h233v-71z" />
    <glyph glyph-name="uni02A0" unicode="&#x2a0;" horiz-adv-x="583" 
d="M597 649h-15q-27 0 -44 -14.5t-17 -58.5v-743h-75v266q-28 -51 -73.5 -80t-103.5 -29q-68 0 -118.5 33.5t-78.5 94t-28 140.5t28 139.5t78.5 93t118.5 33.5q58 0 103.5 -28.5t73.5 -79.5v170q0 48 18.5 76.5t48 41.5t63.5 13h21v-68zM122 258q0 -94 42.5 -146t119.5 -52
t119.5 52t42.5 146q0 93 -42.5 144.5t-119.5 51.5t-119.5 -51.5t-42.5 -144.5z" />
    <glyph glyph-name="uni02A1" unicode="&#x2a1;" horiz-adv-x="541" 
d="M85 189h150v85q89 35 136.5 93.5t47.5 138.5q0 73 -39.5 112.5t-111.5 39.5q-64 0 -103.5 -40t-42.5 -109h-78q5 65 34.5 114t78 76.5t109.5 27.5q70 0 121.5 -27.5t80.5 -77t29 -116.5q0 -87 -50.5 -157.5t-136.5 -113.5v-46h149v-62h-149v-127h-75v127h-150v62z" />
    <glyph glyph-name="uni02A2" unicode="&#x2a2;" horiz-adv-x="541" 
d="M85 189h147v48q-87 43 -137.5 112.5t-50.5 156.5q0 67 29 116.5t80.5 77t121.5 27.5q61 0 109.5 -27.5t78 -76.5t34.5 -114h-78q-3 69 -42.5 109t-103.5 40q-72 0 -111.5 -39.5t-39.5 -112.5q0 -80 48 -138.5t137 -93.5v-85h152v-62h-152v-127h-75v127h-147v62z" />
    <glyph glyph-name="uni02A3" unicode="&#x2a3;" horiz-adv-x="1004" 
d="M521 717v-205h437v-78l-306 -370h306v-64h-392v78l306 370h-351v-448h-75v99q-28 -51 -73.5 -80t-103.5 -29q-68 0 -118.5 33.5t-78.5 94t-28 140.5t28 139.5t78.5 93t118.5 33.5q58 0 103.5 -28.5t73.5 -79.5v301h75zM122 258q0 -94 42.5 -146t119.5 -52t119.5 52
t42.5 146q0 93 -42.5 144.5t-119.5 51.5t-119.5 -51.5t-42.5 -144.5z" />
    <glyph glyph-name="uni02A4" unicode="&#x2a4;" horiz-adv-x="971" 
d="M446 717h75v-205h384v-69l-173 -220q96 -7 146 -61t50 -151q0 -65 -29 -113.5t-81 -75.5t-122 -27q-95 0 -156.5 43t-73.5 114h78q6 -41 46 -65t106 -24q73 0 113.5 39t40.5 110t-40 110t-113 39h-47v65l168 217l-297 1v-444h-75v99q-28 -51 -73.5 -80t-103.5 -29
q-68 0 -118.5 33.5t-78.5 94t-28 140.5t28 139.5t78.5 93t118.5 33.5q58 0 103.5 -28.5t73.5 -79.5v301zM122 258q0 -94 42.5 -146t119.5 -52t119.5 52t42.5 146q0 93 -42.5 144.5t-119.5 51.5t-119.5 -51.5t-42.5 -144.5z" />
    <glyph glyph-name="uni02A5" unicode="&#x2a5;" horiz-adv-x="1047" 
d="M763 -101q0 53 8 101h-205v78l306 370h-351v-448h-75v99q-28 -51 -73.5 -80t-103.5 -29q-68 0 -118.5 33.5t-78.5 94t-28 140.5t28 139.5t78.5 93t118.5 33.5q58 0 103.5 -28.5t73.5 -79.5v301h75v-205h437v-78l-306 -370h135q25 76 73 118.5t112 42.5q57 0 94 -32
t37 -80q0 -52 -34.5 -82.5t-92.5 -30.5h-137q-7 -45 -7 -101h-69zM122 258q0 -94 42.5 -146t119.5 -52t119.5 52t42.5 146q0 93 -42.5 144.5t-119.5 51.5t-119.5 -51.5t-42.5 -144.5zM970 163q-79 0 -115 -99h121q57 0 57 49q0 22 -17.5 36.5t-45.5 13.5z" />
    <glyph glyph-name="uni02A6" unicode="&#x2a6;" horiz-adv-x="783" 
d="M562 219l-82 11q-83 11 -122.5 46t-39.5 98q0 69 54 108.5t146 39.5q90 0 145.5 -43.5t63.5 -119.5h-76q-8 51 -40.5 75.5t-92.5 24.5q-57 0 -91 -22.5t-34 -59.5q0 -34 22.5 -51t75.5 -24l84 -10q84 -11 124.5 -48.5t40.5 -105.5q0 -64 -47.5 -101t-128.5 -37h-281
q-73 0 -114 41t-41 114v291h-94v66h94v133h75v-133h94v-66h-94v-282q0 -49 20.5 -71.5t65.5 -22.5h266q51 0 80 18.5t29 49.5q0 67 -102 81z" />
    <glyph glyph-name="uni02A7" unicode="&#x2a7;" horiz-adv-x="577" 
d="M438 -24q0 -55 -20 -87.5t-51.5 -47t-67.5 -14.5h-43v69h31q32 0 53.5 17.5t21.5 69.5v17h-111q-32 0 -60 13t-45.5 41.5t-17.5 76.5v315h-94v66h94v133h75v-133h159v74q0 48 19.5 76.5t50.5 41.5t66 13h46v-66h-40q-29 0 -47.5 -14.5t-18.5 -56.5v-604zM257 68h105v378
h-159v-305q0 -44 15 -58.5t39 -14.5z" />
    <glyph glyph-name="uni02A8" unicode="&#x2a8;" horiz-adv-x="821" 
d="M257 0q-34 0 -63.5 13t-47.5 42.5t-18 77.5v313h-94v66h94v133h75v-133h94v-66h-94v-304q0 -46 16 -62t41 -16q29 0 52.5 12t43.5 30q-50 68 -50 162q0 80 30 140t83.5 93.5t125.5 33.5q64 0 115 -24.5t82 -68.5t36 -102h-79q-4 58 -45 92.5t-109 34.5q-77 0 -119 -51
t-42 -144q0 -65 24 -111q7 8 12 13q24 26 51.5 50t62 39.5t79.5 15.5q46 0 83 -17.5t59.5 -48t22.5 -72.5t-25.5 -73.5t-68 -48.5t-93.5 -17q-57 0 -105 15t-84 44q-28 -26 -62.5 -43.5t-82.5 -17.5zM592 66q47 0 77 20t31 55q0 33 -25 53t-64 20q-36 0 -63.5 -14.5
t-50.5 -37.5t-46 -49l-2 -2q54 -45 143 -45z" />
    <glyph glyph-name="uni02A9" unicode="&#x2a9;" horiz-adv-x="781" 
d="M34 446v66h81v74q0 48 19.5 76.5t50.5 41.5t66 13h46v-66h-40q-29 0 -48 -14.5t-19 -56.5v-68h107v0h75v-81q27 42 70.5 67.5t95.5 25.5q87 0 138 -53.5t51 -144.5v-355q0 -73 -38.5 -113t-107.5 -40h-56v69h50q40 0 58.5 21t18.5 69v333q0 142 -136 142q-62 0 -103 -38
t-41 -97v-317h-75v446h-107v-446h-75v446h-81z" />
    <glyph glyph-name="uni02AA" unicode="&#x2aa;" horiz-adv-x="680" 
d="M458 219l-82 11q-83 11 -122.5 46t-39.5 98q0 69 53.5 108.5t146.5 39.5q90 0 145.5 -43.5t63.5 -119.5h-75q-17 100 -135 100q-56 0 -89.5 -22.5t-33.5 -59.5q0 -34 22 -51t75 -24l83 -10q85 -11 125 -48.5t40 -105.5q0 -64 -52 -101t-141 -37h-232q-73 0 -114.5 41
t-41.5 114v562h76v-553q0 -49 20.5 -71.5t65.5 -22.5h217q59 0 93.5 18.5t34.5 49.5q0 67 -103 81z" />
    <glyph glyph-name="uni02AB" unicode="&#x2ab;" horiz-adv-x="612" 
d="M130 717v-205h438v-78l-307 -370h307v-64h-392v78l305 370h-351v-448h-76v717h76z" />
    <glyph glyph-name="uni02AC" unicode="&#x2ac;" horiz-adv-x="535" 
d="M34 666h73l54 -216l68 216h75l63 -216l61 216h73l-97 -297h-68l-69 218l-71 -218h-72zM34 297h73l54 -215l68 215h75l63 -215l61 215h73l-97 -297h-68l-69 218l-71 -218h-72z" />
    <glyph glyph-name="uni02AD" unicode="&#x2ad;" horiz-adv-x="535" 
d="M480 369h-66v233h-291v-233h-68v297h425v-297zM480 0h-66v234h-291v-234h-68v297h425v-297z" />
    <glyph glyph-name="uni02AE" unicode="&#x2ae;" horiz-adv-x="530" 
d="M130 208q0 -78 36 -113t96 -35q39 0 70.5 18.5t50 50.5t18.5 73v310h75v-679h-75v250q-27 -45 -71.5 -70t-89.5 -25q-81 0 -133.5 53t-52.5 152v175q0 45 -17 60.5t-44 15.5h-30v68h36q34 0 64 -13.5t48.5 -43.5t18.5 -79v-168z" />
    <glyph glyph-name="uni02AF" unicode="&#x2af;" horiz-adv-x="530" 
d="M130 208q0 -78 36 -113t96 -35q39 0 70.5 18.5t50 50.5t18.5 73v310h75v-538q0 -44 17 -58.5t44 -14.5h15v-68h-21q-34 0 -63.5 13t-48 41.5t-18.5 76.5v119q-27 -45 -71.5 -70t-89.5 -25q-81 0 -133.5 53t-52.5 152v175q0 45 -17 60.5t-44 15.5h-30v68h36q34 0 64 -13.5
t48.5 -43.5t18.5 -79v-168z" />
    <glyph glyph-name="uni02BC" unicode="&#x2bc;" horiz-adv-x="146" 
d="M57 702h90v-112q0 -58 -26.5 -81.5t-59.5 -23.5h-19v44h13q25 0 39.5 13t14.5 54v13h-52v93z" />
    <glyph glyph-name="uni02C8" unicode="&#x2c8;" horiz-adv-x="181" 
d="M54 717h74v-327h-74v327z" />
    <glyph glyph-name="uni02CC" unicode="&#x2cc;" horiz-adv-x="181" 
d="M54 160h74v-327h-74v327z" />
    <glyph glyph-name="uni02D0" unicode="&#x2d0;" horiz-adv-x="228" 
d="M47 512h135l-68 -122zM114 123l68 -123h-135z" />
    <glyph glyph-name="gravecomb" unicode="&#x300;" horiz-adv-x="307" 
d="M17 675h89l113 -163h-62z" />
    <glyph glyph-name="acutecomb" unicode="&#x301;" horiz-adv-x="307" 
d="M303 675l-140 -163h-62l112 163h90z" />
    <glyph glyph-name="uni0302" unicode="&#x302;" horiz-adv-x="307" 
d="M116 683h76l162 -171h-82l-117 127l-118 -127h-83z" />
    <glyph glyph-name="tildecomb" unicode="&#x303;" horiz-adv-x="307" 
d="M74 664q33 0 54 -17t38 -35q14 -16 28.5 -29.5t33.5 -13.5q24 0 38.5 24t14.5 65h54q0 -70 -28.5 -110t-76.5 -40q-32 0 -52.5 14.5t-36.5 31.5q-17 17 -30.5 32.5t-32.5 15.5q-24 0 -38 -24.5t-14 -65.5h-56q0 72 27.5 112t76.5 40z" />
    <glyph glyph-name="uni0304" unicode="&#x304;" horiz-adv-x="307" 
d="M-5 594h317v-64h-317v64z" />
    <glyph glyph-name="uni0306" unicode="&#x306;" horiz-adv-x="307" 
d="M327 662q-6 -68 -51.5 -109.5t-119.5 -41.5q-75 0 -121 41.5t-52 109.5h70q5 -45 31 -69t72 -24t71 24t30 69h70z" />
    <glyph glyph-name="uni0307" unicode="&#x307;" horiz-adv-x="307" 
d="M114 606h89v-94h-89v94z" />
    <glyph glyph-name="uni0308" unicode="&#x308;" horiz-adv-x="307" 
d="M218 602h86v-90h-86v90zM4 602h86v-90h-86v90z" />
    <glyph glyph-name="hookabovecomb" unicode="&#x309;" horiz-adv-x="307" 
d="M124 512q0 21 11.5 37t40.5 40q34 26 34 48q0 16 -11.5 25.5t-31.5 9.5q-44 0 -54 -43h-63q9 45 40 69t79 24q46 0 74 -23.5t28 -63.5q0 -23 -10 -37.5t-35 -31.5q-19 -14 -28.5 -25.5t-9.5 -28.5h-64z" />
    <glyph glyph-name="uni030A" unicode="&#x30a;" horiz-adv-x="307" 
d="M293 643q0 -62 -37.5 -100t-99.5 -38t-100 38t-38 100t38 100t99 38q62 0 100 -38t38 -100zM79 643q0 -39 20 -61t57 -22q36 0 56 22t20 61q0 40 -20 61.5t-57 21.5q-36 0 -56 -21.5t-20 -61.5z" />
    <glyph glyph-name="uni030B" unicode="&#x30b;" horiz-adv-x="307" 
d="M394 675l-141 -163h-62l113 163h90zM231 675l-140 -163h-62l113 163h89z" />
    <glyph glyph-name="uni030C" unicode="&#x30c;" horiz-adv-x="307" 
d="M192 512h-76l-162 171h83l117 -127l118 127h82z" />
    <glyph glyph-name="uni0312" unicode="&#x312;" horiz-adv-x="307" 
d="M204 512h-90v112q0 57 26 81t60 24h19v-44h-13q-25 0 -40 -13.5t-15 -53.5v-12h53v-94z" />
    <glyph glyph-name="uni0313" unicode="&#x313;" horiz-adv-x="307" 
d="M129 729h90v-112q0 -58 -26 -81.5t-59 -23.5h-19v44h13q24 0 39 13t15 54v13h-53v93z" />
    <glyph glyph-name="uni0315" unicode="&#x315;" horiz-adv-x="307" 
d="M158 716h72l-36 -204h-67z" />
    <glyph glyph-name="uni031B" unicode="&#x31b;" horiz-adv-x="307" 
d="M78 561h69q29 0 48.5 14.5t19.5 60.5v33h67v-39q0 -48 -18.5 -75.5t-47 -39t-57.5 -11.5h-81v57z" />
    <glyph glyph-name="dotbelowcomb" unicode="&#x323;" horiz-adv-x="303" 
d="M107 -71h89v-85h-89v85z" />
    <glyph glyph-name="uni0326" unicode="&#x326;" horiz-adv-x="307" 
d="M118 -37h90v-112q0 -58 -26 -81.5t-59 -23.5h-19v44h13q24 0 39 13t15 54v12h-53v94z" />
    <glyph glyph-name="uni0327" unicode="&#x327;" horiz-adv-x="307" 
d="M138 10h55l-14 -66h16q47 0 76.5 -29.5t29.5 -77.5q0 -52 -37.5 -82.5t-99.5 -30.5h-91v65h83q75 0 75 57q0 21 -14 32.5t-39 11.5h-34l-25 33z" />
    <glyph glyph-name="uni0328" unicode="&#x328;" horiz-adv-x="307" 
d="M201 0q-42 -30 -63.5 -53.5t-29 -46t-7.5 -48.5q0 -66 78 -66h65v-67h-73q-63 0 -100.5 33t-37.5 90q0 61 33 98t74 60h61z" />
    <glyph glyph-name="uni1E9E" unicode="&#x1e9e;" horiz-adv-x="633" 
d="M396 360q103 -5 149.5 -52t46.5 -121q0 -56 -28 -98t-78.5 -65.5t-117.5 -23.5h-81v68h67q77 0 119.5 31.5t42.5 88.5q0 54 -40 83.5t-113 29.5h-47v66l167 226q-33 9 -69.5 14.5t-76.5 5.5q-109 0 -158 -48t-49 -152v-413h-76v419q0 128 71 194t209 66q62 0 115 -12
t101 -30v-67z" />
    <glyph glyph-name="uni1EA0" unicode="&#x1ea0;" horiz-adv-x="641" 
d="M609 0h-82l-64 178h-284l-63 -178h-83l246 666h85zM319 576l-117 -332h237zM275 -71h89v-85h-89v85z" />
    <glyph glyph-name="uni1EA1" unicode="&#x1ea1;" horiz-adv-x="526" 
d="M471 340v-340h-76v91q-28 -46 -75.5 -74t-106.5 -28q-49 0 -87.5 19.5t-60 54t-21.5 79.5q0 62 38.5 99t108.5 41l144 11q33 2 46.5 13.5t13.5 37.5v2q0 48 -37.5 80.5t-91.5 32.5q-127 0 -139 -109h-79q5 79 64 126t153 47q59 0 105.5 -24t73.5 -65.5t27 -93.5zM121 144
q0 -41 31 -65t83 -24q46 0 82 21.5t57 58.5t21 84v16l-178 -12q-96 -7 -96 -79zM243 -71h89v-85h-89v85z" />
    <glyph glyph-name="uni1EA2" unicode="&#x1ea2;" horiz-adv-x="641" 
d="M285 717q0 21 11.5 37t40.5 40q34 26 34 48q0 16 -12 25.5t-31 9.5q-45 0 -54 -43h-63q8 45 39.5 69t79.5 24q46 0 74 -23.5t28 -63.5q0 -23 -10 -37.5t-35 -31.5q-20 -14 -29 -25.5t-9 -28.5h-64zM609 0h-82l-64 178h-284l-63 -178h-83l246 666h85zM319 576l-117 -332
h237z" />
    <glyph glyph-name="uni1EA3" unicode="&#x1ea3;" horiz-adv-x="526" 
d="M229 573q0 21 11.5 37t40.5 40q34 26 34 48q0 16 -11.5 25.5t-31.5 9.5q-44 0 -54 -43h-63q9 45 40 69t79 24q46 0 74 -23.5t28 -63.5q0 -23 -10 -37.5t-35 -31.5q-19 -14 -28.5 -25.5t-9.5 -28.5h-64zM471 340v-340h-76v91q-28 -46 -75.5 -74t-106.5 -28
q-49 0 -87.5 19.5t-60 54t-21.5 79.5q0 62 38.5 99t108.5 41l144 11q33 2 46.5 13.5t13.5 37.5v2q0 48 -37.5 80.5t-91.5 32.5q-127 0 -139 -109h-79q5 79 64 126t153 47q59 0 105.5 -24t73.5 -65.5t27 -93.5zM121 144q0 -41 31 -65t83 -24q46 0 82 21.5t57 58.5t21 84v16
l-178 -12q-96 -7 -96 -79z" />
    <glyph glyph-name="uni1EA4" unicode="&#x1ea4;" horiz-adv-x="641" 
d="M665 982l-140 -163h-63l113 163h90zM277 888h76l162 -171h-82l-117 127l-118 -127h-83zM609 0h-82l-64 178h-284l-63 -178h-83l246 666h85zM319 576l-117 -332h237z" />
    <glyph glyph-name="uni1EA5" unicode="&#x1ea5;" horiz-adv-x="526" 
d="M617 859l-140 -163h-63l113 163h90zM221 744h76l162 -171h-82l-117 127l-118 -127h-83zM471 340v-340h-76v91q-28 -46 -75.5 -74t-106.5 -28q-49 0 -87.5 19.5t-60 54t-21.5 79.5q0 62 38.5 99t108.5 41l144 11q33 2 46.5 13.5t13.5 37.5v2q0 48 -37.5 80.5t-91.5 32.5
q-127 0 -139 -109h-79q5 79 64 126t153 47q59 0 105.5 -24t73.5 -65.5t27 -93.5zM121 144q0 -41 31 -65t83 -24q46 0 82 21.5t57 58.5t21 84v16l-178 -12q-96 -7 -96 -79z" />
    <glyph glyph-name="uni1EA6" unicode="&#x1ea6;" horiz-adv-x="641" 
d="M383 982h89l113 -163h-62zM277 888h76l162 -171h-82l-117 127l-118 -127h-83zM609 0h-82l-64 178h-284l-63 -178h-83l246 666h85zM319 576l-117 -332h237z" />
    <glyph glyph-name="uni1EA7" unicode="&#x1ea7;" horiz-adv-x="526" 
d="M328 859h89l113 -163h-62zM221 744h76l162 -171h-82l-117 127l-118 -127h-83zM471 340v-340h-76v91q-28 -46 -75.5 -74t-106.5 -28q-49 0 -87.5 19.5t-60 54t-21.5 79.5q0 62 38.5 99t108.5 41l144 11q33 2 46.5 13.5t13.5 37.5v2q0 48 -37.5 80.5t-91.5 32.5
q-127 0 -139 -109h-79q5 79 64 126t153 47q59 0 105.5 -24t73.5 -65.5t27 -93.5zM121 144q0 -41 31 -65t83 -24q46 0 82 21.5t57 58.5t21 84v16l-178 -12q-96 -7 -96 -79z" />
    <glyph glyph-name="uni1EA8" unicode="&#x1ea8;" horiz-adv-x="641" 
d="M489 819q0 21 11.5 37t40.5 40q35 26 35 48q0 16 -12 25.5t-32 9.5q-44 0 -53 -43h-64q9 45 40 69t79 24q46 0 74 -23.5t28 -63.5q0 -23 -10 -37.5t-34 -31.5q-20 -14 -29.5 -25.5t-9.5 -28.5h-64zM277 888h76l162 -171h-82l-117 127l-118 -127h-83zM609 0h-82l-64 178
h-284l-63 -178h-83l246 666h85zM319 576l-117 -332h237z" />
    <glyph glyph-name="uni1EA9" unicode="&#x1ea9;" horiz-adv-x="526" 
d="M416 696q0 21 11.5 37t40.5 40q34 26 34 48q0 16 -11.5 25.5t-31.5 9.5q-44 0 -54 -43h-63q9 45 40 69t79 24q46 0 74 -23.5t28 -63.5q0 -23 -10 -37.5t-35 -31.5q-20 -14 -29 -25.5t-9 -28.5h-64zM221 744h76l162 -171h-82l-117 127l-118 -127h-83zM471 340v-340h-76v91
q-28 -46 -75.5 -74t-106.5 -28q-49 0 -87.5 19.5t-60 54t-21.5 79.5q0 62 38.5 99t108.5 41l144 11q33 2 46.5 13.5t13.5 37.5v2q0 48 -37.5 80.5t-91.5 32.5q-127 0 -139 -109h-79q5 79 64 126t153 47q59 0 105.5 -24t73.5 -65.5t27 -93.5zM121 144q0 -41 31 -65t83 -24
q46 0 82 21.5t57 58.5t21 84v16l-178 -12q-96 -7 -96 -79z" />
    <glyph glyph-name="uni1EAA" unicode="&#x1eaa;" horiz-adv-x="641" 
d="M237 1085q33 0 54 -17t38 -35q14 -17 28 -30t34 -13q24 0 38.5 24t14.5 64h54q0 -69 -28.5 -109t-76.5 -40q-32 0 -52.5 14.5t-36.5 31.5q-17 17 -30.5 32.5t-33.5 15.5q-23 0 -37 -24.5t-14 -65.5h-56q0 71 27.5 111.5t76.5 40.5zM277 888h76l162 -171h-82l-117 127
l-118 -127h-83zM609 0h-82l-64 178h-284l-63 -178h-83l246 666h85zM319 576l-117 -332h237z" />
    <glyph glyph-name="uni1EAB" unicode="&#x1eab;" horiz-adv-x="526" 
d="M181 950q33 0 54 -17t38 -35q15 -16 29 -29.5t33 -13.5q24 0 38.5 24t14.5 65h54q0 -70 -28 -110t-77 -40q-32 0 -52 14.5t-37 31.5t-30.5 32.5t-32.5 15.5q-24 0 -38 -24.5t-14 -65.5h-56q0 72 27.5 112t76.5 40zM221 744h76l162 -171h-82l-117 127l-118 -127h-83z
M471 340v-340h-76v91q-28 -46 -75.5 -74t-106.5 -28q-49 0 -87.5 19.5t-60 54t-21.5 79.5q0 62 38.5 99t108.5 41l144 11q33 2 46.5 13.5t13.5 37.5v2q0 48 -37.5 80.5t-91.5 32.5q-127 0 -139 -109h-79q5 79 64 126t153 47q59 0 105.5 -24t73.5 -65.5t27 -93.5zM121 144
q0 -41 31 -65t83 -24q46 0 82 21.5t57 58.5t21 84v16l-178 -12q-96 -7 -96 -79z" />
    <glyph glyph-name="uni1EAC" unicode="&#x1eac;" horiz-adv-x="641" 
d="M277 888h76l162 -171h-82l-117 127l-118 -127h-83zM609 0h-82l-64 178h-284l-63 -178h-83l246 666h85zM319 576l-117 -332h237zM275 -71h89v-85h-89v85z" />
    <glyph glyph-name="uni1EAD" unicode="&#x1ead;" horiz-adv-x="526" 
d="M221 744h76l162 -171h-82l-117 127l-118 -127h-83zM471 340v-340h-76v91q-28 -46 -75.5 -74t-106.5 -28q-49 0 -87.5 19.5t-60 54t-21.5 79.5q0 62 38.5 99t108.5 41l144 11q33 2 46.5 13.5t13.5 37.5v2q0 48 -37.5 80.5t-91.5 32.5q-127 0 -139 -109h-79q5 79 64 126
t153 47q59 0 105.5 -24t73.5 -65.5t27 -93.5zM121 144q0 -41 31 -65t83 -24q46 0 82 21.5t57 58.5t21 84v16l-178 -12q-96 -7 -96 -79zM243 -71h89v-85h-89v85z" />
    <glyph glyph-name="uni1EAE" unicode="&#x1eae;" horiz-adv-x="641" 
d="M464 1027l-140 -162h-62l112 162h90zM488 867q-6 -68 -51.5 -109.5t-119.5 -41.5q-75 0 -121 41.5t-53 109.5h71q5 -45 30.5 -69t72.5 -24q46 0 71 24t30 69h70zM609 0h-82l-64 178h-284l-63 -178h-83l246 666h85zM319 576l-117 -332h237z" />
    <glyph glyph-name="uni1EAF" unicode="&#x1eaf;" horiz-adv-x="526" 
d="M408 891l-140 -162h-62l112 162h90zM432 723q-6 -68 -51.5 -109.5t-119.5 -41.5q-75 0 -121 41.5t-52 109.5h70q5 -45 31 -69t72 -24t71 24t30 69h70zM471 340v-340h-76v91q-28 -46 -75.5 -74t-106.5 -28q-49 0 -87.5 19.5t-60 54t-21.5 79.5q0 62 38.5 99t108.5 41
l144 11q33 2 46.5 13.5t13.5 37.5v2q0 48 -37.5 80.5t-91.5 32.5q-127 0 -139 -109h-79q5 79 64 126t153 47q59 0 105.5 -24t73.5 -65.5t27 -93.5zM121 144q0 -41 31 -65t83 -24q46 0 82 21.5t57 58.5t21 84v16l-178 -12q-96 -7 -96 -79z" />
    <glyph glyph-name="uni1EB0" unicode="&#x1eb0;" horiz-adv-x="641" 
d="M177 1027h90l112 -162h-62zM488 867q-6 -68 -51.5 -109.5t-119.5 -41.5q-75 0 -121 41.5t-53 109.5h71q5 -45 30.5 -69t72.5 -24q46 0 71 24t30 69h70zM609 0h-82l-64 178h-284l-63 -178h-83l246 666h85zM319 576l-117 -332h237z" />
    <glyph glyph-name="uni1EB1" unicode="&#x1eb1;" horiz-adv-x="526" 
d="M122 891h89l113 -162h-62zM432 723q-6 -68 -51.5 -109.5t-119.5 -41.5q-75 0 -121 41.5t-52 109.5h70q5 -45 31 -69t72 -24t71 24t30 69h70zM471 340v-340h-76v91q-28 -46 -75.5 -74t-106.5 -28q-49 0 -87.5 19.5t-60 54t-21.5 79.5q0 62 38.5 99t108.5 41l144 11
q33 2 46.5 13.5t13.5 37.5v2q0 48 -37.5 80.5t-91.5 32.5q-127 0 -139 -109h-79q5 79 64 126t153 47q59 0 105.5 -24t73.5 -65.5t27 -93.5zM121 144q0 -41 31 -65t83 -24q46 0 82 21.5t57 58.5t21 84v16l-178 -12q-96 -7 -96 -79z" />
    <glyph glyph-name="uni1EB2" unicode="&#x1eb2;" horiz-adv-x="641" 
d="M285 865q0 21 11.5 37t40.5 39q34 27 34 48q0 16 -12 26t-31 10q-45 0 -54 -43h-63q8 45 39.5 69t79.5 24q46 0 74 -24t28 -63q0 -23 -10 -37.5t-35 -32.5q-20 -14 -29 -25.5t-9 -27.5h-64zM488 867q-6 -68 -51.5 -109.5t-119.5 -41.5q-75 0 -121 41.5t-53 109.5h71
q5 -45 30.5 -69t72.5 -24q46 0 71 24t30 69h70zM609 0h-82l-64 178h-284l-63 -178h-83l246 666h85zM319 576l-117 -332h237z" />
    <glyph glyph-name="uni1EB3" unicode="&#x1eb3;" horiz-adv-x="526" 
d="M229 729q0 21 11.5 37t40.5 40q34 26 34 47q0 17 -11.5 26.5t-31.5 9.5q-44 0 -54 -43h-63q9 45 40 69t79 24q46 0 74 -23.5t28 -63.5q0 -23 -10 -37.5t-35 -32.5q-19 -14 -28.5 -25.5t-9.5 -27.5h-64zM432 723q-6 -68 -51.5 -109.5t-119.5 -41.5q-75 0 -121 41.5
t-52 109.5h70q5 -45 31 -69t72 -24t71 24t30 69h70zM471 340v-340h-76v91q-28 -46 -75.5 -74t-106.5 -28q-49 0 -87.5 19.5t-60 54t-21.5 79.5q0 62 38.5 99t108.5 41l144 11q33 2 46.5 13.5t13.5 37.5v2q0 48 -37.5 80.5t-91.5 32.5q-127 0 -139 -109h-79q5 79 64 126
t153 47q59 0 105.5 -24t73.5 -65.5t27 -93.5zM121 144q0 -41 31 -65t83 -24q46 0 82 21.5t57 58.5t21 84v16l-178 -12q-96 -7 -96 -79z" />
    <glyph glyph-name="uni1EB4" unicode="&#x1eb4;" horiz-adv-x="641" 
d="M235 1060q32 0 53 -16.5t39 -34.5q14 -17 28 -30t34 -13q24 0 38.5 24t14.5 64h54q0 -69 -28.5 -109t-76.5 -40q-32 0 -52.5 14.5t-37.5 31.5q-16 17 -29.5 32.5t-33.5 15.5q-24 0 -37.5 -25t-13.5 -65h-57q0 71 28 111t77 40zM488 867q-6 -68 -51.5 -109.5t-119.5 -41.5
q-75 0 -121 41.5t-53 109.5h71q5 -45 30.5 -69t72.5 -24q46 0 71 24t30 69h70zM609 0h-82l-64 178h-284l-63 -178h-83l246 666h85zM319 576l-117 -332h237z" />
    <glyph glyph-name="uni1EB5" unicode="&#x1eb5;" horiz-adv-x="526" 
d="M179 925q33 0 54 -17t38 -35q14 -16 28.5 -29t33.5 -13q24 0 38.5 24t14.5 64h54q0 -69 -28.5 -109.5t-76.5 -40.5q-32 0 -52.5 14.5t-36.5 31.5q-17 17 -30.5 32.5t-32.5 15.5q-24 0 -38 -24.5t-14 -65.5h-56q0 72 27.5 112t76.5 40zM432 723q-6 -68 -51.5 -109.5
t-119.5 -41.5q-75 0 -121 41.5t-52 109.5h70q5 -45 31 -69t72 -24t71 24t30 69h70zM471 340v-340h-76v91q-28 -46 -75.5 -74t-106.5 -28q-49 0 -87.5 19.5t-60 54t-21.5 79.5q0 62 38.5 99t108.5 41l144 11q33 2 46.5 13.5t13.5 37.5v2q0 48 -37.5 80.5t-91.5 32.5
q-127 0 -139 -109h-79q5 79 64 126t153 47q59 0 105.5 -24t73.5 -65.5t27 -93.5zM121 144q0 -41 31 -65t83 -24q46 0 82 21.5t57 58.5t21 84v16l-178 -12q-96 -7 -96 -79z" />
    <glyph glyph-name="uni1EB6" unicode="&#x1eb6;" horiz-adv-x="641" 
d="M488 867q-6 -68 -51.5 -109.5t-119.5 -41.5q-75 0 -121 41.5t-53 109.5h71q5 -45 30.5 -69t72.5 -24q46 0 71 24t30 69h70zM609 0h-82l-64 178h-284l-63 -178h-83l246 666h85zM319 576l-117 -332h237zM275 -71h89v-85h-89v85z" />
    <glyph glyph-name="uni1EB7" unicode="&#x1eb7;" horiz-adv-x="526" 
d="M432 723q-6 -68 -51.5 -109.5t-119.5 -41.5q-75 0 -121 41.5t-52 109.5h70q5 -45 31 -69t72 -24t71 24t30 69h70zM471 340v-340h-76v91q-28 -46 -75.5 -74t-106.5 -28q-49 0 -87.5 19.5t-60 54t-21.5 79.5q0 62 38.5 99t108.5 41l144 11q33 2 46.5 13.5t13.5 37.5v2
q0 48 -37.5 80.5t-91.5 32.5q-127 0 -139 -109h-79q5 79 64 126t153 47q59 0 105.5 -24t73.5 -65.5t27 -93.5zM121 144q0 -41 31 -65t83 -24q46 0 82 21.5t57 58.5t21 84v16l-178 -12q-96 -7 -96 -79zM243 -71h89v-85h-89v85z" />
    <glyph glyph-name="uni1EB8" unicode="&#x1eb8;" horiz-adv-x="547" 
d="M504 666v-72h-374v-218h345v-72h-345v-233h374v-71h-450v666h450zM244 -71h89v-85h-89v85z" />
    <glyph glyph-name="uni1EB9" unicode="&#x1eb9;" horiz-adv-x="566" 
d="M44 258q0 82 29.5 141t83 91t126.5 32q70 0 123.5 -33t84.5 -90.5t31 -130.5v-31h-400q5 -87 47.5 -132.5t119.5 -45.5q63 0 100.5 28t46.5 75h80q-17 -82 -73.5 -126t-153.5 -44q-75 0 -130 32.5t-85 92t-30 141.5zM283 457q-143 0 -159 -159h317q-6 73 -49 116t-109 43
zM248 -71h89v-85h-89v85z" />
    <glyph glyph-name="uni1EBA" unicode="&#x1eba;" horiz-adv-x="547" 
d="M253 717q0 21 11.5 37t40.5 40q35 26 35 48q0 16 -12 25.5t-32 9.5q-44 0 -53 -43h-64q9 45 40 69t79 24q46 0 74 -23.5t28 -63.5q0 -23 -10 -37.5t-34 -31.5q-20 -14 -29.5 -25.5t-9.5 -28.5h-64zM504 666v-72h-374v-218h345v-72h-345v-233h374v-71h-450v666h450z" />
    <glyph glyph-name="uni1EBB" unicode="&#x1ebb;" horiz-adv-x="566" 
d="M246 573q0 21 12 37t41 40q34 26 34 48q0 16 -12 25.5t-31 9.5q-45 0 -54 -43h-64q9 45 40 69t80 24q46 0 74 -23.5t28 -63.5q0 -23 -10 -37.5t-35 -31.5q-20 -14 -29 -25.5t-9 -28.5h-65zM44 258q0 82 29.5 141t83 91t126.5 32q70 0 123.5 -33t84.5 -90.5t31 -130.5v-31
h-400q5 -87 47.5 -132.5t119.5 -45.5q63 0 100.5 28t46.5 75h80q-17 -82 -73.5 -126t-153.5 -44q-75 0 -130 32.5t-85 92t-30 141.5zM283 457q-143 0 -159 -159h317q-6 73 -49 116t-109 43z" />
    <glyph glyph-name="uni1EBC" unicode="&#x1ebc;" horiz-adv-x="547" 
d="M203 869q33 0 54 -17t38 -35q15 -16 29 -29.5t33 -13.5q24 0 38.5 24t14.5 65h54q0 -70 -28 -110t-77 -40q-32 0 -52 14.5t-37 31.5t-30.5 32.5t-32.5 15.5q-24 0 -38 -24.5t-14 -65.5h-56q0 72 27.5 112t76.5 40zM504 666v-72h-374v-218h345v-72h-345v-233h374v-71h-450
v666h450z" />
    <glyph glyph-name="uni1EBD" unicode="&#x1ebd;" horiz-adv-x="566" 
d="M197 725q32 0 53 -17t39 -35q14 -16 28 -29.5t33 -13.5q24 0 39 24t15 65h54q0 -70 -28.5 -110t-76.5 -40q-32 0 -52.5 14.5t-37.5 31.5q-16 17 -30 32.5t-33 15.5q-24 0 -37.5 -24.5t-13.5 -65.5h-57q0 72 28 112t77 40zM44 258q0 82 29.5 141t83 91t126.5 32
q70 0 123.5 -33t84.5 -90.5t31 -130.5v-31h-400q5 -87 47.5 -132.5t119.5 -45.5q63 0 100.5 28t46.5 75h80q-17 -82 -73.5 -126t-153.5 -44q-75 0 -130 32.5t-85 92t-30 141.5zM283 457q-143 0 -159 -159h317q-6 73 -49 116t-109 43z" />
    <glyph glyph-name="uni1EBE" unicode="&#x1ebe;" horiz-adv-x="547" 
d="M639 982l-140 -163h-62l112 163h90zM245 888h76l162 -171h-82l-117 127l-118 -127h-83zM504 666v-72h-374v-218h345v-72h-345v-233h374v-71h-450v666h450z" />
    <glyph glyph-name="uni1EBF" unicode="&#x1ebf;" horiz-adv-x="566" 
d="M627 859l-140 -163h-62l112 163h90zM239 744h76l162 -171h-83l-116 127l-118 -127h-83zM44 258q0 82 29.5 141t83 91t126.5 32q70 0 123.5 -33t84.5 -90.5t31 -130.5v-31h-400q5 -87 47.5 -132.5t119.5 -45.5q63 0 100.5 28t46.5 75h80q-17 -82 -73.5 -126t-153.5 -44
q-75 0 -130 32.5t-85 92t-30 141.5zM283 457q-143 0 -159 -159h317q-6 73 -49 116t-109 43z" />
    <glyph glyph-name="uni1EC0" unicode="&#x1ec0;" horiz-adv-x="547" 
d="M361 982h89l113 -163h-62zM245 888h76l162 -171h-82l-117 127l-118 -127h-83zM504 666v-72h-374v-218h345v-72h-345v-233h374v-71h-450v666h450z" />
    <glyph glyph-name="uni1EC1" unicode="&#x1ec1;" horiz-adv-x="566" 
d="M353 859h89l113 -163h-62zM239 744h76l162 -171h-83l-116 127l-118 -127h-83zM44 258q0 82 29.5 141t83 91t126.5 32q70 0 123.5 -33t84.5 -90.5t31 -130.5v-31h-400q5 -87 47.5 -132.5t119.5 -45.5q63 0 100.5 28t46.5 75h80q-17 -82 -73.5 -126t-153.5 -44
q-75 0 -130 32.5t-85 92t-30 141.5zM283 457q-143 0 -159 -159h317q-6 73 -49 116t-109 43z" />
    <glyph glyph-name="uni1EC2" unicode="&#x1ec2;" horiz-adv-x="547" 
d="M449 821q0 21 11.5 37t40.5 40q35 26 35 48q0 16 -12 25.5t-32 9.5q-44 0 -53 -43h-64q9 45 40 69t79 24q47 0 74.5 -23.5t27.5 -63.5q0 -23 -9.5 -37.5t-34.5 -31.5q-20 -14 -29 -25.5t-9 -28.5h-65zM245 888h76l162 -171h-82l-117 127l-118 -127h-83zM504 666v-72h-374
v-218h345v-72h-345v-233h374v-71h-450v666h450z" />
    <glyph glyph-name="uni1EC3" unicode="&#x1ec3;" horiz-adv-x="566" 
d="M444 697q0 21 11.5 37t40.5 40q34 26 34 48q0 16 -12 25.5t-31 9.5q-45 0 -54 -43h-63q8 45 39.5 69t79.5 24q46 0 74 -23.5t28 -63.5q0 -23 -10 -37.5t-35 -31.5q-20 -14 -29 -25.5t-9 -28.5h-64zM239 744h76l162 -171h-83l-116 127l-118 -127h-83zM44 258
q0 82 29.5 141t83 91t126.5 32q70 0 123.5 -33t84.5 -90.5t31 -130.5v-31h-400q5 -87 47.5 -132.5t119.5 -45.5q63 0 100.5 28t46.5 75h80q-17 -82 -73.5 -126t-153.5 -44q-75 0 -130 32.5t-85 92t-30 141.5zM283 457q-143 0 -159 -159h317q-6 73 -49 116t-109 43z" />
    <glyph glyph-name="uni1EC4" unicode="&#x1ec4;" horiz-adv-x="547" 
d="M206 1093q32 0 53 -17t39 -35q14 -16 28 -29t33 -13q24 0 38.5 24t14.5 64h55q0 -69 -28.5 -109.5t-76.5 -40.5q-32 0 -52.5 14.5t-37.5 31.5q-16 17 -30 32.5t-33 15.5q-24 0 -38 -24.5t-14 -65.5h-56q0 72 27.5 112t77.5 40zM245 888h76l162 -171h-82l-117 127
l-118 -127h-83zM504 666v-72h-374v-218h345v-72h-345v-233h374v-71h-450v666h450z" />
    <glyph glyph-name="uni1EC5" unicode="&#x1ec5;" horiz-adv-x="566" 
d="M199 950q32 0 53 -17t39 -35q14 -16 28 -29.5t34 -13.5q24 0 38.5 24t14.5 65h54q0 -70 -28.5 -110t-76.5 -40q-32 0 -52.5 14.5t-37.5 31.5q-16 17 -29.5 32.5t-33.5 15.5q-24 0 -37.5 -24.5t-13.5 -65.5h-57q0 72 28 112t77 40zM239 744h76l162 -171h-83l-116 127
l-118 -127h-83zM44 258q0 82 29.5 141t83 91t126.5 32q70 0 123.5 -33t84.5 -90.5t31 -130.5v-31h-400q5 -87 47.5 -132.5t119.5 -45.5q63 0 100.5 28t46.5 75h80q-17 -82 -73.5 -126t-153.5 -44q-75 0 -130 32.5t-85 92t-30 141.5zM283 457q-143 0 -159 -159h317
q-6 73 -49 116t-109 43z" />
    <glyph glyph-name="uni1EC6" unicode="&#x1ec6;" horiz-adv-x="547" 
d="M245 888h76l162 -171h-82l-117 127l-118 -127h-83zM504 666v-72h-374v-218h345v-72h-345v-233h374v-71h-450v666h450zM244 -71h89v-85h-89v85z" />
    <glyph glyph-name="uni1EC7" unicode="&#x1ec7;" horiz-adv-x="566" 
d="M239 744h76l162 -171h-83l-116 127l-118 -127h-83zM44 258q0 82 29.5 141t83 91t126.5 32q70 0 123.5 -33t84.5 -90.5t31 -130.5v-31h-400q5 -87 47.5 -132.5t119.5 -45.5q63 0 100.5 28t46.5 75h80q-17 -82 -73.5 -126t-153.5 -44q-75 0 -130 32.5t-85 92t-30 141.5z
M283 457q-143 0 -159 -159h317q-6 73 -49 116t-109 43zM248 -71h89v-85h-89v85z" />
    <glyph glyph-name="uni1EC8" unicode="&#x1ec8;" 
d="M57 717q0 21 11.5 37t40.5 40q35 26 35 48q0 16 -12 25.5t-32 9.5q-44 0 -53 -43h-64q9 45 40 69t79 24q47 0 74.5 -23.5t27.5 -63.5q0 -23 -9.5 -37.5t-34.5 -31.5q-20 -14 -29.5 -25.5t-9.5 -28.5h-64zM54 666h76v-666h-76v666z" />
    <glyph glyph-name="uni1EC9" unicode="&#x1ec9;" 
d="M57 573q0 21 11.5 37t40.5 40q34 26 34 48q0 16 -12 25.5t-31 9.5q-45 0 -54 -43h-63q8 45 39.5 69t79.5 24q46 0 74 -23.5t28 -63.5q0 -23 -10 -37.5t-35 -31.5q-20 -14 -29 -25.5t-9 -28.5h-64zM54 512h76v-512h-76v512z" />
    <glyph glyph-name="uni1ECA" unicode="&#x1eca;" 
d="M54 666h76v-666h-76v666zM48 -71h89v-85h-89v85z" />
    <glyph glyph-name="uni1ECB" unicode="&#x1ecb;" 
d="M47 668h90v-84h-90v84zM54 512h76v-512h-76v512zM49 -71h89v-85h-89v85z" />
    <glyph glyph-name="uni1ECC" unicode="&#x1ecc;" horiz-adv-x="687" 
d="M44 325q0 106 37.5 184.5t105 122.5t157.5 44t157.5 -44t105 -122.5t37.5 -184.5q0 -100 -37.5 -175t-105 -116.5t-157.5 -41.5t-157.5 41.5t-105 116.5t-37.5 175zM566 325q0 132 -58.5 206t-163.5 74t-163.5 -74t-58.5 -206q0 -124 58.5 -192.5t163.5 -68.5t163.5 68.5
t58.5 192.5zM297 -71h89v-85h-89v85z" />
    <glyph glyph-name="uni1ECD" unicode="&#x1ecd;" horiz-adv-x="568" 
d="M44 258q0 80 30 139.5t84.5 93t126.5 33.5q71 0 125 -33.5t84 -93t30 -139.5t-30 -140.5t-84 -94t-125 -33.5q-72 0 -126.5 33.5t-84.5 94t-30 140.5zM446 258q0 93 -42.5 144.5t-118.5 51.5q-78 0 -120.5 -51.5t-42.5 -144.5q0 -94 42.5 -146t120.5 -52q76 0 118.5 52
t42.5 146zM240 -71h89v-85h-89v85z" />
    <glyph glyph-name="uni1ECE" unicode="&#x1ece;" horiz-adv-x="687" 
d="M307 717q0 21 12 37t41 40q34 26 34 48q0 16 -12 25.5t-31 9.5q-45 0 -54 -43h-64q9 45 40 69t80 24q46 0 74 -23.5t28 -63.5q0 -23 -10 -37.5t-35 -31.5q-20 -14 -29 -25.5t-9 -28.5h-65zM44 325q0 106 37.5 184.5t105 122.5t157.5 44t157.5 -44t105 -122.5t37.5 -184.5
q0 -100 -37.5 -175t-105 -116.5t-157.5 -41.5t-157.5 41.5t-105 116.5t-37.5 175zM566 325q0 132 -58.5 206t-163.5 74t-163.5 -74t-58.5 -206q0 -124 58.5 -192.5t163.5 -68.5t163.5 68.5t58.5 192.5z" />
    <glyph glyph-name="uni1ECF" unicode="&#x1ecf;" horiz-adv-x="568" 
d="M248 573q0 21 11.5 37t40.5 40q34 26 34 48q0 16 -11.5 25.5t-31.5 9.5q-44 0 -54 -43h-63q9 45 40 69t79 24q46 0 74 -23.5t28 -63.5q0 -23 -10 -37.5t-35 -31.5q-20 -14 -29 -25.5t-9 -28.5h-64zM44 258q0 80 30 139.5t84.5 93t126.5 33.5q71 0 125 -33.5t84 -93
t30 -139.5t-30 -140.5t-84 -94t-125 -33.5q-72 0 -126.5 33.5t-84.5 94t-30 140.5zM446 258q0 93 -42.5 144.5t-118.5 51.5q-78 0 -120.5 -51.5t-42.5 -144.5q0 -94 42.5 -146t120.5 -52q76 0 118.5 52t42.5 146z" />
    <glyph glyph-name="uni1ED0" unicode="&#x1ed0;" horiz-adv-x="687" 
d="M697 982l-140 -163h-62l112 163h90zM302 888h75l163 -171h-83l-117 127l-117 -127h-84zM44 325q0 106 37.5 184.5t105 122.5t157.5 44t157.5 -44t105 -122.5t37.5 -184.5q0 -100 -37.5 -175t-105 -116.5t-157.5 -41.5t-157.5 41.5t-105 116.5t-37.5 175zM566 325
q0 132 -58.5 206t-163.5 74t-163.5 -74t-58.5 -206q0 -124 58.5 -192.5t163.5 -68.5t163.5 68.5t58.5 192.5z" />
    <glyph glyph-name="uni1ED1" unicode="&#x1ed1;" horiz-adv-x="568" 
d="M628 859l-140 -163h-62l112 163h90zM240 744h76l162 -171h-82l-117 127l-118 -127h-83zM44 258q0 80 30 139.5t84.5 93t126.5 33.5q71 0 125 -33.5t84 -93t30 -139.5t-30 -140.5t-84 -94t-125 -33.5q-72 0 -126.5 33.5t-84.5 94t-30 140.5zM446 258q0 93 -42.5 144.5
t-118.5 51.5q-78 0 -120.5 -51.5t-42.5 -144.5q0 -94 42.5 -146t120.5 -52q76 0 118.5 52t42.5 146z" />
    <glyph glyph-name="uni1ED2" unicode="&#x1ed2;" horiz-adv-x="687" 
d="M417 982h89l113 -163h-62zM302 888h75l163 -171h-83l-117 127l-117 -127h-84zM44 325q0 106 37.5 184.5t105 122.5t157.5 44t157.5 -44t105 -122.5t37.5 -184.5q0 -100 -37.5 -175t-105 -116.5t-157.5 -41.5t-157.5 41.5t-105 116.5t-37.5 175zM566 325q0 132 -58.5 206
t-163.5 74t-163.5 -74t-58.5 -206q0 -124 58.5 -192.5t163.5 -68.5t163.5 68.5t58.5 192.5z" />
    <glyph glyph-name="uni1ED3" unicode="&#x1ed3;" horiz-adv-x="568" 
d="M339 859h89l113 -163h-62zM240 744h76l162 -171h-82l-117 127l-118 -127h-83zM44 258q0 80 30 139.5t84.5 93t126.5 33.5q71 0 125 -33.5t84 -93t30 -139.5t-30 -140.5t-84 -94t-125 -33.5q-72 0 -126.5 33.5t-84.5 94t-30 140.5zM446 258q0 93 -42.5 144.5t-118.5 51.5
q-78 0 -120.5 -51.5t-42.5 -144.5q0 -94 42.5 -146t120.5 -52q76 0 118.5 52t42.5 146z" />
    <glyph glyph-name="uni1ED4" unicode="&#x1ed4;" horiz-adv-x="687" 
d="M519 819q0 21 11.5 37t40.5 40q35 26 35 48q0 16 -12 25.5t-32 9.5q-44 0 -53 -43h-64q9 45 40 69t79 24q46 0 74 -23.5t28 -63.5q0 -23 -10 -37.5t-34 -31.5q-20 -14 -29.5 -25.5t-9.5 -28.5h-64zM302 888h75l163 -171h-83l-117 127l-117 -127h-84zM44 325
q0 106 37.5 184.5t105 122.5t157.5 44t157.5 -44t105 -122.5t37.5 -184.5q0 -100 -37.5 -175t-105 -116.5t-157.5 -41.5t-157.5 41.5t-105 116.5t-37.5 175zM566 325q0 132 -58.5 206t-163.5 74t-163.5 -74t-58.5 -206q0 -124 58.5 -192.5t163.5 -68.5t163.5 68.5
t58.5 192.5z" />
    <glyph glyph-name="uni1ED5" unicode="&#x1ed5;" horiz-adv-x="568" 
d="M432 697q0 21 11.5 37t40.5 40q34 26 34 48q0 16 -11.5 25.5t-31.5 9.5q-44 0 -54 -43h-63q9 45 40 69t79 24q46 0 74 -23.5t28 -63.5q0 -23 -10 -37.5t-35 -31.5q-19 -14 -28.5 -25.5t-9.5 -28.5h-64zM240 744h76l162 -171h-82l-117 127l-118 -127h-83zM44 258
q0 80 30 139.5t84.5 93t126.5 33.5q71 0 125 -33.5t84 -93t30 -139.5t-30 -140.5t-84 -94t-125 -33.5q-72 0 -126.5 33.5t-84.5 94t-30 140.5zM446 258q0 93 -42.5 144.5t-118.5 51.5q-78 0 -120.5 -51.5t-42.5 -144.5q0 -94 42.5 -146t120.5 -52q76 0 118.5 52t42.5 146z
" />
    <glyph glyph-name="uni1ED6" unicode="&#x1ed6;" horiz-adv-x="687" 
d="M260 1093q32 0 53 -17t39 -35q14 -16 28 -29t34 -13q24 0 38.5 24t14.5 64h54q0 -69 -28.5 -109.5t-76.5 -40.5q-32 0 -52.5 14.5t-37.5 31.5q-16 17 -29.5 32.5t-33.5 15.5q-24 0 -37.5 -24.5t-13.5 -65.5h-57q0 72 28 112t77 40zM302 888h75l163 -171h-83l-117 127
l-117 -127h-84zM44 325q0 106 37.5 184.5t105 122.5t157.5 44t157.5 -44t105 -122.5t37.5 -184.5q0 -100 -37.5 -175t-105 -116.5t-157.5 -41.5t-157.5 41.5t-105 116.5t-37.5 175zM566 325q0 132 -58.5 206t-163.5 74t-163.5 -74t-58.5 -206q0 -124 58.5 -192.5
t163.5 -68.5t163.5 68.5t58.5 192.5z" />
    <glyph glyph-name="uni1ED7" unicode="&#x1ed7;" horiz-adv-x="568" 
d="M200 950q33 0 54 -17t38 -35q14 -16 28.5 -29.5t33.5 -13.5q24 0 38.5 24t14.5 65h54q0 -70 -28.5 -110t-76.5 -40q-32 0 -52.5 14.5t-36.5 31.5q-17 17 -30.5 32.5t-32.5 15.5q-24 0 -38 -24.5t-14 -65.5h-56q0 72 27.5 112t76.5 40zM240 744h76l162 -171h-82l-117 127
l-118 -127h-83zM44 258q0 80 30 139.5t84.5 93t126.5 33.5q71 0 125 -33.5t84 -93t30 -139.5t-30 -140.5t-84 -94t-125 -33.5q-72 0 -126.5 33.5t-84.5 94t-30 140.5zM446 258q0 93 -42.5 144.5t-118.5 51.5q-78 0 -120.5 -51.5t-42.5 -144.5q0 -94 42.5 -146t120.5 -52
q76 0 118.5 52t42.5 146z" />
    <glyph glyph-name="uni1ED8" unicode="&#x1ed8;" horiz-adv-x="687" 
d="M300 888h76l162 -171h-83l-116 127l-118 -127h-83zM44 325q0 106 37.5 184.5t105 122.5t157.5 44t157.5 -44t105 -122.5t37.5 -184.5q0 -100 -37.5 -175t-105 -116.5t-157.5 -41.5t-157.5 41.5t-105 116.5t-37.5 175zM566 325q0 132 -58.5 206t-163.5 74t-163.5 -74
t-58.5 -206q0 -124 58.5 -192.5t163.5 -68.5t163.5 68.5t58.5 192.5zM297 -71h89v-85h-89v85z" />
    <glyph glyph-name="uni1ED9" unicode="&#x1ed9;" horiz-adv-x="568" 
d="M240 744h76l162 -171h-82l-117 127l-118 -127h-83zM44 258q0 80 30 139.5t84.5 93t126.5 33.5q71 0 125 -33.5t84 -93t30 -139.5t-30 -140.5t-84 -94t-125 -33.5q-72 0 -126.5 33.5t-84.5 94t-30 140.5zM446 258q0 93 -42.5 144.5t-118.5 51.5q-78 0 -120.5 -51.5
t-42.5 -144.5q0 -94 42.5 -146t120.5 -52q76 0 118.5 52t42.5 146zM240 -71h89v-85h-89v85z" />
    <glyph glyph-name="uni1EDA" unicode="&#x1eda;" horiz-adv-x="687" 
d="M487 880l-140 -163h-63l113 163h90zM44 325q0 106 37.5 184.5t105 122.5t157.5 44q42 0 80 -10h123q29 0 48 14t19 60v34h68v-40q0 -48 -19 -75.5t-47.5 -39t-57.5 -11.5h-24q52 -46 81 -118.5t29 -164.5q0 -100 -37.5 -175t-105 -116.5t-157.5 -41.5t-157.5 41.5
t-105 116.5t-37.5 175zM566 325q0 132 -58.5 206t-163.5 74t-163.5 -74t-58.5 -206q0 -124 58.5 -192.5t163.5 -68.5t163.5 68.5t58.5 192.5z" />
    <glyph glyph-name="uni1EDB" unicode="&#x1edb;" horiz-adv-x="573" 
d="M427 736l-140 -163h-62l112 163h90zM44 258q0 80 30 139.5t84.5 93t126.5 33.5q41 0 78 -12h76q29 0 48.5 14.5t19.5 60.5v33h67v-39q0 -47 -18 -74.5t-45.5 -39.5t-56.5 -12q33 -35 51.5 -85t18.5 -112q0 -80 -30 -140.5t-84 -94t-125 -33.5q-72 0 -126.5 33.5t-84.5 94
t-30 140.5zM446 258q0 93 -42.5 144.5t-118.5 51.5q-78 0 -120.5 -51.5t-42.5 -144.5q0 -94 42.5 -146t120.5 -52q76 0 118.5 52t42.5 146z" />
    <glyph glyph-name="uni1EDC" unicode="&#x1edc;" horiz-adv-x="687" 
d="M200 880h89l113 -163h-62zM44 325q0 106 37.5 184.5t105 122.5t157.5 44q42 0 80 -10h123q29 0 48 14t19 60v34h68v-40q0 -48 -19 -75.5t-47.5 -39t-57.5 -11.5h-24q52 -46 81 -118.5t29 -164.5q0 -100 -37.5 -175t-105 -116.5t-157.5 -41.5t-157.5 41.5t-105 116.5
t-37.5 175zM566 325q0 132 -58.5 206t-163.5 74t-163.5 -74t-58.5 -206q0 -124 58.5 -192.5t163.5 -68.5t163.5 68.5t58.5 192.5z" />
    <glyph glyph-name="uni1EDD" unicode="&#x1edd;" horiz-adv-x="573" 
d="M141 736h89l113 -163h-63zM44 258q0 80 30 139.5t84.5 93t126.5 33.5q41 0 78 -12h76q29 0 48.5 14.5t19.5 60.5v33h67v-39q0 -47 -18 -74.5t-45.5 -39.5t-56.5 -12q33 -35 51.5 -85t18.5 -112q0 -80 -30 -140.5t-84 -94t-125 -33.5q-72 0 -126.5 33.5t-84.5 94
t-30 140.5zM446 258q0 93 -42.5 144.5t-118.5 51.5q-78 0 -120.5 -51.5t-42.5 -144.5q0 -94 42.5 -146t120.5 -52q76 0 118.5 52t42.5 146z" />
    <glyph glyph-name="uni1EDE" unicode="&#x1ede;" horiz-adv-x="687" 
d="M307 717q0 21 12 37t41 40q34 26 34 48q0 16 -12 25.5t-31 9.5q-45 0 -54 -43h-64q9 45 40 69t80 24q46 0 74 -23.5t28 -63.5q0 -23 -10 -37.5t-35 -31.5q-20 -14 -29 -25.5t-9 -28.5h-65zM44 325q0 106 37.5 184.5t105 122.5t157.5 44q42 0 80 -10h123q29 0 48 14t19 60
v34h68v-40q0 -48 -19 -75.5t-47.5 -39t-57.5 -11.5h-24q52 -46 81 -118.5t29 -164.5q0 -100 -37.5 -175t-105 -116.5t-157.5 -41.5t-157.5 41.5t-105 116.5t-37.5 175zM566 325q0 132 -58.5 206t-163.5 74t-163.5 -74t-58.5 -206q0 -124 58.5 -192.5t163.5 -68.5t163.5 68.5
t58.5 192.5z" />
    <glyph glyph-name="uni1EDF" unicode="&#x1edf;" horiz-adv-x="573" 
d="M248 573q0 21 11.5 37t40.5 40q34 26 34 48q0 16 -11.5 25.5t-31.5 9.5q-44 0 -54 -43h-63q9 45 40 69t79 24q46 0 74 -23.5t28 -63.5q0 -23 -10 -37.5t-35 -31.5q-20 -14 -29 -25.5t-9 -28.5h-64zM44 258q0 80 30 139.5t84.5 93t126.5 33.5q41 0 78 -12h76
q29 0 48.5 14.5t19.5 60.5v33h67v-39q0 -47 -18 -74.5t-45.5 -39.5t-56.5 -12q33 -35 51.5 -85t18.5 -112q0 -80 -30 -140.5t-84 -94t-125 -33.5q-72 0 -126.5 33.5t-84.5 94t-30 140.5zM446 258q0 93 -42.5 144.5t-118.5 51.5q-78 0 -120.5 -51.5t-42.5 -144.5
q0 -94 42.5 -146t120.5 -52q76 0 118.5 52t42.5 146z" />
    <glyph glyph-name="uni1EE0" unicode="&#x1ee0;" horiz-adv-x="687" 
d="M258 869q32 0 53 -17t39 -35q14 -16 28 -29.5t33 -13.5q24 0 39 24t15 65h54q0 -70 -28.5 -110t-76.5 -40q-32 0 -52.5 14.5t-37.5 31.5q-16 17 -30 32.5t-33 15.5q-24 0 -37.5 -24.5t-13.5 -65.5h-57q0 72 28 112t77 40zM44 325q0 106 37.5 184.5t105 122.5t157.5 44
q42 0 80 -10h123q29 0 48 14t19 60v34h68v-40q0 -48 -19 -75.5t-47.5 -39t-57.5 -11.5h-24q52 -46 81 -118.5t29 -164.5q0 -100 -37.5 -175t-105 -116.5t-157.5 -41.5t-157.5 41.5t-105 116.5t-37.5 175zM566 325q0 132 -58.5 206t-163.5 74t-163.5 -74t-58.5 -206
q0 -124 58.5 -192.5t163.5 -68.5t163.5 68.5t58.5 192.5z" />
    <glyph glyph-name="uni1EE1" unicode="&#x1ee1;" horiz-adv-x="573" 
d="M198 725q33 0 54 -17t38 -35q14 -16 28 -29.5t34 -13.5q24 0 38.5 24t14.5 65h54q0 -70 -28.5 -110t-76.5 -40q-32 0 -52.5 14.5t-36.5 31.5q-17 17 -30.5 32.5t-33.5 15.5q-23 0 -37 -24.5t-14 -65.5h-56q0 72 27.5 112t76.5 40zM44 258q0 80 30 139.5t84.5 93
t126.5 33.5q41 0 78 -12h76q29 0 48.5 14.5t19.5 60.5v33h67v-39q0 -47 -18 -74.5t-45.5 -39.5t-56.5 -12q33 -35 51.5 -85t18.5 -112q0 -80 -30 -140.5t-84 -94t-125 -33.5q-72 0 -126.5 33.5t-84.5 94t-30 140.5zM446 258q0 93 -42.5 144.5t-118.5 51.5
q-78 0 -120.5 -51.5t-42.5 -144.5q0 -94 42.5 -146t120.5 -52q76 0 118.5 52t42.5 146z" />
    <glyph glyph-name="uni1EE2" unicode="&#x1ee2;" horiz-adv-x="687" 
d="M44 325q0 106 37.5 184.5t105 122.5t157.5 44q42 0 80 -10h123q29 0 48 14t19 60v34h68v-40q0 -48 -19 -75.5t-47.5 -39t-57.5 -11.5h-24q52 -46 81 -118.5t29 -164.5q0 -100 -37.5 -175t-105 -116.5t-157.5 -41.5t-157.5 41.5t-105 116.5t-37.5 175zM566 325
q0 132 -58.5 206t-163.5 74t-163.5 -74t-58.5 -206q0 -124 58.5 -192.5t163.5 -68.5t163.5 68.5t58.5 192.5zM297 -71h89v-85h-89v85z" />
    <glyph glyph-name="uni1EE3" unicode="&#x1ee3;" horiz-adv-x="573" 
d="M44 258q0 80 30 139.5t84.5 93t126.5 33.5q41 0 78 -12h76q29 0 48.5 14.5t19.5 60.5v33h67v-39q0 -47 -18 -74.5t-45.5 -39.5t-56.5 -12q33 -35 51.5 -85t18.5 -112q0 -80 -30 -140.5t-84 -94t-125 -33.5q-72 0 -126.5 33.5t-84.5 94t-30 140.5zM446 258
q0 93 -42.5 144.5t-118.5 51.5q-78 0 -120.5 -51.5t-42.5 -144.5q0 -94 42.5 -146t120.5 -52q76 0 118.5 52t42.5 146zM240 -71h89v-85h-89v85z" />
    <glyph glyph-name="uni1EE4" unicode="&#x1ee4;" horiz-adv-x="602" 
d="M49 666h75v-411q0 -90 47.5 -140t131.5 -50q83 0 129 50t46 140v411h76v-411q0 -79 -31.5 -138.5t-88 -92t-131.5 -32.5q-76 0 -133 32.5t-89 92t-32 138.5v411zM259 -71h89v-85h-89v85z" />
    <glyph glyph-name="uni1EE5" unicode="&#x1ee5;" horiz-adv-x="530" 
d="M130 208q0 -78 36 -113t96 -35q39 0 70.5 18.5t50 50.5t18.5 73v310h75v-512h-75v83q-27 -45 -71.5 -70t-89.5 -25q-81 0 -133.5 53t-52.5 152v319h76v-304zM215 -71h89v-85h-89v85z" />
    <glyph glyph-name="uni1EE6" unicode="&#x1ee6;" horiz-adv-x="602" 
d="M270 717q0 21 11.5 37t40.5 40q35 26 35 48q0 16 -12 25.5t-32 9.5q-44 0 -53 -43h-64q9 45 40 69t79 24q46 0 74 -23.5t28 -63.5q0 -23 -10 -37.5t-34 -31.5q-20 -14 -29.5 -25.5t-9.5 -28.5h-64zM49 666h75v-411q0 -90 47.5 -140t131.5 -50q83 0 129 50t46 140v411h76
v-411q0 -79 -31.5 -138.5t-88 -92t-131.5 -32.5q-76 0 -133 32.5t-89 92t-32 138.5v411z" />
    <glyph glyph-name="uni1EE7" unicode="&#x1ee7;" horiz-adv-x="530" 
d="M235 573q0 21 12 37t41 40q34 26 34 48q0 16 -12 25.5t-31 9.5q-45 0 -54 -43h-64q9 45 40 69t80 24q46 0 74 -23.5t28 -63.5q0 -23 -10 -37.5t-35 -31.5q-20 -14 -29 -25.5t-9 -28.5h-65zM130 208q0 -78 36 -113t96 -35q39 0 70.5 18.5t50 50.5t18.5 73v310h75v-512h-75
v83q-27 -45 -71.5 -70t-89.5 -25q-81 0 -133.5 53t-52.5 152v319h76v-304z" />
    <glyph glyph-name="uni1EE8" unicode="&#x1ee8;" horiz-adv-x="643" 
d="M449 880l-140 -163h-62l112 163h90zM49 666h75v-411q0 -90 47.5 -140t131.5 -50q83 0 129 50t46 140v411h76v-1q27 1 44.5 16.5t17.5 58.5v33h67v-39q0 -48 -18.5 -75.5t-47 -39t-57.5 -11.5h-6v-353q0 -79 -31.5 -138.5t-88 -92t-131.5 -32.5q-76 0 -133 32.5t-89 92
t-32 138.5v411z" />
    <glyph glyph-name="uni1EE9" unicode="&#x1ee9;" horiz-adv-x="585" 
d="M415 736l-140 -163h-63l113 163h90zM130 208q0 -78 36 -113t96 -35q39 0 70.5 18.5t50 50.5t18.5 73v310h69q29 0 49 14.5t20 60.5v33h66v-39q0 -48 -18.5 -75.5t-47 -39t-57.5 -11.5h-6v-455h-75v83q-27 -45 -71.5 -70t-89.5 -25q-81 0 -133.5 53t-52.5 152v319h76v-304
z" />
    <glyph glyph-name="uni1EEA" unicode="&#x1eea;" horiz-adv-x="643" 
d="M163 880h89l113 -163h-62zM49 666h75v-411q0 -90 47.5 -140t131.5 -50q83 0 129 50t46 140v411h76v-1q27 1 44.5 16.5t17.5 58.5v33h67v-39q0 -48 -18.5 -75.5t-47 -39t-57.5 -11.5h-6v-353q0 -79 -31.5 -138.5t-88 -92t-131.5 -32.5q-76 0 -133 32.5t-89 92t-32 138.5
v411z" />
    <glyph glyph-name="uni1EEB" unicode="&#x1eeb;" horiz-adv-x="585" 
d="M128 736h89l113 -163h-62zM130 208q0 -78 36 -113t96 -35q39 0 70.5 18.5t50 50.5t18.5 73v310h69q29 0 49 14.5t20 60.5v33h66v-39q0 -48 -18.5 -75.5t-47 -39t-57.5 -11.5h-6v-455h-75v83q-27 -45 -71.5 -70t-89.5 -25q-81 0 -133.5 53t-52.5 152v319h76v-304z" />
    <glyph glyph-name="uni1EEC" unicode="&#x1eec;" horiz-adv-x="643" 
d="M270 717q0 21 11.5 37t40.5 40q35 26 35 48q0 16 -12 25.5t-32 9.5q-44 0 -53 -43h-64q9 45 40 69t79 24q46 0 74 -23.5t28 -63.5q0 -23 -10 -37.5t-34 -31.5q-20 -14 -29.5 -25.5t-9.5 -28.5h-64zM49 666h75v-411q0 -90 47.5 -140t131.5 -50q83 0 129 50t46 140v411h76
v-1q27 1 44.5 16.5t17.5 58.5v33h67v-39q0 -48 -18.5 -75.5t-47 -39t-57.5 -11.5h-6v-353q0 -79 -31.5 -138.5t-88 -92t-131.5 -32.5q-76 0 -133 32.5t-89 92t-32 138.5v411z" />
    <glyph glyph-name="uni1EED" unicode="&#x1eed;" horiz-adv-x="585" 
d="M235 573q0 21 12 37t41 40q34 26 34 48q0 16 -12 25.5t-31 9.5q-45 0 -54 -43h-64q9 45 40 69t80 24q46 0 74 -23.5t28 -63.5q0 -23 -10 -37.5t-35 -31.5q-20 -14 -29 -25.5t-9 -28.5h-65zM130 208q0 -78 36 -113t96 -35q39 0 70.5 18.5t50 50.5t18.5 73v310h69
q29 0 49 14.5t20 60.5v33h66v-39q0 -48 -18.5 -75.5t-47 -39t-57.5 -11.5h-6v-455h-75v83q-27 -45 -71.5 -70t-89.5 -25q-81 0 -133.5 53t-52.5 152v319h76v-304z" />
    <glyph glyph-name="uni1EEE" unicode="&#x1eee;" horiz-adv-x="643" 
d="M220 869q33 0 54 -17t38 -35q15 -16 29 -29.5t33 -13.5q24 0 38.5 24t14.5 65h54q0 -70 -28 -110t-77 -40q-32 0 -52 14.5t-37 31.5t-30.5 32.5t-32.5 15.5q-24 0 -38 -24.5t-14 -65.5h-56q0 72 27.5 112t76.5 40zM49 666h75v-411q0 -90 47.5 -140t131.5 -50q83 0 129 50
t46 140v411h76v-1q27 1 44.5 16.5t17.5 58.5v33h67v-39q0 -48 -18.5 -75.5t-47 -39t-57.5 -11.5h-6v-353q0 -79 -31.5 -138.5t-88 -92t-131.5 -32.5q-76 0 -133 32.5t-89 92t-32 138.5v411z" />
    <glyph glyph-name="uni1EEF" unicode="&#x1eef;" horiz-adv-x="585" 
d="M186 725q32 0 53 -17t39 -35q14 -16 28 -29.5t33 -13.5q24 0 39 24t15 65h54q0 -70 -28.5 -110t-76.5 -40q-32 0 -52.5 14.5t-37.5 31.5q-16 17 -30 32.5t-33 15.5q-24 0 -37.5 -24.5t-13.5 -65.5h-57q0 72 28 112t77 40zM130 208q0 -78 36 -113t96 -35q39 0 70.5 18.5
t50 50.5t18.5 73v310h69q29 0 49 14.5t20 60.5v33h66v-39q0 -48 -18.5 -75.5t-47 -39t-57.5 -11.5h-6v-455h-75v83q-27 -45 -71.5 -70t-89.5 -25q-81 0 -133.5 53t-52.5 152v319h76v-304z" />
    <glyph glyph-name="uni1EF0" unicode="&#x1ef0;" horiz-adv-x="643" 
d="M49 666h75v-411q0 -90 47.5 -140t131.5 -50q83 0 129 50t46 140v411h76v-1q27 1 44.5 16.5t17.5 58.5v33h67v-39q0 -48 -18.5 -75.5t-47 -39t-57.5 -11.5h-6v-353q0 -79 -31.5 -138.5t-88 -92t-131.5 -32.5q-76 0 -133 32.5t-89 92t-32 138.5v411zM259 -71h89v-85h-89v85
z" />
    <glyph glyph-name="uni1EF1" unicode="&#x1ef1;" horiz-adv-x="585" 
d="M130 208q0 -78 36 -113t96 -35q39 0 70.5 18.5t50 50.5t18.5 73v310h69q29 0 49 14.5t20 60.5v33h66v-39q0 -48 -18.5 -75.5t-47 -39t-57.5 -11.5h-6v-455h-75v83q-27 -45 -71.5 -70t-89.5 -25q-81 0 -133.5 53t-52.5 152v319h76v-304zM215 -71h89v-85h-89v85z" />
    <glyph glyph-name="Ygrave" unicode="&#x1ef2;" horiz-adv-x="595" 
d="M163 880h90l112 -163h-62zM259 229l-226 437h87l177 -350l180 350h87l-230 -437v-229h-75v229z" />
    <glyph glyph-name="ygrave" unicode="&#x1ef3;" horiz-adv-x="557" 
d="M145 736h89l113 -163h-62zM62 -90h71q36 0 57 14.5t34 51.5l12 29l-202 507h82l164 -422l160 422h83l-210 -544q-28 -71 -63 -101t-90 -30h-98v73z" />
    <glyph glyph-name="uni1EF4" unicode="&#x1ef4;" horiz-adv-x="595" 
d="M259 229l-226 437h87l177 -350l180 350h87l-230 -437v-229h-75v229zM254 -71h89v-85h-89v85z" />
    <glyph glyph-name="uni1EF5" unicode="&#x1ef5;" horiz-adv-x="557" 
d="M62 -90h71q36 0 57 14.5t34 51.5l12 29l-202 507h82l164 -422l160 422h83l-210 -544q-28 -71 -63 -101t-90 -30h-98v73zM357 -71h89v-85h-89v85z" />
    <glyph glyph-name="uni1EF6" unicode="&#x1ef6;" horiz-adv-x="595" 
d="M271 717q0 21 11.5 37t40.5 40q34 26 34 48q0 16 -12 25.5t-31 9.5q-45 0 -54 -43h-63q8 45 39.5 69t79.5 24q46 0 74 -23.5t28 -63.5q0 -23 -10 -37.5t-35 -31.5q-20 -14 -29 -25.5t-9 -28.5h-64zM259 229l-226 437h87l177 -350l180 350h87l-230 -437v-229h-75v229z" />
    <glyph glyph-name="uni1EF7" unicode="&#x1ef7;" horiz-adv-x="557" 
d="M252 573q0 21 12 37t41 40q34 26 34 48q0 16 -12 25.5t-31 9.5q-45 0 -54 -43h-64q9 45 40 69t80 24q46 0 74 -23.5t28 -63.5q0 -23 -10 -37.5t-35 -31.5q-20 -14 -29 -25.5t-9 -28.5h-65zM62 -90h71q36 0 57 14.5t34 51.5l12 29l-202 507h82l164 -422l160 422h83
l-210 -544q-28 -71 -63 -101t-90 -30h-98v73z" />
    <glyph glyph-name="uni1EF8" unicode="&#x1ef8;" horiz-adv-x="595" 
d="M221 869q32 0 53 -17t39 -35q14 -16 28 -29.5t34 -13.5q24 0 38.5 24t14.5 65h54q0 -70 -28.5 -110t-76.5 -40q-32 0 -52.5 14.5t-37.5 31.5q-16 17 -29.5 32.5t-33.5 15.5q-24 0 -37.5 -24.5t-13.5 -65.5h-57q0 72 28 112t77 40zM259 229l-226 437h87l177 -350l180 350
h87l-230 -437v-229h-75v229z" />
    <glyph glyph-name="uni1EF9" unicode="&#x1ef9;" horiz-adv-x="557" 
d="M203 725q32 0 53 -17t39 -35q14 -16 28 -29.5t33 -13.5q24 0 39 24t15 65h54q0 -70 -28.5 -110t-76.5 -40q-32 0 -52.5 14.5t-37.5 31.5q-16 17 -30 32.5t-33 15.5q-24 0 -37.5 -24.5t-13.5 -65.5h-57q0 72 28 112t77 40zM62 -90h71q36 0 57 14.5t34 51.5l12 29l-202 507
h82l164 -422l160 422h83l-210 -544q-28 -71 -63 -101t-90 -30h-98v73z" />
    <glyph glyph-name="endash" unicode="&#x2013;" horiz-adv-x="677" 
d="M34 317h610v-69h-610v69z" />
    <glyph glyph-name="emdash" unicode="&#x2014;" horiz-adv-x="1008" 
d="M34 317h941v-69h-941v69z" />
    <glyph glyph-name="quoteleft" unicode="&#x2018;" 
d="M130 481h-90v94l40 142h57l-61 -142h54v-94z" />
    <glyph glyph-name="quoteright" unicode="&#x2019;" 
d="M47 717h90v-94l-39 -142h-58l61 142h-54v94z" />
    <glyph glyph-name="quotesinglbase" unicode="&#x201a;" 
d="M47 94h90v-94l-39 -142h-58l61 142h-54v94z" />
    <glyph glyph-name="quotereversed" unicode="&#x201b;" 
d="M130 717v-94h-54l61 -142h-57l-40 142v94h90z" />
    <glyph glyph-name="quotedblleft" unicode="&#x201c;" horiz-adv-x="324" 
d="M271 481h-89v94l38 142h57l-60 -142h54v-94zM130 481h-90v94l40 142h57l-61 -142h54v-94z" />
    <glyph glyph-name="quotedblright" unicode="&#x201d;" horiz-adv-x="324" 
d="M47 717h90v-94l-39 -142h-58l61 142h-54v94zM188 717h89v-94l-38 -142h-57l60 142h-54v94z" />
    <glyph glyph-name="quotedblbase" unicode="&#x201e;" horiz-adv-x="324" 
d="M47 94h90v-94l-39 -142h-58l61 142h-54v94zM188 94h89v-94l-38 -142h-57l60 142h-54v94z" />
    <glyph glyph-name="uni201F" unicode="&#x201f;" horiz-adv-x="324" 
d="M271 717v-94h-54l60 -142h-57l-38 142v94h89zM130 717v-94h-54l61 -142h-57l-40 142v94h90z" />
    <glyph glyph-name="dagger" unicode="&#x2020;" horiz-adv-x="337" 
d="M131 446h-97v66h97v133h75v-133h98v-66h-98v-446h-75v446z" />
    <glyph glyph-name="daggerdbl" unicode="&#x2021;" horiz-adv-x="337" 
d="M206 512h98v-66h-98v-247h98v-66h-98v-133h-75v133h-97v66h97v247h-97v66h97v133h75v-133z" />
    <glyph glyph-name="bullet" unicode="&#x2022;" horiz-adv-x="227" 
d="M38 375q0 31 22 53.5t54 22.5q31 0 54 -22.5t23 -53.5q0 -32 -23 -54.5t-54 -22.5q-32 0 -54 22.5t-22 54.5z" />
    <glyph glyph-name="uni2023" unicode="&#x2023;" horiz-adv-x="227" 
d="M38 276v196l153 -97z" />
    <glyph glyph-name="ellipsis" unicode="&#x2026;" horiz-adv-x="546" 
d="M411 94h88v-94h-88v94zM229 94h90v-94h-90v94zM47 94h90v-94h-90v94z" />
    <glyph glyph-name="perthousand" unicode="&#x2030;" horiz-adv-x="1278" 
d="M36 472q0 92 46.5 148.5t122.5 56.5q75 0 120.5 -56.5t45.5 -148.5q0 -93 -45.5 -149.5t-120.5 -56.5q-76 0 -122.5 56.5t-46.5 149.5zM544 666h75l-275 -666h-74zM302 472q0 67 -25.5 104.5t-71.5 37.5q-47 0 -73.5 -37.5t-26.5 -104.5q0 -68 26.5 -105.5t73.5 -37.5
q46 0 71.5 37.5t25.5 105.5zM908 197q0 92 46 148t122 56q75 0 121.5 -56t46.5 -148q0 -93 -46.5 -150t-121.5 -57q-76 0 -122 57t-46 150zM516 197q0 92 46 148t122 56q75 0 121.5 -56t46.5 -148q0 -93 -46.5 -150t-121.5 -57q-76 0 -122 57t-46 150zM1174 197
q0 67 -25.5 104t-72.5 37t-73 -37t-26 -104q0 -68 26 -106t73 -38t72.5 38t25.5 106zM783 197q0 67 -26 104t-73 37t-72.5 -37t-25.5 -104q0 -68 25.5 -106t72.5 -38t73 38t26 106z" />
    <glyph glyph-name="minute" unicode="&#x2032;" horiz-adv-x="258" 
d="M233 666l-145 -162h-62l117 162h90z" />
    <glyph glyph-name="second" unicode="&#x2033;" horiz-adv-x="411" 
d="M386 666l-145 -162h-62l117 162h90zM233 666l-145 -162h-62l117 162h90z" />
    <glyph glyph-name="uni2034" unicode="&#x2034;" horiz-adv-x="564" 
d="M233 666l-145 -162h-62l117 162h90zM539 666l-145 -162h-62l117 162h90zM386 666l-145 -162h-62l117 162h90z" />
    <glyph glyph-name="uni2035" unicode="&#x2035;" horiz-adv-x="258" 
d="M26 666h89l118 -162h-62z" />
    <glyph glyph-name="uni2036" unicode="&#x2036;" horiz-adv-x="411" 
d="M26 666h89l118 -162h-62zM179 666h89l118 -162h-62z" />
    <glyph glyph-name="uni2037" unicode="&#x2037;" horiz-adv-x="564" 
d="M332 666h89l118 -162h-62zM26 666h89l118 -162h-62zM179 666h89l118 -162h-62z" />
    <glyph glyph-name="guilsinglleft" unicode="&#x2039;" horiz-adv-x="310" 
d="M284 526v-95l-187 -150l187 -153v-87l-249 200v85z" />
    <glyph glyph-name="guilsinglright" unicode="&#x203a;" horiz-adv-x="310" 
d="M35 41v94l187 151l-187 153v87l249 -200v-85z" />
    <glyph glyph-name="uni2070" unicode="&#x2070;" horiz-adv-x="407" 
d="M36 569q0 92 46.5 148t122.5 56q75 0 120.5 -56t45.5 -148q0 -93 -45.5 -149.5t-120.5 -56.5q-76 0 -122.5 56.5t-46.5 149.5zM302 569q0 67 -25.5 104t-71.5 37q-47 0 -73.5 -37t-26.5 -104q0 -68 26.5 -105.5t73.5 -37.5q46 0 71.5 37.5t25.5 105.5z" />
    <glyph glyph-name="uni2074" unicode="&#x2074;" horiz-adv-x="410" 
d="M307 469v-96h-67v96h-206v68l192 231h81v-241h72v-58h-72zM240 527v167l-136 -167h136z" />
    <glyph glyph-name="uni2075" unicode="&#x2075;" horiz-adv-x="385" 
d="M279 504q0 37 -20.5 58.5t-59.5 21.5q-33 0 -57.5 -13t-38.5 -36h-67l28 233h266v-60h-208l-12 -113q17 22 44.5 34.5t61.5 12.5q62 0 98 -38.5t36 -97.5q0 -67 -43 -105t-112 -38q-67 0 -110.5 33t-48.5 85h71q2 -26 25 -41.5t62 -15.5q40 0 62.5 20t22.5 60z" />
    <glyph glyph-name="uni2076" unicode="&#x2076;" horiz-adv-x="400" 
d="M36 565q0 98 46 153t128 55q58 0 96.5 -29.5t49.5 -82.5h-71q-12 52 -74 52q-104 0 -104 -140q0 -6 0.5 -12t1.5 -12q14 36 46 57t72 21q60 0 98.5 -36.5t38.5 -93.5q0 -58 -41 -95t-105 -37q-83 0 -132.5 54t-49.5 146zM128 496q0 -30 24.5 -50t60.5 -20t58 19t22 51
t-22 50.5t-58 18.5q-38 0 -61.5 -19t-23.5 -50z" />
    <glyph glyph-name="uni2077" unicode="&#x2077;" horiz-adv-x="407" 
d="M201 373h-78q9 80 34.5 139.5t61.5 105.5t78 86h-261v64h335v-74q-73 -64 -117.5 -142.5t-52.5 -178.5z" />
    <glyph glyph-name="uni2078" unicode="&#x2078;" horiz-adv-x="398" 
d="M201 773q68 0 109.5 -31.5t41.5 -82.5q0 -61 -61 -89q33 -13 52 -37.5t19 -57.5q0 -50 -44 -80t-117 -30q-74 0 -119.5 30t-45.5 80q0 32 19.5 57t54.5 38q-30 13 -47 36t-17 53q0 51 42.5 82.5t112.5 31.5zM116 652q0 -26 22 -40t61 -14h6q78 0 78 54q0 29 -21 45
t-61 16q-41 0 -63 -16t-22 -45zM201 425q43 0 66.5 14.5t23.5 41.5q0 29 -22.5 45t-63.5 16h-6q-44 0 -68 -16t-24 -44q0 -27 25 -42t69 -15z" />
    <glyph glyph-name="uni2079" unicode="&#x2079;" horiz-adv-x="400" 
d="M364 556q0 -90 -46 -140.5t-129 -50.5q-61 0 -101.5 28.5t-50.5 79.5h71q12 -48 80 -48q106 0 106 131q0 6 -0.5 12.5t-0.5 12.5q-15 -35 -47 -56t-71 -21q-61 0 -100 37.5t-39 95.5q0 59 42.5 97.5t108.5 38.5q81 0 129 -58.5t48 -158.5zM274 637q0 32 -24 53.5
t-61 21.5q-36 0 -57.5 -20.5t-21.5 -53.5t21.5 -53.5t58.5 -20.5t60.5 20t23.5 53z" />
    <glyph glyph-name="uni207A" unicode="&#x207a;" horiz-adv-x="378" 
d="M221 608h124v-63h-124v-124h-63v124h-124v63h124v123h63v-123z" />
    <glyph glyph-name="uni207B" unicode="&#x207b;" horiz-adv-x="378" 
d="M34 608h311v-63h-311v63z" />
    <glyph glyph-name="uni207C" unicode="&#x207c;" horiz-adv-x="378" 
d="M34 697h311v-63h-311v63zM34 519h311v-62h-311v62z" />
    <glyph glyph-name="uni207D" unicode="&#x207d;" horiz-adv-x="202" 
d="M187 294h-69q-36 39 -60 112.5t-24 169.5q0 91 24 161t60 108h69q-41 -48 -61.5 -113.5t-20.5 -155.5q0 -95 20.5 -164t61.5 -118z" />
    <glyph glyph-name="uni207E" unicode="&#x207e;" horiz-adv-x="202" 
d="M15 845h70q36 -39 59.5 -112.5t23.5 -169.5q0 -91 -23.5 -161t-59.5 -108h-70q41 48 61.5 113.5t20.5 155.5q0 95 -20.5 163.5t-61.5 118.5z" />
    <glyph glyph-name="uni207F" unicode="&#x207f;" horiz-adv-x="445" 
d="M323 609q0 56 -26 81t-69 25q-45 0 -75 -28t-30 -71v-243h-69v395h69v-51q23 30 56.5 46.5t68.5 16.5q62 0 102.5 -40t40.5 -115v-252h-68v236z" />
    <glyph glyph-name="uni2080" unicode="&#x2080;" horiz-adv-x="407" 
d="M36 94q0 92 46.5 148t122.5 56q75 0 120.5 -56t45.5 -148q0 -93 -45.5 -150t-120.5 -57q-76 0 -122.5 57t-46.5 150zM302 94q0 67 -25.5 104t-71.5 37q-47 0 -73.5 -37t-26.5 -104q0 -68 26.5 -105.5t73.5 -37.5q46 0 71.5 37.5t25.5 105.5z" />
    <glyph glyph-name="uni2081" unicode="&#x2081;" horiz-adv-x="243" 
d="M137 293h68v-395h-68v254h-111v58h45q33 0 49.5 11t16.5 42v30z" />
    <glyph glyph-name="uni2082" unicode="&#x2082;" horiz-adv-x="397" 
d="M109 -41h248v-61h-321v17q0 56 24.5 88t61.5 50t73 31q39 14 67 31.5t28 50.5q0 34 -22.5 53t-62.5 19q-43 0 -69.5 -22t-28.5 -59h-71q5 63 52 102t117 39t113 -37t43 -99q0 -34 -19 -57.5t-49 -40t-62 -29.5q-46 -18 -80.5 -34.5t-41.5 -41.5z" />
    <glyph glyph-name="uni2083" unicode="&#x2083;" horiz-adv-x="400" 
d="M171 65v56h59q53 0 53 51q0 31 -22.5 48.5t-63.5 17.5q-37 0 -60 -17.5t-25 -47.5h-71q5 56 48 91t109 35q69 0 112.5 -33.5t43.5 -89.5q0 -55 -48 -82q58 -27 58 -89q0 -52 -44 -84t-116 -32q-70 0 -116.5 33.5t-51.5 87.5h71q2 -27 28 -43t68 -16t66 15.5t24 43.5
q0 55 -63 55h-59z" />
    <glyph glyph-name="uni2084" unicode="&#x2084;" horiz-adv-x="410" 
d="M307 -6v-96h-67v96h-206v68l192 231h81v-241h72v-58h-72zM240 52v166l-136 -166h136z" />
    <glyph glyph-name="uni2085" unicode="&#x2085;" horiz-adv-x="385" 
d="M279 29q0 37 -20.5 58.5t-59.5 21.5q-33 0 -57.5 -13.5t-38.5 -35.5h-67l28 233h266v-60h-208l-12 -113q17 22 44.5 34.5t61.5 12.5q62 0 98 -38.5t36 -97.5q0 -66 -43 -105t-112 -39q-67 0 -110.5 33t-48.5 86h71q2 -26 25 -41.5t62 -15.5q40 0 62.5 20t22.5 60z" />
    <glyph glyph-name="uni2086" unicode="&#x2086;" horiz-adv-x="400" 
d="M36 90q0 98 46 153t128 55q58 0 96.5 -30t49.5 -82h-71q-12 52 -74 52q-104 0 -104 -140q0 -6 0.5 -12t1.5 -12q14 36 46 57t72 21q60 0 98.5 -37t38.5 -94q0 -58 -41 -95t-105 -37q-83 0 -132.5 54.5t-49.5 146.5zM128 20q0 -30 24.5 -49.5t60.5 -19.5t58 18.5t22 50.5
t-22 51t-58 19q-38 0 -61.5 -19.5t-23.5 -50.5z" />
    <glyph glyph-name="uni2087" unicode="&#x2087;" horiz-adv-x="407" 
d="M201 -102h-78q9 80 34.5 139.5t61.5 105.5t78 86h-261v64h335v-75q-73 -64 -117.5 -142t-52.5 -178z" />
    <glyph glyph-name="uni2088" unicode="&#x2088;" horiz-adv-x="398" 
d="M201 298q68 0 109.5 -31.5t41.5 -82.5q0 -61 -61 -89q33 -13 52 -37.5t19 -57.5q0 -50 -44 -80.5t-117 -30.5q-74 0 -119.5 30.5t-45.5 80.5q0 32 19.5 57t54.5 38q-30 13 -47 36t-17 53q0 51 42.5 82.5t112.5 31.5zM116 177q0 -26 22 -40t61 -14h6q78 0 78 54
q0 29 -21 45t-61 16q-41 0 -63 -16t-22 -45zM201 -50q43 0 66.5 14.5t23.5 41.5q0 29 -22.5 44.5t-63.5 15.5h-6q-44 0 -68 -15.5t-24 -44.5q0 -27 25 -41.5t69 -14.5z" />
    <glyph glyph-name="uni2089" unicode="&#x2089;" horiz-adv-x="400" 
d="M364 81q0 -90 -46 -141t-129 -51q-61 0 -101.5 29t-50.5 80h71q11 -48 80 -48q106 0 106 131q0 6 -0.5 12.5t-0.5 12.5q-15 -35 -47 -56t-71 -21q-61 0 -100 37.5t-39 95.5q0 59 42.5 97.5t108.5 38.5q81 0 129 -58.5t48 -158.5zM274 162q0 32 -24 53.5t-61 21.5
q-36 0 -57.5 -20.5t-21.5 -53.5t21.5 -53.5t58.5 -20.5t60.5 20t23.5 53z" />
    <glyph glyph-name="uni208A" unicode="&#x208a;" horiz-adv-x="378" 
d="M221 133h124v-63h-124v-124h-63v124h-124v63h124v123h63v-123z" />
    <glyph glyph-name="uni208B" unicode="&#x208b;" horiz-adv-x="378" 
d="M34 133h311v-63h-311v63z" />
    <glyph glyph-name="uni208C" unicode="&#x208c;" horiz-adv-x="378" 
d="M34 222h311v-63h-311v63zM34 44h311v-62h-311v62z" />
    <glyph glyph-name="uni208D" unicode="&#x208d;" horiz-adv-x="202" 
d="M187 -181h-69q-36 39 -60 112t-24 169q0 91 24 161.5t60 108.5h69q-41 -48 -61.5 -114t-20.5 -156q0 -95 20.5 -163.5t61.5 -117.5z" />
    <glyph glyph-name="uni208E" unicode="&#x208e;" horiz-adv-x="202" 
d="M15 370h70q36 -39 59.5 -112.5t23.5 -169.5q0 -91 -23.5 -161t-59.5 -108h-70q41 48 61.5 113.5t20.5 155.5q0 95 -20.5 163.5t-61.5 118.5z" />
    <glyph glyph-name="uni2099" unicode="&#x2099;" horiz-adv-x="445" 
d="M54 293h69v-51q23 30 56.5 46.5t68.5 16.5q62 0 102.5 -40t40.5 -115v-252h-68v236q0 56 -26 81t-69 25q-45 0 -75 -28t-30 -72v-242h-69v395z" />
    <glyph glyph-name="uni20A0" unicode="&#x20a0;" horiz-adv-x="753" 
d="M44 436q0 74 27.5 129t76.5 86t115 31q71 0 120.5 -40.5t62.5 -111.5h-75q-8 40 -37 63t-71 23q-69 0 -106.5 -47.5t-37.5 -132.5q0 -87 49 -132t144 -45h44v193h353v-63h-279v-131h251v-61h-251v-132h279v-65h-353v194h-44q-82 0 -142.5 29.5t-93 83.5t-32.5 129z" />
    <glyph glyph-name="colonmonetary" unicode="&#x20a1;" horiz-adv-x="659" 
d="M44 335q0 101 35.5 177t99 119t148.5 45l30 101h58l-32 -104q53 -7 96 -28l40 132h57l-49 -163q38 -30 61 -73.5t27 -97.5h-75q-3 57 -36 97l-145 -479q79 6 128 50t53 115h75q-7 -70 -43 -122.5t-96 -81.5t-138 -30l-22 -72h-56l23 76q-52 9 -95 35l-33 -111h-57l44 146
q-46 46 -72 114.5t-26 154.5zM209 99q40 -30 94 -37l156 516q-41 24 -96 29zM119 335q0 -119 47 -190l140 461q-89 -9 -138 -80t-49 -191z" />
    <glyph glyph-name="uni20A2" unicode="&#x20a2;" horiz-adv-x="659" 
d="M44 335q0 103 36.5 179.5t102 119t152.5 42.5q79 0 140 -28.5t97.5 -79t42.5 -118.5h-75q-3 73 -58.5 115.5t-145.5 42.5q-103 0 -160 -71.5t-57 -201.5q0 -131 56.5 -203t157.5 -72v310h69v-71q25 39 64 60t82 21h23v-72h-24q-63 0 -104 -37t-41 -96v-108
q61 14 97.5 53.5t40.5 98.5h75q-7 -69 -43.5 -120t-97 -79t-139.5 -28q-87 0 -152.5 43t-102 120t-36.5 180z" />
    <glyph glyph-name="franc" unicode="&#x20a3;" horiz-adv-x="602" 
d="M559 666v-70h-374v-202h345v-70h-345v-128h214v-64h-214v-132h-76v132h-94v64h94v470h450z" />
    <glyph glyph-name="lira" unicode="&#x20a4;" horiz-adv-x="552" 
d="M37 265h102v80h-102v56h102v73q0 60 23 105t64 70.5t97 25.5q78 0 130 -45.5t59 -120.5h-76q-5 46 -34.5 72t-78.5 26q-52 0 -81 -35.5t-29 -97.5v-73h217v-56h-217v-80h217v-56h-217q-4 -41 -25 -79.5t-70 -59.5h398v-70h-480v75q51 21 73.5 58t27.5 76h-100v56z" />
    <glyph glyph-name="uni20A5" unicode="&#x20a5;" horiz-adv-x="852" 
d="M54 512h76v-76q27 42 69 65t85 23q50 0 89.5 -21t62.5 -61l88 224h84l-63 -159q36 17 74 17q77 0 128 -51t51 -147v-326h-75v310q0 75 -34 108.5t-92 33.5q-49 0 -85 -28l-48 -124v-300h-75v109l-90 -226h-83l172 438q-3 69 -36.5 100t-89.5 31t-94 -38t-38 -97v-317h-76
v512z" />
    <glyph glyph-name="uni20A6" unicode="&#x20a6;" horiz-adv-x="691" 
d="M686 265v-64h-77v-201h-78l-133 201h-242v-201h-74v201h-77v64h77v141h-77v64h77v196h96l127 -196h231v196h73v-196h77v-64h-77v-141h77zM156 570v-100h66zM156 265h200l-92 141h-108v-141zM438 265h98v141h-189zM536 114v87h-56z" />
    <glyph glyph-name="peseta" unicode="&#x20a7;" horiz-adv-x="1262" 
d="M328 246h-198v-246h-76v666h267q82 0 138.5 -41.5t73.5 -112.5h74v133h75v-133h95v-66h-95v-282q0 -49 20.5 -71.5t65.5 -22.5h266q51 0 80.5 18.5t29.5 49.5q0 67 -102 81l-83 11q-83 11 -122.5 46t-39.5 98q0 69 54 108.5t147 39.5q89 0 144.5 -43.5t63.5 -119.5h-75
q-9 51 -41.5 75.5t-92.5 24.5q-56 0 -90.5 -22.5t-34.5 -59.5q0 -34 23 -51t75 -24l84 -10q84 -11 124.5 -48.5t40.5 -105.5q0 -64 -47.5 -101t-127.5 -37h-282q-73 0 -114 41t-41 114v291h-67q-2 -58 -28.5 -103.5t-73.5 -71t-110 -25.5zM314 597h-184v-281h184
q69 0 108.5 36.5t39.5 101.5q0 68 -39 105.5t-109 37.5z" />
    <glyph glyph-name="uni20A8" unicode="&#x20a8;" horiz-adv-x="1039" 
d="M288 274h-158v-274h-76v666h279q93 0 149.5 -53t56.5 -141q0 -64 -35.5 -108.5t-97.5 -60.5q56 -10 82 -44t34 -102l18 -157h-74l-17 148q-8 66 -45.5 96t-115.5 30zM323 597h-193v-255h193q65 0 102 32.5t37 92.5q0 62 -37 96t-102 34zM819 218l-82 11
q-80 9 -121.5 43.5t-41.5 99.5q0 69 54 109.5t147 40.5q90 0 145 -44t63 -120h-75q-9 51 -41.5 76t-92.5 25q-56 0 -90 -23t-34 -60t24.5 -54t72.5 -23l84 -10q84 -10 124.5 -47.5t40.5 -106.5q0 -66 -54.5 -105t-143.5 -39q-101 0 -160.5 44.5t-68.5 118.5h79
q17 -100 150 -100q56 0 90 21.5t34 58.5q0 72 -103 84z" />
    <glyph glyph-name="uni20A9" unicode="&#x20a9;" horiz-adv-x="993" 
d="M33 666h82l51 -196h221l64 196h89l63 -196h222l54 196h82l-58 -196h85v-64h-104l-42 -141h146v-64h-165l-59 -201h-86l-64 201h-239l-65 -201h-88l-57 201h-160v64h142l-40 141h-102v64h83zM495 573l-34 -103h67zM220 265h101l45 141h-183zM396 265h197l-45 141h-107z
M668 265h101l38 141h-184zM265 95l35 106h-63zM722 95l29 106h-63z" />
    <glyph glyph-name="uni20AA" unicode="&#x20aa;" horiz-adv-x="677" 
d="M291 66h148q60 0 87 27.5t27 88.5v330h70v-336q0 -83 -42.5 -129.5t-128.5 -46.5h-231v364h70v-298zM125 446v-446h-71v512h232q85 0 127.5 -46.5t42.5 -129.5v-188h-69v182q0 61 -27.5 88.5t-86.5 27.5h-148z" />
    <glyph glyph-name="dong" unicode="&#x20ab;" horiz-adv-x="558" 
d="M254 649h118v68h75v-68h86v-59h-86v-518h-75v72q-23 -39 -59 -60.5t-81 -21.5q-56 0 -98.5 28.5t-66 80t-23.5 120.5t23.5 120.5t66 80t98.5 28.5q45 0 81 -21.5t59 -59.5v151h-118v59zM122 291q0 -75 33 -117t92 -42q60 0 92.5 42t32.5 117q0 76 -32.5 118t-92.5 42
q-59 0 -92 -42t-33 -118zM59 3h454v-63h-454v63z" />
    <glyph glyph-name="Euro" unicode="&#x20ac;" horiz-adv-x="698" 
d="M83 335q0 32 4 63h-82v56h93q27 103 99 162.5t175 59.5q79 0 140.5 -28.5t98.5 -81t43 -123.5h-78q-4 75 -59 118.5t-144 43.5q-74 0 -124 -39.5t-72 -111.5h246v-56h-258q-4 -30 -4 -63q0 -34 4 -65h258v-56h-246q22 -72 72 -111t124 -39q88 0 143 43.5t60 118.5h78
q-7 -72 -44 -124.5t-98.5 -81t-139.5 -28.5q-102 0 -174 60t-100 162h-93v56h82q-4 32 -4 65z" />
    <glyph glyph-name="uni20AD" unicode="&#x20ad;" horiz-adv-x="554" 
d="M0 368h76v298h75v-296l270 296h100l-273 -298h201v-64h-205l265 -304h-102l-256 302v-302h-75v304h-76v64z" />
    <glyph glyph-name="uni20AE" unicode="&#x20ae;" horiz-adv-x="542" 
d="M459 312v-66l-150 -43v-203h-75v181l-142 -41v66l142 41v90l-142 -41v66l142 41v191h-200v72h475v-72h-200v-169l150 43v-66l-150 -43v-90z" />
    <glyph glyph-name="uni20AF" unicode="&#x20af;" horiz-adv-x="1201" 
d="M34 69h79l91 506q-65 -15 -119 -38v72q27 13 61.5 24t70.5 19l12 65h75l-9 -53q26 2 49 2q89 0 154.5 -36.5t101.5 -103t36 -156.5q0 -110 -45 -193.5t-125.5 -130t-186.5 -46.5h-245v69zM344 593q-29 0 -63 -4l-93 -520h71q140 0 219.5 80.5t79.5 221.5q0 106 -56 164
t-158 58zM1157 310q0 -90 -35 -162t-93.5 -114t-130.5 -42q-63 0 -107 27t-63 78l-47 -264h-75l75 425q14 82 52 141t94 91t123 32q96 0 151.5 -56.5t55.5 -155.5zM881 61q58 0 102.5 33t70 90.5t25.5 131.5q0 62 -35 99.5t-95 37.5q-58 0 -103 -33t-70.5 -90.5
t-25.5 -131.5q0 -63 35.5 -100t95.5 -37z" />
    <glyph glyph-name="uni20B0" unicode="&#x20b0;" horiz-adv-x="539" 
d="M486 524q0 -25 -2.5 -48t-9 -50t-20.5 -66l-42 -88q50 -66 72 -117t22 -107q0 -98 -56 -151t-160 -53v68q71 0 109.5 34.5t38.5 98.5q0 39 -14.5 75t-45.5 79l-96 -204h-65l-63 173l-55 -168h-69l93 253h55l67 -182l87 189q-57 71 -84.5 139t-27.5 125q0 68 35.5 110.5
t91.5 42.5q62 0 100.5 -40.5t38.5 -112.5zM388 380q16 47 22 79.5t6 64.5q0 39 -19 62.5t-47 23.5t-43 -24t-15 -67q0 -44 15.5 -90t57.5 -98z" />
    <glyph glyph-name="uni20B1" unicode="&#x20b1;" horiz-adv-x="642" 
d="M5 390h69v80h-69v55h69v141h266q78 0 134 -38t80 -103h83v-55h-70q2 -19 2 -38q0 -21 -3 -42h71v-54h-85q-24 -61 -77 -97t-128 -36h-201v-203h-72v336h-69v54zM333 600h-187v-75h328q-39 75 -141 75zM494 432q0 20 -2 38h-346v-80h345q3 20 3 42zM146 269h187
q96 0 137 67h-324v-67z" />
    <glyph glyph-name="uni20B2" unicode="&#x20b2;" horiz-adv-x="669" 
d="M44 335q0 103 36 179.5t101 119t152 42.5q37 0 72 -7l32 108h58l-38 -123q68 -26 110 -80t48 -127h-78q-3 49 -29 84.5t-71 54.5l-72 -237h250v-349h-55l-9 163q-29 -78 -87.5 -124.5t-135.5 -46.5q-36 0 -69 8l-24 -80h-57l30 99q-76 37 -120 119.5t-44 196.5zM122 335
q0 -91 28 -153.5t79 -92.5l155 512q-24 4 -50 4q-100 0 -156 -71t-56 -199zM333 64q83 0 135 59t59 159h-183l-64 -213q25 -6 53 -5z" />
    <glyph glyph-name="uni20B3" unicode="&#x20b3;" horiz-adv-x="641" 
d="M42 239h79l40 110h-119v59h141l96 258h85l95 -258h135v-59h-113l40 -110h73v-59h-51l66 -180h-82l-65 180h-283l-63 -180h-83l66 180h-57v59zM319 579l-60 -171h122zM200 239h241l-39 110h-164z" />
    <glyph glyph-name="uni20B4" unicode="&#x20b4;" horiz-adv-x="596" 
d="M5 291h83q54 53 175 67l66 9q25 3 45 9h-369v54h454q12 21 12 51q0 56 -45 90.5t-120 34.5q-77 0 -118 -29t-52 -89h-77q9 87 75 137t173 50q111 0 175.5 -52.5t64.5 -141.5q0 -28 -8 -51h52v-54h-87q-53 -50 -166 -63l-67 -8q-35 -4 -62 -14h382v-54h-455
q-14 -24 -14 -56q0 -56 45 -88t117 -32q166 0 189 118h79q-10 -85 -80 -136t-187 -51q-72 0 -125.5 23.5t-83.5 65.5t-30 100q0 31 9 56h-50v54z" />
    <glyph glyph-name="uni20B5" unicode="&#x20b5;" horiz-adv-x="659" 
d="M44 335q0 97 32.5 171t91.5 118t139 51v95h53v-95q72 -5 127.5 -34.5t89 -80t38.5 -117.5h-78q-3 69 -50.5 111.5t-126.5 48.5v-538q78 6 125 48.5t52 112.5h78q-6 -68 -39.5 -118.5t-89 -80t-126.5 -34.5v-118h-53v118q-79 7 -138 51t-92 118.5t-33 172.5zM122 335
q0 -120 48.5 -190.5t136.5 -79.5v538q-88 -9 -136.5 -79t-48.5 -189z" />
    <glyph glyph-name="uni20B6" unicode="&#x20b6;" horiz-adv-x="581" 
d="M34 512h101v133h76v-133h167v133h75v-133h95v-66h-95v-305q0 -44 15.5 -58.5t38.5 -14.5h41v-68h-47q-32 0 -60 13t-45.5 41.5t-17.5 76.5v315h-167v-446h-76v446h-101v66z" />
    <glyph glyph-name="uni20B7" unicode="&#x20b7;" horiz-adv-x="638" 
d="M378 297l-84 10q-200 24 -200 174q0 89 64.5 141.5t175.5 52.5q107 0 173 -55t75 -150h-77q-11 69 -53 102.5t-119 33.5q-74 0 -118.5 -33.5t-44.5 -88.5q0 -44 32.5 -69t101.5 -35l82 -10q106 -15 157.5 -61.5t51.5 -127.5q0 -61 -36 -105t-99 -66v-91h-50v78
q-33 -5 -69 -5h-16v-73h-50v76q-45 5 -83 17v-93h-50v113q-46 22 -72 56.5t-26 77.5q0 33 21 54.5t50 21.5q47 0 67 -48q11 22 28.5 35t38.5 13q47 0 66 -47q11 22 29 34.5t40 12.5q35 0 55.5 -28t20.5 -76v-61q64 35 64 100q0 101 -146 120zM142 127q0 66 -26 66
q-9 0 -15 -8t-6 -19q0 -47 47 -76v37zM410 127q0 66 -39 66q-19 0 -32.5 -17.5t-13.5 -43.5v-81h15q38 0 70 7v69zM275 127q0 66 -39 66q-19 0 -31.5 -17.5t-12.5 -43.5v-64q36 -10 83 -14v73z" />
    <glyph glyph-name="uni20B8" unicode="&#x20b8;" horiz-adv-x="542" 
d="M34 597v69h475v-69h-475zM509 488v-72h-200v-416h-75v416h-200v72h475z" />
    <glyph glyph-name="uni20B9" unicode="&#x20b9;" horiz-adv-x="505" 
d="M126 271h-83v64h118q58 0 93.5 26.5t43.5 75.5h-255v54h255q-8 51 -44.5 80t-96.5 29h-114v66h417v-66h-149q55 -42 64 -109h85v-54h-85q-7 -52 -41.5 -88t-88.5 -50q56 -10 82 -44t34 -101l18 -154h-75l-16 148q-8 65 -46 94t-116 29z" />
    <glyph glyph-name="uni20BA" unicode="&#x20ba;" horiz-adv-x="625" 
d="M249 71q118 0 183.5 68t70.5 199h77q-11 -162 -95 -250t-227 -88h-107v247l-129 -37v66l129 37v90l-129 -37v66l129 37v197h74v-175l164 47v-66l-164 -47v-90l164 47v-66l-164 -47v-198h24z" />
    <glyph glyph-name="uni20BB" unicode="&#x20bb;" horiz-adv-x="696" 
d="M563 28q-48 -19 -85.5 -27.5t-75.5 -8.5q-82 0 -131.5 44t-54.5 120q-65 -19 -156 -19v61q89 0 156 20v221h-21q-77 0 -119.5 32t-42.5 89q0 54 32.5 86t86.5 32q59 0 95 -41t36 -108v-24h203q84 0 130.5 -44t46.5 -122q0 -61 -30 -96t-68 -35q-58 0 -84 49
q-22 -50 -66 -50t-64 48q-23 -43 -68 -70v-4q0 -57 32.5 -88.5t90.5 -31.5q36 0 77.5 10t79.5 29v-72zM217 503v26q0 40 -19 64t-51 24q-22 0 -35.5 -14.5t-13.5 -37.5q0 -30 24.5 -46t70.5 -16h24zM552 264q22 0 35 21t13 56q0 47 -28 72.5t-79 25.5h-210v-190q48 33 48 78
h44q0 -28 10.5 -46.5t27.5 -18.5q22 0 36 18.5t14 46.5h44q0 -63 45 -63z" />
    <glyph glyph-name="uni20BC" unicode="&#x20bc;" horiz-adv-x="669" 
d="M621 0h-74v246q0 84 -46 134t-130 59v-439h-73v439q-83 -9 -129 -59t-46 -134v-246h-74v246q0 75 31 132.5t87 92t131 41.5v154h73v-154q75 -7 131 -41.5t87.5 -92t31.5 -132.5v-246z" />
    <glyph glyph-name="uni20BD" unicode="&#x20bd;" horiz-adv-x="622" 
d="M15 196h94v93h-94v68h94v309h270q62 0 109 -24t73 -67t26 -100q0 -54 -24.5 -96t-69.5 -66t-107 -24h-201v-93h214v-64h-214v-132h-76v132h-94v64zM372 599h-187v-242h187q64 0 100.5 31.5t36.5 86.5q0 59 -36 91.5t-101 32.5z" />
    <glyph glyph-name="uni20BE" unicode="&#x20be;" horiz-adv-x="659" 
d="M35 69h145q-63 42 -99 113.5t-36 164.5q0 118 51.5 201t140.5 113v107h57v-94q19 2 40 2q24 0 47 -3v95h57v-109q76 -27 123.5 -92t53.5 -158h-74q-3 62 -30 107t-73 69v-176h-57v194q-22 5 -47 5q-21 0 -40 -4v-195h-57v178q-57 -28 -87 -90t-30 -154q0 -130 75.5 -202
t210.5 -72h213v-69h-584v69z" />
    <glyph glyph-name="uni20BF" unicode="&#x20bf;" horiz-adv-x="603" 
d="M159 768h65v-102h82v102h65v-102q75 -4 121 -50t46 -120q0 -51 -24 -91t-67 -60q57 -20 89.5 -65t32.5 -105q0 -79 -50.5 -127t-132.5 -48h-15v-123h-65v123h-82v-123h-65v123h-105v666h105v102zM352 597h-222v-222h222q50 0 79 30.5t29 84.5q0 51 -28.5 79t-79.5 28z
M356 306h-226v-238h243q55 0 86.5 30t31.5 83q0 58 -36 91.5t-99 33.5z" />
    <glyph glyph-name="arrowleft" unicode="&#x2190;" horiz-adv-x="798" 
d="M44 346l200 199l43 -44l-122 -121h590v-68h-590l122 -122l-43 -43z" />
    <glyph glyph-name="arrowup" unicode="&#x2191;" horiz-adv-x="486" 
d="M244 701l198 -200l-44 -42l-122 122l2 -591h-68v590l-122 -121l-44 42z" />
    <glyph glyph-name="arrowright" unicode="&#x2192;" horiz-adv-x="798" 
d="M755 345l-200 -198l-43 43l123 122l-591 -1v69h589l-121 121l43 44z" />
    <glyph glyph-name="arrowdown" unicode="&#x2193;" horiz-adv-x="486" 
d="M243 -10l-199 200l44 43l121 -122l-1 590h68v-590l122 122l44 -43z" />
    <glyph glyph-name="arrowboth" unicode="&#x2194;" horiz-adv-x="798" 
d="M44 346l200 199l43 -44l-122 -121h468l-121 121l43 44l200 -200l-200 -198l-43 43l123 122h-470l122 -122l-43 -43z" />
    <glyph glyph-name="arrowupdn" unicode="&#x2195;" horiz-adv-x="486" 
d="M243 -10l-199 200l44 43l122 -122v469l-122 -121l-44 42l200 200l198 -200l-44 -42l-122 122v-470l122 122l44 -43z" />
    <glyph glyph-name="uni2196" unicode="&#x2196;" horiz-adv-x="614" 
d="M44 608h281v-61h-172l417 -416l-48 -49l-417 417v-171h-61v280z" />
    <glyph glyph-name="uni2197" unicode="&#x2197;" horiz-adv-x="614" 
d="M570 608v-280h-61v171l-416 -417l-49 48l417 417h-171v61h280z" />
    <glyph glyph-name="uni2198" unicode="&#x2198;" horiz-adv-x="614" 
d="M570 82h-280v62h171l-417 415l48 49l417 -417v172h61v-281z" />
    <glyph glyph-name="uni2199" unicode="&#x2199;" horiz-adv-x="614" 
d="M44 82v280h62v-171l415 417l49 -48l-417 -417h172v-61h-281z" />
    <glyph glyph-name="uni219A" unicode="&#x219a;" horiz-adv-x="798" 
d="M44 346l200 199l43 -44l-122 -121h306l71 217h65l-71 -217l219 1v-69h-242l-78 -237h-65l78 237h-283l122 -122l-43 -43z" />
    <glyph glyph-name="uni219B" unicode="&#x219b;" horiz-adv-x="798" 
d="M365 597h65l-71 -217h274l-121 121l43 44l200 -200l-200 -198l-43 43l123 122l-299 -1l-78 -236h-65l78 236h-227v69h250z" />
    <glyph glyph-name="uni219C" unicode="&#x219c;" horiz-adv-x="839" 
d="M162 491l250 -116l-26 -55l-160 75q18 -105 42 -152t76 -47q40 0 69 23t59 50q21 19 44 37.5t51.5 31t66.5 12.5q73 0 116.5 -56.5t43.5 -153.5h-58q0 67 -27 108t-70 41q-42 0 -73 -25t-66 -53q-21 -17 -42.5 -34.5t-48.5 -29t-63 -11.5q-76 0 -115 56t-61 176l-71 -153
l-55 26z" />
    <glyph glyph-name="uni219D" unicode="&#x219d;" horiz-adv-x="839" 
d="M205 350q38 0 66 -12.5t51 -31t44 -37.5q30 -27 59 -50t69 -23q52 0 76 47t42 152l-160 -75l-26 55l251 116l117 -250l-55 -26l-71 151q-22 -119 -61 -174.5t-114 -55.5q-37 0 -64 11.5t-48.5 29t-42.5 34.5q-35 28 -66 53t-73 25q-43 0 -70 -41t-27 -108h-58
q0 97 43.5 153.5t117.5 56.5z" />
    <glyph glyph-name="uni219E" unicode="&#x219e;" horiz-adv-x="798" 
d="M44 346l200 199l43 -44l-122 -121h96l165 165l43 -44l-121 -121l407 1v-69h-408l122 -122l-43 -43l-165 165h-96l122 -122l-43 -43z" />
    <glyph glyph-name="uni219F" unicode="&#x219f;" horiz-adv-x="486" 
d="M244 700l197 -199l-43 -43l-122 123l1 -97l164 -165l-43 -44l-121 123v-408h-68v407l-121 -122l-44 44l165 164v96l-121 -121l-44 43z" />
    <glyph glyph-name="uni21A0" unicode="&#x21a0;" horiz-adv-x="798" 
d="M755 345l-200 -198l-43 43l123 122h-96l-166 -165l-44 43l123 122l-408 -1v69h407l-122 121l44 44l165 -165h95l-121 121l43 44z" />
    <glyph glyph-name="uni21A1" unicode="&#x21a1;" horiz-adv-x="486" 
d="M243 -10l-199 199l44 43l121 -122v96l-165 166l44 43l121 -121l-1 406h68v-406l122 121l43 -43l-165 -165v-97l122 122l43 -43z" />
    <glyph glyph-name="uni21A2" unicode="&#x21a2;" horiz-adv-x="798" 
d="M44 346l200 199l43 -44l-122 -121h381l165 165l44 -44l-156 -155l156 -156l-44 -43l-166 165h-380l122 -122l-43 -43z" />
    <glyph glyph-name="uni21A3" unicode="&#x21a3;" horiz-adv-x="798" 
d="M755 345l-200 -198l-43 43l123 122l-383 -1l-164 -164l-44 43l156 155l-156 156l44 44l164 -165h381l-121 121l43 44z" />
    <glyph glyph-name="uni21A4" unicode="&#x21a4;" horiz-adv-x="798" 
d="M44 346l200 199l43 -44l-122 -121h524v165h66v-398h-66v165h-524l122 -122l-43 -43z" />
    <glyph glyph-name="uni21A5" unicode="&#x21a5;" horiz-adv-x="486" 
d="M442 55v-65h-398v65h166v525l-122 -122l-44 43l200 199l198 -199l-43 -43l-122 123l1 -526h164z" />
    <glyph glyph-name="uni21A6" unicode="&#x21a6;" horiz-adv-x="798" 
d="M109 147h-65v398h65v-165h524l-121 121l43 44l200 -200l-200 -198l-43 43l123 122l-526 -1v-164z" />
    <glyph glyph-name="uni21A7" unicode="&#x21a7;" horiz-adv-x="486" 
d="M244 -10l-200 199l44 43l122 -122l-2 525h-164v65h398v-65h-166v-526l123 123l43 -43z" />
    <glyph glyph-name="arrowupdnbse" unicode="&#x21a8;" horiz-adv-x="486" 
d="M244 701l197 -200l-43 -42l-121 122v-469l121 121l43 -43l-134 -135h135v-65h-398v65h134l-134 135l44 43l121 -122v469l-121 -121l-44 42z" />
    <glyph glyph-name="uni21AE" unicode="&#x21ae;" horiz-adv-x="798" 
d="M44 346l195 195l42 -43l-116 -118h215l67 217h56l-66 -217h196l-116 116l43 43l195 -194l-195 -192l-43 42l118 117h-219l-73 -237h-56l72 237h-194l116 -117l-42 -42z" />
    <glyph glyph-name="uni21B0" unicode="&#x21b0;" horiz-adv-x="469" 
d="M425 534l-179 -177l-42 42l104 103l-199 -1v-468h-65v534h263l-103 102l42 44z" />
    <glyph glyph-name="uni21B1" unicode="&#x21b1;" horiz-adv-x="469" 
d="M44 534l179 179l43 -44l-103 -102h262v-534h-64v468l-198 1l103 -103l-43 -42z" />
    <glyph glyph-name="uni21B2" unicode="&#x21b2;" horiz-adv-x="469" 
d="M44 203l179 177l43 -43l-104 -102h199v469h64v-535h-261l102 -101l-43 -44z" />
    <glyph glyph-name="uni21B3" unicode="&#x21b3;" horiz-adv-x="469" 
d="M425 203l-179 -179l-42 44l102 101h-262v535h65v-469h199l-104 102l42 43z" />
    <glyph glyph-name="uni21B4" unicode="&#x21b4;" horiz-adv-x="788" 
d="M546 63l-199 199l44 43l122 -124l-1 306h-468v64h535v-370l122 124l43 -43z" />
    <glyph glyph-name="carriagereturn" unicode="&#x21b5;" horiz-adv-x="577" 
d="M44 203l200 198l43 -44l-125 -123l306 1v469h65v-535h-369l123 -122l-43 -44z" />
    <glyph glyph-name="uni21B6" unicode="&#x21b6;" horiz-adv-x="887" 
d="M243 42l-199 199l44 44l123 -125l-1 99q0 94 39 165t109 111t162 40q68 0 126.5 -24.5t103 -68.5t69.5 -102t25 -125h-69q0 70 -34.5 127.5t-93 91.5t-129.5 34q-73 0 -127.5 -31t-85 -87.5t-30.5 -130.5v-100l123 126l44 -44z" />
    <glyph glyph-name="uni21B7" unicode="&#x21b7;" horiz-adv-x="887" 
d="M112 255h-68q0 67 25 125t69.5 102t103 68.5t126.5 24.5q92 0 162 -40t109 -111t39 -165l-1 -99l123 125l44 -44l-199 -199l-198 199l43 44l123 -126v100q0 74 -30.5 130.5t-85 87.5t-127.5 31q-71 0 -129.5 -34t-93.5 -91.5t-35 -127.5z" />
    <glyph glyph-name="uni21BA" unicode="&#x21ba;" horiz-adv-x="844" 
d="M357 104q75 0 131.5 31.5t88.5 87.5t32 130q0 83 -55 149l-71 -151l-56 26l120 255l254 -119l-26 -56l-157 74q61 -78 61 -177q0 -93 -42 -165t-114.5 -113.5t-165.5 -41.5q-91 0 -161.5 39.5t-111 108.5t-40.5 159q0 62 23.5 114.5t74.5 103.5l51 -44q-41 -42 -60 -83.5
t-19 -90.5q0 -71 30.5 -124.5t85 -83t127.5 -29.5z" />
    <glyph glyph-name="uni21BB" unicode="&#x21bb;" horiz-adv-x="844" 
d="M487 104q73 0 127.5 29.5t85.5 83t31 124.5q0 49 -19 90.5t-60 83.5l51 44q50 -51 74 -103.5t24 -114.5q0 -90 -40.5 -159t-111.5 -108.5t-162 -39.5q-93 0 -165.5 41.5t-114 113.5t-41.5 165q0 99 61 177l-156 -74l-27 56l254 119l119 -255l-56 -26l-70 151
q-55 -66 -55 -149q0 -74 31.5 -130t88.5 -87.5t131 -31.5z" />
    <glyph glyph-name="uni21BC" unicode="&#x21bc;" horiz-adv-x="798" 
d="M158 378h597v-67l-711 1v42l157 156l45 -45z" />
    <glyph glyph-name="uni21BD" unicode="&#x21bd;" horiz-adv-x="798" 
d="M44 336v42l711 1v-67h-597l88 -88l-45 -44z" />
    <glyph glyph-name="uni21BE" unicode="&#x21be;" horiz-adv-x="288" 
d="M111 599v-597h-67l2 710h42l156 -156l-45 -45z" />
    <glyph glyph-name="uni21BF" unicode="&#x21bf;" horiz-adv-x="288" 
d="M178 599l-88 -88l-46 45l157 156h41l2 -710h-66v597z" />
    <glyph glyph-name="uni21C0" unicode="&#x21c0;" horiz-adv-x="798" 
d="M755 354v-42l-711 -1v67h596l-87 87l45 45z" />
    <glyph glyph-name="uni21C1" unicode="&#x21c1;" horiz-adv-x="798" 
d="M755 336l-157 -156l-45 44l87 88h-596v67l711 -1v-42z" />
    <glyph glyph-name="uni21C2" unicode="&#x21c2;" horiz-adv-x="288" 
d="M111 115l88 88l45 -44l-156 -157h-42l-2 710h67v-597z" />
    <glyph glyph-name="uni21C3" unicode="&#x21c3;" horiz-adv-x="288" 
d="M178 115v597h66l-2 -710h-41l-157 157l46 44z" />
    <glyph glyph-name="uni21C4" unicode="&#x21c4;" horiz-adv-x="798" 
d="M755 465l-160 -159l-42 42l86 85h-595v64h595l-86 86l42 42zM44 204l161 159l41 -42l-87 -86l596 1v-64h-595l86 -86l-41 -42z" />
    <glyph glyph-name="uni21C5" unicode="&#x21c5;" horiz-adv-x="796" 
d="M268 690l158 -160l-41 -42l-86 87l1 -595h-65v594l-85 -86l-42 42zM529 -20l-159 159l41 42l86 -86l-1 595h65v-595l86 86l41 -42z" />
    <glyph glyph-name="uni21C6" unicode="&#x21c6;" horiz-adv-x="798" 
d="M44 465l161 160l41 -42l-86 -86h595v-64h-595l86 -85l-41 -42zM755 204l-160 -160l-42 42l85 86h-594v64l596 -1l-87 86l42 42z" />
    <glyph glyph-name="uni21C7" unicode="&#x21c7;" horiz-adv-x="798" 
d="M44 496l157 156l41 -42l-82 -82l595 1v-65h-595l82 -82l-41 -42zM44 176l157 156l41 -42l-82 -82h595v-64h-595l82 -82l-41 -42z" />
    <glyph glyph-name="uni21C8" unicode="&#x21c8;" horiz-adv-x="721" 
d="M522 691l155 -156l-42 -42l-82 83v-595h-64v594l-82 -82l-42 42zM201 691l155 -156l-42 -42l-82 83l1 -595h-65v594l-82 -82l-42 42z" />
    <glyph glyph-name="uni21C9" unicode="&#x21c9;" horiz-adv-x="798" 
d="M755 495l-157 -155l-42 42l84 82h-596v64h594l-82 82l42 42zM755 175l-157 -155l-42 42l84 82l-596 -1v65h594l-82 82l42 42z" />
    <glyph glyph-name="uni21CA" unicode="&#x21ca;" horiz-adv-x="721" 
d="M200 -19l-156 156l42 42l82 -83v595h64v-595l82 83l42 -42zM521 -19l-156 156l42 42l82 -83l-1 595h65v-595l82 83l42 -42z" />
    <glyph glyph-name="uni21CB" unicode="&#x21cb;" horiz-adv-x="798" 
d="M158 462h597v-68l-711 1v42l157 157l45 -45zM640 208h-596v66l711 -1v-41l-157 -157l-45 46z" />
    <glyph glyph-name="uni21CC" unicode="&#x21cc;" horiz-adv-x="798" 
d="M640 462l-87 87l45 45l157 -157v-42l-711 -1v68h596zM158 208l88 -87l-45 -46l-157 157v41l711 1v-66h-597z" />
    <glyph glyph-name="uni21CD" unicode="&#x21cd;" horiz-adv-x="798" 
d="M44 346l202 200l41 -42l-58 -57l264 1l49 149h65l-49 -149h197v-59h-217l-28 -86l244 1v-60h-263l-56 -169h-65l56 169h-196l57 -57l-41 -41zM128 346l43 -44l274 1l28 86h-302z" />
    <glyph glyph-name="uni21CE" unicode="&#x21ce;" horiz-adv-x="798" 
d="M44 346l196 197l41 -42l-53 -54l173 1l45 149h57l-46 -149h112l-52 53l42 42l196 -198l-196 -196l-42 41l53 54h-175l-51 -169h-57l52 169h-111l53 -54l-41 -41zM128 346l43 -44l186 1l26 86h-213zM671 345l-43 44h-189l-26 -86h217z" />
    <glyph glyph-name="uni21CF" unicode="&#x21cf;" horiz-adv-x="798" 
d="M365 597h65l-49 -150h188l-57 57l42 42l201 -201l-201 -199l-42 41l57 57l-255 -1l-56 -168h-65l56 168h-205v59h224l28 86h-251v59h271zM671 345l-44 44l-266 -1l-28 -86h295z" />
    <glyph glyph-name="arrowdblleft" unicode="&#x21d0;" horiz-adv-x="798" 
d="M44 346l202 200l41 -42l-58 -57l526 1v-59h-584l-43 -43l43 -44l583 2v-60h-524l57 -57l-41 -41z" />
    <glyph glyph-name="arrowdblup" unicode="&#x21d1;" horiz-adv-x="489" 
d="M246 701l199 -201l-42 -41l-56 56l1 -524h-60v583l-42 43l-45 -44l1 -582h-59v524l-57 -56l-42 41z" />
    <glyph glyph-name="arrowdblright" unicode="&#x21d2;" horiz-adv-x="798" 
d="M755 345l-201 -199l-42 41l57 57l-525 -1v59h584l43 43l-44 44l-582 -1v59h524l-57 57l42 42z" />
    <glyph glyph-name="arrowdbldown" unicode="&#x21d3;" horiz-adv-x="489" 
d="M245 -9l-201 201l42 42l56 -56v523h59v-582l44 -44l43 44l-1 582h60v-523l56 56l42 -42z" />
    <glyph glyph-name="arrowdblboth" unicode="&#x21d4;" horiz-adv-x="798" 
d="M44 346l202 200l41 -42l-58 -57l339 1l-56 56l42 42l201 -201l-201 -199l-42 41l57 57h-339l57 -57l-41 -41zM128 346l43 -44l458 1l42 42l-44 44h-456z" />
    <glyph glyph-name="uni21D5" unicode="&#x21d5;" horiz-adv-x="489" 
d="M245 -10l-201 202l42 41l57 -56v338l-57 -56l-42 41l202 201l199 -201l-42 -41l-56 56l1 -337l55 55l42 -41zM246 617l-45 -44l1 -456l43 -43l43 44v456z" />
    <glyph glyph-name="uni21D6" unicode="&#x21d6;" horiz-adv-x="663" 
d="M44 603h284v-59h-82l373 -371l-42 -42l-414 413h-60v-62l413 -411l-43 -43l-370 371v-80h-59v284z" />
    <glyph glyph-name="uni21D7" unicode="&#x21d7;" horiz-adv-x="663" 
d="M619 603v-284h-59v82l-371 -373l-42 42l413 414v60h-62l-411 -413l-43 43l371 370h-80v59h284z" />
    <glyph glyph-name="uni21D8" unicode="&#x21d8;" horiz-adv-x="663" 
d="M619 28h-284v59h81l-372 371l43 42l413 -413h60v61l-413 412l43 43l370 -371v80h59v-284z" />
    <glyph glyph-name="uni21D9" unicode="&#x21d9;" horiz-adv-x="663" 
d="M44 28v284h59v-82l371 373l42 -43l-413 -414v-59h62l411 413l43 -43l-371 -370h80v-59h-284z" />
    <glyph glyph-name="uni21DA" unicode="&#x21da;" horiz-adv-x="798" 
d="M44 346l202 200l41 -42l-35 -34l503 1v-56h-558l-41 -41l599 1v-56h-600l41 -42l558 1v-57h-502l35 -34l-41 -41z" />
    <glyph glyph-name="uni21DB" unicode="&#x21db;" horiz-adv-x="798" 
d="M755 345l-201 -199l-42 41l34 34l-502 -1v57h559l41 41l-600 -2v57h599l-42 42l-556 -1v56h501l-34 34l42 42z" />
    <glyph glyph-name="uni21E4" unicode="&#x21e4;" horiz-adv-x="798" 
d="M109 147h-65v398h65v-135l135 135l43 -44l-122 -121l590 1v-69h-590l122 -122l-43 -43l-135 135v-135z" />
    <glyph glyph-name="uni21E5" unicode="&#x21e5;" horiz-adv-x="798" 
d="M689 545h66v-398h-66v133l-134 -133l-43 43l123 122l-591 -1v69h589l-121 121l43 44l134 -134v134z" />
    <glyph glyph-name="uni21E6" unicode="&#x21e6;" horiz-adv-x="798" 
d="M305 447l450 1v-204h-450v-98h-59l-202 200l202 200h59v-99zM246 463l-118 -117l118 -117v73l448 1v86h-448v74z" />
    <glyph glyph-name="uni21E7" unicode="&#x21e7;" horiz-adv-x="527" 
d="M366 440l1 -450h-205v450h-99v60l201 200l200 -200v-60h-98zM381 500l-117 117l-117 -117h73l1 -450h87v450h73z" />
    <glyph glyph-name="uni21E8" unicode="&#x21e8;" horiz-adv-x="798" 
d="M494 244l-450 -1v204h450v99h60l201 -201l-201 -199h-60v98zM554 229l117 116l-117 118v-74l-450 -1v-86h450v-73z" />
    </font>
</defs>
</svg>
