<svg width="306" height="246" viewBox="0 0 306 246" fill="none" xmlns="http://www.w3.org/2000/svg">
<rect x="78.7881" y="0.315918" width="239.842" height="239.842" rx="43.6076" transform="rotate(19.0978 78.7881 0.315918)" fill="#3A50E0"/>
<path d="M134.154 107.277L148.8 64.976L164.517 70.4176L159.036 86.2463C164.277 84.6919 169.857 84.8723 175.736 86.9077C192.417 92.2791 201.971 112.027 195.94 128.669C190.389 145.478 170.669 155.09 154.238 148.997C137.437 143.584 128.003 123.878 134.154 107.277ZM149.631 112.635C148.089 117.087 148.196 121.436 150.153 125.483C152.111 129.53 155.21 132.22 159.649 133.757C164.088 135.294 168.187 135.096 172.108 133.085C176.029 131.073 178.802 127.721 180.343 123.269C181.885 118.817 181.737 114.588 179.899 110.583C178.061 106.578 175.004 103.768 170.565 102.231C166.126 100.694 161.985 101.012 157.944 102.982C153.903 104.951 151.172 108.183 149.631 112.635Z" fill="white"/>
<path d="M152.563 154.396C169.337 159.799 178.974 179.574 172.942 196.214C167.393 213.021 147.592 222.603 131.068 216.477C125.156 214.431 120.63 211.112 117.449 206.642L111.969 222.469L96.1646 216.997L110.809 174.701C116.237 157.852 135.918 148.228 152.563 154.396ZM157.258 190.783C158.8 186.332 158.643 182.101 156.789 178.09C154.935 174.08 151.857 171.263 147.393 169.717C142.929 168.172 138.768 168.483 134.711 170.446C130.653 172.41 127.914 175.638 126.373 180.09C124.831 184.541 124.946 188.893 126.921 192.945C128.895 196.997 132.015 199.694 136.479 201.239C140.943 202.785 145.062 202.594 148.999 200.589C152.936 198.584 155.717 195.235 157.258 190.783Z" fill="white"/>
</svg>
