<svg width="80" height="80" viewBox="0 0 80 80" fill="none" xmlns="http://www.w3.org/2000/svg">
<path fill-rule="evenodd" clip-rule="evenodd" d="M80 40C80 62.0914 62.0914 80 40 80C17.9086 80 0 62.0914 0 40C0 17.9086 17.9086 0 40 0C62.0914 0 80 17.9086 80 40ZM39.9998 76.6667C60.2503 76.6667 76.6665 60.2505 76.6665 40C76.6665 19.7496 60.2503 3.33338 39.9998 3.33338C19.7494 3.33338 3.33316 19.7496 3.33316 40C3.33316 60.2505 19.7494 76.6667 39.9998 76.6667ZM39.9998 78C60.9866 78 77.9998 60.9869 77.9998 40C77.9998 19.0132 60.9866 2.00004 39.9998 2.00004C19.013 2.00004 1.99983 19.0132 1.99983 40C1.99983 60.9869 19.013 78 39.9998 78ZM20.0027 34.1513L20.0027 17H26.4862V23.4179C28.2185 22.1982 30.2971 21.564 32.7223 21.564C39.3627 21.4217 45.2546 27.0442 45.4855 33.5889C46.2705 33.4422 47.0771 33.3732 47.8962 33.3906C54.7262 33.2443 60.7643 39.1964 60.6653 45.978C60.7643 52.7595 54.7262 58.7117 47.8962 58.5653C45.4711 58.5653 43.3924 57.931 41.6602 56.7113V63.1292H35.1767V46.5295C34.3768 46.6836 33.5554 46.7565 32.7223 46.7386C25.8428 46.885 19.8542 40.9328 20.0027 34.1513ZM26.3872 34.1513C26.3872 35.9565 26.9811 37.5177 28.2185 38.7374C29.4558 39.9571 30.9405 40.5425 32.7718 40.5425C34.603 40.5425 36.0878 39.9571 37.2756 38.7374C38.4634 37.5177 39.0573 35.9565 39.0573 34.1513C39.0573 32.3461 38.4634 30.8337 37.2756 29.614C36.0878 28.3943 34.603 27.7601 32.7718 27.7601C30.9405 27.7601 29.4558 28.3943 28.2185 29.614C26.9811 30.8337 26.3872 32.3461 26.3872 34.1513ZM54.2313 45.978C54.2313 44.1728 53.6374 42.6604 52.4495 41.4407C51.2617 40.221 49.777 39.5867 47.9457 39.5867C46.1145 39.5867 44.6297 40.221 43.3924 41.4407C42.1551 42.6604 41.5612 44.1728 41.5612 45.978C41.5612 47.7831 42.1551 49.3443 43.3924 50.564C44.6297 51.7837 46.1145 52.3692 47.9457 52.3692C49.777 52.3692 51.2617 51.7837 52.4495 50.564C53.6374 49.3443 54.2313 47.7831 54.2313 45.978Z" fill="white"/>
</svg>
