<svg width="86" height="44" viewBox="0 0 86 44" fill="none" xmlns="http://www.w3.org/2000/svg">
<path d="M0.00176476 14.7112V3.41933H4.234V7.64467C5.36475 6.84166 6.72165 6.42409 8.3047 6.42409C12.7631 6.32773 16.7046 10.2464 16.6399 14.7112C16.7046 19.1759 12.7631 23.0946 8.3047 22.9983C3.81401 23.0946 -0.0951566 19.1759 0.00176476 14.7112ZM4.16938 14.7112C4.16938 15.8996 4.55707 16.9275 5.36475 17.7305C6.17243 18.5335 7.14164 18.919 8.33701 18.919C9.53237 18.919 10.5016 18.5335 11.277 17.7305C12.0523 16.9275 12.44 15.8996 12.44 14.7112C12.44 13.5227 12.0523 12.527 11.277 11.724C10.5016 10.921 9.53237 10.5034 8.33701 10.5034C7.14164 10.5034 6.17243 10.921 5.36475 11.724C4.55707 12.527 4.16938 13.5227 4.16938 14.7112Z" fill="#3A50E0"/>
<path d="M18.4269 2.47328C18.4269 1.0921 19.5254 0 20.9469 0C22.3361 0 23.4345 1.0921 23.4345 2.47328C23.4345 3.88658 22.3361 4.97867 20.9469 4.97867C19.5254 4.97867 18.4269 3.88658 18.4269 2.47328ZM18.8469 22.7413V6.68106H23.0468V22.7413H18.8469Z" fill="#3A50E0"/>
<path d="M30.3755 18.662H38V22.7413H25.0448V18.662L32.3463 10.7604H25.3679V6.68106H37.7092V10.7604L30.3755 18.662Z" fill="#3A50E0"/>
<path d="M8.3515 24.4233C12.835 24.327 16.7987 28.2452 16.7337 32.7095C16.7987 37.1737 12.835 41.0919 8.3515 40.9956C6.75953 40.9956 5.39498 40.5781 4.25786 39.7752V44H0.00177471V32.7095C-0.0956929 28.2452 3.8355 24.327 8.3515 24.4233ZM12.5101 32.7095C12.5101 31.5212 12.1202 30.5255 11.3405 29.7226C10.5608 28.9197 9.58609 28.5022 8.38399 28.5022C7.18189 28.5022 6.20721 28.9197 5.39498 29.7226C4.58275 30.5255 4.19288 31.5212 4.19288 32.7095C4.19288 33.8978 4.58275 34.9255 5.39498 35.7284C6.20721 36.5314 7.18189 36.9168 8.38399 36.9168C9.58609 36.9168 10.5608 36.5314 11.3405 35.7284C12.1202 34.9255 12.5101 33.8978 12.5101 32.7095Z" fill="#3A50E0"/>
<path d="M18.5308 40.7387V32.292C18.5308 27.1854 21.3248 24.616 25.4835 24.616H25.6784V28.6949H25.5159C23.6641 28.6949 22.7544 29.819 22.7544 32.292V40.7387H18.5308Z" fill="#3A50E0"/>
<path d="M43.6041 32.7095C43.7015 37.1737 39.7378 41.0919 35.2218 40.9956C30.7058 41.0919 26.7422 37.1737 26.8396 32.7095C26.7422 28.2452 30.7058 24.327 35.2218 24.4233C39.7378 24.327 43.7015 28.2452 43.6041 32.7095ZM31.0632 32.7095C31.0632 33.8978 31.4531 34.9255 32.2653 35.7284C33.0776 36.5314 34.0522 36.9168 35.2543 36.9168C36.4564 36.9168 37.4311 36.5314 38.2109 35.7284C38.9906 34.9255 39.3805 33.8978 39.3805 32.7095C39.3805 31.5212 38.9906 30.5255 38.2109 29.7226C37.4311 28.9197 36.4564 28.5022 35.2543 28.5022C34.0522 28.5022 33.0776 28.9197 32.2653 29.7226C31.4531 30.5255 31.0632 31.5212 31.0632 32.7095Z" fill="#3A50E0"/>
<path d="M55.6294 20.473C55.6294 19.092 56.734 18 58.1635 18C59.5606 18 60.6652 19.092 60.6652 20.473C60.6652 21.8861 59.5606 22.9781 58.1635 22.9781C56.734 22.9781 55.6294 21.8861 55.6294 20.473ZM46.5324 40.7387V28.7591H44.0957V24.6803H46.5974C46.9548 20.6015 49.3914 18.1606 53.68 18.1606V22.2394C52.0231 22.2715 50.821 23.1708 50.821 24.6803H53.68V28.7591H50.756V40.7387H46.5324ZM56.0517 40.7387V24.6803H60.2753V40.7387H56.0517Z" fill="#3A50E0"/>
<path d="M67.4587 40.7387H63.2351V18.2569H67.4587V40.7387Z" fill="#3A50E0"/>
<path d="M77.5119 24.4233C81.638 24.4233 85.8616 27.4423 85.9915 32.3562C86.024 33.0306 85.9591 33.7051 85.8616 34.3474H73.8081C74.198 35.9211 75.595 36.9168 77.5119 36.9168C78.8439 36.9168 79.6237 36.5314 80.3059 35.9854L85.3418 36.0175C84.0097 38.9722 81.0207 40.9956 77.6418 40.9956C73.0608 41.0919 69.1621 37.2058 69.2596 32.7416C69.1621 28.3416 72.9959 24.327 77.5119 24.4233ZM73.8081 31.0073H81.4755C80.8258 29.4978 79.2988 28.5022 77.6418 28.5022C75.8224 28.5022 74.4904 29.4657 73.8081 31.0073Z" fill="#3A50E0"/>
</svg>
