<svg width="35" height="35" viewBox="0 0 35 35" fill="none" xmlns="http://www.w3.org/2000/svg">
<path d="M17.5 0C7.85054 0 0 7.85054 0 17.5C0 27.1488 7.85054 35 17.5 35C27.1488 35 35 27.1488 35 17.5C35 7.85054 27.1502 0 17.5 0ZM21.8521 18.1161H19.005V28.2639H14.7861C14.7861 28.2639 14.7861 22.7191 14.7861 18.1161H12.7807V14.5295H14.7861V12.2097C14.7861 10.5482 15.5756 7.95205 19.0437 7.95205L22.17 7.96403V11.4456C22.17 11.4456 20.2703 11.4456 19.9009 11.4456C19.5315 11.4456 19.0064 11.6302 19.0064 12.4226V14.5302H22.2208L21.8521 18.1161Z" fill="white"/>
</svg>
