<svg width="35" height="35" viewBox="0 0 35 35" fill="none" xmlns="http://www.w3.org/2000/svg">
<g clip-path="url(#clip0_799_138)">
<path d="M17.5 0C7.83535 0 0 7.83535 0 17.5C0 27.1646 7.83535 35 17.5 35C27.1646 35 35 27.1646 35 17.5C35 7.83535 27.1646 0 17.5 0Z" fill="white"/>
<g clip-path="url(#clip1_799_138)">
<path d="M17.1706 29H17.1643C13.8819 28.9777 11.3585 27.8956 9.66305 25.7825C8.15377 23.9024 7.37573 21.2864 7.34961 18.0079V17.9921C7.37578 14.7128 8.15377 12.0975 9.66305 10.2175C11.3577 8.10443 13.8819 7.02217 17.1635 7H17.1762C19.6924 7.01663 21.7975 7.66391 23.4335 8.92208C24.9714 10.105 26.0536 11.7909 26.651 13.934L24.7813 14.4554C23.7696 10.8259 21.2089 8.97042 17.1699 8.94111C14.503 8.96011 12.4867 9.79834 11.1755 11.4321C9.94746 12.962 9.31285 15.1716 9.28986 17.9992C9.31363 20.8276 9.94823 23.0373 11.1755 24.5664C12.4867 26.2001 14.503 27.0383 17.1699 27.0573C19.5736 27.0399 21.1645 26.4798 22.4877 25.1836C23.9977 23.7044 23.97 21.8901 23.4867 20.7865C23.2023 20.136 22.6856 19.5941 21.9892 19.1837C21.8142 20.4212 21.4204 21.4258 20.8119 22.1825C20.0006 23.1926 18.8503 23.7449 17.394 23.8233C16.292 23.8826 15.2303 23.6221 14.4064 23.0888C13.4318 22.4582 12.8614 21.4931 12.8004 20.3713C12.741 19.2804 13.1736 18.2773 14.0181 17.5468C14.8255 16.8488 15.9608 16.4392 17.3021 16.364C18.2909 16.3085 19.2154 16.3521 20.0703 16.4947C19.957 15.8141 19.7273 15.2746 19.385 14.8848C18.9144 14.3484 18.1863 14.0743 17.2221 14.0679H17.1952C16.4211 14.0679 15.3698 14.2802 14.6995 15.2769L13.0888 14.1939C13.9857 12.8605 15.4427 12.1269 17.1944 12.1269H17.234C20.1631 12.1451 21.9069 13.9364 22.0804 17.0651C22.1801 17.1072 22.2777 17.1506 22.3743 17.1958C23.741 17.8384 24.7401 18.8113 25.2645 20.0093C25.995 21.6793 26.0624 24.4009 23.8448 26.5717C22.1509 28.2306 20.0941 28.9794 17.1762 28.9992H17.1699L17.1706 29ZM18.0897 18.2828C17.8678 18.2828 17.6428 18.2891 17.413 18.3026C15.7295 18.3977 14.6805 19.1686 14.7399 20.2667C14.8025 21.4171 16.0717 21.9518 17.291 21.8861C18.4137 21.8259 19.8747 21.3893 20.1195 18.4848C19.4998 18.3526 18.8186 18.2828 18.0896 18.2828H18.0897Z" fill="#3D52E1"/>
</g>
</g>
<defs>
<clipPath id="clip0_799_138">
<rect width="35" height="35" fill="white"/>
</clipPath>
<clipPath id="clip1_799_138">
<rect width="22" height="22" fill="white" transform="translate(6 7)"/>
</clipPath>
</defs>
</svg>
