<svg preserveAspectRatio="none" width="100%" height="100%" overflow="visible" style="display: block;" viewBox="0 0 20 22" fill="none" xmlns="http://www.w3.org/2000/svg">
<g id="Container">
<path id="Vector" d="M9 15.4444C9 15.9967 9.44771 16.4444 10 16.4444C10.5523 16.4444 11 15.9967 11 15.4444H10H9ZM5.5 7.66667V8.66667H14.5V7.66667V6.66667H5.5V7.66667ZM19 12.1111H18V16.5556H19H20V12.1111H19ZM14.5 21V20H5.5V21V22H14.5V21ZM1 16.5556H2V12.1111H1H0V16.5556H1ZM5.5 21V20C3.55526 20 2 18.4462 2 16.5556H1H0C0 19.5741 2.47418 22 5.5 22V21ZM19 16.5556H18C18 18.4462 16.4447 20 14.5 20V21V22C17.5258 22 20 19.5741 20 16.5556H19ZM14.5 7.66667V8.66667C16.4447 8.66667 18 10.2205 18 12.1111H19H20C20 9.09255 17.5258 6.66667 14.5 6.66667V7.66667ZM5.5 7.66667V6.66667C2.47418 6.66667 0 9.09255 0 12.1111H1H2C2 10.2205 3.55526 8.66667 5.5 8.66667V7.66667ZM10 13.2222H9V15.4444H10H11V13.2222H10ZM14.5 5.44444H13.5V7.66667H14.5H15.5V5.44444H14.5ZM5.5 7.66667H6.5V5.44444H5.5H4.5V7.66667H5.5ZM10 1V2C11.9447 2 13.5 3.55381 13.5 5.44444H14.5H15.5C15.5 2.42589 13.0258 0 10 0V1ZM10 1V0C6.97418 0 4.5 2.42589 4.5 5.44444H5.5H6.5C6.5 3.55381 8.05526 2 10 2V1Z" fill="var(--stroke-0, #3D52E1)"/>
</g>
</svg>
