<svg preserveAspectRatio="none" width="100%" height="100%" overflow="visible" style="display: block;" viewBox="0 0 21.0005 19" fill="none" xmlns="http://www.w3.org/2000/svg">
<g id="Container">
<path id="Vector" d="M2.99377 5.25003C3.79302 3.89245 4.95954 2.77806 6.36434 2.03006C7.76914 1.28207 9.35751 0.929609 10.9538 1.01165C12.5502 1.09369 14.0923 1.60704 15.4096 2.49494C16.727 3.38284 17.7684 4.6107 18.4185 6.04277M1.00023 2.61009L1.79052 5.96712C1.92512 6.53888 2.50688 6.89539 3.08993 6.76339L6.51316 5.98838M18.0067 13.75C17.2074 15.1076 16.0409 16.2219 14.6361 16.9699C13.2313 17.7179 11.6429 18.0704 10.0466 17.9883C8.45029 17.9063 6.90819 17.393 5.59082 16.5051C4.27344 15.6172 3.2321 14.3893 2.58192 12.9572M20.0002 16.3899L19.2099 13.0329C19.0753 12.4611 18.4936 12.1046 17.9105 12.2366L14.4873 13.0116" stroke="var(--stroke-0, #3D52E1)" stroke-width="2" stroke-linecap="round"/>
</g>
</svg>
