<svg width="26" height="26" viewBox="0 0 26 26" fill="none" xmlns="http://www.w3.org/2000/svg">
  <path d="M19.6 13.6V14.6C20.1523 14.6 20.6 14.1523 20.6 13.6H19.6ZM20.6 11.2C20.6 10.6477 20.1523 10.2 19.6 10.2C19.0477 10.2 18.6 10.6477 18.6 11.2H19.6H20.6ZM17.6 11.2C17.6 10.6477 17.1523 10.2 16.6 10.2C16.0477 10.2 15.6 10.6477 15.6 11.2H16.6H17.6ZM7 1V2H19V1V0H7V1ZM25 7H24V19H25H26V7H25ZM19 25V24H7V25V26H19V25ZM1 19H2V7H1H0V19H1ZM7 25V24C4.23858 24 2 21.7614 2 19H1H0C0 22.866 3.13401 26 7 26V25ZM25 19H24C24 21.7614 21.7614 24 19 24V25V26C22.866 26 26 22.866 26 19H25ZM19 1V2C21.7614 2 24 4.23858 24 7H25H26C26 3.13401 22.866 0 19 0V1ZM7 1V0C3.13401 0 0 3.13401 0 7H1H2C2 4.23858 4.23858 2 7 2V1ZM11.2 13.6V14.6L19.6 14.6V13.6V12.6L11.2 12.6L11.2 13.6ZM19.6 13.6H20.6V11.2H19.6H18.6V13.6H19.6ZM16.6 13.6H17.6V11.2H16.6H15.6V13.6H16.6ZM6.4 13.6H5.4C5.4 15.4778 6.92223 17 8.8 17V16V15C8.0268 15 7.4 14.3732 7.4 13.6H6.4ZM8.8 16V17C10.6778 17 12.2 15.4778 12.2 13.6H11.2H10.2C10.2 14.3732 9.5732 15 8.8 15V16ZM11.2 13.6H12.2C12.2 11.7222 10.6778 10.2 8.8 10.2V11.2V12.2C9.5732 12.2 10.2 12.8268 10.2 13.6H11.2ZM8.8 11.2V10.2C6.92223 10.2 5.4 11.7222 5.4 13.6H6.4H7.4C7.4 12.8268 8.0268 12.2 8.8 12.2V11.2Z" fill="white"/>
</svg>
