<svg width="24" height="24" viewBox="0 0 24 24" fill="none" xmlns="http://www.w3.org/2000/svg">
  <path d="M6 2.99219C4.343 2.99219 3 4.33529 3 5.99219V7.99219V16.9922C3 19.2012 4.791 20.9922 7 20.9922H17C19.209 20.9922 21 19.2012 21 16.9922V7.99219C21 7.43989 20.552 6.99219 20 6.99219H15C14.245 6.99219 14.002 6.74729 13.406 5.55469C12.503 3.74729 11.745 2.99219 10 2.99219H6ZM6 4.99219H10C10.755 4.99219 10.998 5.23709 11.594 6.42969C11.724 6.69079 11.768 6.76489 11.896 6.98289L7.96899 6.99219C7.41599 6.99219 6.96899 7.43989 6.96899 7.99219C6.96899 8.54449 7.41599 8.99219 7.96899 8.99219H15H19V16.9922C19 18.0972 18.105 18.9922 17 18.9922H7C5.895 18.9922 5 18.0972 5 16.9922V7.99219V5.99219C5 5.43989 5.448 4.99219 6 4.99219Z" fill="white"/>
</svg>
