<svg width="24" height="24" viewBox="0 0 24 24" fill="none" xmlns="http://www.w3.org/2000/svg">
  <path d="M20.6658 18.7715C20.6658 18.7715 19.5071 19.9095 19.2232 20.2432C18.7606 20.7367 18.2156 20.9698 17.5012 20.9698C17.4325 20.9698 17.3592 20.9698 17.2905 20.9653C15.9304 20.8784 14.6664 20.3483 13.7184 19.8958C11.1263 18.6435 8.85015 16.8657 6.95873 14.6125C5.39706 12.7341 4.35288 10.9974 3.66135 9.13265C3.23544 7.99464 3.07973 7.10799 3.14842 6.27162C3.19422 5.73689 3.40031 5.29357 3.78042 4.91423L5.3421 3.35574C5.5665 3.14551 5.80465 3.03125 6.03821 3.03125C6.32673 3.03125 6.5603 3.20492 6.70685 3.35117C6.71143 3.35574 6.71601 3.36031 6.72059 3.36489C6.99995 3.62539 7.26557 3.89504 7.54493 4.18298C7.6869 4.32923 7.83345 4.47548 7.98001 4.6263L9.23026 5.874C9.71571 6.35846 9.71571 6.80635 9.23026 7.29081C9.09745 7.42335 8.96922 7.55589 8.83641 7.68386C8.45171 8.0769 8.75391 7.77532 8.35548 8.13181C8.34632 8.14095 8.33716 8.14552 8.33258 8.15466C7.93873 8.54771 8.012 8.93162 8.09444 9.19213C8.09902 9.20584 8.1036 9.21955 8.10818 9.23326C8.43333 10.0194 8.8913 10.7598 9.58742 11.6418L9.592 11.6464C10.856 13.2003 12.1887 14.4115 13.6588 15.3392C13.8465 15.4581 14.0389 15.554 14.2221 15.6454C14.3869 15.7277 14.5427 15.8054 14.6755 15.8877C14.6938 15.8968 14.7121 15.9105 14.7304 15.9197C14.8861 15.9974 15.0327 16.0339 15.1838 16.0339C15.5639 16.0339 15.8021 15.7963 15.8799 15.7186L16.7776 14.8227C16.9333 14.6673 17.1806 14.48 17.4691 14.48C17.7531 14.48 17.9866 14.6582 18.1286 14.8136C18.1332 14.8182 18.1332 14.8182 18.1378 14.8227L20.6612 17.341C21.1329 17.8072 20.6658 18.7715 20.6658 18.7715Z" stroke="#3D52E1" stroke-width="2" stroke-linecap="round" stroke-linejoin="round"/>
</svg>
