<svg width="24" height="24" viewBox="0 0 24 24" fill="none" xmlns="http://www.w3.org/2000/svg">
  <path d="M11.3545 20.994C11.7198 21.3455 12.2829 21.3455 12.6481 20.994C14.4703 19.2404 19.5144 14.0155 19.5144 9.91148C19.5144 5.76214 16.1507 2.39844 12.0013 2.39844C7.85199 2.39844 4.48828 5.76214 4.48828 9.91148C4.48828 14.0155 9.53237 19.2404 11.3545 20.994Z" stroke="#3D52E1" stroke-width="2"/>
  <path d="M14.4016 9.59859C14.4016 10.9241 13.3271 11.9986 12.0016 11.9986C10.6761 11.9986 9.60163 10.9241 9.60163 9.59859C9.60163 8.27311 10.6761 7.19859 12.0016 7.19859C13.3271 7.19859 14.4016 8.27311 14.4016 9.59859Z" stroke="#3D52E1" stroke-width="2"/>
</svg>
