<svg xmlns="http://www.w3.org/2000/svg" width="24" height="24" fill="none" viewBox="0 0 24 24">
  <path fill="#757575" d="M22.762 23.945c-.094 0-.227-.008-.399-.023a.66.66 0 0 1-.422-.188l-6.351-6.562a10.388 10.388 0 0 1-2.73 1.5 9.166 9.166 0 0 1-3.223.562 8.95 8.95 0 0 1-3.633-.75 9.717 9.717 0 0 1-3-2.039 9.718 9.718 0 0 1-2.04-3 9.114 9.114 0 0 1-.75-3.656c0-1.281.25-2.492.75-3.633.5-1.14 1.18-2.14 2.04-3a9.721 9.721 0 0 1 3-2.039 8.95 8.95 0 0 1 3.633-.75c1.281 0 2.5.25 3.656.75a9.698 9.698 0 0 1 5.039 5.04c.5 1.14.75 2.35.75 3.632 0 1.14-.188 2.215-.563 3.223a10.388 10.388 0 0 1-1.5 2.73l6.563 6.563a.946.946 0 0 1 .328.715c0 .273-.11.511-.328.714a.568.568 0 0 1-.398.188 4.853 4.853 0 0 1-.422.023ZM9.637 2.406a7.205 7.205 0 0 0-2.883.586c-.89.39-1.668.918-2.332 1.582A7.555 7.555 0 0 0 2.84 6.906a7.205 7.205 0 0 0-.586 2.883c0 1.031.195 1.992.586 2.883a7.48 7.48 0 0 0 1.582 2.355 7.554 7.554 0 0 0 2.332 1.582 7.465 7.465 0 0 0 2.883.563 7.352 7.352 0 0 0 2.883-.563 7.479 7.479 0 0 0 2.355-1.582 7.478 7.478 0 0 0 1.582-2.355c.375-.89.563-1.852.563-2.883a7.465 7.465 0 0 0-.563-2.883 7.553 7.553 0 0 0-1.582-2.332 7.48 7.48 0 0 0-2.355-1.582 7.097 7.097 0 0 0-2.883-.586Z"/>
</svg>
